<svg xmlns="http://www.w3.org/2000/svg" xmlns:xlink="http://www.w3.org/1999/xlink" width="920" zoomAndPan="magnify" viewBox="0 0 690 73.499998" height="98" preserveAspectRatio="xMidYMid meet" version="1.0"><defs><g/><clipPath id="a40061d5e1"><path d="M 2.792969 0.574219 L 223.9375 0.574219 L 223.9375 42.21875 L 2.792969 42.21875 Z M 2.792969 0.574219 " clip-rule="nonzero"/></clipPath><clipPath id="c5e3165acd"><path d="M 98 33 L 128.671875 33 L 128.671875 72.746094 L 98 72.746094 Z M 98 33 " clip-rule="nonzero"/></clipPath><clipPath id="a21bd0833b"><path d="M 292.164062 4 L 317.574219 4 L 317.574219 44.222656 L 292.164062 44.222656 Z M 292.164062 4 " clip-rule="nonzero"/></clipPath></defs><g clip-path="url(#a40061d5e1)"><path fill="#f23838" d="M 203.140625 42.082031 L 23.613281 42.082031 C 12.113281 42.082031 2.792969 32.789062 2.792969 21.328125 C 2.792969 9.863281 12.113281 0.574219 23.613281 0.574219 L 203.140625 0.574219 C 214.640625 0.574219 223.960938 9.863281 223.960938 21.328125 C 223.960938 32.789062 214.640625 42.082031 203.140625 42.082031 " fill-opacity="1" fill-rule="nonzero"/></g><path fill="#ffffff" d="M 109.59375 71.886719 L 99.609375 57.308594 C 98.6875 55.960938 99.019531 54.125 100.355469 53.1875 C 101.617188 52.304688 103.347656 52.519531 104.351562 53.6875 L 106.675781 56.390625 L 106.675781 36.460938 C 106.675781 35.039062 107.832031 33.886719 109.257812 33.886719 C 110.683594 33.886719 111.839844 35.039062 111.839844 36.460938 L 111.839844 48.09375 L 112.1875 46.753906 C 112.246094 46.527344 112.320312 46.296875 112.429688 46.089844 C 112.921875 45.128906 113.714844 44.824219 114.476562 44.765625 C 114.539062 44.757812 114.601562 44.757812 114.664062 44.757812 L 114.847656 44.769531 C 115.636719 44.828125 116.34375 45.273438 116.730469 45.957031 C 117.085938 46.585938 117.277344 47.296875 117.285156 48.015625 C 117.292969 48.625 117.292969 49.523438 117.292969 49.523438 L 117.398438 49.179688 C 117.542969 48.699219 117.816406 48.257812 118.214844 47.957031 C 118.605469 47.660156 119.082031 47.488281 119.589844 47.46875 L 119.769531 47.457031 C 120.671875 47.425781 121.519531 47.898438 121.957031 48.6875 L 121.972656 48.707031 C 122.175781 49.074219 122.277344 49.476562 122.273438 49.882812 C 122.269531 50.257812 122.269531 51.242188 122.269531 51.242188 L 122.613281 50.820312 C 122.929688 50.425781 123.339844 50.109375 123.824219 49.957031 C 124.097656 49.867188 124.390625 49.824219 124.6875 49.832031 L 124.734375 49.835938 C 125.882812 49.859375 126.890625 50.613281 127.230469 51.707031 L 127.242188 51.742188 C 127.53125 52.667969 127.671875 53.621094 127.65625 54.582031 C 127.617188 57.5625 127.382812 63.574219 123.941406 71.886719 L 109.59375 71.886719 " fill-opacity="1" fill-rule="nonzero"/><g clip-path="url(#c5e3165acd)"><path fill="#111111" d="M 123.105469 71.03125 L 110.535156 71.03125 C 110.230469 71.03125 109.941406 70.878906 109.769531 70.628906 L 100.375 56.90625 C 99.75 55.992188 99.851562 54.722656 100.699219 54.011719 C 101.609375 53.242188 102.9375 53.363281 103.695312 54.246094 L 105.847656 56.75 C 106.425781 57.421875 107.535156 57.015625 107.535156 56.128906 L 107.535156 36.527344 C 107.535156 35.699219 108.097656 34.933594 108.914062 34.777344 C 110.011719 34.5625 110.980469 35.402344 110.980469 36.460938 L 110.980469 49.394531 C 110.980469 49.894531 111.320312 50.355469 111.816406 50.4375 C 112.445312 50.539062 112.988281 50.058594 112.988281 49.449219 L 112.988281 47.050781 L 113.023438 46.96875 C 113.074219 46.761719 113.132812 46.605469 113.195312 46.480469 C 113.484375 45.917969 113.921875 45.652344 114.613281 45.617188 C 114.621094 45.617188 114.628906 45.617188 114.636719 45.617188 L 114.785156 45.625 C 115.273438 45.660156 115.71875 45.929688 115.964844 46.351562 C 116.257812 46.859375 116.417969 47.441406 116.425781 48.027344 C 116.429688 48.628906 116.429688 49.523438 116.429688 49.523438 L 116.429688 51.996094 C 116.429688 52.5 116.777344 52.96875 117.277344 53.046875 C 117.910156 53.148438 118.460938 52.664062 118.460938 52.050781 L 118.460938 48.9375 C 118.542969 48.820312 118.632812 48.71875 118.738281 48.640625 C 118.992188 48.445312 119.300781 48.335938 119.621094 48.324219 L 119.804688 48.316406 C 120.386719 48.296875 120.921875 48.59375 121.21875 49.125 C 121.347656 49.355469 121.414062 49.617188 121.410156 49.875 C 121.40625 50.25 121.40625 51.242188 121.40625 51.242188 L 121.40625 53.8125 C 121.40625 54.375 121.863281 54.828125 122.425781 54.828125 C 122.988281 54.828125 123.445312 54.375 123.445312 53.8125 L 123.445312 51.179688 C 123.609375 51.019531 123.824219 50.859375 124.085938 50.773438 C 124.273438 50.714844 124.472656 50.6875 124.667969 50.691406 L 124.71875 50.691406 C 125.496094 50.707031 126.179688 51.21875 126.410156 51.960938 L 126.421875 52 C 126.683594 52.835938 126.808594 53.703125 126.796875 54.582031 C 126.765625 56.835938 126.675781 62.675781 123.457031 70.789062 C 123.402344 70.933594 123.261719 71.03125 123.105469 71.03125 Z M 128.066406 51.488281 L 128.050781 51.449219 C 127.605469 50.003906 126.277344 49.007812 124.757812 48.976562 L 124.703125 48.972656 C 124.320312 48.96875 123.933594 49.019531 123.5625 49.140625 C 123.398438 49.191406 123.242188 49.257812 123.089844 49.332031 C 123.03125 48.996094 122.921875 48.667969 122.753906 48.351562 C 122.15625 47.203125 120.890625 46.554688 119.59375 46.605469 L 119.554688 46.609375 C 119.019531 46.628906 118.503906 46.777344 118.042969 47.042969 C 117.925781 46.460938 117.703125 45.902344 117.394531 45.390625 C 116.863281 44.523438 115.929688 43.976562 114.910156 43.914062 L 114.664062 43.898438 C 114.578125 43.898438 114.492188 43.902344 114.410156 43.90625 C 113.75 43.960938 113.179688 44.15625 112.703125 44.488281 L 112.703125 36.578125 C 112.703125 34.835938 111.445312 33.277344 109.710938 33.054688 C 107.609375 32.789062 105.8125 34.417969 105.8125 36.460938 L 105.8125 54.070312 L 105.105469 53.25 C 103.898438 51.84375 101.847656 51.367188 100.222656 52.261719 C 98.214844 53.367188 97.636719 55.953125 98.898438 57.792969 L 108.65625 72.042969 C 108.957031 72.484375 109.457031 72.746094 109.992188 72.746094 L 123.507812 72.746094 C 124.121094 72.746094 124.671875 72.375 124.902344 71.808594 C 124.925781 71.753906 124.945312 71.707031 124.957031 71.679688 C 128.386719 63.15625 128.484375 56.996094 128.519531 54.621094 C 128.535156 53.558594 128.382812 52.5 128.066406 51.488281 " fill-opacity="1" fill-rule="nonzero"/></g><path fill="#ffffff" d="M 25.578125 18.855469 L 27.761719 18.855469 C 29.09375 18.855469 29.945312 18.796875 30.308594 18.679688 C 30.667969 18.5625 30.964844 18.328125 31.191406 17.972656 C 31.417969 17.617188 31.53125 17.144531 31.53125 16.558594 C 31.53125 15.992188 31.417969 15.539062 31.191406 15.195312 C 30.964844 14.855469 30.660156 14.617188 30.269531 14.488281 C 29.996094 14.402344 29.199219 14.355469 27.878906 14.355469 L 25.578125 14.355469 Z M 22.640625 29.082031 L 22.640625 11.359375 L 28.839844 11.359375 C 30.425781 11.359375 31.558594 11.515625 32.234375 11.835938 C 32.914062 12.15625 33.472656 12.707031 33.910156 13.492188 C 34.347656 14.277344 34.5625 15.21875 34.5625 16.3125 C 34.5625 17.703125 34.230469 18.816406 33.5625 19.664062 C 32.898438 20.507812 31.949219 21.042969 30.71875 21.261719 C 31.351562 21.710938 31.871094 22.203125 32.285156 22.738281 C 32.695312 23.277344 33.257812 24.238281 33.96875 25.625 L 35.742188 29.082031 L 32.230469 29.082031 L 30.097656 25.226562 C 29.332031 23.832031 28.808594 22.957031 28.535156 22.609375 C 28.261719 22.257812 27.972656 22.015625 27.660156 21.882812 C 27.355469 21.75 26.863281 21.683594 26.183594 21.683594 L 25.578125 21.683594 L 25.578125 29.082031 L 22.640625 29.082031 " fill-opacity="1" fill-rule="nonzero"/><path fill="#ffffff" d="M 37.339844 29.082031 L 37.339844 11.359375 L 48.160156 11.359375 L 48.160156 14.355469 L 40.277344 14.355469 L 40.277344 18.285156 L 47.601562 18.285156 L 47.601562 21.273438 L 40.277344 21.273438 L 40.277344 26.082031 L 48.429688 26.082031 L 48.429688 29.082031 L 37.339844 29.082031 " fill-opacity="1" fill-rule="nonzero"/><path fill="#ffffff" d="M 57.707031 22.578125 L 57.707031 19.578125 L 64.050781 19.578125 L 64.050781 26.640625 C 63.410156 27.390625 62.503906 28.035156 61.332031 28.574219 C 60.160156 29.113281 58.984375 29.382812 57.800781 29.382812 C 56.363281 29.382812 55.09375 29.035156 53.992188 28.328125 C 52.894531 27.621094 52.023438 26.566406 51.378906 25.160156 C 50.738281 23.753906 50.417969 22.097656 50.417969 20.195312 C 50.417969 18.246094 50.742188 16.578125 51.394531 15.191406 C 52.042969 13.804688 52.886719 12.769531 53.925781 12.082031 C 54.964844 11.398438 56.210938 11.054688 57.65625 11.054688 C 59.394531 11.054688 60.789062 11.496094 61.835938 12.378906 C 62.882812 13.261719 63.554688 14.558594 63.855469 16.265625 L 60.945312 16.929688 C 60.726562 16.019531 60.324219 15.324219 59.742188 14.839844 C 59.160156 14.355469 58.464844 14.113281 57.65625 14.113281 C 56.402344 14.113281 55.390625 14.601562 54.613281 15.570312 C 53.835938 16.542969 53.449219 18.023438 53.449219 20.015625 C 53.449219 22.152344 53.867188 23.773438 54.710938 24.886719 C 55.429688 25.847656 56.402344 26.324219 57.632812 26.324219 C 58.207031 26.324219 58.804688 26.191406 59.421875 25.921875 C 60.039062 25.652344 60.59375 25.285156 61.078125 24.820312 L 61.078125 22.578125 L 57.707031 22.578125 " fill-opacity="1" fill-rule="nonzero"/><path fill="#ffffff" d="M 66.683594 29.082031 L 66.683594 11.359375 L 69.617188 11.359375 L 69.617188 29.082031 L 66.683594 29.082031 " fill-opacity="1" fill-rule="nonzero"/><path fill="#ffffff" d="M 71.691406 23.304688 L 74.5625 22.964844 C 74.886719 25.230469 75.945312 26.363281 77.742188 26.363281 C 78.632812 26.363281 79.332031 26.128906 79.839844 25.667969 C 80.347656 25.203125 80.605469 24.628906 80.605469 23.945312 C 80.605469 23.542969 80.515625 23.199219 80.339844 22.917969 C 80.160156 22.636719 79.890625 22.402344 79.523438 22.222656 C 79.160156 22.042969 78.277344 21.738281 76.882812 21.3125 C 75.628906 20.933594 74.710938 20.523438 74.128906 20.078125 C 73.546875 19.636719 73.082031 19.054688 72.738281 18.335938 C 72.394531 17.613281 72.222656 16.839844 72.222656 16.007812 C 72.222656 15.042969 72.445312 14.171875 72.886719 13.398438 C 73.324219 12.625 73.933594 12.042969 74.710938 11.648438 C 75.484375 11.253906 76.445312 11.054688 77.585938 11.054688 C 79.300781 11.054688 80.636719 11.519531 81.597656 12.445312 C 82.5625 13.375 83.070312 14.699219 83.128906 16.421875 L 80.179688 16.582031 C 80.050781 15.628906 79.769531 14.964844 79.34375 14.585938 C 78.914062 14.207031 78.304688 14.015625 77.511719 14.015625 C 76.71875 14.015625 76.109375 14.183594 75.679688 14.511719 C 75.25 14.839844 75.035156 15.25 75.035156 15.742188 C 75.035156 16.222656 75.230469 16.628906 75.621094 16.957031 C 76.007812 17.289062 76.90625 17.648438 78.300781 18.046875 C 79.78125 18.472656 80.851562 18.921875 81.507812 19.394531 C 82.167969 19.867188 82.671875 20.472656 83.019531 21.21875 C 83.367188 21.964844 83.539062 22.867188 83.539062 23.933594 C 83.539062 25.472656 83.066406 26.765625 82.113281 27.8125 C 81.164062 28.863281 79.679688 29.382812 77.660156 29.382812 C 74.082031 29.382812 72.09375 27.355469 71.691406 23.304688 " fill-opacity="1" fill-rule="nonzero"/><path fill="#ffffff" d="M 89.300781 29.082031 L 89.300781 14.355469 L 84.972656 14.355469 L 84.972656 11.359375 L 96.554688 11.359375 L 96.554688 14.355469 L 92.234375 14.355469 L 92.234375 29.082031 L 89.300781 29.082031 " fill-opacity="1" fill-rule="nonzero"/><path fill="#ffffff" d="M 98.46875 29.082031 L 98.46875 11.359375 L 109.289062 11.359375 L 109.289062 14.355469 L 101.40625 14.355469 L 101.40625 18.285156 L 108.730469 18.285156 L 108.730469 21.273438 L 101.40625 21.273438 L 101.40625 26.082031 L 109.554688 26.082031 L 109.554688 29.082031 L 98.46875 29.082031 " fill-opacity="1" fill-rule="nonzero"/><path fill="#ffffff" d="M 114.992188 18.855469 L 117.171875 18.855469 C 118.507812 18.855469 119.355469 18.796875 119.71875 18.679688 C 120.082031 18.5625 120.378906 18.328125 120.605469 17.972656 C 120.832031 17.617188 120.945312 17.144531 120.945312 16.558594 C 120.945312 15.992188 120.832031 15.539062 120.605469 15.195312 C 120.378906 14.855469 120.070312 14.617188 119.683594 14.488281 C 119.40625 14.402344 118.609375 14.355469 117.292969 14.355469 L 114.992188 14.355469 Z M 112.054688 29.082031 L 112.054688 11.359375 L 118.253906 11.359375 C 119.835938 11.359375 120.96875 11.515625 121.648438 11.835938 C 122.328125 12.15625 122.886719 12.707031 123.320312 13.492188 C 123.757812 14.277344 123.976562 15.21875 123.976562 16.3125 C 123.976562 17.703125 123.644531 18.816406 122.976562 19.664062 C 122.308594 20.507812 121.363281 21.042969 120.132812 21.261719 C 120.761719 21.710938 121.285156 22.203125 121.695312 22.738281 C 122.109375 23.277344 122.671875 24.238281 123.382812 25.625 L 125.152344 29.082031 L 121.640625 29.082031 L 119.511719 25.226562 C 118.746094 23.832031 118.222656 22.957031 117.949219 22.609375 C 117.671875 22.257812 117.382812 22.015625 117.074219 21.882812 C 116.769531 21.75 116.273438 21.683594 115.597656 21.683594 L 114.992188 21.683594 L 114.992188 29.082031 L 112.054688 29.082031 " fill-opacity="1" fill-rule="nonzero"/><path fill="#ffffff" d="M 137.042969 29.082031 L 137.042969 11.359375 L 139.902344 11.359375 L 145.871094 23.195312 L 145.871094 11.359375 L 148.613281 11.359375 L 148.613281 29.082031 L 145.652344 29.082031 L 139.78125 17.523438 L 139.78125 29.082031 L 137.042969 29.082031 " fill-opacity="1" fill-rule="nonzero"/><path fill="#ffffff" d="M 154.144531 20.207031 C 154.144531 22.246094 154.53125 23.777344 155.308594 24.796875 C 156.085938 25.816406 157.050781 26.324219 158.199219 26.324219 C 159.359375 26.324219 160.316406 25.820312 161.078125 24.808594 C 161.839844 23.796875 162.21875 22.242188 162.21875 20.148438 C 162.21875 18.09375 161.851562 16.574219 161.109375 15.589844 C 160.367188 14.605469 159.398438 14.113281 158.199219 14.113281 C 157 14.113281 156.027344 14.609375 155.273438 15.601562 C 154.519531 16.59375 154.144531 18.128906 154.144531 20.207031 Z M 151.113281 20.328125 C 151.113281 18.21875 151.425781 16.480469 152.050781 15.113281 C 152.675781 13.746094 153.496094 12.730469 154.507812 12.058594 C 155.519531 11.390625 156.742188 11.054688 158.183594 11.054688 C 160.269531 11.054688 161.96875 11.847656 163.28125 13.4375 C 164.597656 15.027344 165.253906 17.285156 165.253906 20.222656 C 165.253906 23.1875 164.558594 25.503906 163.167969 27.171875 C 161.945312 28.648438 160.289062 29.382812 158.195312 29.382812 C 156.082031 29.382812 154.417969 28.65625 153.195312 27.195312 C 151.804688 25.527344 151.113281 23.238281 151.113281 20.328125 " fill-opacity="1" fill-rule="nonzero"/><path fill="#ffffff" d="M 169.632812 29.082031 L 166.136719 11.359375 L 169.160156 11.359375 L 171.347656 23.539062 L 174.011719 11.359375 L 177.519531 11.359375 L 180.082031 23.742188 L 182.332031 11.359375 L 185.289062 11.359375 L 181.75 29.082031 L 178.617188 29.082031 L 175.703125 15.828125 L 172.816406 29.082031 L 169.632812 29.082031 " fill-opacity="1" fill-rule="nonzero"/><path fill="#ffffff" d="M 198.160156 11.359375 L 194.464844 11.359375 L 200.414062 20.222656 L 194.464844 29.082031 L 198.160156 29.082031 L 204.109375 20.222656 L 198.160156 11.359375 " fill-opacity="1" fill-rule="nonzero"/><g clip-path="url(#a21bd0833b)"><path fill="#c92a2a" d="M 304.914062 44.222656 C 303.976562 39.714844 302.320312 35.964844 300.320312 32.484375 C 298.832031 29.90625 297.113281 27.527344 295.519531 25.023438 C 294.988281 24.1875 294.53125 23.308594 294.019531 22.441406 C 292.996094 20.707031 292.167969 18.699219 292.222656 16.09375 C 292.273438 13.546875 293.023438 11.503906 294.109375 9.832031 C 295.894531 7.085938 298.878906 4.835938 302.890625 4.242188 C 306.167969 3.757812 309.238281 4.578125 311.417969 5.824219 C 313.199219 6.84375 314.578125 8.207031 315.625 9.8125 C 316.71875 11.488281 317.472656 13.464844 317.535156 16.046875 C 317.570312 17.371094 317.347656 18.597656 317.035156 19.613281 C 316.722656 20.640625 316.214844 21.5 315.761719 22.417969 C 314.882812 24.210938 313.777344 25.851562 312.667969 27.496094 C 309.367188 32.390625 306.269531 37.382812 304.914062 44.222656 Z M 304.914062 44.222656 " fill-opacity="1" fill-rule="evenodd"/></g><path fill="#ffffff" d="M 309.316406 16.066406 C 309.316406 16.351562 309.285156 16.632812 309.230469 16.910156 C 309.171875 17.191406 309.089844 17.464844 308.976562 17.726562 C 308.867188 17.992188 308.730469 18.242188 308.566406 18.476562 C 308.40625 18.714844 308.222656 18.933594 308.015625 19.136719 C 307.808594 19.335938 307.585938 19.519531 307.34375 19.675781 C 307.101562 19.835938 306.847656 19.96875 306.578125 20.078125 C 306.308594 20.1875 306.03125 20.269531 305.746094 20.324219 C 305.460938 20.378906 305.171875 20.40625 304.878906 20.40625 C 304.589844 20.40625 304.300781 20.378906 304.015625 20.324219 C 303.730469 20.269531 303.453125 20.1875 303.183594 20.078125 C 302.914062 19.96875 302.65625 19.835938 302.414062 19.675781 C 302.171875 19.519531 301.949219 19.335938 301.742188 19.136719 C 301.539062 18.933594 301.351562 18.714844 301.191406 18.476562 C 301.03125 18.242188 300.894531 17.992188 300.78125 17.726562 C 300.671875 17.464844 300.585938 17.191406 300.53125 16.910156 C 300.472656 16.632812 300.445312 16.351562 300.445312 16.066406 C 300.445312 15.78125 300.472656 15.496094 300.53125 15.21875 C 300.585938 14.9375 300.671875 14.664062 300.78125 14.402344 C 300.894531 14.140625 301.03125 13.886719 301.191406 13.652344 C 301.351562 13.414062 301.539062 13.195312 301.742188 12.992188 C 301.949219 12.792969 302.171875 12.613281 302.414062 12.453125 C 302.65625 12.292969 302.914062 12.160156 303.183594 12.050781 C 303.453125 11.941406 303.730469 11.859375 304.015625 11.804688 C 304.300781 11.75 304.589844 11.722656 304.878906 11.722656 C 305.171875 11.722656 305.460938 11.75 305.746094 11.804688 C 306.03125 11.859375 306.308594 11.941406 306.578125 12.050781 C 306.847656 12.160156 307.101562 12.292969 307.34375 12.453125 C 307.585938 12.613281 307.808594 12.792969 308.015625 12.992188 C 308.222656 13.195312 308.40625 13.414062 308.566406 13.652344 C 308.730469 13.886719 308.867188 14.140625 308.976562 14.402344 C 309.089844 14.664062 309.171875 14.9375 309.230469 15.21875 C 309.285156 15.496094 309.316406 15.78125 309.316406 16.066406 Z M 309.316406 16.066406 " fill-opacity="1" fill-rule="nonzero"/><g fill="#ffffff" fill-opacity="1"><g transform="translate(328.314546, 34.411594)"><g><path d="M 20.671875 -11.328125 C 20.671875 -10.335938 20.535156 -9.457031 20.265625 -8.6875 C 20.003906 -7.925781 19.65625 -7.265625 19.21875 -6.703125 C 18.789062 -6.140625 18.3125 -5.671875 17.78125 -5.296875 C 17.257812 -4.929688 16.742188 -4.632812 16.234375 -4.40625 C 15.722656 -4.1875 15.242188 -4.023438 14.796875 -3.921875 C 14.347656 -3.828125 14.003906 -3.78125 13.765625 -3.78125 C 13.410156 -3.78125 13.09375 -3.882812 12.8125 -4.09375 C 12.539062 -4.3125 12.394531 -4.644531 12.375 -5.09375 L 12.328125 -5.09375 C 12.003906 -4.726562 11.601562 -4.414062 11.125 -4.15625 C 10.644531 -3.90625 10.128906 -3.78125 9.578125 -3.78125 C 9.035156 -3.78125 8.507812 -3.90625 8 -4.15625 C 7.5 -4.414062 7.054688 -4.773438 6.671875 -5.234375 C 6.285156 -5.703125 5.976562 -6.253906 5.75 -6.890625 C 5.519531 -7.523438 5.40625 -8.226562 5.40625 -9 C 5.40625 -9.707031 5.53125 -10.382812 5.78125 -11.03125 C 6.03125 -11.6875 6.378906 -12.265625 6.828125 -12.765625 C 7.273438 -13.273438 7.816406 -13.679688 8.453125 -13.984375 C 9.085938 -14.285156 9.789062 -14.4375 10.5625 -14.4375 C 11.226562 -14.4375 11.84375 -14.3125 12.40625 -14.0625 C 12.96875 -13.820312 13.4375 -13.425781 13.8125 -12.875 L 14.046875 -14.171875 L 16.625 -14.171875 L 15.703125 -8.5 C 15.628906 -8.132812 15.5625 -7.832031 15.5 -7.59375 C 15.4375 -7.351562 15.40625 -7.160156 15.40625 -7.015625 C 15.40625 -6.859375 15.421875 -6.734375 15.453125 -6.640625 C 15.492188 -6.546875 15.601562 -6.5 15.78125 -6.5 C 16.03125 -6.5 16.285156 -6.570312 16.546875 -6.71875 C 16.816406 -6.875 17.066406 -7.113281 17.296875 -7.4375 C 17.523438 -7.757812 17.710938 -8.171875 17.859375 -8.671875 C 18.003906 -9.171875 18.078125 -9.773438 18.078125 -10.484375 C 18.085938 -11.453125 17.953125 -12.316406 17.671875 -13.078125 C 17.398438 -13.847656 16.976562 -14.492188 16.40625 -15.015625 C 15.84375 -15.535156 15.117188 -15.929688 14.234375 -16.203125 C 13.359375 -16.484375 12.316406 -16.625 11.109375 -16.625 C 10.054688 -16.625 9.09375 -16.441406 8.21875 -16.078125 C 7.351562 -15.722656 6.613281 -15.222656 6 -14.578125 C 5.394531 -13.929688 4.925781 -13.164062 4.59375 -12.28125 C 4.257812 -11.394531 4.09375 -10.429688 4.09375 -9.390625 C 4.09375 -8.234375 4.269531 -7.210938 4.625 -6.328125 C 4.976562 -5.453125 5.476562 -4.710938 6.125 -4.109375 C 6.769531 -3.515625 7.539062 -3.0625 8.4375 -2.75 C 9.34375 -2.445312 10.347656 -2.296875 11.453125 -2.296875 C 12.597656 -2.296875 13.597656 -2.425781 14.453125 -2.6875 C 15.304688 -2.945312 16.03125 -3.28125 16.625 -3.6875 L 19.390625 -3.6875 C 18.421875 -2.375 17.273438 -1.378906 15.953125 -0.703125 C 14.628906 -0.0234375 13.140625 0.3125 11.484375 0.3125 C 9.992188 0.3125 8.609375 0.0703125 7.328125 -0.40625 C 6.054688 -0.894531 4.953125 -1.570312 4.015625 -2.4375 C 3.078125 -3.3125 2.335938 -4.34375 1.796875 -5.53125 C 1.265625 -6.726562 1 -8.039062 1 -9.46875 C 1 -10.863281 1.253906 -12.15625 1.765625 -13.34375 C 2.273438 -14.53125 2.984375 -15.5625 3.890625 -16.4375 C 4.804688 -17.3125 5.894531 -17.992188 7.15625 -18.484375 C 8.425781 -18.984375 9.816406 -19.234375 11.328125 -19.234375 C 12.578125 -19.234375 13.765625 -19.046875 14.890625 -18.671875 C 16.023438 -18.304688 17.019531 -17.78125 17.875 -17.09375 C 18.738281 -16.414062 19.421875 -15.585938 19.921875 -14.609375 C 20.421875 -13.640625 20.671875 -12.546875 20.671875 -11.328125 Z M 13.125 -9.3125 C 13.125 -10.050781 12.921875 -10.65625 12.515625 -11.125 C 12.117188 -11.601562 11.570312 -11.84375 10.875 -11.84375 C 10.488281 -11.84375 10.132812 -11.757812 9.8125 -11.59375 C 9.5 -11.425781 9.234375 -11.207031 9.015625 -10.9375 C 8.804688 -10.664062 8.640625 -10.351562 8.515625 -10 C 8.398438 -9.65625 8.34375 -9.304688 8.34375 -8.953125 C 8.34375 -8.585938 8.390625 -8.25 8.484375 -7.9375 C 8.585938 -7.625 8.734375 -7.351562 8.921875 -7.125 C 9.117188 -6.894531 9.359375 -6.710938 9.640625 -6.578125 C 9.929688 -6.453125 10.265625 -6.390625 10.640625 -6.390625 C 11.035156 -6.390625 11.382812 -6.460938 11.6875 -6.609375 C 12 -6.753906 12.257812 -6.957031 12.46875 -7.21875 C 12.6875 -7.476562 12.847656 -7.785156 12.953125 -8.140625 C 13.066406 -8.503906 13.125 -8.894531 13.125 -9.3125 Z M 13.125 -9.3125 "/></g></g></g><g fill="#ffffff" fill-opacity="1"><g transform="translate(349.993029, 34.411594)"><g><path d="M 6.546875 0.078125 C 5.535156 0.0859375 4.664062 -0.00390625 3.9375 -0.203125 C 3.21875 -0.410156 2.625 -0.703125 2.15625 -1.078125 C 1.6875 -1.453125 1.335938 -1.914062 1.109375 -2.46875 C 0.878906 -3.03125 0.765625 -3.664062 0.765625 -4.375 C 0.765625 -5 0.863281 -5.554688 1.0625 -6.046875 C 1.269531 -6.535156 1.53125 -6.957031 1.84375 -7.3125 C 2.15625 -7.675781 2.503906 -7.972656 2.890625 -8.203125 C 3.273438 -8.429688 3.648438 -8.597656 4.015625 -8.703125 L 4.015625 -8.734375 C 3.703125 -8.804688 3.378906 -8.929688 3.046875 -9.109375 C 2.710938 -9.285156 2.40625 -9.519531 2.125 -9.8125 C 1.851562 -10.101562 1.628906 -10.453125 1.453125 -10.859375 C 1.285156 -11.265625 1.203125 -11.726562 1.203125 -12.25 C 1.203125 -12.800781 1.304688 -13.3125 1.515625 -13.78125 C 1.734375 -14.25 2.039062 -14.65625 2.4375 -15 C 2.832031 -15.34375 3.320312 -15.613281 3.90625 -15.8125 C 4.488281 -16.007812 5.15625 -16.101562 5.90625 -16.09375 L 8.46875 -16.046875 L 8.46875 -13.09375 C 7.53125 -13.132812 6.757812 -13.03125 6.15625 -12.78125 C 5.550781 -12.539062 5.25 -12.132812 5.25 -11.5625 C 5.25 -11.21875 5.347656 -10.941406 5.546875 -10.734375 C 5.742188 -10.523438 5.992188 -10.363281 6.296875 -10.25 C 6.609375 -10.144531 6.953125 -10.082031 7.328125 -10.0625 C 7.710938 -10.039062 8.09375 -10.046875 8.46875 -10.078125 L 8.46875 -7.3125 C 8.007812 -7.351562 7.570312 -7.332031 7.15625 -7.25 C 6.738281 -7.175781 6.363281 -7.039062 6.03125 -6.84375 C 5.695312 -6.65625 5.429688 -6.414062 5.234375 -6.125 C 5.035156 -5.832031 4.9375 -5.488281 4.9375 -5.09375 C 4.9375 -4.582031 5.035156 -4.179688 5.234375 -3.890625 C 5.441406 -3.597656 5.710938 -3.378906 6.046875 -3.234375 C 6.378906 -3.085938 6.753906 -3 7.171875 -2.96875 C 7.585938 -2.9375 8.003906 -2.925781 8.421875 -2.9375 L 11.15625 -3.015625 L 11.15625 -16.046875 L 15.09375 -16.046875 L 15.09375 0 Z M 6.546875 0.078125 "/></g></g></g><g fill="#ffffff" fill-opacity="1"><g transform="translate(366.281293, 34.411594)"><g><path d="M -1.203125 -19.625 C -1.203125 -19.125 -1.367188 -18.738281 -1.703125 -18.46875 C -2.046875 -18.207031 -2.472656 -18.078125 -2.984375 -18.078125 L -14.703125 -18.078125 L -14.703125 -20.671875 L -1.203125 -20.671875 Z M -1.203125 -19.625 "/></g></g></g><g fill="#ffffff" fill-opacity="1"><g transform="translate(366.281293, 34.411594)"><g><path d="M 15.09375 -4.40625 C 15.09375 -3.71875 14.972656 -3.085938 14.734375 -2.515625 C 14.503906 -1.953125 14.171875 -1.46875 13.734375 -1.0625 C 13.304688 -0.664062 12.785156 -0.351562 12.171875 -0.125 C 11.554688 0.09375 10.867188 0.203125 10.109375 0.203125 C 9.535156 0.203125 9.003906 0.140625 8.515625 0.015625 C 8.023438 -0.0976562 7.570312 -0.253906 7.15625 -0.453125 C 6.738281 -0.660156 6.363281 -0.894531 6.03125 -1.15625 C 5.695312 -1.425781 5.398438 -1.71875 5.140625 -2.03125 L 5.140625 0 L 1.203125 0 L 1.203125 -16.046875 L 2.875 -16.046875 C 3.570312 -16.046875 4.125 -15.863281 4.53125 -15.5 C 4.9375 -15.144531 5.140625 -14.566406 5.140625 -13.765625 L 5.140625 -6.390625 C 5.140625 -6.015625 5.21875 -5.609375 5.375 -5.171875 C 5.539062 -4.734375 5.773438 -4.328125 6.078125 -3.953125 C 6.378906 -3.585938 6.75 -3.285156 7.1875 -3.046875 C 7.625 -2.804688 8.113281 -2.6875 8.65625 -2.6875 C 9.113281 -2.6875 9.5 -2.753906 9.8125 -2.890625 C 10.132812 -3.035156 10.390625 -3.238281 10.578125 -3.5 C 10.773438 -3.769531 10.921875 -4.082031 11.015625 -4.4375 C 11.109375 -4.800781 11.15625 -5.195312 11.15625 -5.625 L 11.15625 -16.046875 L 15.09375 -16.046875 Z M 15.09375 -4.40625 "/></g></g></g><g fill="#ffffff" fill-opacity="1"><g transform="translate(382.569558, 34.411594)"><g><path d="M 13.359375 -3.609375 L 13.359375 0 L 8.65625 0 L 8.65625 -3.609375 L 0.203125 -3.609375 L 0.203125 -7.625 L 7.78125 -18.90625 L 13.359375 -18.90625 L 13.359375 -7.015625 L 16.046875 -7.015625 L 16.046875 -3.609375 Z M 9 -15.015625 L 8.953125 -15.015625 L 3.78125 -7.015625 L 9 -7.015625 Z M 9 -15.015625 "/></g></g></g><g fill="#ffffff" fill-opacity="1"><g transform="translate(399.151834, 34.411594)"><g/></g></g><g fill="#ffffff" fill-opacity="1"><g transform="translate(411.186724, 34.411594)"><g><path d="M 11 -11.234375 C 10.957031 -11.585938 10.835938 -11.898438 10.640625 -12.171875 C 10.441406 -12.441406 10.191406 -12.671875 9.890625 -12.859375 C 9.597656 -13.054688 9.253906 -13.203125 8.859375 -13.296875 C 8.460938 -13.398438 8.050781 -13.453125 7.625 -13.453125 C 7.21875 -13.453125 6.84375 -13.40625 6.5 -13.3125 C 6.164062 -13.21875 5.875 -13.09375 5.625 -12.9375 C 5.382812 -12.789062 5.195312 -12.613281 5.0625 -12.40625 C 4.925781 -12.207031 4.859375 -11.992188 4.859375 -11.765625 C 4.859375 -11.503906 5 -11.300781 5.28125 -11.15625 C 5.570312 -11.007812 5.953125 -10.890625 6.421875 -10.796875 C 6.898438 -10.703125 7.4375 -10.617188 8.03125 -10.546875 C 8.625 -10.484375 9.234375 -10.394531 9.859375 -10.28125 C 10.484375 -10.164062 11.09375 -10.007812 11.6875 -9.8125 C 12.28125 -9.625 12.8125 -9.351562 13.28125 -9 C 13.757812 -8.65625 14.140625 -8.222656 14.421875 -7.703125 C 14.710938 -7.191406 14.859375 -6.550781 14.859375 -5.78125 L 14.859375 0 L 1.203125 0 L 1.203125 -6.828125 L 5.140625 -6.828125 L 5.140625 -2.9375 L 10.921875 -2.9375 L 10.921875 -5.0625 C 10.921875 -5.570312 10.773438 -5.972656 10.484375 -6.265625 C 10.203125 -6.554688 9.820312 -6.785156 9.34375 -6.953125 C 8.875 -7.128906 8.34375 -7.253906 7.75 -7.328125 C 7.15625 -7.410156 6.546875 -7.492188 5.921875 -7.578125 C 5.296875 -7.671875 4.679688 -7.78125 4.078125 -7.90625 C 3.484375 -8.039062 2.953125 -8.242188 2.484375 -8.515625 C 2.015625 -8.796875 1.632812 -9.164062 1.34375 -9.625 C 1.0625 -10.082031 0.921875 -10.675781 0.921875 -11.40625 C 0.921875 -12.113281 1.078125 -12.765625 1.390625 -13.359375 C 1.710938 -13.960938 2.175781 -14.488281 2.78125 -14.9375 C 3.382812 -15.394531 4.117188 -15.75 4.984375 -16 C 5.859375 -16.257812 6.847656 -16.390625 7.953125 -16.390625 C 9.078125 -16.390625 10.0625 -16.253906 10.90625 -15.984375 C 11.757812 -15.722656 12.476562 -15.359375 13.0625 -14.890625 C 13.65625 -14.429688 14.113281 -13.890625 14.4375 -13.265625 C 14.757812 -12.640625 14.953125 -11.960938 15.015625 -11.234375 Z M 11 -11.234375 "/></g></g></g><g fill="#ffffff" fill-opacity="1"><g transform="translate(427.239779, 34.411594)"><g><path d="M 10.875 -11.234375 C 10.851562 -11.546875 10.757812 -11.832031 10.59375 -12.09375 C 10.425781 -12.363281 10.203125 -12.597656 9.921875 -12.796875 C 9.640625 -13.003906 9.3125 -13.164062 8.9375 -13.28125 C 8.5625 -13.394531 8.148438 -13.453125 7.703125 -13.453125 C 7.285156 -13.453125 6.90625 -13.40625 6.5625 -13.3125 C 6.226562 -13.21875 5.9375 -13.09375 5.6875 -12.9375 C 5.4375 -12.78125 5.242188 -12.597656 5.109375 -12.390625 C 4.972656 -12.179688 4.90625 -11.957031 4.90625 -11.71875 C 4.90625 -11.382812 5.046875 -11.117188 5.328125 -10.921875 C 5.609375 -10.722656 5.976562 -10.5625 6.4375 -10.4375 C 6.90625 -10.320312 7.4375 -10.222656 8.03125 -10.140625 C 8.625 -10.066406 9.226562 -9.960938 9.84375 -9.828125 C 10.457031 -9.703125 11.0625 -9.535156 11.65625 -9.328125 C 12.25 -9.117188 12.773438 -8.828125 13.234375 -8.453125 C 13.703125 -8.085938 14.078125 -7.613281 14.359375 -7.03125 C 14.640625 -6.445312 14.78125 -5.722656 14.78125 -4.859375 C 14.78125 -3.203125 14.191406 -1.925781 13.015625 -1.03125 C 11.847656 -0.132812 10.0625 0.3125 7.65625 0.3125 C 5.425781 0.3125 3.710938 -0.171875 2.515625 -1.140625 C 1.316406 -2.117188 0.71875 -3.460938 0.71875 -5.171875 L 4.75 -5.171875 C 4.75 -4.710938 4.84375 -4.320312 5.03125 -4 C 5.226562 -3.675781 5.484375 -3.40625 5.796875 -3.1875 C 6.109375 -2.976562 6.460938 -2.828125 6.859375 -2.734375 C 7.253906 -2.648438 7.644531 -2.609375 8.03125 -2.609375 C 8.4375 -2.609375 8.8125 -2.65625 9.15625 -2.75 C 9.507812 -2.851562 9.804688 -2.984375 10.046875 -3.140625 C 10.296875 -3.304688 10.488281 -3.5 10.625 -3.71875 C 10.769531 -3.945312 10.84375 -4.175781 10.84375 -4.40625 C 10.84375 -4.894531 10.703125 -5.273438 10.421875 -5.546875 C 10.140625 -5.816406 9.765625 -6.035156 9.296875 -6.203125 C 8.835938 -6.367188 8.3125 -6.5 7.71875 -6.59375 C 7.125 -6.695312 6.519531 -6.800781 5.90625 -6.90625 C 5.289062 -7.019531 4.679688 -7.164062 4.078125 -7.34375 C 3.484375 -7.519531 2.953125 -7.769531 2.484375 -8.09375 C 2.023438 -8.414062 1.65625 -8.84375 1.375 -9.375 C 1.09375 -9.90625 0.953125 -10.582031 0.953125 -11.40625 C 0.953125 -12.113281 1.113281 -12.765625 1.4375 -13.359375 C 1.757812 -13.960938 2.21875 -14.488281 2.8125 -14.9375 C 3.40625 -15.394531 4.125 -15.75 4.96875 -16 C 5.8125 -16.257812 6.765625 -16.390625 7.828125 -16.390625 C 8.972656 -16.390625 9.984375 -16.25 10.859375 -15.96875 C 11.734375 -15.695312 12.460938 -15.328125 13.046875 -14.859375 C 13.640625 -14.398438 14.082031 -13.859375 14.375 -13.234375 C 14.664062 -12.609375 14.8125 -11.941406 14.8125 -11.234375 Z M 10.875 -11.234375 "/></g></g></g><g fill="#ffffff" fill-opacity="1"><g transform="translate(442.822414, 34.411594)"><g><path d="M 10.875 -11.234375 C 10.851562 -11.546875 10.757812 -11.832031 10.59375 -12.09375 C 10.425781 -12.363281 10.203125 -12.597656 9.921875 -12.796875 C 9.640625 -13.003906 9.3125 -13.164062 8.9375 -13.28125 C 8.5625 -13.394531 8.148438 -13.453125 7.703125 -13.453125 C 7.285156 -13.453125 6.90625 -13.40625 6.5625 -13.3125 C 6.226562 -13.21875 5.9375 -13.09375 5.6875 -12.9375 C 5.4375 -12.78125 5.242188 -12.597656 5.109375 -12.390625 C 4.972656 -12.179688 4.90625 -11.957031 4.90625 -11.71875 C 4.90625 -11.382812 5.046875 -11.117188 5.328125 -10.921875 C 5.609375 -10.722656 5.976562 -10.5625 6.4375 -10.4375 C 6.90625 -10.320312 7.4375 -10.222656 8.03125 -10.140625 C 8.625 -10.066406 9.226562 -9.960938 9.84375 -9.828125 C 10.457031 -9.703125 11.0625 -9.535156 11.65625 -9.328125 C 12.25 -9.117188 12.773438 -8.828125 13.234375 -8.453125 C 13.703125 -8.085938 14.078125 -7.613281 14.359375 -7.03125 C 14.640625 -6.445312 14.78125 -5.722656 14.78125 -4.859375 C 14.78125 -3.203125 14.191406 -1.925781 13.015625 -1.03125 C 11.847656 -0.132812 10.0625 0.3125 7.65625 0.3125 C 5.425781 0.3125 3.710938 -0.171875 2.515625 -1.140625 C 1.316406 -2.117188 0.71875 -3.460938 0.71875 -5.171875 L 4.75 -5.171875 C 4.75 -4.710938 4.84375 -4.320312 5.03125 -4 C 5.226562 -3.675781 5.484375 -3.40625 5.796875 -3.1875 C 6.109375 -2.976562 6.460938 -2.828125 6.859375 -2.734375 C 7.253906 -2.648438 7.644531 -2.609375 8.03125 -2.609375 C 8.4375 -2.609375 8.8125 -2.65625 9.15625 -2.75 C 9.507812 -2.851562 9.804688 -2.984375 10.046875 -3.140625 C 10.296875 -3.304688 10.488281 -3.5 10.625 -3.71875 C 10.769531 -3.945312 10.84375 -4.175781 10.84375 -4.40625 C 10.84375 -4.894531 10.703125 -5.273438 10.421875 -5.546875 C 10.140625 -5.816406 9.765625 -6.035156 9.296875 -6.203125 C 8.835938 -6.367188 8.3125 -6.5 7.71875 -6.59375 C 7.125 -6.695312 6.519531 -6.800781 5.90625 -6.90625 C 5.289062 -7.019531 4.679688 -7.164062 4.078125 -7.34375 C 3.484375 -7.519531 2.953125 -7.769531 2.484375 -8.09375 C 2.023438 -8.414062 1.65625 -8.84375 1.375 -9.375 C 1.09375 -9.90625 0.953125 -10.582031 0.953125 -11.40625 C 0.953125 -12.113281 1.113281 -12.765625 1.4375 -13.359375 C 1.757812 -13.960938 2.21875 -14.488281 2.8125 -14.9375 C 3.40625 -15.394531 4.125 -15.75 4.96875 -16 C 5.8125 -16.257812 6.765625 -16.390625 7.828125 -16.390625 C 8.972656 -16.390625 9.984375 -16.25 10.859375 -15.96875 C 11.734375 -15.695312 12.460938 -15.328125 13.046875 -14.859375 C 13.640625 -14.398438 14.082031 -13.859375 14.375 -13.234375 C 14.664062 -12.609375 14.8125 -11.941406 14.8125 -11.234375 Z M 10.875 -11.234375 "/></g></g></g><g fill="#ffffff" fill-opacity="1"><g transform="translate(458.405049, 34.411594)"><g><path d="M 15.09375 -4.40625 C 15.09375 -3.71875 14.972656 -3.085938 14.734375 -2.515625 C 14.503906 -1.953125 14.171875 -1.46875 13.734375 -1.0625 C 13.304688 -0.664062 12.785156 -0.351562 12.171875 -0.125 C 11.554688 0.09375 10.867188 0.203125 10.109375 0.203125 C 9.535156 0.203125 9.003906 0.140625 8.515625 0.015625 C 8.023438 -0.0976562 7.570312 -0.253906 7.15625 -0.453125 C 6.738281 -0.660156 6.363281 -0.894531 6.03125 -1.15625 C 5.695312 -1.425781 5.398438 -1.71875 5.140625 -2.03125 L 5.140625 0 L 1.203125 0 L 1.203125 -16.046875 L 2.875 -16.046875 C 3.570312 -16.046875 4.125 -15.863281 4.53125 -15.5 C 4.9375 -15.144531 5.140625 -14.566406 5.140625 -13.765625 L 5.140625 -6.390625 C 5.140625 -6.015625 5.21875 -5.609375 5.375 -5.171875 C 5.539062 -4.734375 5.773438 -4.328125 6.078125 -3.953125 C 6.378906 -3.585938 6.75 -3.285156 7.1875 -3.046875 C 7.625 -2.804688 8.113281 -2.6875 8.65625 -2.6875 C 9.113281 -2.6875 9.5 -2.753906 9.8125 -2.890625 C 10.132812 -3.035156 10.390625 -3.238281 10.578125 -3.5 C 10.773438 -3.769531 10.921875 -4.082031 11.015625 -4.4375 C 11.109375 -4.800781 11.15625 -5.195312 11.15625 -5.625 L 11.15625 -16.046875 L 15.09375 -16.046875 Z M 15.09375 -4.40625 "/></g></g></g><g fill="#ffffff" fill-opacity="1"><g transform="translate(474.693314, 34.411594)"><g><path d="M 16.28125 -17.265625 C 16.257812 -17.046875 16.195312 -16.804688 16.09375 -16.546875 C 15.988281 -16.296875 15.835938 -16.039062 15.640625 -15.78125 C 15.441406 -15.53125 15.1875 -15.289062 14.875 -15.0625 C 14.5625 -14.832031 14.175781 -14.640625 13.71875 -14.484375 C 14.1875 -14.003906 14.53125 -13.46875 14.75 -12.875 C 14.976562 -12.289062 15.09375 -11.664062 15.09375 -11 L 15.09375 0 L 11.15625 0 L 11.15625 -10.875 C 11.15625 -11.363281 11.066406 -11.769531 10.890625 -12.09375 C 10.710938 -12.414062 10.484375 -12.675781 10.203125 -12.875 C 9.921875 -13.082031 9.597656 -13.226562 9.234375 -13.3125 C 8.867188 -13.40625 8.492188 -13.453125 8.109375 -13.453125 C 7.773438 -13.453125 7.429688 -13.40625 7.078125 -13.3125 C 6.722656 -13.226562 6.398438 -13.082031 6.109375 -12.875 C 5.828125 -12.675781 5.59375 -12.414062 5.40625 -12.09375 C 5.226562 -11.769531 5.140625 -11.363281 5.140625 -10.875 L 5.140625 -9.234375 L 8.5 -9.234375 L 8.5 -5.75 L 5.140625 -5.75 L 5.140625 0 L 1.203125 0 L 1.203125 -11 C 1.203125 -11.71875 1.332031 -12.398438 1.59375 -13.046875 C 1.863281 -13.691406 2.273438 -14.257812 2.828125 -14.75 C 3.390625 -15.25 4.109375 -15.644531 4.984375 -15.9375 C 5.859375 -16.238281 6.898438 -16.390625 8.109375 -16.390625 C 8.660156 -16.390625 9.164062 -16.359375 9.625 -16.296875 C 10.082031 -16.234375 10.515625 -16.148438 10.921875 -16.046875 C 11.171875 -16.222656 11.351562 -16.414062 11.46875 -16.625 C 11.59375 -16.832031 11.675781 -17.046875 11.71875 -17.265625 Z M 16.28125 -17.265625 "/></g></g></g><g fill="#ffffff" fill-opacity="1"><g transform="translate(490.981578, 34.411594)"><g><path d="M 5.703125 0 L 5.703125 -9.078125 C 5.703125 -9.554688 5.632812 -10.007812 5.5 -10.4375 C 5.363281 -10.863281 5.15625 -11.226562 4.875 -11.53125 C 4.601562 -11.84375 4.257812 -12.085938 3.84375 -12.265625 C 3.425781 -12.441406 2.9375 -12.53125 2.375 -12.53125 L 0.390625 -12.53125 L 0.390625 -16.046875 L 3.09375 -16.046875 C 4.21875 -16.046875 5.191406 -15.875 6.015625 -15.53125 C 6.835938 -15.195312 7.515625 -14.734375 8.046875 -14.140625 C 8.585938 -13.546875 8.988281 -12.847656 9.25 -12.046875 C 9.507812 -11.242188 9.640625 -10.382812 9.640625 -9.46875 L 9.640625 0 Z M 5.703125 0 "/></g></g></g><g fill="#ffffff" fill-opacity="1"><g transform="translate(501.820819, 34.411594)"><g><path d="M 16.125 -17.265625 C 16.101562 -17.054688 16.035156 -16.816406 15.921875 -16.546875 C 15.816406 -16.285156 15.660156 -16.019531 15.453125 -15.75 C 15.253906 -15.488281 15.007812 -15.242188 14.71875 -15.015625 C 14.425781 -14.796875 14.09375 -14.617188 13.71875 -14.484375 C 14.53125 -13.597656 14.9375 -12.515625 14.9375 -11.234375 L 14.9375 0 L 11 0 L 11 -6.546875 C 10.957031 -6.640625 10.859375 -6.757812 10.703125 -6.90625 C 10.554688 -7.0625 10.347656 -7.207031 10.078125 -7.34375 C 9.816406 -7.488281 9.5 -7.609375 9.125 -7.703125 C 8.75 -7.804688 8.328125 -7.859375 7.859375 -7.859375 C 7.390625 -7.859375 6.957031 -7.789062 6.5625 -7.65625 C 6.175781 -7.53125 5.84375 -7.351562 5.5625 -7.125 C 5.28125 -6.90625 5.0625 -6.640625 4.90625 -6.328125 C 4.75 -6.023438 4.671875 -5.691406 4.671875 -5.328125 C 4.671875 -4.796875 4.789062 -4.351562 5.03125 -4 C 5.28125 -3.65625 5.59375 -3.398438 5.96875 -3.234375 C 6.351562 -3.066406 6.765625 -2.984375 7.203125 -2.984375 C 7.648438 -2.984375 8.070312 -3.0625 8.46875 -3.21875 L 8.46875 -0.046875 C 7.15625 0.222656 6.015625 0.253906 5.046875 0.046875 C 4.085938 -0.148438 3.289062 -0.503906 2.65625 -1.015625 C 2.019531 -1.535156 1.546875 -2.175781 1.234375 -2.9375 C 0.921875 -3.695312 0.765625 -4.507812 0.765625 -5.375 C 0.765625 -6.125 0.898438 -6.847656 1.171875 -7.546875 C 1.453125 -8.253906 1.859375 -8.875 2.390625 -9.40625 C 2.921875 -9.945312 3.59375 -10.378906 4.40625 -10.703125 C 5.21875 -11.023438 6.160156 -11.1875 7.234375 -11.1875 C 8.234375 -11.1875 9.050781 -11.078125 9.6875 -10.859375 C 10.320312 -10.648438 10.757812 -10.441406 11 -10.234375 L 11 -11.078125 C 11 -11.441406 10.921875 -11.765625 10.765625 -12.046875 C 10.609375 -12.335938 10.394531 -12.585938 10.125 -12.796875 C 9.863281 -13.003906 9.550781 -13.164062 9.1875 -13.28125 C 8.820312 -13.394531 8.4375 -13.453125 8.03125 -13.453125 C 7.1875 -13.453125 6.5 -13.257812 5.96875 -12.875 C 5.4375 -12.488281 5.09375 -12.015625 4.9375 -11.453125 L 0.921875 -11.453125 C 0.984375 -12.035156 1.179688 -12.617188 1.515625 -13.203125 C 1.847656 -13.796875 2.304688 -14.328125 2.890625 -14.796875 C 3.484375 -15.265625 4.203125 -15.644531 5.046875 -15.9375 C 5.890625 -16.238281 6.859375 -16.390625 7.953125 -16.390625 C 8.546875 -16.390625 9.085938 -16.351562 9.578125 -16.28125 C 10.078125 -16.21875 10.550781 -16.128906 11 -16.015625 C 11.207031 -16.179688 11.351562 -16.382812 11.4375 -16.625 C 11.519531 -16.875 11.5625 -17.085938 11.5625 -17.265625 Z M 16.125 -17.265625 "/></g></g></g><g fill="#ffffff" fill-opacity="1"><g transform="translate(517.952277, 34.411594)"><g><path d="M 11.765625 0 L 11.765625 -12.40625 L 9.3125 -10.265625 L 6.546875 -12.484375 C 6.429688 -12.421875 6.269531 -12.285156 6.0625 -12.078125 C 5.863281 -11.867188 5.664062 -11.578125 5.46875 -11.203125 C 5.269531 -10.828125 5.097656 -10.363281 4.953125 -9.8125 C 4.816406 -9.257812 4.75 -8.609375 4.75 -7.859375 C 4.75 -6.878906 4.867188 -6.082031 5.109375 -5.46875 C 5.347656 -4.851562 5.660156 -4.378906 6.046875 -4.046875 C 6.441406 -3.722656 6.894531 -3.519531 7.40625 -3.4375 C 7.914062 -3.351562 8.445312 -3.359375 9 -3.453125 L 9 0 C 7.550781 0.269531 6.304688 0.238281 5.265625 -0.09375 C 4.222656 -0.4375 3.367188 -0.984375 2.703125 -1.734375 C 2.035156 -2.484375 1.546875 -3.394531 1.234375 -4.46875 C 0.921875 -5.539062 0.765625 -6.671875 0.765625 -7.859375 C 0.765625 -9.140625 0.941406 -10.285156 1.296875 -11.296875 C 1.660156 -12.304688 2.125 -13.171875 2.6875 -13.890625 C 3.257812 -14.609375 3.90625 -15.171875 4.625 -15.578125 C 5.34375 -15.984375 6.0625 -16.21875 6.78125 -16.28125 L 9.3125 -14.359375 L 11.234375 -16.046875 L 15.703125 -16.046875 L 15.703125 0 Z M 11.765625 0 "/></g></g></g><g fill="#ffffff" fill-opacity="1"><g transform="translate(534.848165, 34.411594)"><g><path d="M 10.875 -11.234375 C 10.851562 -11.546875 10.757812 -11.832031 10.59375 -12.09375 C 10.425781 -12.363281 10.203125 -12.597656 9.921875 -12.796875 C 9.640625 -13.003906 9.3125 -13.164062 8.9375 -13.28125 C 8.5625 -13.394531 8.148438 -13.453125 7.703125 -13.453125 C 7.285156 -13.453125 6.90625 -13.40625 6.5625 -13.3125 C 6.226562 -13.21875 5.9375 -13.09375 5.6875 -12.9375 C 5.4375 -12.78125 5.242188 -12.597656 5.109375 -12.390625 C 4.972656 -12.179688 4.90625 -11.957031 4.90625 -11.71875 C 4.90625 -11.382812 5.046875 -11.117188 5.328125 -10.921875 C 5.609375 -10.722656 5.976562 -10.5625 6.4375 -10.4375 C 6.90625 -10.320312 7.4375 -10.222656 8.03125 -10.140625 C 8.625 -10.066406 9.226562 -9.960938 9.84375 -9.828125 C 10.457031 -9.703125 11.0625 -9.535156 11.65625 -9.328125 C 12.25 -9.117188 12.773438 -8.828125 13.234375 -8.453125 C 13.703125 -8.085938 14.078125 -7.613281 14.359375 -7.03125 C 14.640625 -6.445312 14.78125 -5.722656 14.78125 -4.859375 C 14.78125 -3.203125 14.191406 -1.925781 13.015625 -1.03125 C 11.847656 -0.132812 10.0625 0.3125 7.65625 0.3125 C 5.425781 0.3125 3.710938 -0.171875 2.515625 -1.140625 C 1.316406 -2.117188 0.71875 -3.460938 0.71875 -5.171875 L 4.75 -5.171875 C 4.75 -4.710938 4.84375 -4.320312 5.03125 -4 C 5.226562 -3.675781 5.484375 -3.40625 5.796875 -3.1875 C 6.109375 -2.976562 6.460938 -2.828125 6.859375 -2.734375 C 7.253906 -2.648438 7.644531 -2.609375 8.03125 -2.609375 C 8.4375 -2.609375 8.8125 -2.65625 9.15625 -2.75 C 9.507812 -2.851562 9.804688 -2.984375 10.046875 -3.140625 C 10.296875 -3.304688 10.488281 -3.5 10.625 -3.71875 C 10.769531 -3.945312 10.84375 -4.175781 10.84375 -4.40625 C 10.84375 -4.894531 10.703125 -5.273438 10.421875 -5.546875 C 10.140625 -5.816406 9.765625 -6.035156 9.296875 -6.203125 C 8.835938 -6.367188 8.3125 -6.5 7.71875 -6.59375 C 7.125 -6.695312 6.519531 -6.800781 5.90625 -6.90625 C 5.289062 -7.019531 4.679688 -7.164062 4.078125 -7.34375 C 3.484375 -7.519531 2.953125 -7.769531 2.484375 -8.09375 C 2.023438 -8.414062 1.65625 -8.84375 1.375 -9.375 C 1.09375 -9.90625 0.953125 -10.582031 0.953125 -11.40625 C 0.953125 -12.113281 1.113281 -12.765625 1.4375 -13.359375 C 1.757812 -13.960938 2.21875 -14.488281 2.8125 -14.9375 C 3.40625 -15.394531 4.125 -15.75 4.96875 -16 C 5.8125 -16.257812 6.765625 -16.390625 7.828125 -16.390625 C 8.972656 -16.390625 9.984375 -16.25 10.859375 -15.96875 C 11.734375 -15.695312 12.460938 -15.328125 13.046875 -14.859375 C 13.640625 -14.398438 14.082031 -13.859375 14.375 -13.234375 C 14.664062 -12.609375 14.8125 -11.941406 14.8125 -11.234375 Z M 10.875 -11.234375 "/></g></g></g><g fill="#ffffff" fill-opacity="1"><g transform="translate(550.4308, 34.411594)"><g><path d="M -1.5625 -19.5 C -1.90625 -19.5 -2.175781 -19.421875 -2.375 -19.265625 C -2.582031 -19.109375 -2.6875 -18.867188 -2.6875 -18.546875 L -2.6875 -18.078125 L -6.625 -18.078125 L -6.625 -19.3125 C -6.625 -19.789062 -6.546875 -20.207031 -6.390625 -20.5625 C -6.234375 -20.925781 -6.015625 -21.21875 -5.734375 -21.4375 C -5.453125 -21.664062 -5.113281 -21.832031 -4.71875 -21.9375 C -4.332031 -22.050781 -3.910156 -22.109375 -3.453125 -22.109375 L -0.28125 -22.109375 L -0.28125 -19.5 Z M -1.5625 -19.5 "/></g></g></g><g fill="#ffffff" fill-opacity="1"><g transform="translate(550.4308, 34.411594)"><g><path d="M 16.28125 -17.265625 C 16.257812 -17.046875 16.195312 -16.804688 16.09375 -16.546875 C 15.988281 -16.296875 15.835938 -16.039062 15.640625 -15.78125 C 15.441406 -15.53125 15.1875 -15.289062 14.875 -15.0625 C 14.5625 -14.832031 14.175781 -14.640625 13.71875 -14.484375 C 14.1875 -14.003906 14.53125 -13.46875 14.75 -12.875 C 14.976562 -12.289062 15.09375 -11.664062 15.09375 -11 L 15.09375 0 L 11.15625 0 L 11.15625 -10.875 C 11.15625 -11.363281 11.066406 -11.769531 10.890625 -12.09375 C 10.710938 -12.414062 10.484375 -12.675781 10.203125 -12.875 C 9.921875 -13.082031 9.597656 -13.226562 9.234375 -13.3125 C 8.867188 -13.40625 8.492188 -13.453125 8.109375 -13.453125 C 7.773438 -13.453125 7.429688 -13.40625 7.078125 -13.3125 C 6.722656 -13.226562 6.398438 -13.082031 6.109375 -12.875 C 5.828125 -12.675781 5.59375 -12.414062 5.40625 -12.09375 C 5.226562 -11.769531 5.140625 -11.363281 5.140625 -10.875 L 5.140625 -9.234375 L 8.5 -9.234375 L 8.5 -5.75 L 5.140625 -5.75 L 5.140625 0 L 1.203125 0 L 1.203125 -11 C 1.203125 -11.71875 1.332031 -12.398438 1.59375 -13.046875 C 1.863281 -13.691406 2.273438 -14.257812 2.828125 -14.75 C 3.390625 -15.25 4.109375 -15.644531 4.984375 -15.9375 C 5.859375 -16.238281 6.898438 -16.390625 8.109375 -16.390625 C 8.660156 -16.390625 9.164062 -16.359375 9.625 -16.296875 C 10.082031 -16.234375 10.515625 -16.148438 10.921875 -16.046875 C 11.171875 -16.222656 11.351562 -16.414062 11.46875 -16.625 C 11.59375 -16.832031 11.675781 -17.046875 11.71875 -17.265625 Z M 16.28125 -17.265625 "/></g></g></g><g fill="#ffffff" fill-opacity="1"><g transform="translate(566.719051, 34.411594)"><g><path d="M -1.203125 3.21875 C -1.203125 3.75 -1.28125 4.226562 -1.4375 4.65625 C -1.601562 5.082031 -1.878906 5.441406 -2.265625 5.734375 C -2.648438 6.023438 -3.15625 6.242188 -3.78125 6.390625 C -4.40625 6.546875 -5.175781 6.625 -6.09375 6.625 C -7.0625 6.625 -7.863281 6.554688 -8.5 6.421875 C -9.144531 6.285156 -9.660156 6.082031 -10.046875 5.8125 C -10.429688 5.539062 -10.703125 5.210938 -10.859375 4.828125 C -11.023438 4.441406 -11.109375 3.992188 -11.109375 3.484375 L -11.953125 3.484375 L -11.953125 1.203125 L -7.34375 1.203125 L -7.34375 3.21875 C -7.34375 3.582031 -7.242188 3.84375 -7.046875 4 C -6.859375 4.164062 -6.59375 4.25 -6.25 4.25 C -5.894531 4.25 -5.617188 4.164062 -5.421875 4 C -5.234375 3.84375 -5.140625 3.582031 -5.140625 3.21875 L -5.140625 1.203125 L -1.203125 1.203125 Z M -1.203125 3.21875 "/></g></g></g><g fill="#ffffff" fill-opacity="1"><g transform="translate(566.719051, 34.411594)"><g><path d="M 11.15625 0 L 11.15625 -2.03125 C 10.894531 -1.71875 10.597656 -1.425781 10.265625 -1.15625 C 9.929688 -0.894531 9.550781 -0.660156 9.125 -0.453125 C 8.707031 -0.253906 8.253906 -0.0976562 7.765625 0.015625 C 7.273438 0.140625 6.742188 0.203125 6.171875 0.203125 C 5.429688 0.203125 4.753906 0.09375 4.140625 -0.125 C 3.523438 -0.351562 3 -0.664062 2.5625 -1.0625 C 2.125 -1.46875 1.785156 -1.953125 1.546875 -2.515625 C 1.316406 -3.085938 1.203125 -3.71875 1.203125 -4.40625 L 1.203125 -16.046875 L 2.875 -16.046875 C 3.570312 -16.046875 4.125 -15.863281 4.53125 -15.5 C 4.9375 -15.144531 5.140625 -14.566406 5.140625 -13.765625 L 5.140625 -5.625 C 5.140625 -4.757812 5.328125 -4.050781 5.703125 -3.5 C 6.078125 -2.957031 6.71875 -2.6875 7.625 -2.6875 C 8.175781 -2.6875 8.671875 -2.804688 9.109375 -3.046875 C 9.546875 -3.285156 9.914062 -3.585938 10.21875 -3.953125 C 10.53125 -4.328125 10.765625 -4.734375 10.921875 -5.171875 C 11.078125 -5.609375 11.15625 -6.015625 11.15625 -6.390625 L 11.15625 -16.046875 L 15.09375 -16.046875 L 15.09375 0 Z M 11.15625 0 "/></g></g></g><g fill="#ffffff" fill-opacity="1"><g transform="translate(583.007302, 34.411594)"><g><path d="M 6.546875 0.078125 C 5.535156 0.0859375 4.664062 -0.00390625 3.9375 -0.203125 C 3.21875 -0.410156 2.625 -0.703125 2.15625 -1.078125 C 1.6875 -1.453125 1.335938 -1.914062 1.109375 -2.46875 C 0.878906 -3.03125 0.765625 -3.664062 0.765625 -4.375 C 0.765625 -5 0.863281 -5.554688 1.0625 -6.046875 C 1.269531 -6.535156 1.53125 -6.957031 1.84375 -7.3125 C 2.15625 -7.675781 2.503906 -7.972656 2.890625 -8.203125 C 3.273438 -8.429688 3.648438 -8.597656 4.015625 -8.703125 L 4.015625 -8.734375 C 3.703125 -8.804688 3.378906 -8.929688 3.046875 -9.109375 C 2.710938 -9.285156 2.40625 -9.519531 2.125 -9.8125 C 1.851562 -10.101562 1.628906 -10.453125 1.453125 -10.859375 C 1.285156 -11.265625 1.203125 -11.726562 1.203125 -12.25 C 1.203125 -12.800781 1.304688 -13.3125 1.515625 -13.78125 C 1.734375 -14.25 2.039062 -14.65625 2.4375 -15 C 2.832031 -15.34375 3.320312 -15.613281 3.90625 -15.8125 C 4.488281 -16.007812 5.15625 -16.101562 5.90625 -16.09375 L 8.46875 -16.046875 L 8.46875 -13.09375 C 7.53125 -13.132812 6.757812 -13.03125 6.15625 -12.78125 C 5.550781 -12.539062 5.25 -12.132812 5.25 -11.5625 C 5.25 -11.21875 5.347656 -10.941406 5.546875 -10.734375 C 5.742188 -10.523438 5.992188 -10.363281 6.296875 -10.25 C 6.609375 -10.144531 6.953125 -10.082031 7.328125 -10.0625 C 7.710938 -10.039062 8.09375 -10.046875 8.46875 -10.078125 L 8.46875 -7.3125 C 8.007812 -7.351562 7.570312 -7.332031 7.15625 -7.25 C 6.738281 -7.175781 6.363281 -7.039062 6.03125 -6.84375 C 5.695312 -6.65625 5.429688 -6.414062 5.234375 -6.125 C 5.035156 -5.832031 4.9375 -5.488281 4.9375 -5.09375 C 4.9375 -4.582031 5.035156 -4.179688 5.234375 -3.890625 C 5.441406 -3.597656 5.710938 -3.378906 6.046875 -3.234375 C 6.378906 -3.085938 6.753906 -3 7.171875 -2.96875 C 7.585938 -2.9375 8.003906 -2.925781 8.421875 -2.9375 L 11.15625 -3.015625 L 11.15625 -16.046875 L 15.09375 -16.046875 L 15.09375 0 Z M 6.546875 0.078125 "/></g></g></g><g fill="#ffffff" fill-opacity="1"><g transform="translate(599.295553, 34.411594)"><g><path d="M -1.5625 -19.5 C -1.90625 -19.5 -2.175781 -19.421875 -2.375 -19.265625 C -2.582031 -19.109375 -2.6875 -18.867188 -2.6875 -18.546875 L -2.6875 -18.078125 L -6.625 -18.078125 L -6.625 -19.3125 C -6.625 -19.789062 -6.546875 -20.207031 -6.390625 -20.5625 C -6.234375 -20.925781 -6.015625 -21.21875 -5.734375 -21.4375 C -5.453125 -21.664062 -5.113281 -21.832031 -4.71875 -21.9375 C -4.332031 -22.050781 -3.910156 -22.109375 -3.453125 -22.109375 L -0.28125 -22.109375 L -0.28125 -19.5 Z M -1.5625 -19.5 "/></g></g></g><g fill="#ffffff" fill-opacity="1"><g transform="translate(599.295553, 34.411594)"><g><path d="M 10.875 -11.234375 C 10.851562 -11.546875 10.757812 -11.832031 10.59375 -12.09375 C 10.425781 -12.363281 10.203125 -12.597656 9.921875 -12.796875 C 9.640625 -13.003906 9.3125 -13.164062 8.9375 -13.28125 C 8.5625 -13.394531 8.148438 -13.453125 7.703125 -13.453125 C 7.285156 -13.453125 6.90625 -13.40625 6.5625 -13.3125 C 6.226562 -13.21875 5.9375 -13.09375 5.6875 -12.9375 C 5.4375 -12.78125 5.242188 -12.597656 5.109375 -12.390625 C 4.972656 -12.179688 4.90625 -11.957031 4.90625 -11.71875 C 4.90625 -11.382812 5.046875 -11.117188 5.328125 -10.921875 C 5.609375 -10.722656 5.976562 -10.5625 6.4375 -10.4375 C 6.90625 -10.320312 7.4375 -10.222656 8.03125 -10.140625 C 8.625 -10.066406 9.226562 -9.960938 9.84375 -9.828125 C 10.457031 -9.703125 11.0625 -9.535156 11.65625 -9.328125 C 12.25 -9.117188 12.773438 -8.828125 13.234375 -8.453125 C 13.703125 -8.085938 14.078125 -7.613281 14.359375 -7.03125 C 14.640625 -6.445312 14.78125 -5.722656 14.78125 -4.859375 C 14.78125 -3.203125 14.191406 -1.925781 13.015625 -1.03125 C 11.847656 -0.132812 10.0625 0.3125 7.65625 0.3125 C 5.425781 0.3125 3.710938 -0.171875 2.515625 -1.140625 C 1.316406 -2.117188 0.71875 -3.460938 0.71875 -5.171875 L 4.75 -5.171875 C 4.75 -4.710938 4.84375 -4.320312 5.03125 -4 C 5.226562 -3.675781 5.484375 -3.40625 5.796875 -3.1875 C 6.109375 -2.976562 6.460938 -2.828125 6.859375 -2.734375 C 7.253906 -2.648438 7.644531 -2.609375 8.03125 -2.609375 C 8.4375 -2.609375 8.8125 -2.65625 9.15625 -2.75 C 9.507812 -2.851562 9.804688 -2.984375 10.046875 -3.140625 C 10.296875 -3.304688 10.488281 -3.5 10.625 -3.71875 C 10.769531 -3.945312 10.84375 -4.175781 10.84375 -4.40625 C 10.84375 -4.894531 10.703125 -5.273438 10.421875 -5.546875 C 10.140625 -5.816406 9.765625 -6.035156 9.296875 -6.203125 C 8.835938 -6.367188 8.3125 -6.5 7.71875 -6.59375 C 7.125 -6.695312 6.519531 -6.800781 5.90625 -6.90625 C 5.289062 -7.019531 4.679688 -7.164062 4.078125 -7.34375 C 3.484375 -7.519531 2.953125 -7.769531 2.484375 -8.09375 C 2.023438 -8.414062 1.65625 -8.84375 1.375 -9.375 C 1.09375 -9.90625 0.953125 -10.582031 0.953125 -11.40625 C 0.953125 -12.113281 1.113281 -12.765625 1.4375 -13.359375 C 1.757812 -13.960938 2.21875 -14.488281 2.8125 -14.9375 C 3.40625 -15.394531 4.125 -15.75 4.96875 -16 C 5.8125 -16.257812 6.765625 -16.390625 7.828125 -16.390625 C 8.972656 -16.390625 9.984375 -16.25 10.859375 -15.96875 C 11.734375 -15.695312 12.460938 -15.328125 13.046875 -14.859375 C 13.640625 -14.398438 14.082031 -13.859375 14.375 -13.234375 C 14.664062 -12.609375 14.8125 -11.941406 14.8125 -11.234375 Z M 10.875 -11.234375 "/></g></g></g><g fill="#ffffff" fill-opacity="1"><g transform="translate(614.878175, 34.411594)"><g><path d="M -9.03125 -18.078125 L -9.03125 -22.484375 L -5.09375 -22.484375 L -5.09375 -20.671875 L 3.609375 -20.671875 L 3.609375 -18.078125 Z M -9.03125 -18.078125 "/></g></g></g><g fill="#ffffff" fill-opacity="1"><g transform="translate(614.878175, 34.411594)"><g><path d="M 14.859375 -8.625 C 14.859375 -7.34375 14.742188 -6.175781 14.515625 -5.125 C 14.296875 -4.070312 13.953125 -3.160156 13.484375 -2.390625 C 13.023438 -1.628906 12.4375 -1.039062 11.71875 -0.625 C 11 -0.207031 10.144531 0 9.15625 0 L 2.9375 0 L 0.390625 -16.046875 L 4.484375 -16.046875 L 6.546875 -2.9375 L 7.953125 -2.9375 C 8.265625 -2.9375 8.597656 -3.019531 8.953125 -3.1875 C 9.304688 -3.363281 9.625 -3.660156 9.90625 -4.078125 C 10.195312 -4.492188 10.4375 -5.0625 10.625 -5.78125 C 10.820312 -6.507812 10.921875 -7.429688 10.921875 -8.546875 C 10.921875 -9.429688 10.816406 -10.164062 10.609375 -10.75 C 10.410156 -11.332031 10.144531 -11.789062 9.8125 -12.125 C 9.476562 -12.46875 9.09375 -12.707031 8.65625 -12.84375 C 8.21875 -12.976562 7.753906 -13.046875 7.265625 -13.046875 L 7.265625 -16.046875 L 8.84375 -16.046875 C 9.914062 -16.046875 10.832031 -15.847656 11.59375 -15.453125 C 12.351562 -15.054688 12.972656 -14.519531 13.453125 -13.84375 C 13.941406 -13.175781 14.296875 -12.390625 14.515625 -11.484375 C 14.742188 -10.585938 14.859375 -9.632812 14.859375 -8.625 Z M 14.859375 -8.625 "/></g></g></g><g fill="#ffffff" fill-opacity="1"><g transform="translate(630.735235, 34.411594)"><g><path d="M 16.125 -17.265625 C 16.101562 -17.054688 16.035156 -16.816406 15.921875 -16.546875 C 15.816406 -16.285156 15.660156 -16.019531 15.453125 -15.75 C 15.253906 -15.488281 15.007812 -15.242188 14.71875 -15.015625 C 14.425781 -14.796875 14.09375 -14.617188 13.71875 -14.484375 C 14.53125 -13.597656 14.9375 -12.515625 14.9375 -11.234375 L 14.9375 0 L 11 0 L 11 -6.546875 C 10.957031 -6.640625 10.859375 -6.757812 10.703125 -6.90625 C 10.554688 -7.0625 10.347656 -7.207031 10.078125 -7.34375 C 9.816406 -7.488281 9.5 -7.609375 9.125 -7.703125 C 8.75 -7.804688 8.328125 -7.859375 7.859375 -7.859375 C 7.390625 -7.859375 6.957031 -7.789062 6.5625 -7.65625 C 6.175781 -7.53125 5.84375 -7.351562 5.5625 -7.125 C 5.28125 -6.90625 5.0625 -6.640625 4.90625 -6.328125 C 4.75 -6.023438 4.671875 -5.691406 4.671875 -5.328125 C 4.671875 -4.796875 4.789062 -4.351562 5.03125 -4 C 5.28125 -3.65625 5.59375 -3.398438 5.96875 -3.234375 C 6.351562 -3.066406 6.765625 -2.984375 7.203125 -2.984375 C 7.648438 -2.984375 8.070312 -3.0625 8.46875 -3.21875 L 8.46875 -0.046875 C 7.15625 0.222656 6.015625 0.253906 5.046875 0.046875 C 4.085938 -0.148438 3.289062 -0.503906 2.65625 -1.015625 C 2.019531 -1.535156 1.546875 -2.175781 1.234375 -2.9375 C 0.921875 -3.695312 0.765625 -4.507812 0.765625 -5.375 C 0.765625 -6.125 0.898438 -6.847656 1.171875 -7.546875 C 1.453125 -8.253906 1.859375 -8.875 2.390625 -9.40625 C 2.921875 -9.945312 3.59375 -10.378906 4.40625 -10.703125 C 5.21875 -11.023438 6.160156 -11.1875 7.234375 -11.1875 C 8.234375 -11.1875 9.050781 -11.078125 9.6875 -10.859375 C 10.320312 -10.648438 10.757812 -10.441406 11 -10.234375 L 11 -11.078125 C 11 -11.441406 10.921875 -11.765625 10.765625 -12.046875 C 10.609375 -12.335938 10.394531 -12.585938 10.125 -12.796875 C 9.863281 -13.003906 9.550781 -13.164062 9.1875 -13.28125 C 8.820312 -13.394531 8.4375 -13.453125 8.03125 -13.453125 C 7.1875 -13.453125 6.5 -13.257812 5.96875 -12.875 C 5.4375 -12.488281 5.09375 -12.015625 4.9375 -11.453125 L 0.921875 -11.453125 C 0.984375 -12.035156 1.179688 -12.617188 1.515625 -13.203125 C 1.847656 -13.796875 2.304688 -14.328125 2.890625 -14.796875 C 3.484375 -15.265625 4.203125 -15.644531 5.046875 -15.9375 C 5.890625 -16.238281 6.859375 -16.390625 7.953125 -16.390625 C 8.546875 -16.390625 9.085938 -16.351562 9.578125 -16.28125 C 10.078125 -16.21875 10.550781 -16.128906 11 -16.015625 C 11.207031 -16.179688 11.351562 -16.382812 11.4375 -16.625 C 11.519531 -16.875 11.5625 -17.085938 11.5625 -17.265625 Z M 16.125 -17.265625 "/></g></g></g><g fill="#ffffff" fill-opacity="1"><g transform="translate(646.866679, 34.411594)"><g><path d="M -1.203125 -19.625 C -1.203125 -19.125 -1.367188 -18.738281 -1.703125 -18.46875 C -2.046875 -18.207031 -2.472656 -18.078125 -2.984375 -18.078125 L -14.703125 -18.078125 L -14.703125 -20.671875 L -1.203125 -20.671875 Z M -1.203125 -19.625 "/></g></g></g><g fill="#ffffff" fill-opacity="1"><g transform="translate(646.866679, 34.411594)"><g><path d="M 11.765625 0 L 11.765625 -12.40625 L 9.3125 -10.265625 L 6.546875 -12.484375 C 6.429688 -12.421875 6.269531 -12.285156 6.0625 -12.078125 C 5.863281 -11.867188 5.664062 -11.578125 5.46875 -11.203125 C 5.269531 -10.828125 5.097656 -10.363281 4.953125 -9.8125 C 4.816406 -9.257812 4.75 -8.609375 4.75 -7.859375 C 4.75 -6.878906 4.867188 -6.082031 5.109375 -5.46875 C 5.347656 -4.851562 5.660156 -4.378906 6.046875 -4.046875 C 6.441406 -3.722656 6.894531 -3.519531 7.40625 -3.4375 C 7.914062 -3.351562 8.445312 -3.359375 9 -3.453125 L 9 0 C 7.550781 0.269531 6.304688 0.238281 5.265625 -0.09375 C 4.222656 -0.4375 3.367188 -0.984375 2.703125 -1.734375 C 2.035156 -2.484375 1.546875 -3.394531 1.234375 -4.46875 C 0.921875 -5.539062 0.765625 -6.671875 0.765625 -7.859375 C 0.765625 -9.140625 0.941406 -10.285156 1.296875 -11.296875 C 1.660156 -12.304688 2.125 -13.171875 2.6875 -13.890625 C 3.257812 -14.609375 3.90625 -15.171875 4.625 -15.578125 C 5.34375 -15.984375 6.0625 -16.21875 6.78125 -16.28125 L 9.3125 -14.359375 L 11.234375 -16.046875 L 15.703125 -16.046875 L 15.703125 0 Z M 11.765625 0 "/></g></g></g></svg>