<svg xmlns="http://www.w3.org/2000/svg" xmlns:xlink="http://www.w3.org/1999/xlink" width="500" zoomAndPan="magnify" viewBox="0 0 375 374.999991" height="500" preserveAspectRatio="xMidYMid meet" version="1.0"><defs><clipPath id="7714c2c6db"><path d="M 0 126.117188 L 375 126.117188 L 375 196.800781 L 0 196.800781 Z M 0 126.117188 " clip-rule="nonzero"/></clipPath><clipPath id="803cd3c85f"><path d="M 161.261719 181 L 213.460938 181 L 213.460938 248.609375 L 161.261719 248.609375 Z M 161.261719 181 " clip-rule="nonzero"/></clipPath></defs><g clip-path="url(#7714c2c6db)"><path fill="#f23838" d="M 339.734375 196.566406 L 35.304688 196.566406 C 15.804688 196.566406 0 180.796875 0 161.34375 C 0 141.886719 15.804688 126.117188 35.304688 126.117188 L 339.734375 126.117188 C 359.234375 126.117188 375.039062 141.886719 375.039062 161.34375 C 375.039062 180.796875 359.234375 196.566406 339.734375 196.566406 " fill-opacity="1" fill-rule="nonzero"/></g><path fill="#ffffff" d="M 181.105469 247.152344 L 164.175781 222.40625 C 162.609375 220.121094 163.175781 217.007812 165.445312 215.417969 C 167.582031 213.917969 170.511719 214.285156 172.214844 216.265625 L 176.15625 220.851562 L 176.15625 187.027344 C 176.15625 184.609375 178.117188 182.65625 180.535156 182.65625 C 182.953125 182.65625 184.917969 184.609375 184.917969 187.027344 L 184.917969 206.769531 L 185.507812 204.496094 C 185.605469 204.109375 185.734375 203.722656 185.914062 203.367188 C 186.753906 201.738281 188.09375 201.21875 189.386719 201.117188 C 189.492188 201.109375 189.597656 201.109375 189.707031 201.109375 L 190.019531 201.128906 C 191.351562 201.226562 192.550781 201.984375 193.207031 203.144531 C 193.8125 204.214844 194.136719 205.417969 194.152344 206.640625 C 194.160156 207.667969 194.160156 209.199219 194.160156 209.199219 L 194.339844 208.613281 C 194.589844 207.800781 195.050781 207.050781 195.726562 206.535156 C 196.390625 206.039062 197.199219 205.738281 198.058594 205.707031 L 198.363281 205.691406 C 199.894531 205.632812 201.332031 206.441406 202.074219 207.777344 L 202.097656 207.8125 C 202.441406 208.429688 202.613281 209.113281 202.605469 209.808594 C 202.597656 210.445312 202.597656 212.113281 202.597656 212.113281 L 203.179688 211.394531 C 203.71875 210.730469 204.417969 210.195312 205.238281 209.933594 C 205.703125 209.78125 206.199219 209.710938 206.699219 209.722656 L 206.78125 209.726562 C 208.730469 209.765625 210.433594 211.042969 211.015625 212.898438 L 211.035156 212.960938 C 211.527344 214.53125 211.761719 216.152344 211.738281 217.777344 C 211.667969 222.84375 211.273438 233.042969 205.433594 247.152344 L 181.105469 247.152344 " fill-opacity="1" fill-rule="nonzero"/><g clip-path="url(#803cd3c85f)"><path fill="#111111" d="M 204.019531 245.699219 L 182.703125 245.699219 C 182.1875 245.699219 181.699219 245.4375 181.40625 245.015625 L 165.476562 221.722656 C 164.417969 220.175781 164.589844 218.019531 166.023438 216.8125 C 167.570312 215.507812 169.816406 215.710938 171.105469 217.210938 L 174.753906 221.457031 C 175.738281 222.601562 177.617188 221.910156 177.617188 220.40625 L 177.617188 187.140625 C 177.617188 185.734375 178.566406 184.4375 179.953125 184.167969 C 181.816406 183.808594 183.457031 185.226562 183.457031 187.027344 L 183.457031 208.980469 C 183.457031 209.828125 184.035156 210.609375 184.875 210.75 C 185.941406 210.921875 186.863281 210.101562 186.863281 209.070312 L 186.863281 205.003906 L 186.917969 204.859375 C 187.011719 204.511719 187.105469 204.246094 187.214844 204.03125 C 187.707031 203.078125 188.445312 202.625 189.621094 202.5625 C 189.632812 202.5625 189.644531 202.5625 189.65625 202.5625 L 189.910156 202.582031 C 190.734375 202.640625 191.492188 203.09375 191.90625 203.808594 C 192.40625 204.675781 192.679688 205.660156 192.691406 206.65625 C 192.703125 207.675781 192.703125 209.199219 192.703125 209.199219 L 192.703125 213.394531 C 192.703125 214.246094 193.289062 215.042969 194.132812 215.175781 C 195.210938 215.351562 196.144531 214.527344 196.144531 213.484375 L 196.144531 208.199219 C 196.28125 208.003906 196.433594 207.832031 196.613281 207.699219 C 197.046875 207.367188 197.566406 207.183594 198.113281 207.160156 L 198.417969 207.148438 C 199.410156 207.117188 200.320312 207.621094 200.820312 208.523438 C 201.039062 208.914062 201.152344 209.355469 201.144531 209.792969 C 201.136719 210.429688 201.136719 212.113281 201.136719 212.113281 L 201.136719 216.472656 C 201.136719 217.429688 201.910156 218.199219 202.867188 218.199219 C 203.820312 218.199219 204.597656 217.429688 204.597656 216.472656 L 204.597656 212.007812 C 204.871094 211.734375 205.234375 211.460938 205.679688 211.320312 C 206 211.21875 206.339844 211.171875 206.667969 211.179688 L 206.753906 211.179688 C 208.074219 211.207031 209.230469 212.074219 209.621094 213.332031 L 209.640625 213.398438 C 210.085938 214.816406 210.300781 216.292969 210.277344 217.78125 C 210.222656 221.605469 210.074219 231.519531 204.617188 245.289062 C 204.519531 245.535156 204.28125 245.699219 204.019531 245.699219 Z M 212.429688 212.53125 L 212.40625 212.464844 C 211.648438 210.011719 209.398438 208.320312 206.820312 208.269531 L 206.726562 208.265625 C 206.074219 208.253906 205.421875 208.34375 204.792969 208.542969 C 204.515625 208.632812 204.25 208.742188 203.992188 208.875 C 203.894531 208.304688 203.707031 207.746094 203.425781 207.207031 C 202.410156 205.261719 200.265625 204.160156 198.066406 204.246094 L 198 204.25 C 197.089844 204.285156 196.214844 204.535156 195.4375 204.988281 C 195.230469 204 194.859375 203.046875 194.332031 202.183594 C 193.433594 200.707031 191.851562 199.785156 190.125 199.675781 L 189.707031 199.652344 C 189.558594 199.652344 189.414062 199.65625 189.273438 199.664062 C 188.15625 199.757812 187.183594 200.089844 186.378906 200.648438 L 186.378906 187.226562 C 186.378906 184.265625 184.246094 181.625 181.304688 181.246094 C 177.742188 180.792969 174.695312 183.5625 174.695312 187.027344 L 174.695312 216.914062 L 173.5 215.519531 C 171.449219 213.132812 167.972656 212.324219 165.21875 213.84375 C 161.808594 215.71875 160.832031 220.109375 162.96875 223.230469 L 179.515625 247.414062 C 180.027344 248.164062 180.875 248.605469 181.78125 248.605469 L 204.699219 248.605469 C 205.742188 248.605469 206.671875 247.980469 207.066406 247.019531 C 207.105469 246.925781 207.140625 246.84375 207.15625 246.796875 C 212.972656 232.332031 213.140625 221.875 213.199219 217.847656 C 213.222656 216.042969 212.964844 214.25 212.429688 212.53125 " fill-opacity="1" fill-rule="nonzero"/></g><path fill="#ffffff" d="M 38.636719 157.144531 L 42.339844 157.144531 C 44.601562 157.144531 46.042969 157.042969 46.65625 156.847656 C 47.273438 156.648438 47.777344 156.25 48.15625 155.644531 C 48.542969 155.042969 48.738281 154.242188 48.738281 153.25 C 48.738281 152.289062 48.542969 151.519531 48.15625 150.9375 C 47.777344 150.355469 47.253906 149.957031 46.597656 149.734375 C 46.128906 149.585938 44.777344 149.511719 42.542969 149.511719 L 38.636719 149.511719 Z M 33.660156 174.503906 L 33.660156 144.425781 L 44.171875 144.425781 C 46.859375 144.425781 48.777344 144.691406 49.929688 145.234375 C 51.078125 145.777344 52.023438 146.710938 52.769531 148.042969 C 53.507812 149.378906 53.875 150.972656 53.875 152.835938 C 53.875 155.1875 53.308594 157.082031 52.179688 158.519531 C 51.050781 159.953125 49.441406 160.859375 47.355469 161.230469 C 48.425781 161.996094 49.3125 162.832031 50.011719 163.738281 C 50.710938 164.652344 51.660156 166.28125 52.871094 168.636719 L 55.875 174.503906 L 49.917969 174.503906 L 46.304688 167.957031 C 45.003906 165.59375 44.121094 164.109375 43.652344 163.515625 C 43.1875 162.921875 42.695312 162.511719 42.171875 162.28125 C 41.652344 162.058594 40.816406 161.945312 39.664062 161.945312 L 38.636719 161.945312 L 38.636719 174.503906 L 33.660156 174.503906 " fill-opacity="1" fill-rule="nonzero"/><path fill="#ffffff" d="M 58.585938 174.503906 L 58.585938 144.425781 L 76.929688 144.425781 L 76.929688 149.511719 L 63.5625 149.511719 L 63.5625 156.179688 L 75.988281 156.179688 L 75.988281 161.246094 L 63.5625 161.246094 L 63.5625 169.414062 L 77.386719 169.414062 L 77.386719 174.503906 L 58.585938 174.503906 " fill-opacity="1" fill-rule="nonzero"/><path fill="#ffffff" d="M 93.121094 163.464844 L 93.121094 158.375 L 103.875 158.375 L 103.875 170.359375 C 102.789062 171.628906 101.257812 172.726562 99.269531 173.644531 C 97.28125 174.558594 95.285156 175.015625 93.285156 175.015625 C 90.84375 175.015625 88.6875 174.421875 86.824219 173.222656 C 84.960938 172.027344 83.480469 170.230469 82.390625 167.84375 C 81.304688 165.457031 80.757812 162.648438 80.757812 159.425781 C 80.757812 156.109375 81.3125 153.28125 82.414062 150.925781 C 83.519531 148.574219 84.949219 146.816406 86.710938 145.652344 C 88.472656 144.488281 90.582031 143.90625 93.035156 143.90625 C 95.984375 143.90625 98.347656 144.65625 100.121094 146.15625 C 101.898438 147.652344 103.039062 149.851562 103.546875 152.753906 L 98.609375 153.878906 C 98.238281 152.335938 97.5625 151.152344 96.574219 150.332031 C 95.589844 149.511719 94.410156 149.097656 93.035156 149.097656 C 90.910156 149.097656 89.191406 149.925781 87.875 151.574219 C 86.558594 153.222656 85.898438 155.738281 85.898438 159.117188 C 85.898438 162.742188 86.613281 165.496094 88.039062 167.382812 C 89.257812 169.011719 90.910156 169.824219 92.996094 169.824219 C 93.96875 169.824219 94.980469 169.601562 96.027344 169.140625 C 97.078125 168.683594 98.011719 168.058594 98.835938 167.269531 L 98.835938 163.464844 L 93.121094 163.464844 " fill-opacity="1" fill-rule="nonzero"/><path fill="#ffffff" d="M 108.339844 174.503906 L 108.339844 144.425781 L 113.316406 144.425781 L 113.316406 174.503906 L 108.339844 174.503906 " fill-opacity="1" fill-rule="nonzero"/><path fill="#ffffff" d="M 116.835938 164.695312 L 121.707031 164.121094 C 122.257812 167.964844 124.050781 169.886719 127.09375 169.886719 C 128.601562 169.886719 129.789062 169.496094 130.652344 168.710938 C 131.515625 167.921875 131.949219 166.949219 131.949219 165.785156 C 131.949219 165.101562 131.800781 164.519531 131.496094 164.042969 C 131.195312 163.5625 130.734375 163.167969 130.117188 162.859375 C 129.5 162.554688 128.003906 162.039062 125.636719 161.316406 C 123.507812 160.671875 121.953125 159.976562 120.96875 159.222656 C 119.980469 158.472656 119.195312 157.488281 118.609375 156.261719 C 118.027344 155.039062 117.738281 153.722656 117.738281 152.316406 C 117.738281 150.675781 118.113281 149.199219 118.859375 147.886719 C 119.605469 146.574219 120.640625 145.582031 121.953125 144.914062 C 123.269531 144.242188 124.894531 143.90625 126.828125 143.90625 C 129.734375 143.90625 132.003906 144.695312 133.632812 146.269531 C 135.265625 147.84375 136.132812 150.089844 136.226562 153.019531 L 131.226562 153.289062 C 131.007812 151.671875 130.535156 150.546875 129.8125 149.898438 C 129.082031 149.257812 128.050781 148.9375 126.707031 148.9375 C 125.363281 148.9375 124.328125 149.214844 123.597656 149.773438 C 122.871094 150.335938 122.507812 151.027344 122.507812 151.859375 C 122.507812 152.679688 122.839844 153.367188 123.496094 153.925781 C 124.15625 154.488281 125.675781 155.101562 128.046875 155.773438 C 130.554688 156.5 132.367188 157.261719 133.480469 158.0625 C 134.597656 158.859375 135.453125 159.894531 136.042969 161.160156 C 136.632812 162.425781 136.925781 163.957031 136.925781 165.761719 C 136.925781 168.378906 136.121094 170.574219 134.507812 172.351562 C 132.898438 174.128906 130.378906 175.015625 126.953125 175.015625 C 120.890625 175.015625 117.519531 171.574219 116.835938 164.695312 " fill-opacity="1" fill-rule="nonzero"/><path fill="#ffffff" d="M 146.695312 174.503906 L 146.695312 149.511719 L 139.355469 149.511719 L 139.355469 144.425781 L 158.996094 144.425781 L 158.996094 149.511719 L 151.671875 149.511719 L 151.671875 174.503906 L 146.695312 174.503906 " fill-opacity="1" fill-rule="nonzero"/><path fill="#ffffff" d="M 162.242188 174.503906 L 162.242188 144.425781 L 180.589844 144.425781 L 180.589844 149.511719 L 167.222656 149.511719 L 167.222656 156.179688 L 179.644531 156.179688 L 179.644531 161.246094 L 167.222656 161.246094 L 167.222656 169.414062 L 181.042969 169.414062 L 181.042969 174.503906 L 162.242188 174.503906 " fill-opacity="1" fill-rule="nonzero"/><path fill="#ffffff" d="M 190.257812 157.144531 L 193.957031 157.144531 C 196.222656 157.144531 197.660156 157.042969 198.277344 156.847656 C 198.890625 156.648438 199.394531 156.25 199.777344 155.644531 C 200.164062 155.042969 200.355469 154.242188 200.355469 153.25 C 200.355469 152.289062 200.164062 151.519531 199.777344 150.9375 C 199.394531 150.355469 198.875 149.957031 198.214844 149.734375 C 197.75 149.585938 196.398438 149.511719 194.164062 149.511719 L 190.257812 149.511719 Z M 185.28125 174.503906 L 185.28125 144.425781 L 195.789062 144.425781 C 198.476562 144.425781 200.394531 144.691406 201.546875 145.234375 C 202.699219 145.777344 203.648438 146.710938 204.386719 148.042969 C 205.125 149.378906 205.496094 150.972656 205.496094 152.835938 C 205.496094 155.1875 204.933594 157.082031 203.800781 158.519531 C 202.667969 159.953125 201.0625 160.859375 198.976562 161.230469 C 200.046875 161.996094 200.929688 162.832031 201.628906 163.738281 C 202.328125 164.652344 203.28125 166.28125 204.488281 168.636719 L 207.492188 174.503906 L 201.535156 174.503906 L 197.921875 167.957031 C 196.625 165.59375 195.738281 164.109375 195.277344 163.515625 C 194.804688 162.921875 194.316406 162.511719 193.792969 162.28125 C 193.273438 162.058594 192.4375 161.945312 191.285156 161.945312 L 190.257812 161.945312 L 190.257812 174.503906 L 185.28125 174.503906 " fill-opacity="1" fill-rule="nonzero"/><path fill="#ffffff" d="M 227.652344 174.503906 L 227.652344 144.425781 L 232.503906 144.425781 L 242.621094 164.511719 L 242.621094 144.425781 L 247.273438 144.425781 L 247.273438 174.503906 L 242.253906 174.503906 L 232.300781 154.886719 L 232.300781 174.503906 L 227.652344 174.503906 " fill-opacity="1" fill-rule="nonzero"/><path fill="#ffffff" d="M 256.652344 159.441406 C 256.652344 162.90625 257.3125 165.5 258.628906 167.230469 C 259.945312 168.960938 261.578125 169.824219 263.53125 169.824219 C 265.492188 169.824219 267.121094 168.96875 268.414062 167.25 C 269.703125 165.535156 270.347656 162.898438 270.347656 159.339844 C 270.347656 155.851562 269.71875 153.273438 268.464844 151.601562 C 267.207031 149.933594 265.5625 149.097656 263.53125 149.097656 C 261.5 149.097656 259.84375 149.941406 258.566406 151.625 C 257.289062 153.304688 256.652344 155.914062 256.652344 159.441406 Z M 251.511719 159.648438 C 251.511719 156.0625 252.042969 153.113281 253.101562 150.792969 C 254.164062 148.476562 255.550781 146.75 257.265625 145.613281 C 258.980469 144.476562 261.058594 143.90625 263.5 143.90625 C 267.035156 143.90625 269.921875 145.257812 272.148438 147.953125 C 274.375 150.648438 275.492188 154.484375 275.492188 159.464844 C 275.492188 164.5 274.3125 168.429688 271.953125 171.261719 C 269.878906 173.765625 267.074219 175.015625 263.519531 175.015625 C 259.941406 175.015625 257.117188 173.78125 255.046875 171.304688 C 252.6875 168.472656 251.511719 164.585938 251.511719 159.648438 " fill-opacity="1" fill-rule="nonzero"/><path fill="#ffffff" d="M 282.917969 174.503906 L 276.992188 144.425781 L 282.113281 144.425781 L 285.824219 165.09375 L 290.34375 144.425781 L 296.292969 144.425781 L 300.632812 165.445312 L 304.449219 144.425781 L 309.46875 144.425781 L 303.460938 174.503906 L 298.148438 174.503906 L 293.210938 152.003906 L 288.316406 174.503906 L 282.917969 174.503906 " fill-opacity="1" fill-rule="nonzero"/><path fill="#ffffff" d="M 331.289062 144.425781 L 325.023438 144.425781 L 335.117188 159.464844 L 325.023438 174.503906 L 331.289062 174.503906 L 341.382812 159.464844 L 331.289062 144.425781 " fill-opacity="1" fill-rule="nonzero"/></svg>