<svg xmlns="http://www.w3.org/2000/svg" xmlns:xlink="http://www.w3.org/1999/xlink" width="500" zoomAndPan="magnify" viewBox="0 0 375 135.000003" height="180" preserveAspectRatio="xMidYMid meet" version="1.0"><defs><clipPath id="0ed2acee27"><path d="M 1.378906 6.074219 L 373.621094 6.074219 L 373.621094 76.234375 L 1.378906 76.234375 Z M 1.378906 6.074219 " clip-rule="nonzero"/></clipPath><clipPath id="82dd415f53"><path d="M 162 60.539062 L 213.269531 60.539062 L 213.269531 127.664062 L 162 127.664062 Z M 162 60.539062 " clip-rule="nonzero"/></clipPath></defs><g clip-path="url(#0ed2acee27)"><path fill="#f23838" d="M 338.617188 76.003906 L 36.425781 76.003906 C 17.070312 76.003906 1.378906 60.347656 1.378906 41.039062 C 1.378906 21.726562 17.070312 6.074219 36.425781 6.074219 L 338.617188 6.074219 C 357.972656 6.074219 373.660156 21.726562 373.660156 41.039062 C 373.660156 60.347656 357.972656 76.003906 338.617188 76.003906 " fill-opacity="1" fill-rule="nonzero"/></g><path fill="#ffffff" d="M 181.152344 126.21875 L 164.347656 101.652344 C 162.792969 99.386719 163.355469 96.296875 165.605469 94.714844 C 167.726562 93.226562 170.636719 93.589844 172.328125 95.554688 L 176.238281 100.109375 L 176.238281 66.535156 C 176.238281 64.136719 178.1875 62.195312 180.585938 62.195312 C 182.988281 62.195312 184.9375 64.136719 184.9375 66.535156 L 184.9375 86.132812 L 185.519531 83.875 C 185.617188 83.488281 185.746094 83.109375 185.925781 82.753906 C 186.757812 81.140625 188.089844 80.621094 189.375 80.523438 C 189.476562 80.515625 189.585938 80.511719 189.6875 80.511719 L 190 80.53125 C 191.324219 80.628906 192.515625 81.378906 193.164062 82.535156 C 193.765625 83.59375 194.085938 84.789062 194.101562 86.003906 C 194.113281 87.023438 194.113281 88.542969 194.113281 88.542969 L 194.289062 87.960938 C 194.535156 87.152344 194.996094 86.410156 195.667969 85.898438 C 196.324219 85.40625 197.128906 85.109375 197.980469 85.078125 L 198.285156 85.0625 C 199.800781 85.003906 201.230469 85.804688 201.96875 87.132812 L 201.988281 87.167969 C 202.332031 87.78125 202.5 88.460938 202.496094 89.148438 C 202.488281 89.777344 202.488281 91.433594 202.488281 91.433594 L 203.066406 90.722656 C 203.601562 90.0625 204.292969 89.53125 205.109375 89.269531 C 205.570312 89.121094 206.0625 89.050781 206.558594 89.0625 L 206.640625 89.066406 C 208.574219 89.105469 210.265625 90.375 210.84375 92.214844 L 210.863281 92.277344 C 211.351562 93.835938 211.585938 95.445312 211.558594 97.058594 C 211.492188 102.085938 211.097656 112.214844 205.304688 126.21875 L 181.152344 126.21875 " fill-opacity="1" fill-rule="nonzero"/><g clip-path="url(#82dd415f53)"><path fill="#111111" d="M 203.898438 124.773438 L 182.738281 124.773438 C 182.226562 124.773438 181.742188 124.515625 181.453125 124.09375 L 165.636719 100.976562 C 164.585938 99.441406 164.757812 97.296875 166.179688 96.101562 C 167.71875 94.804688 169.945312 95.007812 171.226562 96.496094 L 174.847656 100.714844 C 175.824219 101.847656 177.6875 101.160156 177.6875 99.667969 L 177.6875 66.644531 C 177.6875 65.25 178.632812 63.960938 180.007812 63.695312 C 181.859375 63.339844 183.488281 64.75 183.488281 66.535156 L 183.488281 88.324219 C 183.488281 89.164062 184.0625 89.945312 184.890625 90.082031 C 185.953125 90.25 186.867188 89.441406 186.867188 88.414062 L 186.867188 84.378906 L 186.925781 84.238281 C 187.015625 83.890625 187.109375 83.625 187.214844 83.414062 C 187.703125 82.464844 188.4375 82.019531 189.605469 81.957031 C 189.617188 81.957031 189.628906 81.957031 189.640625 81.957031 L 189.890625 81.976562 C 190.710938 82.03125 191.464844 82.484375 191.875 83.195312 C 192.371094 84.050781 192.640625 85.03125 192.652344 86.019531 C 192.664062 87.03125 192.664062 88.542969 192.664062 88.542969 L 192.664062 92.707031 C 192.664062 93.554688 193.246094 94.34375 194.085938 94.476562 C 195.152344 94.652344 196.078125 93.832031 196.078125 92.796875 L 196.078125 87.550781 C 196.214844 87.355469 196.367188 87.1875 196.546875 87.054688 C 196.976562 86.726562 197.492188 86.539062 198.035156 86.519531 L 198.339844 86.507812 C 199.320312 86.476562 200.226562 86.976562 200.722656 87.871094 C 200.941406 88.261719 201.050781 88.695312 201.046875 89.132812 C 201.039062 89.765625 201.039062 91.433594 201.039062 91.433594 L 201.039062 95.765625 C 201.039062 96.714844 201.804688 97.476562 202.753906 97.476562 C 203.703125 97.476562 204.472656 96.714844 204.472656 95.765625 L 204.472656 91.328125 C 204.742188 91.058594 205.105469 90.789062 205.546875 90.648438 C 205.863281 90.546875 206.199219 90.5 206.527344 90.507812 L 206.613281 90.511719 C 207.921875 90.535156 209.070312 91.398438 209.460938 92.644531 L 209.476562 92.710938 C 209.917969 94.121094 210.132812 95.585938 210.109375 97.0625 C 210.054688 100.855469 209.90625 110.699219 204.488281 124.371094 C 204.394531 124.609375 204.15625 124.773438 203.898438 124.773438 Z M 212.246094 91.847656 L 212.226562 91.785156 C 211.46875 89.351562 209.234375 87.667969 206.679688 87.617188 L 206.585938 87.617188 C 205.9375 87.605469 205.289062 87.695312 204.667969 87.894531 C 204.390625 87.980469 204.128906 88.089844 203.871094 88.222656 C 203.773438 87.65625 203.585938 87.101562 203.308594 86.566406 C 202.300781 84.632812 200.171875 83.539062 197.988281 83.625 L 197.921875 83.628906 C 197.019531 83.667969 196.152344 83.914062 195.378906 84.363281 C 195.175781 83.382812 194.808594 82.4375 194.28125 81.578125 C 193.390625 80.113281 191.816406 79.199219 190.105469 79.089844 L 189.6875 79.066406 C 189.542969 79.066406 189.398438 79.070312 189.257812 79.078125 C 188.152344 79.167969 187.1875 79.5 186.386719 80.058594 L 186.386719 66.730469 C 186.386719 63.792969 184.269531 61.171875 181.351562 60.796875 C 177.816406 60.34375 174.789062 63.09375 174.789062 66.535156 L 174.789062 96.203125 L 173.601562 94.816406 C 171.566406 92.449219 168.117188 91.648438 165.382812 93.15625 C 162 95.015625 161.027344 99.371094 163.148438 102.472656 L 179.574219 126.480469 C 180.082031 127.222656 180.925781 127.660156 181.824219 127.660156 L 204.574219 127.660156 C 205.605469 127.660156 206.53125 127.039062 206.921875 126.085938 C 206.960938 125.992188 206.996094 125.914062 207.011719 125.867188 C 212.785156 111.507812 212.949219 101.128906 213.007812 97.128906 C 213.035156 95.335938 212.777344 93.558594 212.246094 91.847656 " fill-opacity="1" fill-rule="nonzero"/></g><path fill="#ffffff" d="M 39.730469 36.875 L 43.40625 36.875 C 45.652344 36.875 47.082031 36.773438 47.695312 36.578125 C 48.304688 36.378906 48.804688 35.984375 49.183594 35.382812 C 49.566406 34.785156 49.757812 33.992188 49.757812 33.003906 C 49.757812 32.050781 49.566406 31.289062 49.183594 30.710938 C 48.804688 30.132812 48.285156 29.738281 47.632812 29.515625 C 47.167969 29.367188 45.828125 29.292969 43.609375 29.292969 L 39.730469 29.292969 Z M 34.789062 54.101562 L 34.789062 24.246094 L 45.226562 24.246094 C 47.890625 24.246094 49.796875 24.511719 50.9375 25.046875 C 52.082031 25.585938 53.019531 26.511719 53.757812 27.835938 C 54.492188 29.164062 54.855469 30.746094 54.855469 32.59375 C 54.855469 34.929688 54.296875 36.808594 53.171875 38.234375 C 52.050781 39.660156 50.453125 40.558594 48.386719 40.925781 C 49.449219 41.6875 50.328125 42.515625 51.023438 43.417969 C 51.714844 44.324219 52.660156 45.941406 53.859375 48.28125 L 56.839844 54.101562 L 50.929688 54.101562 L 47.34375 47.605469 C 46.050781 45.257812 45.175781 43.785156 44.710938 43.195312 C 44.25 42.605469 43.761719 42.199219 43.242188 41.972656 C 42.722656 41.75 41.894531 41.636719 40.75 41.636719 L 39.730469 41.636719 L 39.730469 54.101562 L 34.789062 54.101562 " fill-opacity="1" fill-rule="nonzero"/><path fill="#ffffff" d="M 59.535156 54.101562 L 59.535156 24.246094 L 77.742188 24.246094 L 77.742188 29.292969 L 64.476562 29.292969 L 64.476562 35.914062 L 76.808594 35.914062 L 76.808594 40.945312 L 64.476562 40.945312 L 64.476562 49.050781 L 78.195312 49.050781 L 78.195312 54.101562 L 59.535156 54.101562 " fill-opacity="1" fill-rule="nonzero"/><path fill="#ffffff" d="M 93.8125 43.144531 L 93.8125 38.09375 L 104.492188 38.09375 L 104.492188 49.988281 C 103.414062 51.25 101.890625 52.339844 99.917969 53.25 C 97.945312 54.15625 95.964844 54.613281 93.976562 54.613281 C 91.554688 54.613281 89.414062 54.019531 87.5625 52.832031 C 85.714844 51.644531 84.246094 49.863281 83.164062 47.492188 C 82.085938 45.125 81.542969 42.335938 81.542969 39.132812 C 81.542969 35.84375 82.09375 33.035156 83.1875 30.699219 C 84.28125 28.363281 85.703125 26.621094 87.453125 25.464844 C 89.203125 24.308594 91.292969 23.730469 93.730469 23.730469 C 96.65625 23.730469 99.003906 24.476562 100.765625 25.964844 C 102.527344 27.449219 103.660156 29.632812 104.164062 32.511719 L 99.265625 33.632812 C 98.894531 32.097656 98.222656 30.921875 97.242188 30.109375 C 96.265625 29.292969 95.09375 28.886719 93.730469 28.886719 C 91.621094 28.886719 89.914062 29.703125 88.609375 31.339844 C 87.300781 32.976562 86.644531 35.472656 86.644531 38.828125 C 86.644531 42.425781 87.355469 45.160156 88.769531 47.035156 C 89.980469 48.652344 91.621094 49.457031 93.691406 49.457031 C 94.65625 49.457031 95.660156 49.234375 96.703125 48.78125 C 97.742188 48.328125 98.671875 47.707031 99.488281 46.921875 L 99.488281 43.144531 L 93.8125 43.144531 " fill-opacity="1" fill-rule="nonzero"/><path fill="#ffffff" d="M 108.921875 54.101562 L 108.921875 24.246094 L 113.863281 24.246094 L 113.863281 54.101562 L 108.921875 54.101562 " fill-opacity="1" fill-rule="nonzero"/><path fill="#ffffff" d="M 117.355469 44.367188 L 122.191406 43.796875 C 122.734375 47.613281 124.519531 49.519531 127.539062 49.519531 C 129.035156 49.519531 130.214844 49.128906 131.070312 48.351562 C 131.925781 47.570312 132.355469 46.601562 132.355469 45.449219 C 132.355469 44.769531 132.210938 44.195312 131.910156 43.71875 C 131.609375 43.242188 131.152344 42.851562 130.539062 42.546875 C 129.929688 42.242188 128.441406 41.730469 126.089844 41.011719 C 123.980469 40.375 122.4375 39.683594 121.457031 38.9375 C 120.476562 38.1875 119.695312 37.210938 119.117188 35.996094 C 118.539062 34.78125 118.25 33.476562 118.25 32.078125 C 118.25 30.449219 118.621094 28.984375 119.363281 27.679688 C 120.105469 26.378906 121.132812 25.394531 122.4375 24.730469 C 123.742188 24.0625 125.355469 23.730469 127.277344 23.730469 C 130.160156 23.730469 132.410156 24.515625 134.03125 26.078125 C 135.648438 27.636719 136.511719 29.871094 136.605469 32.777344 L 131.640625 33.042969 C 131.425781 31.4375 130.953125 30.320312 130.234375 29.679688 C 129.511719 29.042969 128.484375 28.722656 127.152344 28.722656 C 125.820312 28.722656 124.792969 29 124.070312 29.554688 C 123.347656 30.113281 122.984375 30.800781 122.984375 31.625 C 122.984375 32.441406 123.3125 33.121094 123.96875 33.679688 C 124.621094 34.234375 126.128906 34.84375 128.484375 35.511719 C 130.972656 36.230469 132.773438 36.988281 133.878906 37.78125 C 134.988281 38.574219 135.835938 39.597656 136.417969 40.859375 C 137.003906 42.113281 137.296875 43.632812 137.296875 45.425781 C 137.296875 48.023438 136.5 50.203125 134.898438 51.964844 C 133.300781 53.730469 130.800781 54.613281 127.398438 54.613281 C 121.378906 54.613281 118.035156 51.195312 117.355469 44.367188 " fill-opacity="1" fill-rule="nonzero"/><path fill="#ffffff" d="M 146.996094 54.101562 L 146.996094 29.292969 L 139.707031 29.292969 L 139.707031 24.246094 L 159.203125 24.246094 L 159.203125 29.292969 L 151.9375 29.292969 L 151.9375 54.101562 L 146.996094 54.101562 " fill-opacity="1" fill-rule="nonzero"/><path fill="#ffffff" d="M 162.429688 54.101562 L 162.429688 24.246094 L 180.640625 24.246094 L 180.640625 29.292969 L 167.371094 29.292969 L 167.371094 35.914062 L 179.703125 35.914062 L 179.703125 40.945312 L 167.371094 40.945312 L 167.371094 49.050781 L 181.089844 49.050781 L 181.089844 54.101562 L 162.429688 54.101562 " fill-opacity="1" fill-rule="nonzero"/><path fill="#ffffff" d="M 190.238281 36.875 L 193.910156 36.875 C 196.160156 36.875 197.585938 36.773438 198.195312 36.578125 C 198.808594 36.378906 199.308594 35.984375 199.6875 35.382812 C 200.070312 34.785156 200.261719 33.992188 200.261719 33.003906 C 200.261719 32.050781 200.070312 31.289062 199.6875 30.710938 C 199.308594 30.132812 198.789062 29.738281 198.136719 29.515625 C 197.671875 29.367188 196.332031 29.292969 194.117188 29.292969 L 190.238281 29.292969 Z M 185.296875 54.101562 L 185.296875 24.246094 L 195.730469 24.246094 C 198.394531 24.246094 200.300781 24.511719 201.441406 25.046875 C 202.589844 25.585938 203.527344 26.511719 204.261719 27.835938 C 204.996094 29.164062 205.363281 30.746094 205.363281 32.59375 C 205.363281 34.929688 204.804688 36.808594 203.679688 38.234375 C 202.554688 39.660156 200.960938 40.558594 198.890625 40.925781 C 199.953125 41.6875 200.832031 42.515625 201.527344 43.417969 C 202.21875 44.324219 203.167969 45.941406 204.363281 48.28125 L 207.34375 54.101562 L 201.433594 54.101562 L 197.847656 47.605469 C 196.554688 45.257812 195.679688 43.785156 195.21875 43.195312 C 194.753906 42.605469 194.265625 42.199219 193.746094 41.972656 C 193.230469 41.75 192.398438 41.636719 191.257812 41.636719 L 190.238281 41.636719 L 190.238281 54.101562 L 185.296875 54.101562 " fill-opacity="1" fill-rule="nonzero"/><path fill="#ffffff" d="M 227.359375 54.101562 L 227.359375 24.246094 L 232.171875 24.246094 L 242.21875 44.183594 L 242.21875 24.246094 L 246.832031 24.246094 L 246.832031 54.101562 L 241.851562 54.101562 L 231.96875 34.628906 L 231.96875 54.101562 L 227.359375 54.101562 " fill-opacity="1" fill-rule="nonzero"/><path fill="#ffffff" d="M 256.144531 39.152344 C 256.144531 42.589844 256.796875 45.164062 258.105469 46.882812 C 259.414062 48.601562 261.035156 49.457031 262.972656 49.457031 C 264.917969 49.457031 266.535156 48.609375 267.816406 46.902344 C 269.097656 45.199219 269.738281 42.582031 269.738281 39.050781 C 269.738281 35.589844 269.117188 33.027344 267.867188 31.371094 C 266.621094 29.714844 264.988281 28.886719 262.972656 28.886719 C 260.953125 28.886719 259.3125 29.722656 258.042969 31.390625 C 256.777344 33.0625 256.144531 35.652344 256.144531 39.152344 Z M 251.039062 39.359375 C 251.039062 35.796875 251.566406 32.871094 252.621094 30.566406 C 253.675781 28.265625 255.050781 26.550781 256.753906 25.421875 C 258.457031 24.292969 260.515625 23.730469 262.941406 23.730469 C 266.453125 23.730469 269.3125 25.070312 271.527344 27.746094 C 273.738281 30.421875 274.84375 34.230469 274.84375 39.175781 C 274.84375 44.171875 273.671875 48.074219 271.332031 50.886719 C 269.273438 53.371094 266.488281 54.613281 262.960938 54.613281 C 259.40625 54.613281 256.605469 53.386719 254.550781 50.925781 C 252.207031 48.117188 251.039062 44.257812 251.039062 39.359375 " fill-opacity="1" fill-rule="nonzero"/><path fill="#ffffff" d="M 282.21875 54.101562 L 276.332031 24.246094 L 281.417969 24.246094 L 285.101562 44.761719 L 289.585938 24.246094 L 295.492188 24.246094 L 299.800781 45.109375 L 303.589844 24.246094 L 308.570312 24.246094 L 302.609375 54.101562 L 297.335938 54.101562 L 292.433594 31.769531 L 287.574219 54.101562 L 282.21875 54.101562 " fill-opacity="1" fill-rule="nonzero"/><path fill="#ffffff" d="M 330.230469 24.246094 L 324.011719 24.246094 L 334.03125 39.175781 L 324.011719 54.101562 L 330.230469 54.101562 L 340.25 39.175781 L 330.230469 24.246094 " fill-opacity="1" fill-rule="nonzero"/></svg>