<svg xmlns="http://www.w3.org/2000/svg" xmlns:xlink="http://www.w3.org/1999/xlink" width="1640" zoomAndPan="magnify" viewBox="0 0 1230 693.000001" height="924" preserveAspectRatio="xMidYMid meet" version="1.0"><defs><g/><clipPath id="ba7e8cdcff"><path d="M 204.945312 201.1875 L 1159.914062 201.1875 L 1159.914062 692 L 204.945312 692 Z M 204.945312 201.1875 " clip-rule="nonzero"/></clipPath><clipPath id="b65d425353"><path d="M 97 36 L 400 36 L 400 340 L 97 340 Z M 97 36 " clip-rule="nonzero"/></clipPath><clipPath id="f4eb546de0"><path d="M 60.5625 72.917969 L 363.539062 0 L 436.457031 302.972656 L 133.484375 375.894531 Z M 60.5625 72.917969 " clip-rule="nonzero"/></clipPath><clipPath id="9f117504ac"><path d="M 212.050781 36.460938 L 266.726562 72.515625 L 329.847656 55.046875 L 343.011719 119.203125 L 399.996094 151.488281 L 363.941406 206.160156 L 381.410156 269.28125 L 317.253906 282.449219 L 284.96875 339.433594 L 230.292969 303.378906 L 167.171875 320.84375 L 154.007812 256.6875 L 97.023438 224.40625 L 133.078125 169.730469 L 115.613281 106.609375 L 179.769531 93.445312 L 212.050781 36.460938 " clip-rule="nonzero"/></clipPath><clipPath id="2629bf8839"><path d="M 150 186 L 200 186 L 200 237 L 150 237 Z M 150 186 " clip-rule="nonzero"/></clipPath><clipPath id="9b9f66c503"><path d="M 119.28125 108.855469 L 327.527344 58.734375 L 377.648438 266.980469 L 169.402344 317.101562 Z M 119.28125 108.855469 " clip-rule="nonzero"/></clipPath><clipPath id="71ce2eb97d"><path d="M 172 165 L 187 165 L 187 185 L 172 185 Z M 172 165 " clip-rule="nonzero"/></clipPath><clipPath id="9345de3428"><path d="M 119.28125 108.855469 L 327.527344 58.734375 L 377.648438 266.980469 L 169.402344 317.101562 Z M 119.28125 108.855469 " clip-rule="nonzero"/></clipPath><clipPath id="293b09c226"><path d="M 197 175 L 245 175 L 245 226 L 197 226 Z M 197 175 " clip-rule="nonzero"/></clipPath><clipPath id="b899160bf5"><path d="M 119.28125 108.855469 L 327.527344 58.734375 L 377.648438 266.980469 L 169.402344 317.101562 Z M 119.28125 108.855469 " clip-rule="nonzero"/></clipPath><clipPath id="db7e2414b1"><path d="M 243 164 L 290 164 L 290 214 L 243 214 Z M 243 164 " clip-rule="nonzero"/></clipPath><clipPath id="05d52712b0"><path d="M 119.28125 108.855469 L 327.527344 58.734375 L 377.648438 266.980469 L 169.402344 317.101562 Z M 119.28125 108.855469 " clip-rule="nonzero"/></clipPath><clipPath id="00b0e332ee"><path d="M 240 129 L 277 129 L 277 168 L 240 168 Z M 240 129 " clip-rule="nonzero"/></clipPath><clipPath id="7b2d58737b"><path d="M 119.28125 108.855469 L 327.527344 58.734375 L 377.648438 266.980469 L 169.402344 317.101562 Z M 119.28125 108.855469 " clip-rule="nonzero"/></clipPath><clipPath id="3c16ed74ba"><path d="M 294 203 L 295 203 L 295 204 L 294 204 Z M 294 203 " clip-rule="nonzero"/></clipPath><clipPath id="aa8ffa312c"><path d="M 119.28125 108.855469 L 327.527344 58.734375 L 377.648438 266.980469 L 169.402344 317.101562 Z M 119.28125 108.855469 " clip-rule="nonzero"/></clipPath><clipPath id="afb4f9b1ff"><path d="M 298 141 L 332 141 L 332 200 L 298 200 Z M 298 141 " clip-rule="nonzero"/></clipPath><clipPath id="0b7f526c24"><path d="M 119.28125 108.855469 L 327.527344 58.734375 L 377.648438 266.980469 L 169.402344 317.101562 Z M 119.28125 108.855469 " clip-rule="nonzero"/></clipPath><clipPath id="3633e0c646"><path d="M 337 193 L 338 193 L 338 194 L 337 194 Z M 337 193 " clip-rule="nonzero"/></clipPath><clipPath id="d409971e80"><path d="M 119.28125 108.855469 L 327.527344 58.734375 L 377.648438 266.980469 L 169.402344 317.101562 Z M 119.28125 108.855469 " clip-rule="nonzero"/></clipPath></defs><g clip-path="url(#ba7e8cdcff)"><path fill="#3b3b3b" d="M 204.945312 201.1875 L 1159.914062 201.1875 L 1159.914062 692 L 204.945312 692 Z M 204.945312 201.1875 " fill-opacity="1" fill-rule="nonzero"/></g><g fill="#ffffff" fill-opacity="1"><g transform="translate(291.360975, 418.165376)"><g><path d="M 69.625 -74.53125 C 69.507812 -73.625 69.210938 -72.59375 68.734375 -71.4375 C 68.253906 -70.28125 67.578125 -69.140625 66.703125 -68.015625 C 65.828125 -66.890625 64.769531 -65.832031 63.53125 -64.84375 C 62.289062 -63.851562 60.851562 -63.078125 59.21875 -62.515625 C 62.71875 -58.679688 64.46875 -54 64.46875 -48.46875 L 64.46875 0 L 47.453125 0 L 47.453125 -28.25 C 47.285156 -28.644531 46.878906 -29.164062 46.234375 -29.8125 C 45.585938 -30.46875 44.6875 -31.101562 43.53125 -31.71875 C 42.375 -32.34375 40.988281 -32.863281 39.375 -33.28125 C 37.769531 -33.707031 35.953125 -33.921875 33.921875 -33.921875 C 31.890625 -33.921875 30.023438 -33.640625 28.328125 -33.078125 C 26.640625 -32.515625 25.1875 -31.753906 23.96875 -30.796875 C 22.757812 -29.835938 21.816406 -28.691406 21.140625 -27.359375 C 20.472656 -26.035156 20.140625 -24.585938 20.140625 -23.015625 C 20.140625 -20.703125 20.671875 -18.796875 21.734375 -17.296875 C 22.804688 -15.804688 24.160156 -14.691406 25.796875 -13.953125 C 27.429688 -13.222656 29.207031 -12.859375 31.125 -12.859375 C 33.039062 -12.859375 34.847656 -13.195312 36.546875 -13.875 L 36.546875 -0.171875 C 30.898438 0.953125 25.988281 1.078125 21.8125 0.203125 C 17.644531 -0.660156 14.191406 -2.207031 11.453125 -4.4375 C 8.722656 -6.664062 6.679688 -9.414062 5.328125 -12.6875 C 3.972656 -15.957031 3.296875 -19.453125 3.296875 -23.171875 C 3.296875 -26.441406 3.890625 -29.585938 5.078125 -32.609375 C 6.265625 -35.628906 8.007812 -38.296875 10.3125 -40.609375 C 12.625 -42.921875 15.53125 -44.78125 19.03125 -46.1875 C 22.53125 -47.59375 26.59375 -48.296875 31.21875 -48.296875 C 35.5625 -48.296875 39.097656 -47.832031 41.828125 -46.90625 C 44.566406 -45.976562 46.441406 -45.0625 47.453125 -44.15625 L 47.453125 -47.796875 C 47.453125 -49.378906 47.113281 -50.789062 46.4375 -52.03125 C 45.757812 -53.269531 44.859375 -54.335938 43.734375 -55.234375 C 42.609375 -56.140625 41.253906 -56.832031 39.671875 -57.3125 C 38.097656 -57.789062 36.4375 -58.03125 34.6875 -58.03125 C 31.019531 -58.03125 28.039062 -57.195312 25.75 -55.53125 C 23.46875 -53.875 21.988281 -51.832031 21.3125 -49.40625 L 3.96875 -49.40625 C 4.257812 -51.9375 5.125 -54.472656 6.5625 -57.015625 C 8 -59.554688 9.984375 -61.84375 12.515625 -63.875 C 15.054688 -65.90625 18.144531 -67.550781 21.78125 -68.8125 C 25.414062 -70.082031 29.601562 -70.71875 34.34375 -70.71875 C 36.882812 -70.71875 39.222656 -70.578125 41.359375 -70.296875 C 43.503906 -70.015625 45.535156 -69.617188 47.453125 -69.109375 C 48.359375 -69.847656 48.992188 -70.738281 49.359375 -71.78125 C 49.722656 -72.820312 49.90625 -73.738281 49.90625 -74.53125 Z M 69.625 -74.53125 "/></g></g></g><g fill="#ffffff" fill-opacity="1"><g transform="translate(360.977854, 418.165376)"><g><path d="M -22.15625 -78 L -22.15625 -98.71875 L -5.15625 -98.71875 L -5.15625 -78 Z M -22.15625 -78 "/></g></g></g><g fill="#ffffff" fill-opacity="1"><g transform="translate(360.977854, 418.165376)"><g><path d="M 63.78125 -34.6875 C 63.78125 -28.988281 63.21875 -23.910156 62.09375 -19.453125 C 60.96875 -15.003906 59.160156 -11.226562 56.671875 -8.125 C 54.191406 -5.019531 50.992188 -2.660156 47.078125 -1.046875 C 43.160156 0.554688 38.378906 1.359375 32.734375 1.359375 C 27.992188 1.359375 23.804688 0.722656 20.171875 -0.546875 C 16.535156 -1.816406 13.476562 -3.550781 11 -5.75 C 8.519531 -7.945312 6.628906 -10.5 5.328125 -13.40625 C 4.035156 -16.3125 3.359375 -19.398438 3.296875 -22.671875 L 20.984375 -22.671875 C 21.097656 -21.265625 21.4375 -19.9375 22 -18.6875 C 22.5625 -17.445312 23.332031 -16.363281 24.3125 -15.4375 C 25.300781 -14.507812 26.472656 -13.773438 27.828125 -13.234375 C 29.179688 -12.703125 30.707031 -12.4375 32.40625 -12.4375 C 34.09375 -12.4375 35.738281 -12.703125 37.34375 -13.234375 C 38.957031 -13.773438 40.394531 -14.832031 41.65625 -16.40625 C 42.925781 -17.988281 43.957031 -20.234375 44.75 -23.140625 C 45.539062 -26.046875 45.9375 -29.894531 45.9375 -34.6875 C 45.9375 -39.425781 45.539062 -43.242188 44.75 -46.140625 C 43.957031 -49.046875 42.925781 -51.285156 41.65625 -52.859375 C 40.394531 -54.441406 38.957031 -55.5 37.34375 -56.03125 C 35.738281 -56.570312 34.09375 -56.84375 32.40625 -56.84375 C 30.707031 -56.84375 29.179688 -56.570312 27.828125 -56.03125 C 26.472656 -55.5 25.300781 -54.769531 24.3125 -53.84375 C 23.332031 -52.914062 22.5625 -51.832031 22 -50.59375 C 21.4375 -49.351562 21.097656 -48.023438 20.984375 -46.609375 L 3.296875 -46.609375 C 3.359375 -49.878906 4.035156 -52.976562 5.328125 -55.90625 C 6.628906 -58.84375 8.519531 -61.410156 11 -63.609375 C 13.476562 -65.816406 16.535156 -67.550781 20.171875 -68.8125 C 23.804688 -70.082031 27.992188 -70.71875 32.734375 -70.71875 C 38.378906 -70.71875 43.160156 -69.898438 47.078125 -68.265625 C 50.992188 -66.628906 54.191406 -64.273438 56.671875 -61.203125 C 59.160156 -58.128906 60.96875 -54.347656 62.09375 -49.859375 C 63.21875 -45.378906 63.78125 -40.320312 63.78125 -34.6875 Z M 63.78125 -34.6875 "/></g></g></g><g fill="#ffffff" fill-opacity="1"><g transform="translate(428.564595, 418.165376)"><g><path d="M 48.140625 0 L 48.140625 -8.796875 C 47.003906 -7.441406 45.71875 -6.1875 44.28125 -5.03125 C 42.84375 -3.875 41.222656 -2.859375 39.421875 -1.984375 C 37.617188 -1.109375 35.660156 -0.421875 33.546875 0.078125 C 31.429688 0.585938 29.128906 0.84375 26.640625 0.84375 C 23.429688 0.84375 20.5 0.363281 17.84375 -0.59375 C 15.195312 -1.550781 12.925781 -2.890625 11.03125 -4.609375 C 9.144531 -6.328125 7.691406 -8.410156 6.671875 -10.859375 C 5.660156 -13.316406 5.15625 -16.039062 5.15625 -19.03125 L 5.15625 -69.28125 L 12.4375 -69.28125 C 15.425781 -69.28125 17.789062 -68.503906 19.53125 -66.953125 C 21.28125 -65.398438 22.15625 -62.878906 22.15625 -59.390625 L 22.15625 -24.28125 C 22.15625 -20.5625 22.972656 -17.515625 24.609375 -15.140625 C 26.253906 -12.773438 29.019531 -11.59375 32.90625 -11.59375 C 35.269531 -11.59375 37.394531 -12.113281 39.28125 -13.15625 C 41.175781 -14.195312 42.785156 -15.503906 44.109375 -17.078125 C 45.441406 -18.660156 46.445312 -20.394531 47.125 -22.28125 C 47.800781 -24.175781 48.140625 -25.941406 48.140625 -27.578125 L 48.140625 -69.28125 L 65.140625 -69.28125 L 65.140625 0 Z M 48.140625 0 "/></g></g></g><g fill="#ffffff" fill-opacity="1"><g transform="translate(498.858188, 418.165376)"><g><path d="M 47.453125 0 L 47.453125 -28.25 C 47.285156 -28.644531 46.878906 -29.164062 46.234375 -29.8125 C 45.585938 -30.46875 44.6875 -31.101562 43.53125 -31.71875 C 42.375 -32.34375 40.988281 -32.863281 39.375 -33.28125 C 37.769531 -33.707031 35.953125 -33.921875 33.921875 -33.921875 C 31.890625 -33.921875 30.023438 -33.640625 28.328125 -33.078125 C 26.640625 -32.515625 25.1875 -31.753906 23.96875 -30.796875 C 22.757812 -29.835938 21.816406 -28.691406 21.140625 -27.359375 C 20.472656 -26.035156 20.140625 -24.585938 20.140625 -23.015625 C 20.140625 -20.703125 20.671875 -18.796875 21.734375 -17.296875 C 22.804688 -15.804688 24.160156 -14.691406 25.796875 -13.953125 C 27.429688 -13.222656 29.207031 -12.859375 31.125 -12.859375 C 33.039062 -12.859375 34.847656 -13.195312 36.546875 -13.875 L 36.546875 -0.171875 C 30.898438 0.953125 25.988281 1.078125 21.8125 0.203125 C 17.644531 -0.660156 14.191406 -2.207031 11.453125 -4.4375 C 8.722656 -6.664062 6.679688 -9.414062 5.328125 -12.6875 C 3.972656 -15.957031 3.296875 -19.453125 3.296875 -23.171875 C 3.296875 -26.441406 3.890625 -29.585938 5.078125 -32.609375 C 6.265625 -35.628906 8.007812 -38.296875 10.3125 -40.609375 C 12.625 -42.921875 15.53125 -44.78125 19.03125 -46.1875 C 22.53125 -47.59375 26.59375 -48.296875 31.21875 -48.296875 C 35.5625 -48.296875 39.097656 -47.832031 41.828125 -46.90625 C 44.566406 -45.976562 46.441406 -45.0625 47.453125 -44.15625 L 47.453125 -47.796875 C 47.453125 -49.378906 47.113281 -50.789062 46.4375 -52.03125 C 45.757812 -53.269531 44.859375 -54.335938 43.734375 -55.234375 C 42.609375 -56.140625 41.253906 -56.832031 39.671875 -57.3125 C 38.097656 -57.789062 36.4375 -58.03125 34.6875 -58.03125 C 31.019531 -58.03125 28.039062 -57.195312 25.75 -55.53125 C 23.46875 -53.875 21.988281 -51.832031 21.3125 -49.40625 L 3.96875 -49.40625 C 4.257812 -51.9375 5.125 -54.472656 6.5625 -57.015625 C 8 -59.554688 9.984375 -61.84375 12.515625 -63.875 C 15.054688 -65.90625 18.144531 -67.550781 21.78125 -68.8125 C 25.414062 -70.082031 29.601562 -70.71875 34.34375 -70.71875 C 39.414062 -70.71875 43.84375 -70.164062 47.625 -69.0625 C 51.40625 -67.96875 54.550781 -66.429688 57.0625 -64.453125 C 59.570312 -62.484375 61.429688 -60.144531 62.640625 -57.4375 C 63.859375 -54.726562 64.46875 -51.738281 64.46875 -48.46875 L 64.46875 0 Z M 47.453125 0 "/></g></g></g><g fill="#ffffff" fill-opacity="1"><g transform="translate(568.475068, 418.165376)"><g><path d="M 49.0625 0 L 49.0625 -55.75 L 38.828125 -56 C 36.398438 -56.0625 34.070312 -55.65625 31.84375 -54.78125 C 29.625 -53.90625 27.664062 -52.5625 25.96875 -50.75 C 24.28125 -48.945312 22.941406 -46.648438 21.953125 -43.859375 C 20.960938 -41.066406 20.46875 -37.753906 20.46875 -33.921875 C 20.46875 -29.691406 20.988281 -26.25 22.03125 -23.59375 C 23.082031 -20.945312 24.453125 -18.914062 26.140625 -17.5 C 27.828125 -16.09375 29.769531 -15.207031 31.96875 -14.84375 C 34.175781 -14.476562 36.460938 -14.492188 38.828125 -14.890625 L 38.828125 0 C 32.398438 1.1875 26.929688 1.046875 22.421875 -0.421875 C 17.910156 -1.890625 14.226562 -4.242188 11.375 -7.484375 C 8.53125 -10.722656 6.472656 -14.65625 5.203125 -19.28125 C 3.929688 -23.90625 3.296875 -28.785156 3.296875 -33.921875 C 3.296875 -39.109375 4 -43.882812 5.40625 -48.25 C 6.820312 -52.625 8.835938 -56.390625 11.453125 -59.546875 C 14.078125 -62.710938 17.289062 -65.164062 21.09375 -66.90625 C 24.90625 -68.65625 29.179688 -69.503906 33.921875 -69.453125 L 65.984375 -69.28125 L 65.984375 0 Z M 49.0625 0 "/></g></g></g><g fill="#ffffff" fill-opacity="1"><g transform="translate(639.699143, 418.165376)"><g><path d="M 48.140625 0 L 48.140625 -46.953125 C 48.140625 -49.035156 47.753906 -50.78125 46.984375 -52.1875 C 46.222656 -53.601562 45.238281 -54.75 44.03125 -55.625 C 42.820312 -56.5 41.425781 -57.117188 39.84375 -57.484375 C 38.257812 -57.847656 36.648438 -58.03125 35.015625 -58.03125 C 33.554688 -58.03125 32.0625 -57.847656 30.53125 -57.484375 C 29.007812 -57.117188 27.628906 -56.5 26.390625 -55.625 C 25.148438 -54.75 24.132812 -53.601562 23.34375 -52.1875 C 22.550781 -50.78125 22.15625 -49.035156 22.15625 -46.953125 L 22.15625 -39.84375 L 36.71875 -39.84375 L 36.71875 -24.78125 L 22.15625 -24.78125 L 22.15625 0 L 5.15625 0 L 5.15625 -47.453125 C 5.15625 -50.554688 5.734375 -53.503906 6.890625 -56.296875 C 8.046875 -59.085938 9.820312 -61.554688 12.21875 -63.703125 C 14.613281 -65.847656 17.703125 -67.550781 21.484375 -68.8125 C 25.265625 -70.082031 29.773438 -70.71875 35.015625 -70.71875 C 40.316406 -70.71875 44.859375 -70.082031 48.640625 -68.8125 C 52.421875 -67.550781 55.535156 -65.847656 57.984375 -63.703125 C 60.441406 -61.554688 62.25 -59.085938 63.40625 -56.296875 C 64.5625 -53.503906 65.140625 -50.554688 65.140625 -47.453125 L 65.140625 0 Z M 48.140625 0 "/></g></g></g><g fill="#ffffff" fill-opacity="1"><g transform="translate(709.992736, 418.165376)"><g><path d="M -22.15625 -78 L -22.15625 -98.71875 L -5.15625 -98.71875 L -5.15625 -78 Z M -22.15625 -78 "/></g></g></g><g fill="#ffffff" fill-opacity="1"><g transform="translate(709.992736, 418.165376)"><g><path d="M 24.609375 0 L 24.609375 -39.171875 C 24.609375 -41.253906 24.3125 -43.210938 23.71875 -45.046875 C 23.132812 -46.878906 22.25 -48.457031 21.0625 -49.78125 C 19.875 -51.101562 18.378906 -52.144531 16.578125 -52.90625 C 14.773438 -53.675781 12.660156 -54.0625 10.234375 -54.0625 L 1.6875 -54.0625 L 1.6875 -69.28125 L 13.359375 -69.28125 C 18.210938 -69.28125 22.414062 -68.546875 25.96875 -67.078125 C 29.519531 -65.617188 32.453125 -63.601562 34.765625 -61.03125 C 37.078125 -58.46875 38.796875 -55.453125 39.921875 -51.984375 C 41.054688 -48.515625 41.625 -44.804688 41.625 -40.859375 L 41.625 0 Z M 24.609375 0 "/></g></g></g><g fill="#ffffff" fill-opacity="1"><g transform="translate(756.770543, 418.165376)"><g><path d="M 8.625 0 L 8.625 -69.28125 L 25.625 -69.28125 L 25.625 0 Z M 8.625 0 "/></g></g></g><g fill="#ffffff" fill-opacity="1"><g transform="translate(791.113743, 418.165376)"><g><path d="M 48.140625 0 L 48.140625 -46.953125 C 48.140625 -49.035156 47.753906 -50.78125 46.984375 -52.1875 C 46.222656 -53.601562 45.238281 -54.75 44.03125 -55.625 C 42.820312 -56.5 41.425781 -57.117188 39.84375 -57.484375 C 38.257812 -57.847656 36.648438 -58.03125 35.015625 -58.03125 C 33.554688 -58.03125 32.0625 -57.847656 30.53125 -57.484375 C 29.007812 -57.117188 27.628906 -56.5 26.390625 -55.625 C 25.148438 -54.75 24.132812 -53.601562 23.34375 -52.1875 C 22.550781 -50.78125 22.15625 -49.035156 22.15625 -46.953125 L 22.15625 -39.84375 L 36.71875 -39.84375 L 36.71875 -24.78125 L 22.15625 -24.78125 L 22.15625 0 L 5.15625 0 L 5.15625 -47.453125 C 5.15625 -50.554688 5.734375 -53.503906 6.890625 -56.296875 C 8.046875 -59.085938 9.820312 -61.554688 12.21875 -63.703125 C 14.613281 -65.847656 17.703125 -67.550781 21.484375 -68.8125 C 25.265625 -70.082031 29.773438 -70.71875 35.015625 -70.71875 C 40.316406 -70.71875 44.859375 -70.082031 48.640625 -68.8125 C 52.421875 -67.550781 55.535156 -65.847656 57.984375 -63.703125 C 60.441406 -61.554688 62.25 -59.085938 63.40625 -56.296875 C 64.5625 -53.503906 65.140625 -50.554688 65.140625 -47.453125 L 65.140625 0 Z M 48.140625 0 "/></g></g></g><g fill="#ffffff" fill-opacity="1"><g transform="translate(861.407336, 418.165376)"><g><path d="M 46.953125 -48.46875 C 46.835938 -49.820312 46.425781 -51.078125 45.71875 -52.234375 C 45.019531 -53.390625 44.0625 -54.40625 42.84375 -55.28125 C 41.632812 -56.15625 40.210938 -56.832031 38.578125 -57.3125 C 36.941406 -57.789062 35.164062 -58.03125 33.25 -58.03125 C 31.4375 -58.03125 29.796875 -57.832031 28.328125 -57.4375 C 26.867188 -57.039062 25.601562 -56.503906 24.53125 -55.828125 C 23.457031 -55.148438 22.625 -54.359375 22.03125 -53.453125 C 21.445312 -52.554688 21.15625 -51.601562 21.15625 -50.59375 C 21.15625 -49.125 21.757812 -47.960938 22.96875 -47.109375 C 24.175781 -46.265625 25.78125 -45.585938 27.78125 -45.078125 C 29.789062 -44.578125 32.078125 -44.15625 34.640625 -43.8125 C 37.203125 -43.476562 39.804688 -43.03125 42.453125 -42.46875 C 45.109375 -41.90625 47.71875 -41.171875 50.28125 -40.265625 C 52.851562 -39.359375 55.140625 -38.101562 57.140625 -36.5 C 59.140625 -34.894531 60.742188 -32.835938 61.953125 -30.328125 C 63.171875 -27.816406 63.78125 -24.703125 63.78125 -20.984375 C 63.78125 -13.816406 61.253906 -8.300781 56.203125 -4.4375 C 51.160156 -0.570312 43.453125 1.359375 33.078125 1.359375 C 23.429688 1.359375 16.023438 -0.738281 10.859375 -4.9375 C 5.703125 -9.144531 3.125 -14.941406 3.125 -22.328125 L 20.46875 -22.328125 C 20.46875 -20.359375 20.890625 -18.664062 21.734375 -17.25 C 22.585938 -15.84375 23.691406 -14.6875 25.046875 -13.78125 C 26.398438 -12.882812 27.921875 -12.238281 29.609375 -11.84375 C 31.296875 -11.445312 32.988281 -11.25 34.6875 -11.25 C 36.4375 -11.25 38.054688 -11.457031 39.546875 -11.875 C 41.046875 -12.300781 42.328125 -12.867188 43.390625 -13.578125 C 44.460938 -14.285156 45.296875 -15.117188 45.890625 -16.078125 C 46.484375 -17.035156 46.78125 -18.019531 46.78125 -19.03125 C 46.78125 -21.113281 46.171875 -22.75 44.953125 -23.9375 C 43.742188 -25.125 42.140625 -26.066406 40.140625 -26.765625 C 38.140625 -27.472656 35.851562 -28.035156 33.28125 -28.453125 C 30.71875 -28.878906 28.109375 -29.332031 25.453125 -29.8125 C 22.804688 -30.289062 20.195312 -30.910156 17.625 -31.671875 C 15.0625 -32.441406 12.78125 -33.53125 10.78125 -34.9375 C 8.78125 -36.34375 7.171875 -38.1875 5.953125 -40.46875 C 4.742188 -42.757812 4.140625 -45.679688 4.140625 -49.234375 C 4.140625 -52.273438 4.832031 -55.09375 6.21875 -57.6875 C 7.601562 -60.28125 9.578125 -62.550781 12.140625 -64.5 C 14.703125 -66.445312 17.800781 -67.96875 21.4375 -69.0625 C 25.082031 -70.164062 29.1875 -70.71875 33.75 -70.71875 C 38.71875 -70.71875 43.085938 -70.125 46.859375 -68.9375 C 50.640625 -67.757812 53.796875 -66.164062 56.328125 -64.15625 C 58.867188 -62.15625 60.773438 -59.800781 62.046875 -57.09375 C 63.316406 -54.394531 63.953125 -51.519531 63.953125 -48.46875 Z M 46.953125 -48.46875 "/></g></g></g><g fill="#ffffff" fill-opacity="1"><g transform="translate(928.65572, 418.165376)"><g><path d="M -63.453125 -78 L -63.453125 -89.25 L -38.828125 -89.25 L -38.828125 -97.03125 L -27.40625 -97.03125 L -27.40625 -89.25 L -22.15625 -89.25 L -22.15625 -97.03125 L -5.15625 -97.03125 L -5.15625 -78 Z M -63.453125 -78 "/></g></g><g transform="translate(928.65572, 418.165376)"><g><path d="M -22.15625 -101.34375 L -22.15625 -116.90625 L -5.15625 -116.90625 L -5.15625 -101.34375 Z M -22.15625 -101.34375 "/></g></g></g><g fill="#ffffff" fill-opacity="1"><g transform="translate(928.65572, 418.165376)"><g><path d="M 72.75 -34.6875 C 72.75 -29.269531 71.929688 -24.347656 70.296875 -19.921875 C 68.660156 -15.492188 66.316406 -11.703125 63.265625 -8.546875 C 60.222656 -5.390625 56.554688 -2.945312 52.265625 -1.21875 C 47.984375 0.5 43.222656 1.359375 37.984375 1.359375 C 32.285156 1.359375 27.140625 0.328125 22.546875 -1.734375 C 17.953125 -3.796875 14.113281 -6.726562 11.03125 -10.53125 C 7.957031 -14.34375 5.703125 -18.96875 4.265625 -24.40625 C 2.828125 -29.84375 2.445312 -35.921875 3.125 -42.640625 L 36.203125 -42.640625 L 36.203125 -29.09375 L 21.828125 -29.09375 C 21.710938 -26.613281 22.09375 -24.332031 22.96875 -22.25 C 23.84375 -20.164062 25.007812 -18.375 26.46875 -16.875 C 27.9375 -15.382812 29.644531 -14.210938 31.59375 -13.359375 C 33.539062 -12.515625 35.585938 -12.09375 37.734375 -12.09375 C 40.046875 -12.09375 42.242188 -12.554688 44.328125 -13.484375 C 46.410156 -14.421875 48.253906 -15.816406 49.859375 -17.671875 C 51.472656 -19.535156 52.742188 -21.878906 53.671875 -24.703125 C 54.609375 -27.523438 55.078125 -30.851562 55.078125 -34.6875 C 55.078125 -38.6875 54.566406 -42.082031 53.546875 -44.875 C 52.535156 -47.664062 51.195312 -49.9375 49.53125 -51.6875 C 47.863281 -53.4375 45.972656 -54.703125 43.859375 -55.484375 C 41.742188 -56.273438 39.585938 -56.671875 37.390625 -56.671875 C 35.421875 -56.671875 33.570312 -56.347656 31.84375 -55.703125 C 30.125 -55.054688 28.585938 -54.210938 27.234375 -53.171875 C 25.878906 -52.128906 24.738281 -50.972656 23.8125 -49.703125 C 22.882812 -48.429688 22.222656 -47.175781 21.828125 -45.9375 L 5.75 -50.421875 C 6.707031 -53.296875 8.160156 -55.957031 10.109375 -58.40625 C 12.054688 -60.863281 14.410156 -63.007812 17.171875 -64.84375 C 19.929688 -66.675781 23.070312 -68.113281 26.59375 -69.15625 C 30.125 -70.195312 33.921875 -70.71875 37.984375 -70.71875 C 43.222656 -70.71875 47.984375 -69.859375 52.265625 -68.140625 C 56.554688 -66.421875 60.222656 -63.984375 63.265625 -60.828125 C 66.316406 -57.671875 68.660156 -53.878906 70.296875 -49.453125 C 71.929688 -45.023438 72.75 -40.101562 72.75 -34.6875 Z M 72.75 -34.6875 "/></g></g></g><g fill="#ffffff" fill-opacity="1"><g transform="translate(1005.039734, 418.165376)"><g><path d="M 64.125 -37.21875 C 64.125 -31.695312 63.644531 -26.664062 62.6875 -22.125 C 61.726562 -17.582031 60.242188 -13.660156 58.234375 -10.359375 C 56.234375 -7.066406 53.679688 -4.515625 50.578125 -2.703125 C 47.484375 -0.898438 43.789062 0 39.5 0 L 12.6875 0 L 1.6875 -69.28125 L 19.375 -69.28125 L 28.25 -12.6875 L 34.34375 -12.6875 C 35.695312 -12.6875 37.132812 -13.050781 38.65625 -13.78125 C 40.175781 -14.519531 41.554688 -15.789062 42.796875 -17.59375 C 44.046875 -19.394531 45.078125 -21.859375 45.890625 -24.984375 C 46.710938 -28.117188 47.125 -32.085938 47.125 -36.890625 C 47.125 -40.722656 46.6875 -43.894531 45.8125 -46.40625 C 44.9375 -48.914062 43.78125 -50.898438 42.34375 -52.359375 C 40.90625 -53.828125 39.238281 -54.859375 37.34375 -55.453125 C 35.457031 -56.046875 33.472656 -56.34375 31.390625 -56.34375 L 31.390625 -69.28125 L 38.15625 -69.28125 C 42.78125 -69.28125 46.738281 -68.421875 50.03125 -66.703125 C 53.332031 -64.984375 56.023438 -62.671875 58.109375 -59.765625 C 60.203125 -56.859375 61.726562 -53.457031 62.6875 -49.5625 C 63.644531 -45.675781 64.125 -41.5625 64.125 -37.21875 Z M 64.125 -37.21875 "/></g></g></g><g fill="#ffffff" fill-opacity="1"><g transform="translate(342.571068, 560.309873)"><g><path d="M 65.640625 -28.59375 C 65.640625 -22.894531 64.625 -18.128906 62.59375 -14.296875 C 60.570312 -10.460938 57.878906 -7.390625 54.515625 -5.078125 C 51.160156 -2.765625 47.335938 -1.113281 43.046875 -0.125 C 38.765625 0.863281 34.34375 1.359375 29.78125 1.359375 C 25.769531 1.359375 21.957031 1.085938 18.34375 0.546875 C 14.738281 0.015625 11.273438 -0.671875 7.953125 -1.515625 L 8.296875 -19.203125 C 11.453125 -17.617188 14.691406 -16.472656 18.015625 -15.765625 C 21.347656 -15.066406 24.757812 -14.71875 28.25 -14.71875 C 30.226562 -14.71875 32.203125 -14.914062 34.171875 -15.3125 C 36.148438 -15.707031 37.914062 -16.410156 39.46875 -17.421875 C 41.019531 -18.441406 42.273438 -19.796875 43.234375 -21.484375 C 44.191406 -23.179688 44.671875 -25.328125 44.671875 -27.921875 C 44.671875 -30.171875 44.132812 -32.039062 43.0625 -33.53125 C 41.988281 -35.03125 40.578125 -36.226562 38.828125 -37.125 C 37.078125 -38.03125 35.128906 -38.679688 32.984375 -39.078125 C 30.847656 -39.472656 28.679688 -39.671875 26.484375 -39.671875 C 23.546875 -39.671875 20.582031 -39.539062 17.59375 -39.28125 C 14.601562 -39.03125 11.671875 -38.515625 8.796875 -37.734375 L 9.390625 -81.640625 L 62.515625 -81.640625 L 62.515625 -66.921875 L 28.078125 -66.921875 L 28.078125 -53.375 C 29.660156 -53.488281 30.945312 -53.570312 31.9375 -53.625 C 32.925781 -53.6875 33.785156 -53.71875 34.515625 -53.71875 C 38.628906 -53.71875 42.578125 -53.25 46.359375 -52.3125 C 50.140625 -51.382812 53.453125 -49.921875 56.296875 -47.921875 C 59.140625 -45.921875 61.40625 -43.328125 63.09375 -40.140625 C 64.789062 -36.953125 65.640625 -33.101562 65.640625 -28.59375 Z M 65.640625 -28.59375 "/></g></g></g><g fill="#ffffff" fill-opacity="1"><g transform="translate(414.1335, 560.309873)"><g><path d="M 67.421875 -40.859375 C 67.421875 -37.304688 67.265625 -33.796875 66.953125 -30.328125 C 66.640625 -26.859375 66.0625 -23.554688 65.21875 -20.421875 C 64.375 -17.296875 63.203125 -14.40625 61.703125 -11.75 C 60.210938 -9.101562 58.296875 -6.804688 55.953125 -4.859375 C 53.617188 -2.921875 50.800781 -1.398438 47.5 -0.296875 C 44.195312 0.804688 40.320312 1.359375 35.875 1.359375 C 29.101562 1.359375 23.644531 0.160156 19.5 -2.234375 C 15.351562 -4.640625 12.132812 -7.816406 9.84375 -11.765625 C 7.5625 -15.710938 6.039062 -20.207031 5.28125 -25.25 C 4.519531 -30.300781 4.140625 -35.503906 4.140625 -40.859375 C 4.140625 -44.410156 4.296875 -47.90625 4.609375 -51.34375 C 4.921875 -54.789062 5.5 -58.078125 6.34375 -61.203125 C 7.1875 -64.335938 8.351562 -67.226562 9.84375 -69.875 C 11.34375 -72.519531 13.265625 -74.816406 15.609375 -76.765625 C 17.953125 -78.710938 20.785156 -80.234375 24.109375 -81.328125 C 27.429688 -82.429688 31.351562 -82.984375 35.875 -82.984375 C 40.320312 -82.984375 44.195312 -82.429688 47.5 -81.328125 C 50.800781 -80.234375 53.617188 -78.710938 55.953125 -76.765625 C 58.296875 -74.816406 60.210938 -72.519531 61.703125 -69.875 C 63.203125 -67.226562 64.375 -64.335938 65.21875 -61.203125 C 66.0625 -58.078125 66.640625 -54.78125 66.953125 -51.3125 C 67.265625 -47.84375 67.421875 -44.359375 67.421875 -40.859375 Z M 46.4375 -40.859375 C 46.4375 -44.078125 46.335938 -47.304688 46.140625 -50.546875 C 45.941406 -53.785156 45.488281 -56.71875 44.78125 -59.34375 C 44.082031 -61.96875 43.023438 -64.109375 41.609375 -65.765625 C 40.203125 -67.429688 38.289062 -68.265625 35.875 -68.265625 C 33.382812 -68.265625 31.421875 -67.429688 29.984375 -65.765625 C 28.546875 -64.109375 27.472656 -61.96875 26.765625 -59.34375 C 26.066406 -56.71875 25.617188 -53.785156 25.421875 -50.546875 C 25.222656 -47.304688 25.125 -44.078125 25.125 -40.859375 C 25.125 -37.640625 25.222656 -34.394531 25.421875 -31.125 C 25.617188 -27.851562 26.066406 -24.90625 26.765625 -22.28125 C 27.472656 -19.664062 28.546875 -17.523438 29.984375 -15.859375 C 31.421875 -14.191406 33.382812 -13.359375 35.875 -13.359375 C 38.289062 -13.359375 40.203125 -14.191406 41.609375 -15.859375 C 43.023438 -17.523438 44.082031 -19.664062 44.78125 -22.28125 C 45.488281 -24.90625 45.941406 -27.851562 46.140625 -31.125 C 46.335938 -34.394531 46.4375 -37.640625 46.4375 -40.859375 Z M 46.4375 -40.859375 "/></g></g></g><g fill="#ffffff" fill-opacity="1"><g transform="translate(485.695931, 560.309873)"><g><path d="M 67.421875 -40.859375 C 67.421875 -37.304688 67.265625 -33.796875 66.953125 -30.328125 C 66.640625 -26.859375 66.0625 -23.554688 65.21875 -20.421875 C 64.375 -17.296875 63.203125 -14.40625 61.703125 -11.75 C 60.210938 -9.101562 58.296875 -6.804688 55.953125 -4.859375 C 53.617188 -2.921875 50.800781 -1.398438 47.5 -0.296875 C 44.195312 0.804688 40.320312 1.359375 35.875 1.359375 C 29.101562 1.359375 23.644531 0.160156 19.5 -2.234375 C 15.351562 -4.640625 12.132812 -7.816406 9.84375 -11.765625 C 7.5625 -15.710938 6.039062 -20.207031 5.28125 -25.25 C 4.519531 -30.300781 4.140625 -35.503906 4.140625 -40.859375 C 4.140625 -44.410156 4.296875 -47.90625 4.609375 -51.34375 C 4.921875 -54.789062 5.5 -58.078125 6.34375 -61.203125 C 7.1875 -64.335938 8.351562 -67.226562 9.84375 -69.875 C 11.34375 -72.519531 13.265625 -74.816406 15.609375 -76.765625 C 17.953125 -78.710938 20.785156 -80.234375 24.109375 -81.328125 C 27.429688 -82.429688 31.351562 -82.984375 35.875 -82.984375 C 40.320312 -82.984375 44.195312 -82.429688 47.5 -81.328125 C 50.800781 -80.234375 53.617188 -78.710938 55.953125 -76.765625 C 58.296875 -74.816406 60.210938 -72.519531 61.703125 -69.875 C 63.203125 -67.226562 64.375 -64.335938 65.21875 -61.203125 C 66.0625 -58.078125 66.640625 -54.78125 66.953125 -51.3125 C 67.265625 -47.84375 67.421875 -44.359375 67.421875 -40.859375 Z M 46.4375 -40.859375 C 46.4375 -44.078125 46.335938 -47.304688 46.140625 -50.546875 C 45.941406 -53.785156 45.488281 -56.71875 44.78125 -59.34375 C 44.082031 -61.96875 43.023438 -64.109375 41.609375 -65.765625 C 40.203125 -67.429688 38.289062 -68.265625 35.875 -68.265625 C 33.382812 -68.265625 31.421875 -67.429688 29.984375 -65.765625 C 28.546875 -64.109375 27.472656 -61.96875 26.765625 -59.34375 C 26.066406 -56.71875 25.617188 -53.785156 25.421875 -50.546875 C 25.222656 -47.304688 25.125 -44.078125 25.125 -40.859375 C 25.125 -37.640625 25.222656 -34.394531 25.421875 -31.125 C 25.617188 -27.851562 26.066406 -24.90625 26.765625 -22.28125 C 27.472656 -19.664062 28.546875 -17.523438 29.984375 -15.859375 C 31.421875 -14.191406 33.382812 -13.359375 35.875 -13.359375 C 38.289062 -13.359375 40.203125 -14.191406 41.609375 -15.859375 C 43.023438 -17.523438 44.082031 -19.664062 44.78125 -22.28125 C 45.488281 -24.90625 45.941406 -27.851562 46.140625 -31.125 C 46.335938 -34.394531 46.4375 -37.640625 46.4375 -40.859375 Z M 46.4375 -40.859375 "/></g></g></g><g fill="#ffffff" fill-opacity="1"><g transform="translate(557.258363, 560.309873)"><g/></g></g><g fill="#ffffff" fill-opacity="1"><g transform="translate(609.196109, 560.309873)"><g><path d="M 3.640625 -23.765625 L 3.640625 -39.171875 L 35.359375 -39.171875 L 35.359375 -23.765625 Z M 3.640625 -23.765625 "/></g></g></g><g fill="#ffffff" fill-opacity="1"><g transform="translate(648.191713, 560.309873)"><g/></g></g><g fill="#ffffff" fill-opacity="1"><g transform="translate(700.129459, 560.309873)"><g><path d="M 32.734375 0 L 32.734375 -59.984375 L 17.34375 -48.890625 L 7.609375 -63.609375 L 35.359375 -81.640625 L 54.5625 -81.640625 L 54.5625 0 Z M 32.734375 0 "/></g></g></g><g fill="#ffffff" fill-opacity="1"><g transform="translate(771.691891, 560.309873)"><g><path d="M 16.328125 12.859375 L 0.171875 12.859375 L 8.125 -18.859375 L 27.75 -18.859375 Z M 16.328125 12.859375 "/></g></g></g><g fill="#ffffff" fill-opacity="1"><g transform="translate(807.557696, 560.309873)"><g><path d="M 67.421875 -40.859375 C 67.421875 -37.304688 67.265625 -33.796875 66.953125 -30.328125 C 66.640625 -26.859375 66.0625 -23.554688 65.21875 -20.421875 C 64.375 -17.296875 63.203125 -14.40625 61.703125 -11.75 C 60.210938 -9.101562 58.296875 -6.804688 55.953125 -4.859375 C 53.617188 -2.921875 50.800781 -1.398438 47.5 -0.296875 C 44.195312 0.804688 40.320312 1.359375 35.875 1.359375 C 29.101562 1.359375 23.644531 0.160156 19.5 -2.234375 C 15.351562 -4.640625 12.132812 -7.816406 9.84375 -11.765625 C 7.5625 -15.710938 6.039062 -20.207031 5.28125 -25.25 C 4.519531 -30.300781 4.140625 -35.503906 4.140625 -40.859375 C 4.140625 -44.410156 4.296875 -47.90625 4.609375 -51.34375 C 4.921875 -54.789062 5.5 -58.078125 6.34375 -61.203125 C 7.1875 -64.335938 8.351562 -67.226562 9.84375 -69.875 C 11.34375 -72.519531 13.265625 -74.816406 15.609375 -76.765625 C 17.953125 -78.710938 20.785156 -80.234375 24.109375 -81.328125 C 27.429688 -82.429688 31.351562 -82.984375 35.875 -82.984375 C 40.320312 -82.984375 44.195312 -82.429688 47.5 -81.328125 C 50.800781 -80.234375 53.617188 -78.710938 55.953125 -76.765625 C 58.296875 -74.816406 60.210938 -72.519531 61.703125 -69.875 C 63.203125 -67.226562 64.375 -64.335938 65.21875 -61.203125 C 66.0625 -58.078125 66.640625 -54.78125 66.953125 -51.3125 C 67.265625 -47.84375 67.421875 -44.359375 67.421875 -40.859375 Z M 46.4375 -40.859375 C 46.4375 -44.078125 46.335938 -47.304688 46.140625 -50.546875 C 45.941406 -53.785156 45.488281 -56.71875 44.78125 -59.34375 C 44.082031 -61.96875 43.023438 -64.109375 41.609375 -65.765625 C 40.203125 -67.429688 38.289062 -68.265625 35.875 -68.265625 C 33.382812 -68.265625 31.421875 -67.429688 29.984375 -65.765625 C 28.546875 -64.109375 27.472656 -61.96875 26.765625 -59.34375 C 26.066406 -56.71875 25.617188 -53.785156 25.421875 -50.546875 C 25.222656 -47.304688 25.125 -44.078125 25.125 -40.859375 C 25.125 -37.640625 25.222656 -34.394531 25.421875 -31.125 C 25.617188 -27.851562 26.066406 -24.90625 26.765625 -22.28125 C 27.472656 -19.664062 28.546875 -17.523438 29.984375 -15.859375 C 31.421875 -14.191406 33.382812 -13.359375 35.875 -13.359375 C 38.289062 -13.359375 40.203125 -14.191406 41.609375 -15.859375 C 43.023438 -17.523438 44.082031 -19.664062 44.78125 -22.28125 C 45.488281 -24.90625 45.941406 -27.851562 46.140625 -31.125 C 46.335938 -34.394531 46.4375 -37.640625 46.4375 -40.859375 Z M 46.4375 -40.859375 "/></g></g></g><g fill="#ffffff" fill-opacity="1"><g transform="translate(879.120127, 560.309873)"><g><path d="M 67.421875 -40.859375 C 67.421875 -37.304688 67.265625 -33.796875 66.953125 -30.328125 C 66.640625 -26.859375 66.0625 -23.554688 65.21875 -20.421875 C 64.375 -17.296875 63.203125 -14.40625 61.703125 -11.75 C 60.210938 -9.101562 58.296875 -6.804688 55.953125 -4.859375 C 53.617188 -2.921875 50.800781 -1.398438 47.5 -0.296875 C 44.195312 0.804688 40.320312 1.359375 35.875 1.359375 C 29.101562 1.359375 23.644531 0.160156 19.5 -2.234375 C 15.351562 -4.640625 12.132812 -7.816406 9.84375 -11.765625 C 7.5625 -15.710938 6.039062 -20.207031 5.28125 -25.25 C 4.519531 -30.300781 4.140625 -35.503906 4.140625 -40.859375 C 4.140625 -44.410156 4.296875 -47.90625 4.609375 -51.34375 C 4.921875 -54.789062 5.5 -58.078125 6.34375 -61.203125 C 7.1875 -64.335938 8.351562 -67.226562 9.84375 -69.875 C 11.34375 -72.519531 13.265625 -74.816406 15.609375 -76.765625 C 17.953125 -78.710938 20.785156 -80.234375 24.109375 -81.328125 C 27.429688 -82.429688 31.351562 -82.984375 35.875 -82.984375 C 40.320312 -82.984375 44.195312 -82.429688 47.5 -81.328125 C 50.800781 -80.234375 53.617188 -78.710938 55.953125 -76.765625 C 58.296875 -74.816406 60.210938 -72.519531 61.703125 -69.875 C 63.203125 -67.226562 64.375 -64.335938 65.21875 -61.203125 C 66.0625 -58.078125 66.640625 -54.78125 66.953125 -51.3125 C 67.265625 -47.84375 67.421875 -44.359375 67.421875 -40.859375 Z M 46.4375 -40.859375 C 46.4375 -44.078125 46.335938 -47.304688 46.140625 -50.546875 C 45.941406 -53.785156 45.488281 -56.71875 44.78125 -59.34375 C 44.082031 -61.96875 43.023438 -64.109375 41.609375 -65.765625 C 40.203125 -67.429688 38.289062 -68.265625 35.875 -68.265625 C 33.382812 -68.265625 31.421875 -67.429688 29.984375 -65.765625 C 28.546875 -64.109375 27.472656 -61.96875 26.765625 -59.34375 C 26.066406 -56.71875 25.617188 -53.785156 25.421875 -50.546875 C 25.222656 -47.304688 25.125 -44.078125 25.125 -40.859375 C 25.125 -37.640625 25.222656 -34.394531 25.421875 -31.125 C 25.617188 -27.851562 26.066406 -24.90625 26.765625 -22.28125 C 27.472656 -19.664062 28.546875 -17.523438 29.984375 -15.859375 C 31.421875 -14.191406 33.382812 -13.359375 35.875 -13.359375 C 38.289062 -13.359375 40.203125 -14.191406 41.609375 -15.859375 C 43.023438 -17.523438 44.082031 -19.664062 44.78125 -22.28125 C 45.488281 -24.90625 45.941406 -27.851562 46.140625 -31.125 C 46.335938 -34.394531 46.4375 -37.640625 46.4375 -40.859375 Z M 46.4375 -40.859375 "/></g></g></g><g fill="#ffffff" fill-opacity="1"><g transform="translate(950.682559, 560.309873)"><g><path d="M 67.421875 -40.859375 C 67.421875 -37.304688 67.265625 -33.796875 66.953125 -30.328125 C 66.640625 -26.859375 66.0625 -23.554688 65.21875 -20.421875 C 64.375 -17.296875 63.203125 -14.40625 61.703125 -11.75 C 60.210938 -9.101562 58.296875 -6.804688 55.953125 -4.859375 C 53.617188 -2.921875 50.800781 -1.398438 47.5 -0.296875 C 44.195312 0.804688 40.320312 1.359375 35.875 1.359375 C 29.101562 1.359375 23.644531 0.160156 19.5 -2.234375 C 15.351562 -4.640625 12.132812 -7.816406 9.84375 -11.765625 C 7.5625 -15.710938 6.039062 -20.207031 5.28125 -25.25 C 4.519531 -30.300781 4.140625 -35.503906 4.140625 -40.859375 C 4.140625 -44.410156 4.296875 -47.90625 4.609375 -51.34375 C 4.921875 -54.789062 5.5 -58.078125 6.34375 -61.203125 C 7.1875 -64.335938 8.351562 -67.226562 9.84375 -69.875 C 11.34375 -72.519531 13.265625 -74.816406 15.609375 -76.765625 C 17.953125 -78.710938 20.785156 -80.234375 24.109375 -81.328125 C 27.429688 -82.429688 31.351562 -82.984375 35.875 -82.984375 C 40.320312 -82.984375 44.195312 -82.429688 47.5 -81.328125 C 50.800781 -80.234375 53.617188 -78.710938 55.953125 -76.765625 C 58.296875 -74.816406 60.210938 -72.519531 61.703125 -69.875 C 63.203125 -67.226562 64.375 -64.335938 65.21875 -61.203125 C 66.0625 -58.078125 66.640625 -54.78125 66.953125 -51.3125 C 67.265625 -47.84375 67.421875 -44.359375 67.421875 -40.859375 Z M 46.4375 -40.859375 C 46.4375 -44.078125 46.335938 -47.304688 46.140625 -50.546875 C 45.941406 -53.785156 45.488281 -56.71875 44.78125 -59.34375 C 44.082031 -61.96875 43.023438 -64.109375 41.609375 -65.765625 C 40.203125 -67.429688 38.289062 -68.265625 35.875 -68.265625 C 33.382812 -68.265625 31.421875 -67.429688 29.984375 -65.765625 C 28.546875 -64.109375 27.472656 -61.96875 26.765625 -59.34375 C 26.066406 -56.71875 25.617188 -53.785156 25.421875 -50.546875 C 25.222656 -47.304688 25.125 -44.078125 25.125 -40.859375 C 25.125 -37.640625 25.222656 -34.394531 25.421875 -31.125 C 25.617188 -27.851562 26.066406 -24.90625 26.765625 -22.28125 C 27.472656 -19.664062 28.546875 -17.523438 29.984375 -15.859375 C 31.421875 -14.191406 33.382812 -13.359375 35.875 -13.359375 C 38.289062 -13.359375 40.203125 -14.191406 41.609375 -15.859375 C 43.023438 -17.523438 44.082031 -19.664062 44.78125 -22.28125 C 45.488281 -24.90625 45.941406 -27.851562 46.140625 -31.125 C 46.335938 -34.394531 46.4375 -37.640625 46.4375 -40.859375 Z M 46.4375 -40.859375 "/></g></g></g><g clip-path="url(#b65d425353)"><g clip-path="url(#f4eb546de0)"><g clip-path="url(#9f117504ac)"><path fill="#ffd900" d="M 60.5625 72.917969 L 363.539062 0 L 436.457031 302.972656 L 133.484375 375.894531 Z M 60.5625 72.917969 " fill-opacity="1" fill-rule="nonzero"/></g></g></g><g clip-path="url(#2629bf8839)"><g clip-path="url(#9b9f66c503)"><g fill="#000000" fill-opacity="1"><g transform="translate(156.676236, 236.970646)"><g><path d="M 20.484375 -4.15625 C 16.171875 -3.113281 12.597656 -3.191406 9.765625 -4.390625 C 6.929688 -5.585938 4.65625 -7.660156 2.9375 -10.609375 C 1.226562 -13.554688 -0.128906 -17.144531 -1.140625 -21.375 C -2.835938 -28.40625 -3.023438 -33.773438 -1.703125 -37.484375 C -0.390625 -41.191406 2.328125 -43.539062 6.453125 -44.53125 C 8.160156 -44.9375 9.734375 -44.96875 11.171875 -44.625 C 12.617188 -44.28125 13.9375 -43.332031 15.125 -41.78125 L 15.421875 -41.84375 C 15.671875 -43.800781 16.492188 -45.28125 17.890625 -46.28125 C 19.296875 -47.289062 20.898438 -48.007812 22.703125 -48.4375 C 26.035156 -49.238281 28.753906 -48.945312 30.859375 -47.5625 C 32.972656 -46.175781 34.445312 -43.757812 35.28125 -40.3125 L 42.515625 -10.234375 L 31.59375 -7.609375 L 24.84375 -35.640625 C 24.476562 -37.148438 23.988281 -38.109375 23.375 -38.515625 C 22.769531 -38.929688 22.054688 -39.039062 21.234375 -38.84375 C 20.316406 -38.625 19.6875 -38.191406 19.34375 -37.546875 C 19.007812 -36.910156 18.925781 -35.9375 19.09375 -34.625 L 14.796875 -33.59375 C 14.265625 -34.90625 13.675781 -35.738281 13.03125 -36.09375 C 12.382812 -36.457031 11.695312 -36.550781 10.96875 -36.375 C 9.695312 -36.070312 8.957031 -34.96875 8.75 -33.0625 C 8.550781 -31.164062 8.953125 -28.132812 9.953125 -23.96875 C 10.941406 -19.84375 12.1875 -16.789062 13.6875 -14.8125 C 15.1875 -12.832031 17.34375 -12.179688 20.15625 -12.859375 C 21.332031 -13.140625 22.25 -13.507812 22.90625 -13.96875 L 25.875 -6.453125 C 24.46875 -5.441406 22.671875 -4.675781 20.484375 -4.15625 Z M 20.484375 -4.15625 "/></g></g></g></g></g><g clip-path="url(#71ce2eb97d)"><g clip-path="url(#9345de3428)"><g fill="#000000" fill-opacity="1"><g transform="translate(203.271711, 225.756082)"><g><path d="M -27.171875 -41.53125 L -31.140625 -58.0625 L -21.09375 -60.484375 L -17.125 -43.953125 Z M -27.171875 -41.53125 "/></g></g></g></g></g><g clip-path="url(#293b09c226)"><g clip-path="url(#b899160bf5)"><g fill="#000000" fill-opacity="1"><g transform="translate(204.288329, 225.511403)"><g><path d="M 21.203125 -4.109375 C 15.285156 -2.679688 10.546875 -3.066406 6.984375 -5.265625 C 3.421875 -7.460938 0.957031 -11.398438 -0.40625 -17.078125 C -0.625 -18.003906 -0.867188 -19.175781 -1.140625 -20.59375 C -1.410156 -22.019531 -1.597656 -23.285156 -1.703125 -24.390625 L 15.765625 -28.59375 L 17.421875 -21.6875 L 10.21875 -19.953125 L 10.46875 -18.9375 C 11.164062 -16.019531 12.21875 -14.023438 13.625 -12.953125 C 15.039062 -11.878906 16.894531 -11.617188 19.1875 -12.171875 C 21.601562 -12.753906 23.289062 -14.054688 24.25 -16.078125 C 25.207031 -18.109375 25.128906 -21.429688 24.015625 -26.046875 C 22.972656 -30.359375 21.425781 -33.410156 19.375 -35.203125 C 17.320312 -36.992188 14.304688 -37.410156 10.328125 -36.453125 C 8.140625 -35.929688 5.960938 -35.050781 3.796875 -33.8125 C 1.640625 -32.570312 -0.09375 -31.351562 -1.40625 -30.15625 L -3.59375 -39.265625 C -2.226562 -40.460938 -0.257812 -41.664062 2.3125 -42.875 C 4.894531 -44.09375 7.546875 -45.03125 10.265625 -45.6875 C 14.972656 -46.8125 18.976562 -46.863281 22.28125 -45.84375 C 25.582031 -44.820312 28.28125 -42.890625 30.375 -40.046875 C 32.46875 -37.210938 34.035156 -33.640625 35.078125 -29.328125 C 36.679688 -22.671875 36.429688 -17.203125 34.328125 -12.921875 C 32.222656 -8.648438 27.847656 -5.710938 21.203125 -4.109375 Z M 21.203125 -4.109375 "/></g></g></g></g></g><g clip-path="url(#db7e2414b1)"><g clip-path="url(#05d52712b0)"><g fill="#000000" fill-opacity="1"><g transform="translate(247.459543, 215.120988)"><g><path d="M 5.609375 -1.34375 L -4 -41.25 L 4 -43.1875 L 6.96875 -37.265625 L 7.546875 -37.40625 C 7.898438 -39.59375 8.9375 -41.597656 10.65625 -43.421875 C 12.375 -45.253906 14.859375 -46.5625 18.109375 -47.34375 C 27.378906 -49.570312 33.210938 -45.710938 35.609375 -35.765625 L 41.796875 -10.0625 L 30.875 -7.421875 L 25.21875 -30.9375 C 24.5625 -33.664062 23.546875 -35.488281 22.171875 -36.40625 C 20.796875 -37.332031 19.054688 -37.546875 16.953125 -37.046875 C 14.429688 -36.429688 12.722656 -34.941406 11.828125 -32.578125 C 10.941406 -30.210938 10.976562 -27.039062 11.9375 -23.0625 L 16.53125 -3.984375 Z M 5.609375 -1.34375 "/></g></g></g></g></g><g clip-path="url(#00b0e332ee)"><g clip-path="url(#7b2d58737b)"><g fill="#000000" fill-opacity="1"><g transform="translate(293.111265, 203.825472)"><g><path d="M -50.046875 -36.03125 L -51.15625 -40.625 L -44.53125 -45.4375 L -27.84375 -49.453125 L -29.046875 -54.484375 L -19.734375 -56.71875 L -16.6875 -44.046875 Z M -50.046875 -36.03125 "/></g></g><g transform="translate(293.111265, 203.825472)"><g><path d="M -30.046875 -58.328125 L -33.3125 -71.859375 L -23.859375 -74.125 L -20.59375 -60.59375 Z M -30.046875 -58.328125 "/></g></g></g></g></g><g clip-path="url(#3c16ed74ba)"><g clip-path="url(#aa8ffa312c)"><g fill="#000000" fill-opacity="1"><g transform="translate(294.34362, 203.836964)"><g/></g></g></g></g><g clip-path="url(#afb4f9b1ff)"><g clip-path="url(#0b7f526c24)"><g fill="#000000" fill-opacity="1"><g transform="translate(309.777515, 200.122346)"><g><path d="M -8.046875 -42.046875 L -10.84375 -53.625 L 9.34375 -58.484375 L 22.140625 -5.328125 L 9.171875 -2.203125 L -0.828125 -43.78125 Z M -8.046875 -42.046875 "/></g></g></g></g></g><g clip-path="url(#3633e0c646)"><g clip-path="url(#d409971e80)"><g fill="#000000" fill-opacity="1"><g transform="translate(337.149393, 193.534503)"><g/></g></g></g></g></svg>