<svg xmlns="http://www.w3.org/2000/svg" xmlns:xlink="http://www.w3.org/1999/xlink" width="1640" zoomAndPan="magnify" viewBox="0 0 1230 693.000001" height="924" preserveAspectRatio="xMidYMid meet" version="1.0"><defs><g/><clipPath id="d1ffd260cc"><path d="M 289.957031 193.863281 L 1104.546875 193.863281 L 1104.546875 692 L 289.957031 692 Z M 289.957031 193.863281 " clip-rule="nonzero"/></clipPath><clipPath id="a76502f161"><path d="M 162 40 L 496 40 L 496 348 L 162 348 Z M 162 40 " clip-rule="nonzero"/></clipPath><clipPath id="85923c359f"><path d="M 125.457031 80.234375 L 458.824219 0 L 532.832031 307.496094 L 199.464844 387.730469 Z M 125.457031 80.234375 " clip-rule="nonzero"/></clipPath><clipPath id="44e8000b84"><path d="M 292.140625 40.117188 L 351.34375 75.816406 L 420.839844 56.78125 L 434.019531 121.941406 L 495.828125 153.746094 L 455.261719 210.195312 L 473.171875 274.214844 L 402.625 288.882812 L 366.148438 347.613281 L 306.945312 311.910156 L 237.445312 330.949219 L 224.265625 265.789062 L 162.460938 233.980469 L 203.027344 177.535156 L 185.113281 113.515625 L 255.664062 98.847656 L 292.140625 40.117188 " clip-rule="nonzero"/></clipPath><clipPath id="be6b036c27"><path d="M 224 193 L 273 193 L 273 245 L 224 245 Z M 224 193 " clip-rule="nonzero"/></clipPath><clipPath id="c790737a8b"><path d="M 189.445312 115.671875 L 418.078125 60.648438 L 468.898438 271.804688 L 240.269531 326.832031 Z M 189.445312 115.671875 " clip-rule="nonzero"/></clipPath><clipPath id="61c20d347f"><path d="M 245 172 L 260 172 L 260 192 L 245 192 Z M 245 172 " clip-rule="nonzero"/></clipPath><clipPath id="5ad6b3ef08"><path d="M 189.445312 115.671875 L 418.078125 60.648438 L 468.898438 271.804688 L 240.269531 326.832031 Z M 189.445312 115.671875 " clip-rule="nonzero"/></clipPath><clipPath id="59daa2650e"><path d="M 271 182 L 318 182 L 318 234 L 271 234 Z M 271 182 " clip-rule="nonzero"/></clipPath><clipPath id="f48f5cc254"><path d="M 189.445312 115.671875 L 418.078125 60.648438 L 468.898438 271.804688 L 240.269531 326.832031 Z M 189.445312 115.671875 " clip-rule="nonzero"/></clipPath><clipPath id="74408bb801"><path d="M 316 171 L 363 171 L 363 222 L 316 222 Z M 316 171 " clip-rule="nonzero"/></clipPath><clipPath id="8752cfca49"><path d="M 189.445312 115.671875 L 418.078125 60.648438 L 468.898438 271.804688 L 240.269531 326.832031 Z M 189.445312 115.671875 " clip-rule="nonzero"/></clipPath><clipPath id="51e41025e3"><path d="M 313 137 L 350 137 L 350 176 L 313 176 Z M 313 137 " clip-rule="nonzero"/></clipPath><clipPath id="7b87fbdca1"><path d="M 189.445312 115.671875 L 418.078125 60.648438 L 468.898438 271.804688 L 240.269531 326.832031 Z M 189.445312 115.671875 " clip-rule="nonzero"/></clipPath><clipPath id="2d57e97219"><path d="M 367 211 L 368 211 L 368 212 L 367 212 Z M 367 211 " clip-rule="nonzero"/></clipPath><clipPath id="e2dead3527"><path d="M 189.445312 115.671875 L 418.078125 60.648438 L 468.898438 271.804688 L 240.269531 326.832031 Z M 189.445312 115.671875 " clip-rule="nonzero"/></clipPath><clipPath id="a2cb90d427"><path d="M 372 143 L 423 143 L 423 207 L 372 207 Z M 372 143 " clip-rule="nonzero"/></clipPath><clipPath id="d6f068cd1f"><path d="M 189.445312 115.671875 L 418.078125 60.648438 L 468.898438 271.804688 L 240.269531 326.832031 Z M 189.445312 115.671875 " clip-rule="nonzero"/></clipPath><clipPath id="c4e2d0fd27"><path d="M 424 197 L 425 197 L 425 198 L 424 198 Z M 424 197 " clip-rule="nonzero"/></clipPath><clipPath id="c0f370f890"><path d="M 189.445312 115.671875 L 418.078125 60.648438 L 468.898438 271.804688 L 240.269531 326.832031 Z M 189.445312 115.671875 " clip-rule="nonzero"/></clipPath></defs><g clip-path="url(#d1ffd260cc)"><path fill="#3b3b3b" d="M 289.957031 193.863281 L 1104.546875 193.863281 L 1104.546875 692 L 289.957031 692 Z M 289.957031 193.863281 " fill-opacity="1" fill-rule="nonzero"/></g><g fill="#ffffff" fill-opacity="1"><g transform="translate(341.26851, 414.080098)"><g><path d="M 55.546875 -19.140625 C 55.546875 -15.078125 54.703125 -11.710938 53.015625 -9.046875 C 51.328125 -6.390625 49.125 -4.285156 46.40625 -2.734375 C 43.6875 -1.191406 40.59375 -0.125 37.125 0.46875 C 33.664062 1.070312 30.191406 1.375 26.703125 1.375 C 21.890625 1.375 17.722656 1.144531 14.203125 0.6875 C 10.679688 0.226562 7.347656 -0.515625 4.203125 -1.546875 L 5.40625 -17.09375 C 7.925781 -16 10.929688 -15.019531 14.421875 -14.15625 C 17.910156 -13.300781 21.601562 -12.875 25.5 -12.875 C 26.582031 -12.875 27.640625 -12.929688 28.671875 -13.046875 C 29.703125 -13.160156 30.617188 -13.390625 31.421875 -13.734375 C 32.222656 -14.078125 32.867188 -14.578125 33.359375 -15.234375 C 33.847656 -15.898438 34.09375 -16.742188 34.09375 -17.765625 C 34.09375 -19.546875 33.347656 -20.894531 31.859375 -21.8125 C 30.367188 -22.726562 28.503906 -23.5 26.265625 -24.125 C 24.035156 -24.757812 21.601562 -25.414062 18.96875 -26.09375 C 16.34375 -26.78125 13.910156 -27.78125 11.671875 -29.09375 C 9.441406 -30.414062 7.582031 -32.175781 6.09375 -34.375 C 4.601562 -36.582031 3.859375 -39.550781 3.859375 -43.28125 C 3.859375 -46.820312 4.644531 -49.863281 6.21875 -52.40625 C 7.800781 -54.957031 9.847656 -57.035156 12.359375 -58.640625 C 14.878906 -60.242188 17.6875 -61.414062 20.78125 -62.15625 C 23.875 -62.90625 26.960938 -63.28125 30.046875 -63.28125 C 33.765625 -63.28125 37.46875 -63.019531 41.15625 -62.5 C 44.851562 -61.988281 48.421875 -61.078125 51.859375 -59.765625 L 50.3125 -44.8125 C 47.96875 -46.25 45.265625 -47.3125 42.203125 -48 C 39.140625 -48.6875 36.265625 -49.03125 33.578125 -49.03125 C 32.429688 -49.03125 31.269531 -48.972656 30.09375 -48.859375 C 28.914062 -48.742188 27.851562 -48.515625 26.90625 -48.171875 C 25.96875 -47.828125 25.195312 -47.367188 24.59375 -46.796875 C 24 -46.222656 23.703125 -45.503906 23.703125 -44.640625 C 23.703125 -43.046875 24.488281 -41.859375 26.0625 -41.078125 C 27.632812 -40.304688 29.59375 -39.632812 31.9375 -39.0625 C 34.28125 -38.488281 36.84375 -37.875 39.625 -37.21875 C 42.40625 -36.5625 44.96875 -35.546875 47.3125 -34.171875 C 49.65625 -32.796875 51.613281 -30.9375 53.1875 -28.59375 C 54.757812 -26.25 55.546875 -23.097656 55.546875 -19.140625 Z M 55.546875 -19.140625 "/></g></g></g><g fill="#ffffff" fill-opacity="1"><g transform="translate(400.505788, 414.080098)"><g><path d="M 51.171875 0 L 51.171875 -29.875 C 51.171875 -32.800781 50.925781 -35.25 50.4375 -37.21875 C 49.957031 -39.195312 49.285156 -40.800781 48.421875 -42.03125 C 47.566406 -43.257812 46.523438 -44.144531 45.296875 -44.6875 C 44.066406 -45.226562 42.734375 -45.5 41.296875 -45.5 C 36.890625 -45.5 33.566406 -43.9375 31.328125 -40.8125 C 29.097656 -37.695312 27.984375 -32.765625 27.984375 -26.015625 L 27.984375 0 L 6.703125 0 L 6.703125 -88.953125 L 27.984375 -88.953125 L 27.984375 -52.71875 L 28.328125 -52.71875 C 30.617188 -55.925781 33.453125 -58.488281 36.828125 -60.40625 C 40.210938 -62.320312 44.222656 -63.28125 48.859375 -63.28125 C 53.085938 -63.28125 56.691406 -62.59375 59.671875 -61.21875 C 62.648438 -59.84375 65.082031 -58.007812 66.96875 -55.71875 C 68.863281 -53.4375 70.253906 -50.804688 71.140625 -47.828125 C 72.023438 -44.847656 72.46875 -41.753906 72.46875 -38.546875 L 72.46875 0 Z M 51.171875 0 "/></g></g></g><g fill="#ffffff" fill-opacity="1"><g transform="translate(479.660529, 414.080098)"><g><path d="M 47.140625 0 C 47.023438 -1.65625 46.910156 -3.285156 46.796875 -4.890625 C 46.679688 -6.492188 46.625 -8.097656 46.625 -9.703125 L 46.453125 -9.703125 C 43.929688 -5.804688 41.125 -2.984375 38.03125 -1.234375 C 34.945312 0.503906 31.226562 1.375 26.875 1.375 C 23.78125 1.375 20.84375 1 18.0625 0.25 C 15.289062 -0.488281 12.832031 -1.660156 10.6875 -3.265625 C 8.539062 -4.867188 6.835938 -6.898438 5.578125 -9.359375 C 4.316406 -11.816406 3.6875 -14.734375 3.6875 -18.109375 C 3.6875 -21.265625 4.21875 -23.972656 5.28125 -26.234375 C 6.34375 -28.492188 7.726562 -30.394531 9.4375 -31.9375 C 11.15625 -33.488281 13.128906 -34.75 15.359375 -35.71875 C 17.597656 -36.6875 19.90625 -37.425781 22.28125 -37.9375 C 24.65625 -38.457031 26.988281 -38.800781 29.28125 -38.96875 C 31.570312 -39.144531 33.660156 -39.234375 35.546875 -39.234375 C 37.316406 -39.234375 39.085938 -39.144531 40.859375 -38.96875 C 42.640625 -38.800781 44.1875 -38.578125 45.5 -38.296875 C 45.5 -40.410156 45.128906 -42.15625 44.390625 -43.53125 C 43.648438 -44.90625 42.648438 -46.003906 41.390625 -46.828125 C 40.128906 -47.660156 38.65625 -48.234375 36.96875 -48.546875 C 35.28125 -48.867188 33.460938 -49.03125 31.515625 -49.03125 C 28.078125 -49.03125 24.679688 -48.65625 21.328125 -47.90625 C 17.984375 -47.164062 14.796875 -45.960938 11.765625 -44.296875 L 11.421875 -58.90625 C 15.203125 -60.394531 19.09375 -61.492188 23.09375 -62.203125 C 27.101562 -62.921875 31.425781 -63.28125 36.0625 -63.28125 C 40.007812 -63.28125 43.769531 -62.820312 47.34375 -61.90625 C 50.925781 -60.988281 54.0625 -59.515625 56.75 -57.484375 C 59.445312 -55.453125 61.59375 -52.800781 63.1875 -49.53125 C 64.789062 -46.269531 65.59375 -42.296875 65.59375 -37.609375 L 65.59375 -14.59375 C 65.59375 -12.132812 65.648438 -9.703125 65.765625 -7.296875 C 65.878906 -4.890625 66.164062 -2.457031 66.625 0 Z M 45.5 -27.390625 C 44.1875 -27.503906 42.769531 -27.601562 41.25 -27.6875 C 39.738281 -27.769531 38.179688 -27.8125 36.578125 -27.8125 C 34.742188 -27.8125 33.039062 -27.65625 31.46875 -27.34375 C 29.894531 -27.03125 28.519531 -26.546875 27.34375 -25.890625 C 26.175781 -25.234375 25.25 -24.375 24.5625 -23.3125 C 23.875 -22.25 23.53125 -20.972656 23.53125 -19.484375 C 23.53125 -17.367188 24.375 -15.738281 26.0625 -14.59375 C 27.75 -13.445312 29.851562 -12.875 32.375 -12.875 C 34.375 -12.875 36.1875 -13.289062 37.8125 -14.125 C 39.445312 -14.957031 40.835938 -16.054688 41.984375 -17.421875 C 43.128906 -18.796875 44 -20.359375 44.59375 -22.109375 C 45.195312 -23.859375 45.5 -25.617188 45.5 -27.390625 Z M 45.5 -27.390625 "/></g></g></g><g fill="#ffffff" fill-opacity="1"><g transform="translate(552.118883, 414.080098)"><g><path d="M 50.828125 -44.640625 C 49.566406 -45.097656 48.363281 -45.351562 47.21875 -45.40625 C 46.070312 -45.46875 44.875 -45.5 43.625 -45.5 C 38.582031 -45.5 34.710938 -43.769531 32.015625 -40.3125 C 29.328125 -36.851562 27.984375 -32.085938 27.984375 -26.015625 L 27.984375 0 L 6.703125 0 L 6.703125 -61.90625 L 26.015625 -61.90625 L 26.015625 -50.484375 L 26.359375 -50.484375 C 28.191406 -54.378906 30.535156 -57.484375 33.390625 -59.796875 C 36.253906 -62.117188 40.003906 -63.28125 44.640625 -63.28125 C 45.898438 -63.28125 47.160156 -63.207031 48.421875 -63.0625 C 49.679688 -62.914062 50.828125 -62.757812 51.859375 -62.59375 Z M 50.828125 -44.640625 "/></g></g></g><g fill="#ffffff" fill-opacity="1"><g transform="translate(604.831476, 414.080098)"><g><path d="M 25.328125 -24.640625 C 25.960938 -20.347656 27.835938 -17.3125 30.953125 -15.53125 C 34.066406 -13.757812 38.234375 -12.875 43.453125 -12.875 C 46.367188 -12.875 49.425781 -13.21875 52.625 -13.90625 C 55.832031 -14.59375 59.039062 -15.820312 62.25 -17.59375 L 62.25 -2.484375 C 58.8125 -1.171875 55.1875 -0.203125 51.375 0.421875 C 47.570312 1.054688 43.640625 1.375 39.578125 1.375 C 34.484375 1.375 29.742188 0.644531 25.359375 -0.8125 C 20.984375 -2.269531 17.191406 -4.375 13.984375 -7.125 C 10.785156 -9.875 8.269531 -13.25 6.4375 -17.25 C 4.601562 -21.257812 3.6875 -25.8125 3.6875 -30.90625 C 3.6875 -36 4.515625 -40.550781 6.171875 -44.5625 C 7.835938 -48.570312 10.128906 -51.960938 13.046875 -54.734375 C 15.972656 -57.515625 19.453125 -59.632812 23.484375 -61.09375 C 27.515625 -62.550781 31.9375 -63.28125 36.75 -63.28125 C 42.46875 -63.28125 47.332031 -62.332031 51.34375 -60.4375 C 55.351562 -58.550781 58.585938 -56.019531 61.046875 -52.84375 C 63.503906 -49.664062 65.289062 -45.988281 66.40625 -41.8125 C 67.53125 -37.632812 68.09375 -33.253906 68.09375 -28.671875 L 68.09375 -24.640625 Z M 48.6875 -36.75 C 48.6875 -38.519531 48.46875 -40.207031 48.03125 -41.8125 C 47.601562 -43.414062 46.929688 -44.800781 46.015625 -45.96875 C 45.097656 -47.144531 43.878906 -48.078125 42.359375 -48.765625 C 40.847656 -49.453125 39.035156 -49.796875 36.921875 -49.796875 C 34.972656 -49.796875 33.28125 -49.453125 31.84375 -48.765625 C 30.414062 -48.078125 29.210938 -47.144531 28.234375 -45.96875 C 27.265625 -44.800781 26.507812 -43.414062 25.96875 -41.8125 C 25.425781 -40.207031 25.097656 -38.519531 24.984375 -36.75 Z M 48.6875 -36.75 "/></g></g></g><g fill="#ffffff" fill-opacity="1"><g transform="translate(677.28983, 414.080098)"><g/></g></g><g fill="#ffffff" fill-opacity="1"><g transform="translate(730.002423, 414.080098)"><g><path d="M 75.640625 -32.03125 C 75.640625 -27.445312 75.023438 -23.132812 73.796875 -19.09375 C 72.566406 -15.0625 70.765625 -11.53125 68.390625 -8.5 C 66.015625 -5.46875 63.066406 -3.0625 59.546875 -1.28125 C 56.023438 0.488281 51.945312 1.375 47.3125 1.375 C 45.476562 1.375 43.613281 1.203125 41.71875 0.859375 C 39.832031 0.515625 38.03125 -0.0390625 36.3125 -0.8125 C 34.601562 -1.582031 33.015625 -2.613281 31.546875 -3.90625 C 30.085938 -5.195312 28.84375 -6.757812 27.8125 -8.59375 L 27.640625 -8.59375 L 27.640625 24.984375 L 6.1875 24.984375 L 6.1875 -61.90625 L 25.84375 -61.90625 L 25.84375 -50.65625 L 26.015625 -50.65625 C 27.097656 -52.769531 28.457031 -54.628906 30.09375 -56.234375 C 31.726562 -57.835938 33.546875 -59.15625 35.546875 -60.1875 C 37.546875 -61.21875 39.691406 -61.988281 41.984375 -62.5 C 44.273438 -63.019531 46.625 -63.28125 49.03125 -63.28125 C 53.320312 -63.28125 57.125 -62.347656 60.4375 -60.484375 C 63.757812 -58.628906 66.550781 -56.210938 68.8125 -53.234375 C 71.070312 -50.253906 72.773438 -46.90625 73.921875 -43.1875 C 75.066406 -39.46875 75.640625 -35.75 75.640625 -32.03125 Z M 53.484375 -31.6875 C 53.484375 -33.6875 53.195312 -35.613281 52.625 -37.46875 C 52.0625 -39.332031 51.234375 -40.960938 50.140625 -42.359375 C 49.054688 -43.765625 47.710938 -44.882812 46.109375 -45.71875 C 44.503906 -46.550781 42.671875 -46.96875 40.609375 -46.96875 C 38.609375 -46.96875 36.820312 -46.550781 35.25 -45.71875 C 33.675781 -44.882812 32.316406 -43.738281 31.171875 -42.28125 C 30.023438 -40.820312 29.148438 -39.101562 28.546875 -37.125 C 27.941406 -35.15625 27.640625 -33.023438 27.640625 -30.734375 C 27.640625 -28.503906 27.984375 -26.429688 28.671875 -24.515625 C 29.359375 -22.597656 30.273438 -20.921875 31.421875 -19.484375 C 32.566406 -18.054688 33.925781 -16.941406 35.5 -16.140625 C 37.070312 -15.335938 38.773438 -14.9375 40.609375 -14.9375 C 42.617188 -14.9375 44.421875 -15.351562 46.015625 -16.1875 C 47.617188 -17.019531 48.976562 -18.164062 50.09375 -19.625 C 51.21875 -21.082031 52.0625 -22.835938 52.625 -24.890625 C 53.195312 -26.953125 53.484375 -29.21875 53.484375 -31.6875 Z M 53.484375 -31.6875 "/></g></g></g><g fill="#ffffff" fill-opacity="1"><g transform="translate(809.328864, 414.080098)"><g><path d="M 9.09375 0 L 9.09375 -88.953125 L 30.390625 -88.953125 L 30.390625 0 Z M 9.09375 0 "/></g></g></g><g fill="#ffffff" fill-opacity="1"><g transform="translate(848.906234, 414.080098)"><g><path d="M 47.140625 0 C 47.023438 -1.65625 46.910156 -3.285156 46.796875 -4.890625 C 46.679688 -6.492188 46.625 -8.097656 46.625 -9.703125 L 46.453125 -9.703125 C 43.929688 -5.804688 41.125 -2.984375 38.03125 -1.234375 C 34.945312 0.503906 31.226562 1.375 26.875 1.375 C 23.78125 1.375 20.84375 1 18.0625 0.25 C 15.289062 -0.488281 12.832031 -1.660156 10.6875 -3.265625 C 8.539062 -4.867188 6.835938 -6.898438 5.578125 -9.359375 C 4.316406 -11.816406 3.6875 -14.734375 3.6875 -18.109375 C 3.6875 -21.265625 4.21875 -23.972656 5.28125 -26.234375 C 6.34375 -28.492188 7.726562 -30.394531 9.4375 -31.9375 C 11.15625 -33.488281 13.128906 -34.75 15.359375 -35.71875 C 17.597656 -36.6875 19.90625 -37.425781 22.28125 -37.9375 C 24.65625 -38.457031 26.988281 -38.800781 29.28125 -38.96875 C 31.570312 -39.144531 33.660156 -39.234375 35.546875 -39.234375 C 37.316406 -39.234375 39.085938 -39.144531 40.859375 -38.96875 C 42.640625 -38.800781 44.1875 -38.578125 45.5 -38.296875 C 45.5 -40.410156 45.128906 -42.15625 44.390625 -43.53125 C 43.648438 -44.90625 42.648438 -46.003906 41.390625 -46.828125 C 40.128906 -47.660156 38.65625 -48.234375 36.96875 -48.546875 C 35.28125 -48.867188 33.460938 -49.03125 31.515625 -49.03125 C 28.078125 -49.03125 24.679688 -48.65625 21.328125 -47.90625 C 17.984375 -47.164062 14.796875 -45.960938 11.765625 -44.296875 L 11.421875 -58.90625 C 15.203125 -60.394531 19.09375 -61.492188 23.09375 -62.203125 C 27.101562 -62.921875 31.425781 -63.28125 36.0625 -63.28125 C 40.007812 -63.28125 43.769531 -62.820312 47.34375 -61.90625 C 50.925781 -60.988281 54.0625 -59.515625 56.75 -57.484375 C 59.445312 -55.453125 61.59375 -52.800781 63.1875 -49.53125 C 64.789062 -46.269531 65.59375 -42.296875 65.59375 -37.609375 L 65.59375 -14.59375 C 65.59375 -12.132812 65.648438 -9.703125 65.765625 -7.296875 C 65.878906 -4.890625 66.164062 -2.457031 66.625 0 Z M 45.5 -27.390625 C 44.1875 -27.503906 42.769531 -27.601562 41.25 -27.6875 C 39.738281 -27.769531 38.179688 -27.8125 36.578125 -27.8125 C 34.742188 -27.8125 33.039062 -27.65625 31.46875 -27.34375 C 29.894531 -27.03125 28.519531 -26.546875 27.34375 -25.890625 C 26.175781 -25.234375 25.25 -24.375 24.5625 -23.3125 C 23.875 -22.25 23.53125 -20.972656 23.53125 -19.484375 C 23.53125 -17.367188 24.375 -15.738281 26.0625 -14.59375 C 27.75 -13.445312 29.851562 -12.875 32.375 -12.875 C 34.375 -12.875 36.1875 -13.289062 37.8125 -14.125 C 39.445312 -14.957031 40.835938 -16.054688 41.984375 -17.421875 C 43.128906 -18.796875 44 -20.359375 44.59375 -22.109375 C 45.195312 -23.859375 45.5 -25.617188 45.5 -27.390625 Z M 45.5 -27.390625 "/></g></g></g><g fill="#ffffff" fill-opacity="1"><g transform="translate(921.364588, 414.080098)"><g><path d="M 51.171875 0 L 51.171875 -29.875 C 51.171875 -32.800781 50.925781 -35.25 50.4375 -37.21875 C 49.957031 -39.195312 49.285156 -40.800781 48.421875 -42.03125 C 47.566406 -43.257812 46.523438 -44.144531 45.296875 -44.6875 C 44.066406 -45.226562 42.734375 -45.5 41.296875 -45.5 C 36.890625 -45.5 33.566406 -43.9375 31.328125 -40.8125 C 29.097656 -37.695312 27.984375 -32.765625 27.984375 -26.015625 L 27.984375 0 L 6.703125 0 L 6.703125 -61.90625 L 26.015625 -61.90625 L 26.015625 -50.484375 L 26.359375 -50.484375 C 28.472656 -54.835938 31.546875 -58.054688 35.578125 -60.140625 C 39.617188 -62.234375 44.046875 -63.28125 48.859375 -63.28125 C 53.085938 -63.28125 56.691406 -62.59375 59.671875 -61.21875 C 62.648438 -59.84375 65.082031 -58.007812 66.96875 -55.71875 C 68.863281 -53.4375 70.253906 -50.804688 71.140625 -47.828125 C 72.023438 -44.847656 72.46875 -41.753906 72.46875 -38.546875 L 72.46875 0 Z M 51.171875 0 "/></g></g></g><g fill="#ffffff" fill-opacity="1"><g transform="translate(1000.508568, 414.080098)"><g/></g></g><g fill="#ffffff" fill-opacity="1"><g transform="translate(446.053931, 558.345214)"><g><path d="M 34.265625 -94.625 C 34.265625 -92.90625 33.929688 -91.515625 33.265625 -90.453125 C 32.609375 -89.390625 31.863281 -88.382812 31.03125 -87.4375 C 30.207031 -86.5 29.460938 -85.457031 28.796875 -84.3125 C 28.140625 -83.164062 27.8125 -81.675781 27.8125 -79.84375 L 27.8125 0 L 10.5625 0 L 10.5625 -81.21875 C 10.5625 -82.65625 10.816406 -83.832031 11.328125 -84.75 C 11.847656 -85.664062 12.4375 -86.476562 13.09375 -87.1875 C 13.75 -87.90625 14.332031 -88.617188 14.84375 -89.328125 C 15.363281 -90.046875 15.625 -90.921875 15.625 -91.953125 C 15.625 -93.046875 15.148438 -93.75 14.203125 -94.0625 C 13.265625 -94.375 11.976562 -94.488281 10.34375 -94.40625 C 8.71875 -94.320312 6.84375 -94.164062 4.71875 -93.9375 C 2.601562 -93.707031 0.375 -93.59375 -1.96875 -93.59375 C -3.457031 -93.59375 -4.816406 -93.660156 -6.046875 -93.796875 C -7.285156 -93.941406 -8.359375 -94.101562 -9.265625 -94.28125 C -10.296875 -94.507812 -11.242188 -94.738281 -12.109375 -94.96875 L -12.109375 -107.578125 C -11.242188 -107.347656 -10.238281 -107.117188 -9.09375 -106.890625 C -8.125 -106.722656 -6.910156 -106.566406 -5.453125 -106.421875 C -3.992188 -106.273438 -2.347656 -106.203125 -0.515625 -106.203125 C 1.253906 -106.203125 2.84375 -106.300781 4.25 -106.5 C 5.65625 -106.707031 7.015625 -106.9375 8.328125 -107.1875 C 9.640625 -107.445312 10.96875 -107.675781 12.3125 -107.875 C 13.664062 -108.082031 15.203125 -108.1875 16.921875 -108.1875 C 22.472656 -108.1875 26.75 -107.023438 29.75 -104.703125 C 32.757812 -102.390625 34.265625 -99.03125 34.265625 -94.625 Z M 34.265625 -94.625 "/></g></g></g><g fill="#ffffff" fill-opacity="1"><g transform="translate(484.343534, 558.345214)"><g><path d="M 49.796875 0 L 49.796875 -56.578125 L 39.40625 -56.84375 C 36.945312 -56.894531 34.585938 -56.476562 32.328125 -55.59375 C 30.066406 -54.707031 28.078125 -53.347656 26.359375 -51.515625 C 24.640625 -49.679688 23.28125 -47.347656 22.28125 -44.515625 C 21.28125 -41.679688 20.78125 -38.320312 20.78125 -34.4375 C 20.78125 -30.132812 21.304688 -26.640625 22.359375 -23.953125 C 23.421875 -21.265625 24.8125 -19.203125 26.53125 -17.765625 C 28.25 -16.335938 30.222656 -15.4375 32.453125 -15.0625 C 34.679688 -14.695312 37 -14.710938 39.40625 -15.109375 L 39.40625 0 C 32.882812 1.195312 27.332031 1.054688 22.75 -0.421875 C 18.175781 -1.910156 14.441406 -4.300781 11.546875 -7.59375 C 8.660156 -10.882812 6.570312 -14.875 5.28125 -19.5625 C 3.988281 -24.257812 3.34375 -29.21875 3.34375 -34.4375 C 3.34375 -39.695312 4.054688 -44.546875 5.484375 -48.984375 C 6.921875 -53.421875 8.96875 -57.238281 11.625 -60.4375 C 14.289062 -63.644531 17.554688 -66.132812 21.421875 -67.90625 C 25.285156 -69.6875 29.625 -70.546875 34.4375 -70.484375 L 66.96875 -70.328125 L 66.96875 0 Z M 49.796875 0 "/></g></g></g><g fill="#ffffff" fill-opacity="1"><g transform="translate(556.630184, 558.345214)"><g><path d="M -33.578125 -79.15625 L -33.578125 -85.953125 C -33.578125 -87.035156 -33.847656 -87.921875 -34.390625 -88.609375 C -34.929688 -89.296875 -35.832031 -89.640625 -37.09375 -89.640625 L -38.71875 -89.640625 L -38.71875 -100.203125 L -27.046875 -100.203125 C -23.441406 -100.203125 -20.75 -99.414062 -18.96875 -97.84375 C -17.195312 -96.269531 -16.3125 -94.25 -16.3125 -91.78125 L -16.3125 -90.578125 L 7.046875 -90.578125 L 7.046875 -79.15625 Z M -33.578125 -79.15625 "/></g></g></g><g fill="#ffffff" fill-opacity="1"><g transform="translate(556.630184, 558.345214)"><g/></g></g><g fill="#ffffff" fill-opacity="1"><g transform="translate(609.342777, 558.345214)"><g><path d="M 4.890625 0 L 4.890625 -15.796875 C 9.128906 -19.460938 13.410156 -23.171875 17.734375 -26.921875 C 22.054688 -30.671875 25.960938 -34.347656 29.453125 -37.953125 C 32.941406 -41.554688 35.785156 -45.015625 37.984375 -48.328125 C 40.191406 -51.648438 41.296875 -54.71875 41.296875 -57.53125 C 41.296875 -59.363281 40.992188 -60.9375 40.390625 -62.25 C 39.796875 -63.5625 38.96875 -64.632812 37.90625 -65.46875 C 36.84375 -66.300781 35.597656 -66.914062 34.171875 -67.3125 C 32.742188 -67.71875 31.195312 -67.921875 29.53125 -67.921875 C 27.757812 -67.921875 25.882812 -67.757812 23.90625 -67.4375 C 21.9375 -67.125 19.976562 -66.707031 18.03125 -66.1875 C 16.082031 -65.675781 14.21875 -65.078125 12.4375 -64.390625 C 10.664062 -63.703125 9.15625 -62.988281 7.90625 -62.25 L 7.046875 -79.5 C 12.941406 -81.625 17.890625 -82.941406 21.890625 -83.453125 C 25.898438 -83.972656 29.164062 -84.234375 31.6875 -84.234375 C 36.320312 -84.234375 40.570312 -83.742188 44.4375 -82.765625 C 48.300781 -81.796875 51.617188 -80.304688 54.390625 -78.296875 C 57.171875 -76.296875 59.347656 -73.765625 60.921875 -70.703125 C 62.492188 -67.640625 63.28125 -64.050781 63.28125 -59.9375 C 63.28125 -55.863281 62.347656 -51.851562 60.484375 -47.90625 C 58.628906 -43.957031 56.367188 -40.25 53.703125 -36.78125 C 51.046875 -33.320312 48.285156 -30.203125 45.421875 -27.421875 C 42.554688 -24.648438 40.125 -22.4375 38.125 -20.78125 L 32.203125 -15.625 L 64.90625 -15.625 L 64.90625 0 Z M 4.890625 0 "/></g></g></g><g fill="#ffffff" fill-opacity="1"><g transform="translate(681.972831, 558.345214)"><g/></g></g><g fill="#ffffff" fill-opacity="1"><g transform="translate(734.685424, 558.345214)"><g><path d="M 65.59375 -25.5 C 65.59375 -20.75 64.820312 -16.726562 63.28125 -13.4375 C 61.738281 -10.144531 59.632812 -7.46875 56.96875 -5.40625 C 54.300781 -3.34375 51.207031 -1.851562 47.6875 -0.9375 C 44.175781 -0.03125 40.414062 0.394531 36.40625 0.34375 L 6.359375 0 L 6.359375 -39.40625 C 6.359375 -41.007812 6.539062 -42.328125 6.90625 -43.359375 C 7.28125 -44.390625 7.738281 -45.273438 8.28125 -46.015625 C 8.820312 -46.765625 9.40625 -47.4375 10.03125 -48.03125 C 10.664062 -48.632812 11.253906 -49.28125 11.796875 -49.96875 C 12.347656 -50.65625 12.804688 -51.457031 13.171875 -52.375 C 13.546875 -53.289062 13.734375 -54.460938 13.734375 -55.890625 L 3.34375 -55.890625 L 3.34375 -70.328125 L 10.90625 -70.328125 L 17.09375 -64.734375 L 22.5 -70.328125 L 31.34375 -70.328125 L 31.34375 -58.21875 C 31.34375 -56.207031 31.15625 -54.570312 30.78125 -53.3125 C 30.40625 -52.0625 29.914062 -51.003906 29.3125 -50.140625 C 28.71875 -49.285156 28.085938 -48.554688 27.421875 -47.953125 C 26.765625 -47.347656 26.132812 -46.703125 25.53125 -46.015625 C 24.9375 -45.328125 24.453125 -44.507812 24.078125 -43.5625 C 23.710938 -42.625 23.53125 -41.410156 23.53125 -39.921875 L 23.53125 -12.875 L 30.046875 -12.875 C 32.398438 -12.875 34.632812 -13.101562 36.75 -13.5625 C 38.863281 -14.019531 40.734375 -14.832031 42.359375 -16 C 43.992188 -17.175781 45.285156 -18.765625 46.234375 -20.765625 C 47.179688 -22.773438 47.65625 -25.296875 47.65625 -28.328125 C 47.65625 -33.253906 46.679688 -36.960938 44.734375 -39.453125 C 42.785156 -41.941406 39.492188 -43.332031 34.859375 -43.625 L 34.859375 -55.03125 C 36.515625 -55.207031 38.128906 -55.582031 39.703125 -56.15625 C 41.285156 -56.726562 42.660156 -57.597656 43.828125 -58.765625 C 45.003906 -59.941406 45.90625 -61.472656 46.53125 -63.359375 C 47.164062 -65.253906 47.367188 -67.578125 47.140625 -70.328125 L 64.90625 -70.328125 C 65.132812 -67.972656 64.988281 -65.679688 64.46875 -63.453125 C 63.957031 -61.222656 63.101562 -59.191406 61.90625 -57.359375 C 60.707031 -55.523438 59.191406 -53.90625 57.359375 -52.5 C 55.523438 -51.101562 53.40625 -50.0625 51 -49.375 L 51 -49.203125 C 53 -48.566406 54.882812 -47.546875 56.65625 -46.140625 C 58.4375 -44.742188 59.984375 -43.03125 61.296875 -41 C 62.617188 -38.96875 63.664062 -36.648438 64.4375 -34.046875 C 65.207031 -31.441406 65.59375 -28.59375 65.59375 -25.5 Z M 65.59375 -25.5 "/></g></g></g><g fill="#ffffff" fill-opacity="1"><g transform="translate(804.654092, 558.345214)"><g><path d="M -5.234375 -85.953125 C -5.234375 -83.773438 -5.976562 -82.097656 -7.46875 -80.921875 C -8.957031 -79.742188 -10.816406 -79.15625 -13.046875 -79.15625 L -64.390625 -79.15625 L -64.390625 -90.578125 L -5.234375 -90.578125 Z M -5.234375 -85.953125 "/></g></g></g><g fill="#ffffff" fill-opacity="1"><g transform="translate(804.654092, 558.345214)"><g><path d="M 66.109375 -19.3125 C 66.109375 -16.28125 65.59375 -13.519531 64.5625 -11.03125 C 63.53125 -8.539062 62.070312 -6.421875 60.1875 -4.671875 C 58.300781 -2.929688 56.007812 -1.570312 53.3125 -0.59375 C 50.625 0.375 47.617188 0.859375 44.296875 0.859375 C 41.785156 0.859375 39.457031 0.597656 37.3125 0.078125 C 35.164062 -0.429688 33.175781 -1.128906 31.34375 -2.015625 C 29.507812 -2.898438 27.863281 -3.929688 26.40625 -5.109375 C 24.945312 -6.285156 23.644531 -7.554688 22.5 -8.921875 L 22.5 0 L 5.234375 0 L 5.234375 -70.328125 L 12.625 -70.328125 C 15.65625 -70.328125 18.054688 -69.535156 19.828125 -67.953125 C 21.609375 -66.378906 22.5 -63.820312 22.5 -60.28125 L 22.5 -27.984375 C 22.5 -26.328125 22.851562 -24.539062 23.5625 -22.625 C 24.28125 -20.707031 25.296875 -18.945312 26.609375 -17.34375 C 27.929688 -15.738281 29.550781 -14.40625 31.46875 -13.34375 C 33.382812 -12.289062 35.546875 -11.765625 37.953125 -11.765625 C 39.953125 -11.765625 41.640625 -12.078125 43.015625 -12.703125 C 44.390625 -13.335938 45.503906 -14.226562 46.359375 -15.375 C 47.222656 -16.519531 47.851562 -17.878906 48.25 -19.453125 C 48.65625 -21.023438 48.859375 -22.753906 48.859375 -24.640625 L 48.859375 -70.328125 L 66.109375 -70.328125 Z M 66.109375 -19.3125 "/></g></g></g><g fill="#ffffff" fill-opacity="1"><g transform="translate(875.996378, 558.345214)"><g><path d="M 43.96875 -56.40625 L 56.0625 -44.296875 L 44.125 -35.546875 L 36.234375 -51 L 27.640625 -35.71875 L 15.96875 -44.125 L 28.328125 -56.40625 L 11.421875 -59.59375 L 15.796875 -73.328125 L 31.6875 -65.59375 L 29.1875 -82.859375 L 43.625 -82.859375 L 41.296875 -65.765625 L 56.84375 -73.328125 L 61.21875 -59.421875 Z M 43.96875 -56.40625 "/></g></g></g><g clip-path="url(#a76502f161)"><g clip-path="url(#85923c359f)"><g clip-path="url(#44e8000b84)"><path fill="#ffd900" d="M 125.457031 80.234375 L 458.824219 0 L 532.832031 307.496094 L 199.464844 387.730469 Z M 125.457031 80.234375 " fill-opacity="1" fill-rule="nonzero"/></g></g></g><g clip-path="url(#be6b036c27)"><g clip-path="url(#c790737a8b)"><g fill="#000000" fill-opacity="1"><g transform="translate(230.183611, 244.523979)"><g><path d="M 20.484375 -4.15625 C 16.171875 -3.113281 12.597656 -3.191406 9.765625 -4.390625 C 6.929688 -5.585938 4.65625 -7.660156 2.9375 -10.609375 C 1.226562 -13.554688 -0.128906 -17.144531 -1.140625 -21.375 C -2.835938 -28.40625 -3.023438 -33.773438 -1.703125 -37.484375 C -0.390625 -41.191406 2.328125 -43.539062 6.453125 -44.53125 C 8.160156 -44.9375 9.734375 -44.96875 11.171875 -44.625 C 12.617188 -44.28125 13.9375 -43.332031 15.125 -41.78125 L 15.421875 -41.84375 C 15.671875 -43.800781 16.492188 -45.28125 17.890625 -46.28125 C 19.296875 -47.289062 20.898438 -48.007812 22.703125 -48.4375 C 26.035156 -49.238281 28.753906 -48.945312 30.859375 -47.5625 C 32.972656 -46.175781 34.445312 -43.757812 35.28125 -40.3125 L 42.515625 -10.234375 L 31.59375 -7.609375 L 24.84375 -35.640625 C 24.476562 -37.148438 23.988281 -38.109375 23.375 -38.515625 C 22.769531 -38.929688 22.054688 -39.039062 21.234375 -38.84375 C 20.316406 -38.625 19.6875 -38.191406 19.34375 -37.546875 C 19.007812 -36.910156 18.925781 -35.9375 19.09375 -34.625 L 14.796875 -33.59375 C 14.265625 -34.90625 13.675781 -35.738281 13.03125 -36.09375 C 12.382812 -36.457031 11.695312 -36.550781 10.96875 -36.375 C 9.695312 -36.070312 8.957031 -34.96875 8.75 -33.0625 C 8.550781 -31.164062 8.953125 -28.132812 9.953125 -23.96875 C 10.941406 -19.84375 12.1875 -16.789062 13.6875 -14.8125 C 15.1875 -12.832031 17.34375 -12.179688 20.15625 -12.859375 C 21.332031 -13.140625 22.25 -13.507812 22.90625 -13.96875 L 25.875 -6.453125 C 24.46875 -5.441406 22.671875 -4.675781 20.484375 -4.15625 Z M 20.484375 -4.15625 "/></g></g></g></g></g><g clip-path="url(#61c20d347f)"><g clip-path="url(#5ad6b3ef08)"><g fill="#000000" fill-opacity="1"><g transform="translate(276.783753, 233.308292)"><g><path d="M -27.171875 -41.53125 L -31.140625 -58.0625 L -21.09375 -60.484375 L -17.125 -43.953125 Z M -27.171875 -41.53125 "/></g></g></g></g></g><g clip-path="url(#59daa2650e)"><g clip-path="url(#f48f5cc254)"><g fill="#000000" fill-opacity="1"><g transform="translate(277.803083, 233.06296)"><g><path d="M 21.203125 -4.109375 C 15.285156 -2.679688 10.546875 -3.066406 6.984375 -5.265625 C 3.421875 -7.460938 0.957031 -11.398438 -0.40625 -17.078125 C -0.625 -18.003906 -0.867188 -19.175781 -1.140625 -20.59375 C -1.410156 -22.019531 -1.597656 -23.285156 -1.703125 -24.390625 L 15.765625 -28.59375 L 17.421875 -21.6875 L 10.21875 -19.953125 L 10.46875 -18.9375 C 11.164062 -16.019531 12.21875 -14.023438 13.625 -12.953125 C 15.039062 -11.878906 16.894531 -11.617188 19.1875 -12.171875 C 21.601562 -12.753906 23.289062 -14.054688 24.25 -16.078125 C 25.207031 -18.109375 25.128906 -21.429688 24.015625 -26.046875 C 22.972656 -30.359375 21.425781 -33.410156 19.375 -35.203125 C 17.320312 -36.992188 14.304688 -37.410156 10.328125 -36.453125 C 8.140625 -35.929688 5.960938 -35.050781 3.796875 -33.8125 C 1.640625 -32.570312 -0.09375 -31.351562 -1.40625 -30.15625 L -3.59375 -39.265625 C -2.226562 -40.460938 -0.257812 -41.664062 2.3125 -42.875 C 4.894531 -44.09375 7.546875 -45.03125 10.265625 -45.6875 C 14.972656 -46.8125 18.976562 -46.863281 22.28125 -45.84375 C 25.582031 -44.820312 28.28125 -42.890625 30.375 -40.046875 C 32.46875 -37.210938 34.035156 -33.640625 35.078125 -29.328125 C 36.679688 -22.671875 36.429688 -17.203125 34.328125 -12.921875 C 32.222656 -8.648438 27.847656 -5.710938 21.203125 -4.109375 Z M 21.203125 -4.109375 "/></g></g></g></g></g><g clip-path="url(#74408bb801)"><g clip-path="url(#8752cfca49)"><g fill="#000000" fill-opacity="1"><g transform="translate(320.980984, 222.670936)"><g><path d="M 5.609375 -1.34375 L -4 -41.25 L 4 -43.1875 L 6.96875 -37.265625 L 7.546875 -37.40625 C 7.898438 -39.59375 8.9375 -41.597656 10.65625 -43.421875 C 12.375 -45.253906 14.859375 -46.5625 18.109375 -47.34375 C 27.378906 -49.570312 33.210938 -45.710938 35.609375 -35.765625 L 41.796875 -10.0625 L 30.875 -7.421875 L 25.21875 -30.9375 C 24.5625 -33.664062 23.546875 -35.488281 22.171875 -36.40625 C 20.796875 -37.332031 19.054688 -37.546875 16.953125 -37.046875 C 14.429688 -36.429688 12.722656 -34.941406 11.828125 -32.578125 C 10.941406 -30.210938 10.976562 -27.039062 11.9375 -23.0625 L 16.53125 -3.984375 Z M 5.609375 -1.34375 "/></g></g></g></g></g><g clip-path="url(#51e41025e3)"><g clip-path="url(#7b87fbdca1)"><g fill="#000000" fill-opacity="1"><g transform="translate(366.637276, 211.374285)"><g><path d="M -50.046875 -36.03125 L -51.15625 -40.625 L -44.53125 -45.4375 L -27.84375 -49.453125 L -29.046875 -54.484375 L -19.734375 -56.71875 L -16.6875 -44.046875 Z M -50.046875 -36.03125 "/></g></g><g transform="translate(366.637276, 211.374285)"><g><path d="M -30.046875 -58.328125 L -33.3125 -71.859375 L -23.859375 -74.125 L -20.59375 -60.59375 Z M -30.046875 -58.328125 "/></g></g></g></g></g><g clip-path="url(#2d57e97219)"><g clip-path="url(#e2dead3527)"><g fill="#000000" fill-opacity="1"><g transform="translate(367.87233, 211.385162)"><g/></g></g></g></g><g clip-path="url(#a2cb90d427)"><g clip-path="url(#d6f068cd1f)"><g fill="#000000" fill-opacity="1"><g transform="translate(383.308614, 207.669969)"><g><path d="M 0.4375 -10.671875 C 1.769531 -12.367188 2.378906 -13.148438 2.265625 -13.015625 C 6.066406 -18.097656 9.035156 -22.226562 11.171875 -25.40625 C 13.316406 -28.59375 15 -31.800781 16.21875 -35.03125 C 17.445312 -38.257812 17.75 -41.175781 17.125 -43.78125 C 16.632812 -45.78125 15.796875 -47.222656 14.609375 -48.109375 C 13.421875 -49.003906 11.898438 -49.226562 10.046875 -48.78125 C 8.203125 -48.34375 6.925781 -47.304688 6.21875 -45.671875 C 5.507812 -44.035156 5.457031 -41.957031 6.0625 -39.4375 L -5.953125 -36.53125 C -6.835938 -40.6875 -6.773438 -44.347656 -5.765625 -47.515625 C -4.753906 -50.691406 -3.035156 -53.265625 -0.609375 -55.234375 C 1.804688 -57.210938 4.6875 -58.601562 8.03125 -59.40625 C 13.8125 -60.800781 18.523438 -60.367188 22.171875 -58.109375 C 25.816406 -55.847656 28.210938 -52.335938 29.359375 -47.578125 C 30.609375 -42.378906 30 -37.132812 27.53125 -31.84375 C 25.0625 -26.5625 21.59375 -21.144531 17.125 -15.59375 L 36.78125 -20.328125 L 39.21875 -10.21875 L 2.671875 -1.421875 Z M 0.4375 -10.671875 "/></g></g></g></g></g><g clip-path="url(#c4e2d0fd27)"><g clip-path="url(#c0f370f890)"><g fill="#000000" fill-opacity="1"><g transform="translate(424.878007, 197.665079)"><g/></g></g></g></g></svg>