<svg xmlns="http://www.w3.org/2000/svg" xmlns:xlink="http://www.w3.org/1999/xlink" width="1640" zoomAndPan="magnify" viewBox="0 0 1230 693.000001" height="924" preserveAspectRatio="xMidYMid meet" version="1.0"><defs><g/><clipPath id="71c96227d6"><path d="M 174.570312 205.5 L 1207.8125 205.5 L 1207.8125 692 L 174.570312 692 Z M 174.570312 205.5 " clip-rule="nonzero"/></clipPath><clipPath id="45d89e26ed"><path d="M 58 39 L 384 39 L 384 340 L 58 340 Z M 58 39 " clip-rule="nonzero"/></clipPath><clipPath id="ce02570076"><path d="M 22.1875 78.359375 L 347.769531 0 L 420.046875 300.3125 L 94.46875 378.671875 Z M 22.1875 78.359375 " clip-rule="nonzero"/></clipPath><clipPath id="3610a386d9"><path d="M 184.980469 39.179688 L 242.800781 74.046875 L 310.675781 55.453125 L 323.546875 119.089844 L 383.910156 150.15625 L 344.289062 205.285156 L 361.78125 267.808594 L 292.882812 282.132812 L 257.257812 339.492188 L 199.4375 304.625 L 131.5625 323.214844 L 118.691406 259.582031 L 58.328125 228.515625 L 97.945312 173.386719 L 80.453125 110.863281 L 149.355469 96.535156 L 184.980469 39.179688 " clip-rule="nonzero"/></clipPath><clipPath id="98d32ceb51"><path d="M 122 187 L 172 187 L 172 239 L 122 239 Z M 122 187 " clip-rule="nonzero"/></clipPath><clipPath id="d3e025665b"><path d="M 84.371094 112.691406 L 307.90625 58.894531 L 357.675781 265.679688 L 134.140625 319.480469 Z M 84.371094 112.691406 " clip-rule="nonzero"/></clipPath><clipPath id="c76acd9f14"><path d="M 144 166 L 159 166 L 159 186 L 144 186 Z M 144 166 " clip-rule="nonzero"/></clipPath><clipPath id="df8673123e"><path d="M 84.371094 112.691406 L 307.90625 58.894531 L 357.675781 265.679688 L 134.140625 319.480469 Z M 84.371094 112.691406 " clip-rule="nonzero"/></clipPath><clipPath id="f9c2cd7b12"><path d="M 169 176 L 217 176 L 217 228 L 169 228 Z M 169 176 " clip-rule="nonzero"/></clipPath><clipPath id="b0c266947e"><path d="M 84.371094 112.691406 L 307.90625 58.894531 L 357.675781 265.679688 L 134.140625 319.480469 Z M 84.371094 112.691406 " clip-rule="nonzero"/></clipPath><clipPath id="126360866d"><path d="M 215 165 L 262 165 L 262 216 L 215 216 Z M 215 165 " clip-rule="nonzero"/></clipPath><clipPath id="652119f9aa"><path d="M 84.371094 112.691406 L 307.90625 58.894531 L 357.675781 265.679688 L 134.140625 319.480469 Z M 84.371094 112.691406 " clip-rule="nonzero"/></clipPath><clipPath id="731620a6e5"><path d="M 211 131 L 249 131 L 249 170 L 211 170 Z M 211 131 " clip-rule="nonzero"/></clipPath><clipPath id="6c5918b351"><path d="M 84.371094 112.691406 L 307.90625 58.894531 L 357.675781 265.679688 L 134.140625 319.480469 Z M 84.371094 112.691406 " clip-rule="nonzero"/></clipPath><clipPath id="a5d1aa3e91"><path d="M 266 205 L 267 205 L 267 206 L 266 206 Z M 266 205 " clip-rule="nonzero"/></clipPath><clipPath id="167ebd9b31"><path d="M 84.371094 112.691406 L 307.90625 58.894531 L 357.675781 265.679688 L 134.140625 319.480469 Z M 84.371094 112.691406 " clip-rule="nonzero"/></clipPath><clipPath id="e7b5c2bea5"><path d="M 271 137 L 322 137 L 322 202 L 271 202 Z M 271 137 " clip-rule="nonzero"/></clipPath><clipPath id="210d374f18"><path d="M 84.371094 112.691406 L 307.90625 58.894531 L 357.675781 265.679688 L 134.140625 319.480469 Z M 84.371094 112.691406 " clip-rule="nonzero"/></clipPath></defs><g clip-path="url(#71c96227d6)"><path fill="#3b3b3b" d="M 174.570312 205.5 L 1207.8125 205.5 L 1207.8125 692 L 174.570312 692 Z M 174.570312 205.5 " fill-opacity="1" fill-rule="nonzero"/></g><g fill="#ffffff" fill-opacity="1"><g transform="translate(237.044426, 420.57206)"><g><path d="M 8.890625 -70.265625 L 8.890625 -85.53125 L 29.6875 -85.53125 L 29.6875 -70.265625 Z M 8.890625 0 L 8.890625 -60.453125 L 29.6875 -60.453125 L 29.6875 0 Z M 8.890625 0 "/></g></g></g><g fill="#ffffff" fill-opacity="1"><g transform="translate(275.697302, 420.57206)"><g><path d="M 49.46875 0.171875 C 47.519531 0.453125 45.492188 0.71875 43.390625 0.96875 C 41.296875 1.21875 38.90625 1.34375 36.21875 1.34375 C 31.582031 1.34375 27.769531 0.84375 24.78125 -0.15625 C 21.789062 -1.164062 19.425781 -2.632812 17.6875 -4.5625 C 15.957031 -6.5 14.753906 -8.863281 14.078125 -11.65625 C 13.410156 -14.445312 13.078125 -17.660156 13.078125 -21.296875 L 13.078125 -45.875 L 1.171875 -45.875 L 1.171875 -60.453125 L 13.421875 -60.453125 L 13.421875 -74.046875 L 34.046875 -80.328125 L 34.046875 -60.453125 L 48.640625 -60.453125 L 48.640625 -45.875 L 34.046875 -45.875 L 34.046875 -23.5625 C 34.046875 -21.71875 34.171875 -20.109375 34.421875 -18.734375 C 34.671875 -17.367188 35.101562 -16.222656 35.71875 -15.296875 C 36.332031 -14.378906 37.171875 -13.695312 38.234375 -13.25 C 39.296875 -12.800781 40.640625 -12.578125 42.265625 -12.578125 C 43.378906 -12.578125 44.453125 -12.675781 45.484375 -12.875 C 46.523438 -13.070312 47.578125 -13.253906 48.640625 -13.421875 Z M 49.46875 0.171875 "/></g></g></g><g fill="#ffffff" fill-opacity="1"><g transform="translate(327.178572, 420.57206)"><g><path d="M 24.734375 -24.0625 C 25.347656 -19.875 27.175781 -16.910156 30.21875 -15.171875 C 33.269531 -13.441406 37.34375 -12.578125 42.4375 -12.578125 C 45.28125 -12.578125 48.265625 -12.910156 51.390625 -13.578125 C 54.523438 -14.253906 57.660156 -15.457031 60.796875 -17.1875 L 60.796875 -2.4375 C 57.441406 -1.144531 53.90625 -0.191406 50.1875 0.421875 C 46.46875 1.035156 42.625 1.34375 38.65625 1.34375 C 33.675781 1.34375 29.046875 0.628906 24.765625 -0.796875 C 20.492188 -2.222656 16.789062 -4.273438 13.65625 -6.953125 C 10.53125 -9.640625 8.070312 -12.9375 6.28125 -16.84375 C 4.5 -20.757812 3.609375 -25.207031 3.609375 -30.1875 C 3.609375 -35.164062 4.414062 -39.609375 6.03125 -43.515625 C 7.65625 -47.429688 9.890625 -50.742188 12.734375 -53.453125 C 15.585938 -56.171875 18.984375 -58.238281 22.921875 -59.65625 C 26.867188 -61.082031 31.191406 -61.796875 35.890625 -61.796875 C 41.484375 -61.796875 46.234375 -60.875 50.140625 -59.03125 C 54.054688 -57.1875 57.210938 -54.710938 59.609375 -51.609375 C 62.015625 -48.503906 63.765625 -44.910156 64.859375 -40.828125 C 65.953125 -36.753906 66.5 -32.476562 66.5 -28 L 66.5 -24.0625 Z M 47.546875 -35.890625 C 47.546875 -37.617188 47.332031 -39.265625 46.90625 -40.828125 C 46.488281 -42.398438 45.832031 -43.757812 44.9375 -44.90625 C 44.050781 -46.050781 42.863281 -46.957031 41.375 -47.625 C 39.894531 -48.300781 38.125 -48.640625 36.0625 -48.640625 C 34.15625 -48.640625 32.503906 -48.300781 31.109375 -47.625 C 29.710938 -46.957031 28.535156 -46.050781 27.578125 -44.90625 C 26.628906 -43.757812 25.890625 -42.398438 25.359375 -40.828125 C 24.828125 -39.265625 24.507812 -37.617188 24.40625 -35.890625 Z M 47.546875 -35.890625 "/></g></g></g><g fill="#ffffff" fill-opacity="1"><g transform="translate(397.94436, 420.57206)"><g><path d="M 88.640625 0 L 88.640625 -32.453125 C 88.640625 -34.179688 88.484375 -35.769531 88.171875 -37.21875 C 87.867188 -38.675781 87.363281 -39.9375 86.65625 -41 C 85.957031 -42.0625 85.078125 -42.898438 84.015625 -43.515625 C 82.953125 -44.128906 81.671875 -44.4375 80.171875 -44.4375 C 76.472656 -44.4375 73.578125 -42.910156 71.484375 -39.859375 C 69.390625 -36.816406 68.34375 -32 68.34375 -25.40625 L 68.34375 0 L 47.546875 0 L 47.546875 -32.453125 C 47.546875 -34.179688 47.390625 -35.769531 47.078125 -37.21875 C 46.773438 -38.675781 46.285156 -39.9375 45.609375 -41 C 44.941406 -42.0625 44.078125 -42.898438 43.015625 -43.515625 C 41.953125 -44.128906 40.664062 -44.4375 39.15625 -44.4375 C 35.46875 -44.4375 32.578125 -42.910156 30.484375 -39.859375 C 28.390625 -36.816406 27.34375 -32 27.34375 -25.40625 L 27.34375 0 L 6.546875 0 L 6.546875 -60.453125 L 25.40625 -60.453125 L 25.40625 -49.3125 L 25.75 -49.3125 C 27.8125 -53.550781 30.8125 -56.691406 34.75 -58.734375 C 38.695312 -60.773438 43.019531 -61.796875 47.71875 -61.796875 C 52.070312 -61.796875 55.910156 -60.84375 59.234375 -58.9375 C 62.566406 -57.039062 65.046875 -54.109375 66.671875 -50.140625 C 69.066406 -54.273438 72.148438 -57.25 75.921875 -59.0625 C 79.703125 -60.882812 83.769531 -61.796875 88.125 -61.796875 C 92.4375 -61.796875 95.972656 -61.191406 98.734375 -59.984375 C 101.503906 -58.785156 103.6875 -57.054688 105.28125 -54.796875 C 106.875 -52.535156 107.960938 -49.78125 108.546875 -46.53125 C 109.140625 -43.289062 109.4375 -39.628906 109.4375 -35.546875 L 109.4375 0 Z M 88.640625 0 "/></g></g></g><g fill="#ffffff" fill-opacity="1"><g transform="translate(513.819139, 420.57206)"><g/></g></g><g fill="#ffffff" fill-opacity="1"><g transform="translate(565.30041, 420.57206)"><g><path d="M 69.015625 -73.875 C 68.898438 -72.976562 68.601562 -71.957031 68.125 -70.8125 C 67.65625 -69.664062 66.984375 -68.53125 66.109375 -67.40625 C 65.242188 -66.289062 64.195312 -65.242188 62.96875 -64.265625 C 61.738281 -63.296875 60.316406 -62.53125 58.703125 -61.96875 C 62.160156 -58.164062 63.890625 -53.523438 63.890625 -48.046875 L 63.890625 0 L 47.046875 0 L 47.046875 -28 C 46.878906 -28.394531 46.472656 -28.910156 45.828125 -29.546875 C 45.179688 -30.191406 44.285156 -30.820312 43.140625 -31.4375 C 41.992188 -32.0625 40.625 -32.582031 39.03125 -33 C 37.4375 -33.414062 35.632812 -33.625 33.625 -33.625 C 31.613281 -33.625 29.769531 -33.34375 28.09375 -32.78125 C 26.414062 -32.226562 24.972656 -31.472656 23.765625 -30.515625 C 22.566406 -29.566406 21.628906 -28.4375 20.953125 -27.125 C 20.285156 -25.8125 19.953125 -24.375 19.953125 -22.8125 C 19.953125 -20.519531 20.484375 -18.628906 21.546875 -17.140625 C 22.609375 -15.660156 23.945312 -14.554688 25.5625 -13.828125 C 27.1875 -13.109375 28.945312 -12.75 30.84375 -12.75 C 32.75 -12.75 34.539062 -13.082031 36.21875 -13.75 L 36.21875 -0.171875 C 30.632812 0.953125 25.769531 1.078125 21.625 0.203125 C 17.488281 -0.660156 14.066406 -2.195312 11.359375 -4.40625 C 8.648438 -6.613281 6.625 -9.335938 5.28125 -12.578125 C 3.9375 -15.816406 3.265625 -19.28125 3.265625 -22.96875 C 3.265625 -26.21875 3.851562 -29.335938 5.03125 -32.328125 C 6.207031 -35.316406 7.941406 -37.957031 10.234375 -40.25 C 12.523438 -42.539062 15.398438 -44.382812 18.859375 -45.78125 C 22.328125 -47.175781 26.351562 -47.875 30.9375 -47.875 C 35.25 -47.875 38.757812 -47.410156 41.46875 -46.484375 C 44.175781 -45.566406 46.035156 -44.660156 47.046875 -43.765625 L 47.046875 -47.375 C 47.046875 -48.9375 46.707031 -50.332031 46.03125 -51.5625 C 45.363281 -52.800781 44.46875 -53.863281 43.34375 -54.75 C 42.226562 -55.644531 40.890625 -56.332031 39.328125 -56.8125 C 37.765625 -57.289062 36.113281 -57.53125 34.375 -57.53125 C 30.75 -57.53125 27.800781 -56.703125 25.53125 -55.046875 C 23.269531 -53.398438 21.800781 -51.375 21.125 -48.96875 L 3.9375 -48.96875 C 4.21875 -51.488281 5.070312 -54.003906 6.5 -56.515625 C 7.925781 -59.035156 9.894531 -61.300781 12.40625 -63.3125 C 14.925781 -65.320312 17.988281 -66.957031 21.59375 -68.21875 C 25.195312 -69.476562 29.347656 -70.109375 34.046875 -70.109375 C 36.554688 -70.109375 38.875 -69.96875 41 -69.6875 C 43.125 -69.40625 45.140625 -69.015625 47.046875 -68.515625 C 47.941406 -69.234375 48.566406 -70.109375 48.921875 -71.140625 C 49.285156 -72.179688 49.46875 -73.09375 49.46875 -73.875 Z M 69.015625 -73.875 "/></g></g></g><g fill="#ffffff" fill-opacity="1"><g transform="translate(634.305434, 420.57206)"><g><path d="M -21.96875 27.5 L -21.96875 16.6875 L -28.671875 16.6875 L -28.671875 5.109375 L -5.109375 5.109375 L -5.109375 27.5 Z M -21.96875 27.5 "/></g></g></g><g fill="#ffffff" fill-opacity="1"><g transform="translate(634.305434, 420.57206)"><g><path d="M 48.640625 0 L 48.640625 -55.265625 L 38.484375 -55.515625 C 36.085938 -55.566406 33.785156 -55.160156 31.578125 -54.296875 C 29.367188 -53.429688 27.425781 -52.101562 25.75 -50.3125 C 24.070312 -48.519531 22.742188 -46.238281 21.765625 -43.46875 C 20.785156 -40.707031 20.296875 -37.425781 20.296875 -33.625 C 20.296875 -29.4375 20.8125 -26.023438 21.84375 -23.390625 C 22.875 -20.765625 24.226562 -18.753906 25.90625 -17.359375 C 27.582031 -15.960938 29.507812 -15.082031 31.6875 -14.71875 C 33.875 -14.351562 36.140625 -14.367188 38.484375 -14.765625 L 38.484375 0 C 32.117188 1.175781 26.695312 1.039062 22.21875 -0.40625 C 17.75 -1.863281 14.101562 -4.203125 11.28125 -7.421875 C 8.457031 -10.640625 6.414062 -14.539062 5.15625 -19.125 C 3.894531 -23.707031 3.265625 -28.539062 3.265625 -33.625 C 3.265625 -38.769531 3.960938 -43.507812 5.359375 -47.84375 C 6.765625 -52.175781 8.765625 -55.90625 11.359375 -59.03125 C 13.960938 -62.164062 17.148438 -64.597656 20.921875 -66.328125 C 24.691406 -68.054688 28.925781 -68.894531 33.625 -68.84375 L 65.40625 -68.671875 L 65.40625 0 Z M 48.640625 0 "/></g></g></g><g fill="#ffffff" fill-opacity="1"><g transform="translate(704.903528, 420.57206)"><g><path d="M 72.453125 0 L 54.59375 0 L 42.4375 -46.703125 L 42.09375 -46.703125 L 29.859375 0 L 11.828125 0 L 1.171875 -68.671875 L 17.359375 -68.671875 L 23.5625 -24.734375 L 23.90625 -24.734375 L 35.890625 -68.671875 L 48.640625 -68.671875 L 60.796875 -24.734375 L 61.125 -24.734375 L 67.171875 -68.671875 L 82.9375 -68.671875 Z M 72.453125 0 "/></g></g></g><g fill="#ffffff" fill-opacity="1"><g transform="translate(789.084628, 420.57206)"><g><path d="M -5.109375 -83.9375 C -5.109375 -81.8125 -5.832031 -80.175781 -7.28125 -79.03125 C -8.738281 -77.882812 -10.5625 -77.3125 -12.75 -77.3125 L -62.890625 -77.3125 L -62.890625 -88.46875 L -5.109375 -88.46875 Z M -5.109375 -83.9375 "/></g></g></g><g fill="#ffffff" fill-opacity="1"><g transform="translate(789.084628, 420.57206)"><g><path d="M 8.546875 0 L 8.546875 -68.671875 L 25.40625 -68.671875 L 25.40625 0 Z M 8.546875 0 "/></g></g></g><g fill="#ffffff" fill-opacity="1"><g transform="translate(823.125989, 420.57206)"><g><path d="M 69.6875 -73.875 C 69.570312 -72.925781 69.289062 -71.90625 68.84375 -70.8125 C 68.394531 -69.726562 67.75 -68.640625 66.90625 -67.546875 C 66.070312 -66.453125 64.984375 -65.414062 63.640625 -64.4375 C 62.304688 -63.457031 60.660156 -62.632812 58.703125 -61.96875 C 60.710938 -59.894531 62.191406 -57.597656 63.140625 -55.078125 C 64.085938 -52.566406 64.5625 -49.890625 64.5625 -47.046875 L 64.5625 0 L 47.71875 0 L 47.71875 -46.546875 C 47.71875 -48.609375 47.335938 -50.335938 46.578125 -51.734375 C 45.828125 -53.128906 44.847656 -54.257812 43.640625 -55.125 C 42.441406 -56 41.054688 -56.617188 39.484375 -56.984375 C 37.921875 -57.347656 36.332031 -57.53125 34.71875 -57.53125 C 33.257812 -57.53125 31.773438 -57.347656 30.265625 -56.984375 C 28.753906 -56.617188 27.382812 -56 26.15625 -55.125 C 24.925781 -54.257812 23.921875 -53.128906 23.140625 -51.734375 C 22.359375 -50.335938 21.96875 -48.609375 21.96875 -46.546875 L 21.96875 -39.5 L 36.390625 -39.5 L 36.390625 -24.5625 L 21.96875 -24.5625 L 21.96875 0 L 5.109375 0 L 5.109375 -47.046875 C 5.109375 -50.117188 5.679688 -53.035156 6.828125 -55.796875 C 7.972656 -58.566406 9.734375 -61.015625 12.109375 -63.140625 C 14.492188 -65.265625 17.554688 -66.957031 21.296875 -68.21875 C 25.046875 -69.476562 29.519531 -70.109375 34.71875 -70.109375 C 37.0625 -70.109375 39.210938 -69.976562 41.171875 -69.71875 C 43.128906 -69.46875 44.972656 -69.117188 46.703125 -68.671875 C 47.765625 -69.398438 48.5625 -70.210938 49.09375 -71.109375 C 49.625 -72.003906 49.972656 -72.925781 50.140625 -73.875 Z M 69.6875 -73.875 "/></g></g></g><g fill="#ffffff" fill-opacity="1"><g transform="translate(892.801779, 420.57206)"><g><path d="M 64.5625 -21.640625 C 64.5625 -18.617188 63.988281 -15.707031 62.84375 -12.90625 C 61.695312 -10.113281 59.90625 -7.671875 57.46875 -5.578125 C 55.039062 -3.484375 51.953125 -1.804688 48.203125 -0.546875 C 44.460938 0.710938 39.96875 1.34375 34.71875 1.34375 C 29.519531 1.34375 25.046875 0.710938 21.296875 -0.546875 C 17.554688 -1.804688 14.492188 -3.484375 12.109375 -5.578125 C 9.734375 -7.671875 7.972656 -10.113281 6.828125 -12.90625 C 5.679688 -15.707031 5.109375 -18.617188 5.109375 -21.640625 L 5.109375 -68.671875 L 21.96875 -68.671875 L 21.96875 -23.140625 C 21.96875 -21.128906 22.289062 -19.367188 22.9375 -17.859375 C 23.582031 -16.347656 24.476562 -15.101562 25.625 -14.125 C 26.769531 -13.144531 28.125 -12.40625 29.6875 -11.90625 C 31.25 -11.40625 32.925781 -11.15625 34.71875 -11.15625 C 36.613281 -11.15625 38.359375 -11.390625 39.953125 -11.859375 C 41.546875 -12.335938 42.914062 -13.050781 44.0625 -14 C 45.207031 -14.945312 46.101562 -16.175781 46.75 -17.6875 C 47.394531 -19.195312 47.71875 -21.015625 47.71875 -23.140625 L 47.71875 -35.390625 C 46.9375 -33.265625 45.578125 -31.5 43.640625 -30.09375 C 41.710938 -28.695312 39.578125 -28 37.234375 -28 C 35.722656 -28 34.296875 -28.289062 32.953125 -28.875 C 31.609375 -29.46875 30.429688 -30.28125 29.421875 -31.3125 C 28.421875 -32.351562 27.613281 -33.539062 27 -34.875 C 26.382812 -36.21875 26.078125 -37.644531 26.078125 -39.15625 C 26.078125 -40.664062 26.382812 -42.09375 27 -43.4375 C 27.613281 -44.78125 28.421875 -45.96875 29.421875 -47 C 30.429688 -48.03125 31.609375 -48.835938 32.953125 -49.421875 C 34.296875 -50.015625 35.722656 -50.3125 37.234375 -50.3125 C 39.578125 -50.3125 41.710938 -49.613281 43.640625 -48.21875 C 45.578125 -46.820312 46.9375 -45.0625 47.71875 -42.9375 L 47.71875 -68.671875 L 64.5625 -68.671875 Z M 64.5625 -21.640625 "/></g></g></g><g fill="#ffffff" fill-opacity="1"><g transform="translate(962.477569, 420.57206)"><g><path d="M 62.71875 -35.890625 C 62.550781 -30.410156 61.9375 -25.460938 60.875 -21.046875 C 59.8125 -16.628906 58.234375 -12.867188 56.140625 -9.765625 C 54.046875 -6.660156 51.390625 -4.253906 48.171875 -2.546875 C 44.960938 -0.847656 41.148438 0 36.734375 0 L 14.09375 0 L 10.484375 -25.75 C 10.148438 -27.976562 9.644531 -29.648438 8.96875 -30.765625 C 8.300781 -31.890625 7.070312 -32.453125 5.28125 -32.453125 L 3.265625 -32.453125 L 3.265625 -43.265625 L 17.53125 -43.265625 C 19.757812 -43.265625 21.597656 -42.675781 23.046875 -41.5 C 24.503906 -40.332031 25.40625 -38.570312 25.75 -36.21875 L 29.015625 -12.578125 L 33.125 -12.578125 C 34.6875 -12.578125 36.234375 -13.007812 37.765625 -13.875 C 39.304688 -14.738281 40.675781 -16.109375 41.875 -17.984375 C 43.082031 -19.859375 44.050781 -22.257812 44.78125 -25.1875 C 45.507812 -28.125 45.875 -31.691406 45.875 -35.890625 C 45.875 -42.878906 44.65625 -48.234375 42.21875 -51.953125 C 39.789062 -55.671875 36.253906 -57.53125 31.609375 -57.53125 C 29.828125 -57.53125 28.234375 -57.289062 26.828125 -56.8125 C 25.429688 -56.332031 24.21875 -55.703125 23.1875 -54.921875 C 22.15625 -54.140625 21.285156 -53.226562 20.578125 -52.1875 C 19.878906 -51.15625 19.363281 -50.082031 19.03125 -48.96875 L 1.515625 -48.96875 C 1.847656 -51.375 2.679688 -53.832031 4.015625 -56.34375 C 5.359375 -58.863281 7.257812 -61.144531 9.71875 -63.1875 C 12.1875 -65.226562 15.265625 -66.890625 18.953125 -68.171875 C 22.640625 -69.460938 26.972656 -70.109375 31.953125 -70.109375 C 37.429688 -70.109375 42.140625 -69.253906 46.078125 -67.546875 C 50.015625 -65.835938 53.226562 -63.457031 55.71875 -60.40625 C 58.207031 -57.363281 60.007812 -53.742188 61.125 -49.546875 C 62.25 -45.359375 62.78125 -40.804688 62.71875 -35.890625 Z M 62.71875 -35.890625 "/></g></g></g><g fill="#ffffff" fill-opacity="1"><g transform="translate(1029.302606, 420.57206)"><g><path d="M 24.40625 0 L 24.40625 -38.828125 C 24.40625 -40.890625 24.109375 -42.828125 23.515625 -44.640625 C 22.929688 -46.460938 22.050781 -48.03125 20.875 -49.34375 C 19.707031 -50.65625 18.226562 -51.6875 16.4375 -52.4375 C 14.644531 -53.195312 12.546875 -53.578125 10.140625 -53.578125 L 1.671875 -53.578125 L 1.671875 -68.671875 L 13.25 -68.671875 C 18.050781 -68.671875 22.210938 -67.941406 25.734375 -66.484375 C 29.265625 -65.035156 32.175781 -63.039062 34.46875 -60.5 C 36.757812 -57.957031 38.460938 -54.96875 39.578125 -51.53125 C 40.691406 -48.09375 41.25 -44.414062 41.25 -40.5 L 41.25 0 Z M 24.40625 0 "/></g></g></g><g fill="#ffffff" fill-opacity="1"><g transform="translate(1075.669287, 420.57206)"><g><path d="M 47.71875 0 L 47.71875 -45.53125 C 47.71875 -47.601562 47.378906 -49.40625 46.703125 -50.9375 C 46.035156 -52.476562 45.128906 -53.722656 43.984375 -54.671875 C 42.835938 -55.617188 41.46875 -56.332031 39.875 -56.8125 C 38.28125 -57.289062 36.5625 -57.53125 34.71875 -57.53125 C 32.925781 -57.53125 31.25 -57.289062 29.6875 -56.8125 C 28.125 -56.332031 26.769531 -55.617188 25.625 -54.671875 C 24.476562 -53.722656 23.582031 -52.476562 22.9375 -50.9375 C 22.289062 -49.40625 21.96875 -47.601562 21.96875 -45.53125 L 21.96875 0 L 5.109375 0 L 5.109375 -47.046875 C 5.109375 -50.117188 5.679688 -53.035156 6.828125 -55.796875 C 7.972656 -58.566406 9.734375 -61.015625 12.109375 -63.140625 C 14.492188 -65.265625 17.554688 -66.957031 21.296875 -68.21875 C 25.046875 -69.476562 29.519531 -70.109375 34.71875 -70.109375 C 39.96875 -70.109375 44.460938 -69.476562 48.203125 -68.21875 C 51.953125 -66.957031 55.039062 -65.265625 57.46875 -63.140625 C 59.90625 -61.015625 61.695312 -58.566406 62.84375 -55.796875 C 63.988281 -53.035156 64.5625 -50.117188 64.5625 -47.046875 L 64.5625 0 Z M 47.71875 0 "/></g></g></g><g fill="#ffffff" fill-opacity="1"><g transform="translate(541.793203, 561.467264)"><g><path d="M 47.71875 0 L 47.71875 -45.53125 C 47.71875 -47.601562 47.378906 -49.40625 46.703125 -50.9375 C 46.035156 -52.476562 45.128906 -53.722656 43.984375 -54.671875 C 42.835938 -55.617188 41.46875 -56.332031 39.875 -56.8125 C 38.28125 -57.289062 36.5625 -57.53125 34.71875 -57.53125 C 32.925781 -57.53125 31.25 -57.289062 29.6875 -56.8125 C 28.125 -56.332031 26.769531 -55.617188 25.625 -54.671875 C 24.476562 -53.722656 23.582031 -52.476562 22.9375 -50.9375 C 22.289062 -49.40625 21.96875 -47.601562 21.96875 -45.53125 L 21.96875 0 L 5.109375 0 L 5.109375 -47.046875 C 5.109375 -50.117188 5.679688 -53.035156 6.828125 -55.796875 C 7.972656 -58.566406 9.734375 -61.015625 12.109375 -63.140625 C 14.492188 -65.265625 17.554688 -66.957031 21.296875 -68.21875 C 25.046875 -69.476562 29.519531 -70.109375 34.71875 -70.109375 C 39.96875 -70.109375 44.460938 -69.476562 48.203125 -68.21875 C 51.953125 -66.957031 55.039062 -65.265625 57.46875 -63.140625 C 59.90625 -61.015625 61.695312 -58.566406 62.84375 -55.796875 C 63.988281 -53.035156 64.5625 -50.117188 64.5625 -47.046875 L 64.5625 0 Z M 47.71875 0 "/></g></g></g><g fill="#ffffff" fill-opacity="1"><g transform="translate(611.468993, 561.467264)"><g><path d="M 24.40625 0 L 24.40625 -38.828125 C 24.40625 -40.890625 24.109375 -42.828125 23.515625 -44.640625 C 22.929688 -46.460938 22.050781 -48.03125 20.875 -49.34375 C 19.707031 -50.65625 18.226562 -51.6875 16.4375 -52.4375 C 14.644531 -53.195312 12.546875 -53.578125 10.140625 -53.578125 L 1.671875 -53.578125 L 1.671875 -68.671875 L 13.25 -68.671875 C 18.050781 -68.671875 22.210938 -67.941406 25.734375 -66.484375 C 29.265625 -65.035156 32.175781 -63.039062 34.46875 -60.5 C 36.757812 -57.957031 38.460938 -54.96875 39.578125 -51.53125 C 40.691406 -48.09375 41.25 -44.414062 41.25 -40.5 L 41.25 0 Z M 24.40625 0 "/></g></g></g><g fill="#ffffff" fill-opacity="1"><g transform="translate(657.835675, 561.467264)"><g><path d="M 46.546875 -48.046875 C 46.429688 -49.390625 46.023438 -50.632812 45.328125 -51.78125 C 44.628906 -52.925781 43.675781 -53.929688 42.46875 -54.796875 C 41.269531 -55.660156 39.859375 -56.332031 38.234375 -56.8125 C 36.617188 -57.289062 34.859375 -57.53125 32.953125 -57.53125 C 31.160156 -57.53125 29.535156 -57.332031 28.078125 -56.9375 C 26.628906 -56.539062 25.375 -56.007812 24.3125 -55.34375 C 23.25 -54.675781 22.425781 -53.894531 21.84375 -53 C 21.257812 -52.101562 20.96875 -51.148438 20.96875 -50.140625 C 20.96875 -48.691406 21.566406 -47.546875 22.765625 -46.703125 C 23.960938 -45.867188 25.550781 -45.195312 27.53125 -44.6875 C 29.519531 -44.1875 31.785156 -43.769531 34.328125 -43.4375 C 36.878906 -43.101562 39.46875 -42.65625 42.09375 -42.09375 C 44.71875 -41.53125 47.300781 -40.800781 49.84375 -39.90625 C 52.394531 -39.019531 54.660156 -37.78125 56.640625 -36.1875 C 58.628906 -34.59375 60.222656 -32.550781 61.421875 -30.0625 C 62.617188 -27.570312 63.21875 -24.484375 63.21875 -20.796875 C 63.21875 -13.691406 60.71875 -8.222656 55.71875 -4.390625 C 50.71875 -0.566406 43.070312 1.34375 32.78125 1.34375 C 23.226562 1.34375 15.894531 -0.738281 10.78125 -4.90625 C 5.664062 -9.070312 3.109375 -14.816406 3.109375 -22.140625 L 20.296875 -22.140625 C 20.296875 -20.179688 20.710938 -18.503906 21.546875 -17.109375 C 22.390625 -15.710938 23.476562 -14.566406 24.8125 -13.671875 C 26.15625 -12.773438 27.664062 -12.128906 29.34375 -11.734375 C 31.019531 -11.347656 32.695312 -11.15625 34.375 -11.15625 C 36.113281 -11.15625 37.722656 -11.363281 39.203125 -11.78125 C 40.679688 -12.195312 41.953125 -12.753906 43.015625 -13.453125 C 44.078125 -14.148438 44.898438 -14.972656 45.484375 -15.921875 C 46.078125 -16.878906 46.375 -17.863281 46.375 -18.875 C 46.375 -20.9375 45.769531 -22.550781 44.5625 -23.71875 C 43.363281 -24.894531 41.769531 -25.832031 39.78125 -26.53125 C 37.800781 -27.238281 35.539062 -27.800781 33 -28.21875 C 30.457031 -28.632812 27.867188 -29.078125 25.234375 -29.546875 C 22.609375 -30.023438 20.023438 -30.640625 17.484375 -31.390625 C 14.941406 -32.148438 12.675781 -33.226562 10.6875 -34.625 C 8.707031 -36.03125 7.113281 -37.863281 5.90625 -40.125 C 4.707031 -42.382812 4.109375 -45.273438 4.109375 -48.796875 C 4.109375 -51.816406 4.789062 -54.613281 6.15625 -57.1875 C 7.53125 -59.757812 9.488281 -62.007812 12.03125 -63.9375 C 14.570312 -65.863281 17.644531 -67.375 21.25 -68.46875 C 24.863281 -69.5625 28.929688 -70.109375 33.453125 -70.109375 C 38.378906 -70.109375 42.710938 -69.519531 46.453125 -68.34375 C 50.203125 -67.164062 53.332031 -65.582031 55.84375 -63.59375 C 58.363281 -61.613281 60.25 -59.28125 61.5 -56.59375 C 62.757812 -53.914062 63.390625 -51.066406 63.390625 -48.046875 Z M 46.546875 -48.046875 "/></g></g></g><g fill="#ffffff" fill-opacity="1"><g transform="translate(724.49302, 561.467264)"><g><path d="M -62.890625 -77.3125 L -62.890625 -88.46875 L -21.96875 -88.46875 L -21.96875 -96.1875 L -5.109375 -96.1875 L -5.109375 -77.3125 Z M -62.890625 -77.3125 "/></g></g></g><g fill="#ffffff" fill-opacity="1"><g transform="translate(724.49302, 561.467264)"><g><path d="M 47.71875 0 L 47.71875 -8.71875 C 46.59375 -7.375 45.316406 -6.128906 43.890625 -4.984375 C 42.472656 -3.835938 40.867188 -2.832031 39.078125 -1.96875 C 37.285156 -1.101562 35.34375 -0.421875 33.25 0.078125 C 31.15625 0.585938 28.878906 0.84375 26.421875 0.84375 C 23.234375 0.84375 20.320312 0.367188 17.6875 -0.578125 C 15.0625 -1.535156 12.8125 -2.863281 10.9375 -4.5625 C 9.070312 -6.269531 7.632812 -8.335938 6.625 -10.765625 C 5.613281 -13.203125 5.109375 -15.90625 5.109375 -18.875 L 5.109375 -68.671875 L 12.328125 -68.671875 C 15.285156 -68.671875 17.628906 -67.898438 19.359375 -66.359375 C 21.097656 -64.828125 21.96875 -62.328125 21.96875 -58.859375 L 21.96875 -24.0625 C 21.96875 -20.375 22.773438 -17.351562 24.390625 -15 C 26.015625 -12.65625 28.757812 -11.484375 32.625 -11.484375 C 34.96875 -11.484375 37.078125 -12 38.953125 -13.03125 C 40.828125 -14.070312 42.421875 -15.375 43.734375 -16.9375 C 45.046875 -18.5 46.035156 -20.21875 46.703125 -22.09375 C 47.378906 -23.96875 47.71875 -25.71875 47.71875 -27.34375 L 47.71875 -68.671875 L 64.5625 -68.671875 L 64.5625 0 Z M 47.71875 0 "/></g></g></g><g fill="#ffffff" fill-opacity="1"><g transform="translate(794.16881, 561.467264)"><g><path d="M 24.40625 0 L 24.40625 -38.828125 C 24.40625 -40.890625 24.109375 -42.828125 23.515625 -44.640625 C 22.929688 -46.460938 22.050781 -48.03125 20.875 -49.34375 C 19.707031 -50.65625 18.226562 -51.6875 16.4375 -52.4375 C 14.644531 -53.195312 12.546875 -53.578125 10.140625 -53.578125 L 1.671875 -53.578125 L 1.671875 -68.671875 L 13.25 -68.671875 C 18.050781 -68.671875 22.210938 -67.941406 25.734375 -66.484375 C 29.265625 -65.035156 32.175781 -63.039062 34.46875 -60.5 C 36.757812 -57.957031 38.460938 -54.96875 39.578125 -51.53125 C 40.691406 -48.09375 41.25 -44.414062 41.25 -40.5 L 41.25 0 Z M 24.40625 0 "/></g></g></g><g clip-path="url(#45d89e26ed)"><g clip-path="url(#ce02570076)"><g clip-path="url(#3610a386d9)"><path fill="#ffd900" d="M 22.1875 78.359375 L 347.769531 0 L 420.046875 300.3125 L 94.46875 378.671875 Z M 22.1875 78.359375 " fill-opacity="1" fill-rule="nonzero"/></g></g></g><g clip-path="url(#98d32ceb51)"><g clip-path="url(#d3e025665b)"><g fill="#000000" fill-opacity="1"><g transform="translate(128.611308, 238.389619)"><g><path d="M 20.484375 -4.15625 C 16.171875 -3.113281 12.597656 -3.191406 9.765625 -4.390625 C 6.929688 -5.585938 4.65625 -7.660156 2.9375 -10.609375 C 1.226562 -13.554688 -0.128906 -17.144531 -1.140625 -21.375 C -2.835938 -28.40625 -3.023438 -33.773438 -1.703125 -37.484375 C -0.390625 -41.191406 2.328125 -43.539062 6.453125 -44.53125 C 8.160156 -44.9375 9.734375 -44.96875 11.171875 -44.625 C 12.617188 -44.28125 13.9375 -43.332031 15.125 -41.78125 L 15.421875 -41.84375 C 15.671875 -43.800781 16.492188 -45.28125 17.890625 -46.28125 C 19.296875 -47.289062 20.898438 -48.007812 22.703125 -48.4375 C 26.035156 -49.238281 28.753906 -48.945312 30.859375 -47.5625 C 32.972656 -46.175781 34.445312 -43.757812 35.28125 -40.3125 L 42.515625 -10.234375 L 31.59375 -7.609375 L 24.84375 -35.640625 C 24.476562 -37.148438 23.988281 -38.109375 23.375 -38.515625 C 22.769531 -38.929688 22.054688 -39.039062 21.234375 -38.84375 C 20.316406 -38.625 19.6875 -38.191406 19.34375 -37.546875 C 19.007812 -36.910156 18.925781 -35.9375 19.09375 -34.625 L 14.796875 -33.59375 C 14.265625 -34.90625 13.675781 -35.738281 13.03125 -36.09375 C 12.382812 -36.457031 11.695312 -36.550781 10.96875 -36.375 C 9.695312 -36.070312 8.957031 -34.96875 8.75 -33.0625 C 8.550781 -31.164062 8.953125 -28.132812 9.953125 -23.96875 C 10.941406 -19.84375 12.1875 -16.789062 13.6875 -14.8125 C 15.1875 -12.832031 17.34375 -12.179688 20.15625 -12.859375 C 21.332031 -13.140625 22.25 -13.507812 22.90625 -13.96875 L 25.875 -6.453125 C 24.46875 -5.441406 22.671875 -4.675781 20.484375 -4.15625 Z M 20.484375 -4.15625 "/></g></g></g></g></g><g clip-path="url(#c76acd9f14)"><g clip-path="url(#df8673123e)"><g fill="#000000" fill-opacity="1"><g transform="translate(175.21145, 227.173933)"><g><path d="M -27.171875 -41.53125 L -31.140625 -58.0625 L -21.09375 -60.484375 L -17.125 -43.953125 Z M -27.171875 -41.53125 "/></g></g></g></g></g><g clip-path="url(#f9c2cd7b12)"><g clip-path="url(#b0c266947e)"><g fill="#000000" fill-opacity="1"><g transform="translate(176.230779, 226.928601)"><g><path d="M 21.203125 -4.109375 C 15.285156 -2.679688 10.546875 -3.066406 6.984375 -5.265625 C 3.421875 -7.460938 0.957031 -11.398438 -0.40625 -17.078125 C -0.625 -18.003906 -0.867188 -19.175781 -1.140625 -20.59375 C -1.410156 -22.019531 -1.597656 -23.285156 -1.703125 -24.390625 L 15.765625 -28.59375 L 17.421875 -21.6875 L 10.21875 -19.953125 L 10.46875 -18.9375 C 11.164062 -16.019531 12.21875 -14.023438 13.625 -12.953125 C 15.039062 -11.878906 16.894531 -11.617188 19.1875 -12.171875 C 21.601562 -12.753906 23.289062 -14.054688 24.25 -16.078125 C 25.207031 -18.109375 25.128906 -21.429688 24.015625 -26.046875 C 22.972656 -30.359375 21.425781 -33.410156 19.375 -35.203125 C 17.320312 -36.992188 14.304688 -37.410156 10.328125 -36.453125 C 8.140625 -35.929688 5.960938 -35.050781 3.796875 -33.8125 C 1.640625 -32.570312 -0.09375 -31.351562 -1.40625 -30.15625 L -3.59375 -39.265625 C -2.226562 -40.460938 -0.257812 -41.664062 2.3125 -42.875 C 4.894531 -44.09375 7.546875 -45.03125 10.265625 -45.6875 C 14.972656 -46.8125 18.976562 -46.863281 22.28125 -45.84375 C 25.582031 -44.820312 28.28125 -42.890625 30.375 -40.046875 C 32.46875 -37.210938 34.035156 -33.640625 35.078125 -29.328125 C 36.679688 -22.671875 36.429688 -17.203125 34.328125 -12.921875 C 32.222656 -8.648438 27.847656 -5.710938 21.203125 -4.109375 Z M 21.203125 -4.109375 "/></g></g></g></g></g><g clip-path="url(#126360866d)"><g clip-path="url(#652119f9aa)"><g fill="#000000" fill-opacity="1"><g transform="translate(219.408681, 216.536576)"><g><path d="M 5.609375 -1.34375 L -4 -41.25 L 4 -43.1875 L 6.96875 -37.265625 L 7.546875 -37.40625 C 7.898438 -39.59375 8.9375 -41.597656 10.65625 -43.421875 C 12.375 -45.253906 14.859375 -46.5625 18.109375 -47.34375 C 27.378906 -49.570312 33.210938 -45.710938 35.609375 -35.765625 L 41.796875 -10.0625 L 30.875 -7.421875 L 25.21875 -30.9375 C 24.5625 -33.664062 23.546875 -35.488281 22.171875 -36.40625 C 20.796875 -37.332031 19.054688 -37.546875 16.953125 -37.046875 C 14.429688 -36.429688 12.722656 -34.941406 11.828125 -32.578125 C 10.941406 -30.210938 10.976562 -27.039062 11.9375 -23.0625 L 16.53125 -3.984375 Z M 5.609375 -1.34375 "/></g></g></g></g></g><g clip-path="url(#731620a6e5)"><g clip-path="url(#6c5918b351)"><g fill="#000000" fill-opacity="1"><g transform="translate(265.064973, 205.239926)"><g><path d="M -50.046875 -36.03125 L -51.15625 -40.625 L -44.53125 -45.4375 L -27.84375 -49.453125 L -29.046875 -54.484375 L -19.734375 -56.71875 L -16.6875 -44.046875 Z M -50.046875 -36.03125 "/></g></g><g transform="translate(265.064973, 205.239926)"><g><path d="M -30.046875 -58.328125 L -33.3125 -71.859375 L -23.859375 -74.125 L -20.59375 -60.59375 Z M -30.046875 -58.328125 "/></g></g></g></g></g><g clip-path="url(#a5d1aa3e91)"><g clip-path="url(#167ebd9b31)"><g fill="#000000" fill-opacity="1"><g transform="translate(266.300026, 205.250803)"><g/></g></g></g></g><g clip-path="url(#e7b5c2bea5)"><g clip-path="url(#210d374f18)"><g fill="#000000" fill-opacity="1"><g transform="translate(281.73631, 201.53561)"><g><path d="M -5.484375 -39.046875 C -6.523438 -44.285156 -5.785156 -48.695312 -3.265625 -52.28125 C -0.742188 -55.875 3.257812 -58.328125 8.75 -59.640625 C 12.382812 -60.515625 15.65625 -60.632812 18.5625 -60 C 21.46875 -59.363281 23.847656 -58.113281 25.703125 -56.25 C 27.566406 -54.382812 28.828125 -52.09375 29.484375 -49.375 C 30.253906 -46.175781 30.078125 -43.375 28.953125 -40.96875 C 27.835938 -38.570312 26.300781 -36.753906 24.34375 -35.515625 L 24.421875 -35.21875 C 27.410156 -34.96875 29.960938 -33.96875 32.078125 -32.21875 C 34.191406 -30.46875 35.648438 -27.921875 36.453125 -24.578125 C 37.179688 -21.554688 37.128906 -18.726562 36.296875 -16.09375 C 35.460938 -13.457031 33.882812 -11.164062 31.5625 -9.21875 C 29.238281 -7.269531 26.253906 -5.859375 22.609375 -4.984375 C 16.785156 -3.578125 11.789062 -3.882812 7.625 -5.90625 C 3.457031 -7.9375 0.582031 -11.816406 -1 -17.546875 L 11.09375 -20.453125 C 11.65625 -18.328125 12.664062 -16.785156 14.125 -15.828125 C 15.59375 -14.878906 17.441406 -14.675781 19.671875 -15.21875 C 21.554688 -15.675781 22.890625 -16.578125 23.671875 -17.921875 C 24.460938 -19.265625 24.640625 -20.832031 24.203125 -22.625 C 23.648438 -24.957031 22.503906 -26.460938 20.765625 -27.140625 C 19.035156 -27.828125 16.546875 -27.78125 13.296875 -27 L 10.953125 -26.4375 L 8.53125 -36.546875 L 10.875 -37.109375 C 13.34375 -37.703125 15.238281 -38.609375 16.5625 -39.828125 C 17.882812 -41.054688 18.285156 -42.765625 17.765625 -44.953125 C 17.347656 -46.691406 16.535156 -47.929688 15.328125 -48.671875 C 14.117188 -49.410156 12.671875 -49.578125 10.984375 -49.171875 C 9.140625 -48.722656 7.898438 -47.832031 7.265625 -46.5 C 6.628906 -45.164062 6.4375 -43.660156 6.6875 -41.984375 Z M -5.484375 -39.046875 "/></g></g></g></g></g></svg>