<svg xmlns="http://www.w3.org/2000/svg" xmlns:xlink="http://www.w3.org/1999/xlink" width="1640" zoomAndPan="magnify" viewBox="0 0 1230 693.000001" height="924" preserveAspectRatio="xMidYMid meet" version="1.0"><defs><g/><clipPath id="8b8973ecae"><path d="M 227.625 222.328125 L 1138.855469 222.328125 L 1138.855469 692 L 227.625 692 Z M 227.625 222.328125 " clip-rule="nonzero"/></clipPath><clipPath id="32dca56f1e"><path d="M 126 37 L 441 37 L 441 328 L 126 328 Z M 126 37 " clip-rule="nonzero"/></clipPath><clipPath id="6b5c8770e9"><path d="M 91.144531 75.648438 L 405.464844 0 L 475.242188 289.921875 L 160.921875 365.574219 Z M 91.144531 75.648438 " clip-rule="nonzero"/></clipPath><clipPath id="5249f2e797"><path d="M 248.304688 37.824219 L 304.125 71.484375 L 369.652344 53.535156 L 382.078125 114.972656 L 440.351562 144.960938 L 402.105469 198.183594 L 418.992188 258.542969 L 352.476562 272.375 L 318.082031 327.75 L 262.261719 294.089844 L 196.734375 312.035156 L 184.308594 250.601562 L 126.03125 220.613281 L 164.28125 167.390625 L 147.394531 107.027344 L 213.910156 93.195312 L 248.304688 37.824219 " clip-rule="nonzero"/></clipPath><clipPath id="ac27c80ddc"><path d="M 182 181 L 231 181 L 231 233 L 182 233 Z M 182 181 " clip-rule="nonzero"/></clipPath><clipPath id="5b53c8b07b"><path d="M 150.792969 109.050781 L 367.046875 57.003906 L 415.0625 256.511719 L 198.808594 308.558594 Z M 150.792969 109.050781 " clip-rule="nonzero"/></clipPath><clipPath id="67328aa6a2"><path d="M 203 160 L 218 160 L 218 180 L 203 180 Z M 203 160 " clip-rule="nonzero"/></clipPath><clipPath id="9a41fad66c"><path d="M 150.792969 109.050781 L 367.046875 57.003906 L 415.0625 256.511719 L 198.808594 308.558594 Z M 150.792969 109.050781 " clip-rule="nonzero"/></clipPath><clipPath id="e7a826ffff"><path d="M 229 170 L 276 170 L 276 222 L 229 222 Z M 229 170 " clip-rule="nonzero"/></clipPath><clipPath id="4a0a7a5ac0"><path d="M 150.792969 109.050781 L 367.046875 57.003906 L 415.0625 256.511719 L 198.808594 308.558594 Z M 150.792969 109.050781 " clip-rule="nonzero"/></clipPath><clipPath id="e92ae75dbd"><path d="M 274 160 L 321 160 L 321 210 L 274 210 Z M 274 160 " clip-rule="nonzero"/></clipPath><clipPath id="11712af68b"><path d="M 150.792969 109.050781 L 367.046875 57.003906 L 415.0625 256.511719 L 198.808594 308.558594 Z M 150.792969 109.050781 " clip-rule="nonzero"/></clipPath><clipPath id="01c3644753"><path d="M 271 125 L 308 125 L 308 164 L 271 164 Z M 271 125 " clip-rule="nonzero"/></clipPath><clipPath id="293fe8c9c1"><path d="M 150.792969 109.050781 L 367.046875 57.003906 L 415.0625 256.511719 L 198.808594 308.558594 Z M 150.792969 109.050781 " clip-rule="nonzero"/></clipPath><clipPath id="41172cbe51"><path d="M 325 199 L 326 199 L 326 200 L 325 200 Z M 325 199 " clip-rule="nonzero"/></clipPath><clipPath id="2693e5fabc"><path d="M 150.792969 109.050781 L 367.046875 57.003906 L 415.0625 256.511719 L 198.808594 308.558594 Z M 150.792969 109.050781 " clip-rule="nonzero"/></clipPath><clipPath id="a0313baaa0"><path d="M 332 132 L 388 132 L 388 195 L 332 195 Z M 332 132 " clip-rule="nonzero"/></clipPath><clipPath id="db75b8631e"><path d="M 150.792969 109.050781 L 367.046875 57.003906 L 415.0625 256.511719 L 198.808594 308.558594 Z M 150.792969 109.050781 " clip-rule="nonzero"/></clipPath></defs><g clip-path="url(#8b8973ecae)"><path fill="#3b3b3b" d="M 227.625 222.328125 L 1138.855469 222.328125 L 1138.855469 692 L 227.625 692 Z M 227.625 222.328125 " fill-opacity="1" fill-rule="nonzero"/></g><g fill="#ffffff" fill-opacity="1"><g transform="translate(245.113337, 427.978096)"><g><path d="M 76.515625 -31.09375 C 76.515625 -25.9375 75.585938 -21.347656 73.734375 -17.328125 C 71.878906 -13.304688 69.316406 -9.90625 66.046875 -7.125 C 62.773438 -4.34375 58.925781 -2.226562 54.5 -0.78125 C 50.070312 0.664062 45.253906 1.390625 40.046875 1.390625 C 34.890625 1.390625 30.09375 0.664062 25.65625 -0.78125 C 21.226562 -2.226562 17.394531 -4.34375 14.15625 -7.125 C 10.914062 -9.90625 8.367188 -13.304688 6.515625 -17.328125 C 4.660156 -21.347656 3.734375 -25.9375 3.734375 -31.09375 C 3.734375 -36.300781 4.660156 -40.945312 6.515625 -45.03125 C 8.367188 -49.113281 10.914062 -52.554688 14.15625 -55.359375 C 17.394531 -58.171875 21.226562 -60.316406 25.65625 -61.796875 C 30.09375 -63.273438 34.890625 -64.015625 40.046875 -64.015625 C 45.253906 -64.015625 50.070312 -63.273438 54.5 -61.796875 C 58.925781 -60.316406 62.773438 -58.171875 66.046875 -55.359375 C 69.316406 -52.554688 71.878906 -49.113281 73.734375 -45.03125 C 75.585938 -40.945312 76.515625 -36.300781 76.515625 -31.09375 Z M 54.109375 -31.09375 C 54.109375 -33.46875 53.832031 -35.722656 53.28125 -37.859375 C 52.726562 -40.003906 51.890625 -41.898438 50.765625 -43.546875 C 49.640625 -45.203125 48.191406 -46.503906 46.421875 -47.453125 C 44.660156 -48.410156 42.535156 -48.890625 40.046875 -48.890625 C 37.546875 -48.890625 35.398438 -48.410156 33.609375 -47.453125 C 31.816406 -46.503906 30.351562 -45.203125 29.21875 -43.546875 C 28.09375 -41.898438 27.269531 -40.003906 26.75 -37.859375 C 26.226562 -35.722656 25.96875 -33.46875 25.96875 -31.09375 C 25.96875 -28.832031 26.226562 -26.660156 26.75 -24.578125 C 27.269531 -22.492188 28.09375 -20.640625 29.21875 -19.015625 C 30.351562 -17.398438 31.816406 -16.113281 33.609375 -15.15625 C 35.398438 -14.195312 37.546875 -13.71875 40.046875 -13.71875 C 42.535156 -13.71875 44.660156 -14.195312 46.421875 -15.15625 C 48.191406 -16.113281 49.640625 -17.398438 50.765625 -19.015625 C 51.890625 -20.640625 52.726562 -22.492188 53.28125 -24.578125 C 53.832031 -26.660156 54.109375 -28.832031 54.109375 -31.09375 Z M 54.109375 -31.09375 "/></g></g></g><g fill="#ffffff" fill-opacity="1"><g transform="translate(325.357102, 427.978096)"><g><path d="M 51.765625 0 L 51.765625 -30.21875 C 51.765625 -33.175781 51.515625 -35.648438 51.015625 -37.640625 C 50.523438 -39.640625 49.847656 -41.257812 48.984375 -42.5 C 48.117188 -43.75 47.0625 -44.648438 45.8125 -45.203125 C 44.570312 -45.753906 43.226562 -46.03125 41.78125 -46.03125 C 37.320312 -46.03125 33.960938 -44.453125 31.703125 -41.296875 C 29.441406 -38.140625 28.3125 -33.144531 28.3125 -26.3125 L 28.3125 0 L 6.78125 0 L 6.78125 -62.625 L 26.3125 -62.625 L 26.3125 -51.0625 L 26.65625 -51.0625 C 28.800781 -55.46875 31.914062 -58.726562 36 -60.84375 C 40.082031 -62.957031 44.554688 -64.015625 49.421875 -64.015625 C 53.703125 -64.015625 57.347656 -63.316406 60.359375 -61.921875 C 63.367188 -60.535156 65.828125 -58.679688 67.734375 -56.359375 C 69.648438 -54.046875 71.054688 -51.382812 71.953125 -48.375 C 72.847656 -45.363281 73.296875 -42.238281 73.296875 -39 L 73.296875 0 Z M 51.765625 0 "/></g></g></g><g fill="#ffffff" fill-opacity="1"><g transform="translate(405.427181, 427.978096)"><g><path d="M 9.203125 0 L 9.203125 -89.984375 L 30.75 -89.984375 L 30.75 0 Z M 9.203125 0 "/></g></g></g><g fill="#ffffff" fill-opacity="1"><g transform="translate(445.46222, 427.978096)"><g><path d="M 9.203125 -72.78125 L 9.203125 -88.59375 L 30.75 -88.59375 L 30.75 -72.78125 Z M 9.203125 0 L 9.203125 -62.625 L 30.75 -62.625 L 30.75 0 Z M 9.203125 0 "/></g></g></g><g fill="#ffffff" fill-opacity="1"><g transform="translate(485.497259, 427.978096)"><g><path d="M 51.765625 0 L 51.765625 -30.21875 C 51.765625 -33.175781 51.515625 -35.648438 51.015625 -37.640625 C 50.523438 -39.640625 49.847656 -41.257812 48.984375 -42.5 C 48.117188 -43.75 47.0625 -44.648438 45.8125 -45.203125 C 44.570312 -45.753906 43.226562 -46.03125 41.78125 -46.03125 C 37.320312 -46.03125 33.960938 -44.453125 31.703125 -41.296875 C 29.441406 -38.140625 28.3125 -33.144531 28.3125 -26.3125 L 28.3125 0 L 6.78125 0 L 6.78125 -62.625 L 26.3125 -62.625 L 26.3125 -51.0625 L 26.65625 -51.0625 C 28.800781 -55.46875 31.914062 -58.726562 36 -60.84375 C 40.082031 -62.957031 44.554688 -64.015625 49.421875 -64.015625 C 53.703125 -64.015625 57.347656 -63.316406 60.359375 -61.921875 C 63.367188 -60.535156 65.828125 -58.679688 67.734375 -56.359375 C 69.648438 -54.046875 71.054688 -51.382812 71.953125 -48.375 C 72.847656 -45.363281 73.296875 -42.238281 73.296875 -39 L 73.296875 0 Z M 51.765625 0 "/></g></g></g><g fill="#ffffff" fill-opacity="1"><g transform="translate(565.567339, 427.978096)"><g><path d="M 25.625 -24.921875 C 26.257812 -20.578125 28.15625 -17.507812 31.3125 -15.71875 C 34.46875 -13.925781 38.679688 -13.03125 43.953125 -13.03125 C 46.898438 -13.03125 49.992188 -13.375 53.234375 -14.0625 C 56.484375 -14.757812 59.726562 -16.007812 62.96875 -17.8125 L 62.96875 -2.515625 C 59.488281 -1.179688 55.820312 -0.195312 51.96875 0.4375 C 48.125 1.070312 44.148438 1.390625 40.046875 1.390625 C 34.890625 1.390625 30.09375 0.648438 25.65625 -0.828125 C 21.226562 -2.304688 17.394531 -4.429688 14.15625 -7.203125 C 10.914062 -9.984375 8.367188 -13.398438 6.515625 -17.453125 C 4.660156 -21.503906 3.734375 -26.109375 3.734375 -31.265625 C 3.734375 -36.421875 4.570312 -41.023438 6.25 -45.078125 C 7.925781 -49.128906 10.238281 -52.554688 13.1875 -55.359375 C 16.144531 -58.171875 19.664062 -60.316406 23.75 -61.796875 C 27.832031 -63.273438 32.304688 -64.015625 37.171875 -64.015625 C 42.960938 -64.015625 47.882812 -63.054688 51.9375 -61.140625 C 55.988281 -59.234375 59.257812 -56.671875 61.75 -53.453125 C 64.238281 -50.242188 66.046875 -46.523438 67.171875 -42.296875 C 68.304688 -38.066406 68.875 -33.640625 68.875 -29.015625 L 68.875 -24.921875 Z M 49.25 -37.171875 C 49.25 -38.960938 49.03125 -40.671875 48.59375 -42.296875 C 48.15625 -43.921875 47.472656 -45.328125 46.546875 -46.515625 C 45.617188 -47.703125 44.390625 -48.640625 42.859375 -49.328125 C 41.328125 -50.023438 39.488281 -50.375 37.34375 -50.375 C 35.375 -50.375 33.664062 -50.023438 32.21875 -49.328125 C 30.769531 -48.640625 29.550781 -47.703125 28.5625 -46.515625 C 27.582031 -45.328125 26.816406 -43.921875 26.265625 -42.296875 C 25.722656 -40.671875 25.394531 -38.960938 25.28125 -37.171875 Z M 49.25 -37.171875 "/></g></g></g><g fill="#ffffff" fill-opacity="1"><g transform="translate(638.863594, 427.978096)"><g/></g></g><g fill="#ffffff" fill-opacity="1"><g transform="translate(692.185751, 427.978096)"><g><path d="M 57.84375 -1.21875 C 55.0625 -0.34375 52.132812 0.304688 49.0625 0.734375 C 46 1.171875 42.992188 1.390625 40.046875 1.390625 C 34.890625 1.390625 30.09375 0.664062 25.65625 -0.78125 C 21.226562 -2.226562 17.394531 -4.34375 14.15625 -7.125 C 10.914062 -9.90625 8.367188 -13.304688 6.515625 -17.328125 C 4.660156 -21.347656 3.734375 -25.9375 3.734375 -31.09375 C 3.734375 -36.300781 4.660156 -40.945312 6.515625 -45.03125 C 8.367188 -49.113281 10.914062 -52.554688 14.15625 -55.359375 C 17.394531 -58.171875 21.226562 -60.316406 25.65625 -61.796875 C 30.09375 -63.273438 34.890625 -64.015625 40.046875 -64.015625 C 43.335938 -64.015625 46.398438 -63.738281 49.234375 -63.1875 C 52.078125 -62.632812 54.742188 -61.722656 57.234375 -60.453125 L 55.671875 -44.640625 C 53.703125 -45.910156 51.703125 -46.820312 49.671875 -47.375 C 47.648438 -47.925781 45.335938 -48.203125 42.734375 -48.203125 C 40.359375 -48.203125 38.15625 -47.796875 36.125 -46.984375 C 34.101562 -46.171875 32.335938 -45.007812 30.828125 -43.5 C 29.328125 -42 28.140625 -40.175781 27.265625 -38.03125 C 26.398438 -35.894531 25.96875 -33.46875 25.96875 -30.75 C 25.96875 -28.257812 26.457031 -26.015625 27.4375 -24.015625 C 28.425781 -22.015625 29.742188 -20.304688 31.390625 -18.890625 C 33.046875 -17.472656 34.941406 -16.375 37.078125 -15.59375 C 39.222656 -14.8125 41.457031 -14.421875 43.78125 -14.421875 C 46.269531 -14.421875 48.6875 -14.679688 51.03125 -15.203125 C 53.375 -15.722656 55.441406 -16.472656 57.234375 -17.453125 Z M 57.84375 -1.21875 "/></g></g></g><g fill="#ffffff" fill-opacity="1"><g transform="translate(752.108044, 427.978096)"><g><path d="M 76.515625 -31.09375 C 76.515625 -25.9375 75.585938 -21.347656 73.734375 -17.328125 C 71.878906 -13.304688 69.316406 -9.90625 66.046875 -7.125 C 62.773438 -4.34375 58.925781 -2.226562 54.5 -0.78125 C 50.070312 0.664062 45.253906 1.390625 40.046875 1.390625 C 34.890625 1.390625 30.09375 0.664062 25.65625 -0.78125 C 21.226562 -2.226562 17.394531 -4.34375 14.15625 -7.125 C 10.914062 -9.90625 8.367188 -13.304688 6.515625 -17.328125 C 4.660156 -21.347656 3.734375 -25.9375 3.734375 -31.09375 C 3.734375 -36.300781 4.660156 -40.945312 6.515625 -45.03125 C 8.367188 -49.113281 10.914062 -52.554688 14.15625 -55.359375 C 17.394531 -58.171875 21.226562 -60.316406 25.65625 -61.796875 C 30.09375 -63.273438 34.890625 -64.015625 40.046875 -64.015625 C 45.253906 -64.015625 50.070312 -63.273438 54.5 -61.796875 C 58.925781 -60.316406 62.773438 -58.171875 66.046875 -55.359375 C 69.316406 -52.554688 71.878906 -49.113281 73.734375 -45.03125 C 75.585938 -40.945312 76.515625 -36.300781 76.515625 -31.09375 Z M 54.109375 -31.09375 C 54.109375 -33.46875 53.832031 -35.722656 53.28125 -37.859375 C 52.726562 -40.003906 51.890625 -41.898438 50.765625 -43.546875 C 49.640625 -45.203125 48.191406 -46.503906 46.421875 -47.453125 C 44.660156 -48.410156 42.535156 -48.890625 40.046875 -48.890625 C 37.546875 -48.890625 35.398438 -48.410156 33.609375 -47.453125 C 31.816406 -46.503906 30.351562 -45.203125 29.21875 -43.546875 C 28.09375 -41.898438 27.269531 -40.003906 26.75 -37.859375 C 26.226562 -35.722656 25.96875 -33.46875 25.96875 -31.09375 C 25.96875 -28.832031 26.226562 -26.660156 26.75 -24.578125 C 27.269531 -22.492188 28.09375 -20.640625 29.21875 -19.015625 C 30.351562 -17.398438 31.816406 -16.113281 33.609375 -15.15625 C 35.398438 -14.195312 37.546875 -13.71875 40.046875 -13.71875 C 42.535156 -13.71875 44.660156 -14.195312 46.421875 -15.15625 C 48.191406 -16.113281 49.640625 -17.398438 50.765625 -19.015625 C 51.890625 -20.640625 52.726562 -22.492188 53.28125 -24.578125 C 53.832031 -26.660156 54.109375 -28.832031 54.109375 -31.09375 Z M 54.109375 -31.09375 "/></g></g></g><g fill="#ffffff" fill-opacity="1"><g transform="translate(832.351809, 427.978096)"><g><path d="M 53.671875 0 L 53.671875 -11.546875 L 53.328125 -11.546875 C 51.179688 -7.035156 48.082031 -3.75 44.03125 -1.6875 C 39.976562 0.363281 35.492188 1.390625 30.578125 1.390625 C 26.285156 1.390625 22.632812 0.710938 19.625 -0.640625 C 16.613281 -2.003906 14.148438 -3.84375 12.234375 -6.15625 C 10.328125 -8.476562 8.941406 -11.128906 8.078125 -14.109375 C 7.210938 -17.097656 6.78125 -20.210938 6.78125 -23.453125 L 6.78125 -62.625 L 28.3125 -62.625 L 28.3125 -32.390625 C 28.3125 -29.441406 28.554688 -26.953125 29.046875 -24.921875 C 29.546875 -22.898438 30.226562 -21.265625 31.09375 -20.015625 C 31.957031 -18.773438 33 -17.878906 34.21875 -17.328125 C 35.4375 -16.773438 36.769531 -16.5 38.21875 -16.5 C 42.726562 -16.5 46.113281 -18.09375 48.375 -21.28125 C 50.632812 -24.46875 51.765625 -29.414062 51.765625 -36.125 L 51.765625 -62.625 L 73.296875 -62.625 L 73.296875 0 Z M 53.671875 0 "/></g></g></g><g fill="#ffffff" fill-opacity="1"><g transform="translate(912.421888, 427.978096)"><g><path d="M 51.421875 -45.15625 C 50.140625 -45.625 48.921875 -45.882812 47.765625 -45.9375 C 46.609375 -46 45.394531 -46.03125 44.125 -46.03125 C 39.03125 -46.03125 35.117188 -44.273438 32.390625 -40.765625 C 29.671875 -37.265625 28.3125 -32.445312 28.3125 -26.3125 L 28.3125 0 L 6.78125 0 L 6.78125 -62.625 L 26.3125 -62.625 L 26.3125 -51.0625 L 26.65625 -51.0625 C 28.507812 -55 30.882812 -58.140625 33.78125 -60.484375 C 36.675781 -62.835938 40.46875 -64.015625 45.15625 -64.015625 C 46.4375 -64.015625 47.710938 -63.941406 48.984375 -63.796875 C 50.253906 -63.648438 51.410156 -63.488281 52.453125 -63.3125 Z M 51.421875 -45.15625 "/></g></g></g><g fill="#ffffff" fill-opacity="1"><g transform="translate(965.744044, 427.978096)"><g><path d="M 56.1875 -19.375 C 56.1875 -15.257812 55.332031 -11.851562 53.625 -9.15625 C 51.914062 -6.46875 49.6875 -4.34375 46.9375 -2.78125 C 44.1875 -1.21875 41.0625 -0.132812 37.5625 0.46875 C 34.0625 1.082031 30.546875 1.390625 27.015625 1.390625 C 22.148438 1.390625 17.9375 1.15625 14.375 0.6875 C 10.8125 0.226562 7.4375 -0.519531 4.25 -1.5625 L 5.46875 -17.28125 C 8.019531 -16.1875 11.0625 -15.203125 14.59375 -14.328125 C 18.125 -13.460938 21.859375 -13.03125 25.796875 -13.03125 C 26.898438 -13.03125 27.972656 -13.085938 29.015625 -13.203125 C 30.054688 -13.316406 30.976562 -13.546875 31.78125 -13.890625 C 32.59375 -14.242188 33.242188 -14.753906 33.734375 -15.421875 C 34.234375 -16.085938 34.484375 -16.941406 34.484375 -17.984375 C 34.484375 -19.773438 33.726562 -21.132812 32.21875 -22.0625 C 30.71875 -22.988281 28.835938 -23.769531 26.578125 -24.40625 C 24.316406 -25.039062 21.851562 -25.707031 19.1875 -26.40625 C 16.53125 -27.101562 14.070312 -28.113281 11.8125 -29.4375 C 9.550781 -30.769531 7.664062 -32.550781 6.15625 -34.78125 C 4.65625 -37.007812 3.90625 -40.007812 3.90625 -43.78125 C 3.90625 -47.363281 4.703125 -50.441406 6.296875 -53.015625 C 7.890625 -55.597656 9.957031 -57.695312 12.5 -59.3125 C 15.050781 -60.9375 17.890625 -62.125 21.015625 -62.875 C 24.140625 -63.632812 27.269531 -64.015625 30.40625 -64.015625 C 34.164062 -64.015625 37.910156 -63.753906 41.640625 -63.234375 C 45.378906 -62.710938 48.984375 -61.785156 52.453125 -60.453125 L 50.890625 -45.34375 C 48.515625 -46.789062 45.78125 -47.859375 42.6875 -48.546875 C 39.59375 -49.242188 36.679688 -49.59375 33.953125 -49.59375 C 32.796875 -49.59375 31.625 -49.535156 30.4375 -49.421875 C 29.25 -49.304688 28.175781 -49.070312 27.21875 -48.71875 C 26.269531 -48.375 25.488281 -47.910156 24.875 -47.328125 C 24.269531 -46.753906 23.96875 -46.03125 23.96875 -45.15625 C 23.96875 -43.539062 24.765625 -42.34375 26.359375 -41.5625 C 27.953125 -40.78125 29.9375 -40.097656 32.3125 -39.515625 C 34.6875 -38.941406 37.273438 -38.320312 40.078125 -37.65625 C 42.890625 -36.988281 45.484375 -35.957031 47.859375 -34.5625 C 50.234375 -33.175781 52.210938 -31.296875 53.796875 -28.921875 C 55.390625 -26.546875 56.1875 -23.363281 56.1875 -19.375 Z M 56.1875 -19.375 "/></g></g></g><g fill="#ffffff" fill-opacity="1"><g transform="translate(1025.666337, 427.978096)"><g><path d="M 25.625 -24.921875 C 26.257812 -20.578125 28.15625 -17.507812 31.3125 -15.71875 C 34.46875 -13.925781 38.679688 -13.03125 43.953125 -13.03125 C 46.898438 -13.03125 49.992188 -13.375 53.234375 -14.0625 C 56.484375 -14.757812 59.726562 -16.007812 62.96875 -17.8125 L 62.96875 -2.515625 C 59.488281 -1.179688 55.820312 -0.195312 51.96875 0.4375 C 48.125 1.070312 44.148438 1.390625 40.046875 1.390625 C 34.890625 1.390625 30.09375 0.648438 25.65625 -0.828125 C 21.226562 -2.304688 17.394531 -4.429688 14.15625 -7.203125 C 10.914062 -9.984375 8.367188 -13.398438 6.515625 -17.453125 C 4.660156 -21.503906 3.734375 -26.109375 3.734375 -31.265625 C 3.734375 -36.421875 4.570312 -41.023438 6.25 -45.078125 C 7.925781 -49.128906 10.238281 -52.554688 13.1875 -55.359375 C 16.144531 -58.171875 19.664062 -60.316406 23.75 -61.796875 C 27.832031 -63.273438 32.304688 -64.015625 37.171875 -64.015625 C 42.960938 -64.015625 47.882812 -63.054688 51.9375 -61.140625 C 55.988281 -59.234375 59.257812 -56.671875 61.75 -53.453125 C 64.238281 -50.242188 66.046875 -46.523438 67.171875 -42.296875 C 68.304688 -38.066406 68.875 -33.640625 68.875 -29.015625 L 68.875 -24.921875 Z M 49.25 -37.171875 C 49.25 -38.960938 49.03125 -40.671875 48.59375 -42.296875 C 48.15625 -43.921875 47.472656 -45.328125 46.546875 -46.515625 C 45.617188 -47.703125 44.390625 -48.640625 42.859375 -49.328125 C 41.328125 -50.023438 39.488281 -50.375 37.34375 -50.375 C 35.375 -50.375 33.664062 -50.023438 32.21875 -49.328125 C 30.769531 -48.640625 29.550781 -47.703125 28.5625 -46.515625 C 27.582031 -45.328125 26.816406 -43.921875 26.265625 -42.296875 C 25.722656 -40.671875 25.394531 -38.960938 25.28125 -37.171875 Z M 49.25 -37.171875 "/></g></g></g><g fill="#ffffff" fill-opacity="1"><g transform="translate(1098.953936, 427.978096)"><g/></g></g><g fill="#ffffff" fill-opacity="1"><g transform="translate(339.318549, 573.911481)"><g><path d="M 66.875 -19.546875 C 66.875 -16.472656 66.351562 -13.675781 65.3125 -11.15625 C 64.269531 -8.632812 62.789062 -6.488281 60.875 -4.71875 C 58.96875 -2.957031 56.65625 -1.582031 53.9375 -0.59375 C 51.21875 0.382812 48.175781 0.875 44.8125 0.875 C 42.269531 0.875 39.910156 0.613281 37.734375 0.09375 C 35.566406 -0.425781 33.554688 -1.132812 31.703125 -2.03125 C 29.847656 -2.9375 28.179688 -3.984375 26.703125 -5.171875 C 25.234375 -6.359375 23.914062 -7.644531 22.75 -9.03125 L 22.75 0 L 5.296875 0 L 5.296875 -71.125 L 12.765625 -71.125 C 15.835938 -71.125 18.269531 -70.328125 20.0625 -68.734375 C 21.851562 -67.148438 22.75 -64.5625 22.75 -60.96875 L 22.75 -28.3125 C 22.75 -26.632812 23.109375 -24.820312 23.828125 -22.875 C 24.554688 -20.9375 25.585938 -19.15625 26.921875 -17.53125 C 28.253906 -15.914062 29.890625 -14.570312 31.828125 -13.5 C 33.765625 -12.4375 35.953125 -11.90625 38.390625 -11.90625 C 40.410156 -11.90625 42.113281 -12.222656 43.5 -12.859375 C 44.894531 -13.492188 46.023438 -14.390625 46.890625 -15.546875 C 47.765625 -16.703125 48.40625 -18.078125 48.8125 -19.671875 C 49.21875 -21.265625 49.421875 -23.015625 49.421875 -24.921875 L 49.421875 -71.125 L 66.875 -71.125 Z M 66.875 -19.546875 "/></g></g></g><g fill="#ffffff" fill-opacity="1"><g transform="translate(411.485831, 573.911481)"><g><path d="M -5.296875 14.25 C -5.296875 16.625 -5.65625 18.75 -6.375 20.625 C -7.101562 22.507812 -8.320312 24.101562 -10.03125 25.40625 C -11.738281 26.707031 -13.984375 27.691406 -16.765625 28.359375 C -19.546875 29.023438 -22.960938 29.359375 -27.015625 29.359375 C -31.296875 29.359375 -34.851562 29.050781 -37.6875 28.4375 C -40.53125 27.832031 -42.804688 26.9375 -44.515625 25.75 C -46.222656 24.5625 -47.4375 23.113281 -48.15625 21.40625 C -48.882812 19.695312 -49.25 17.710938 -49.25 15.453125 L -52.984375 15.453125 L -52.984375 5.296875 L -32.5625 5.296875 L -32.5625 14.25 C -32.5625 15.863281 -32.128906 17.03125 -31.265625 17.75 C -30.398438 18.476562 -29.210938 18.84375 -27.703125 18.84375 C -26.140625 18.84375 -24.921875 18.476562 -24.046875 17.75 C -23.179688 17.03125 -22.75 15.863281 -22.75 14.25 L -22.75 5.296875 L -5.296875 5.296875 Z M -5.296875 14.25 "/></g></g></g><g fill="#ffffff" fill-opacity="1"><g transform="translate(411.485831, 573.911481)"><g><path d="M 48.71875 0 L 48.71875 -29.015625 C 48.550781 -29.410156 48.132812 -29.941406 47.46875 -30.609375 C 46.800781 -31.273438 45.875 -31.925781 44.6875 -32.5625 C 43.5 -33.207031 42.078125 -33.742188 40.421875 -34.171875 C 38.773438 -34.609375 36.910156 -34.828125 34.828125 -34.828125 C 32.742188 -34.828125 30.832031 -34.535156 29.09375 -33.953125 C 27.351562 -33.378906 25.859375 -32.597656 24.609375 -31.609375 C 23.367188 -30.628906 22.398438 -29.457031 21.703125 -28.09375 C 21.015625 -26.738281 20.671875 -25.25 20.671875 -23.625 C 20.671875 -21.25 21.21875 -19.289062 22.3125 -17.75 C 23.414062 -16.21875 24.804688 -15.078125 26.484375 -14.328125 C 28.171875 -13.578125 30 -13.203125 31.96875 -13.203125 C 33.9375 -13.203125 35.785156 -13.550781 37.515625 -14.25 L 37.515625 -0.171875 C 31.722656 0.984375 26.6875 1.113281 22.40625 0.21875 C 18.125 -0.675781 14.578125 -2.265625 11.765625 -4.546875 C 8.960938 -6.835938 6.863281 -9.660156 5.46875 -13.015625 C 4.082031 -16.378906 3.390625 -19.972656 3.390625 -23.796875 C 3.390625 -27.148438 3.992188 -30.375 5.203125 -33.46875 C 6.421875 -36.570312 8.21875 -39.3125 10.59375 -41.6875 C 12.96875 -44.0625 15.945312 -45.972656 19.53125 -47.421875 C 23.125 -48.867188 27.296875 -49.59375 32.046875 -49.59375 C 36.503906 -49.59375 40.132812 -49.113281 42.9375 -48.15625 C 45.75 -47.207031 47.675781 -46.269531 48.71875 -45.34375 L 48.71875 -49.078125 C 48.71875 -50.691406 48.367188 -52.132812 47.671875 -53.40625 C 46.984375 -54.6875 46.0625 -55.789062 44.90625 -56.71875 C 43.75 -57.644531 42.359375 -58.351562 40.734375 -58.84375 C 39.109375 -59.332031 37.398438 -59.578125 35.609375 -59.578125 C 31.847656 -59.578125 28.789062 -58.722656 26.4375 -57.015625 C 24.09375 -55.304688 22.578125 -53.207031 21.890625 -50.71875 L 4.078125 -50.71875 C 4.367188 -53.320312 5.253906 -55.925781 6.734375 -58.53125 C 8.210938 -61.144531 10.253906 -63.492188 12.859375 -65.578125 C 15.460938 -67.660156 18.628906 -69.351562 22.359375 -70.65625 C 26.097656 -71.957031 30.398438 -72.609375 35.265625 -72.609375 C 40.472656 -72.609375 45.015625 -72.039062 48.890625 -70.90625 C 52.773438 -69.78125 56.003906 -68.203125 58.578125 -66.171875 C 61.160156 -64.148438 63.070312 -61.75 64.3125 -58.96875 C 65.5625 -56.1875 66.1875 -53.117188 66.1875 -49.765625 L 66.1875 0 Z M 48.71875 0 "/></g></g></g><g fill="#ffffff" fill-opacity="1"><g transform="translate(482.958361, 573.911481)"><g><path d="M 49.421875 0 L 49.421875 -48.203125 C 49.421875 -50.347656 49.03125 -52.144531 48.25 -53.59375 C 47.46875 -55.039062 46.453125 -56.210938 45.203125 -57.109375 C 43.960938 -58.003906 42.53125 -58.640625 40.90625 -59.015625 C 39.28125 -59.390625 37.628906 -59.578125 35.953125 -59.578125 C 34.453125 -59.578125 32.921875 -59.390625 31.359375 -59.015625 C 29.796875 -58.640625 28.375 -58.003906 27.09375 -57.109375 C 25.820312 -56.210938 24.78125 -55.039062 23.96875 -53.59375 C 23.15625 -52.144531 22.75 -50.347656 22.75 -48.203125 L 22.75 -40.90625 L 37.6875 -40.90625 L 37.6875 -25.453125 L 22.75 -25.453125 L 22.75 0 L 5.296875 0 L 5.296875 -48.71875 C 5.296875 -51.90625 5.890625 -54.929688 7.078125 -57.796875 C 8.265625 -60.660156 10.085938 -63.191406 12.546875 -65.390625 C 15.003906 -67.597656 18.171875 -69.351562 22.046875 -70.65625 C 25.929688 -71.957031 30.566406 -72.609375 35.953125 -72.609375 C 41.398438 -72.609375 46.0625 -71.957031 49.9375 -70.65625 C 53.820312 -69.351562 57.019531 -67.597656 59.53125 -65.390625 C 62.050781 -63.191406 63.90625 -60.660156 65.09375 -57.796875 C 66.28125 -54.929688 66.875 -51.90625 66.875 -48.71875 L 66.875 0 Z M 49.421875 0 "/></g></g></g><g fill="#ffffff" fill-opacity="1"><g transform="translate(555.125643, 573.911481)"><g><path d="M -22.75 -80.078125 L -22.75 -101.359375 L -5.296875 -101.359375 L -5.296875 -80.078125 Z M -22.75 -80.078125 "/></g></g></g><g fill="#ffffff" fill-opacity="1"><g transform="translate(555.125643, 573.911481)"><g><path d="M 25.28125 0 L 25.28125 -40.21875 C 25.28125 -42.351562 24.972656 -44.363281 24.359375 -46.25 C 23.753906 -48.132812 22.84375 -49.753906 21.625 -51.109375 C 20.40625 -52.472656 18.867188 -53.546875 17.015625 -54.328125 C 15.171875 -55.109375 13.003906 -55.5 10.515625 -55.5 L 1.734375 -55.5 L 1.734375 -71.125 L 13.71875 -71.125 C 18.695312 -71.125 23.007812 -70.367188 26.65625 -68.859375 C 30.3125 -67.359375 33.320312 -65.289062 35.6875 -62.65625 C 38.0625 -60.03125 39.828125 -56.9375 40.984375 -53.375 C 42.148438 -49.8125 42.734375 -46.003906 42.734375 -41.953125 L 42.734375 0 Z M 25.28125 0 "/></g></g></g><g fill="#ffffff" fill-opacity="1"><g transform="translate(603.150321, 573.911481)"><g/></g></g><g fill="#ffffff" fill-opacity="1"><g transform="translate(656.472477, 573.911481)"><g><path d="M 33.609375 0 L 33.609375 -61.578125 L 17.8125 -50.203125 L 7.8125 -65.3125 L 36.296875 -83.8125 L 56.015625 -83.8125 L 56.015625 0 Z M 33.609375 0 "/></g></g></g><g fill="#ffffff" fill-opacity="1"><g transform="translate(729.942419, 573.911481)"><g><path d="M 16.765625 13.203125 L 0.171875 13.203125 L 8.34375 -19.375 L 28.484375 -19.375 Z M 16.765625 13.203125 "/></g></g></g><g fill="#ffffff" fill-opacity="1"><g transform="translate(766.764234, 573.911481)"><g><path d="M 69.21875 -41.953125 C 69.21875 -38.304688 69.054688 -34.703125 68.734375 -31.140625 C 68.421875 -27.578125 67.828125 -24.1875 66.953125 -20.96875 C 66.085938 -17.757812 64.890625 -14.789062 63.359375 -12.0625 C 61.828125 -9.34375 59.859375 -6.984375 57.453125 -4.984375 C 55.046875 -2.992188 52.148438 -1.429688 48.765625 -0.296875 C 45.378906 0.828125 41.398438 1.390625 36.828125 1.390625 C 29.878906 1.390625 24.273438 0.160156 20.015625 -2.296875 C 15.765625 -4.765625 12.460938 -8.023438 10.109375 -12.078125 C 7.765625 -16.128906 6.203125 -20.742188 5.421875 -25.921875 C 4.640625 -31.109375 4.25 -36.453125 4.25 -41.953125 C 4.25 -45.597656 4.410156 -49.1875 4.734375 -52.71875 C 5.054688 -56.25 5.648438 -59.617188 6.515625 -62.828125 C 7.378906 -66.046875 8.578125 -69.015625 10.109375 -71.734375 C 11.648438 -74.460938 13.617188 -76.820312 16.015625 -78.8125 C 18.421875 -80.8125 21.332031 -82.375 24.75 -83.5 C 28.164062 -84.632812 32.191406 -85.203125 36.828125 -85.203125 C 41.398438 -85.203125 45.378906 -84.632812 48.765625 -83.5 C 52.148438 -82.375 55.046875 -80.8125 57.453125 -78.8125 C 59.859375 -76.820312 61.828125 -74.460938 63.359375 -71.734375 C 64.890625 -69.015625 66.085938 -66.046875 66.953125 -62.828125 C 67.828125 -59.617188 68.421875 -56.234375 68.734375 -52.671875 C 69.054688 -49.109375 69.21875 -45.535156 69.21875 -41.953125 Z M 47.6875 -41.953125 C 47.6875 -45.253906 47.582031 -48.566406 47.375 -51.890625 C 47.175781 -55.222656 46.710938 -58.234375 45.984375 -60.921875 C 45.265625 -63.617188 44.179688 -65.820312 42.734375 -67.53125 C 41.285156 -69.238281 39.316406 -70.09375 36.828125 -70.09375 C 34.273438 -70.09375 32.257812 -69.238281 30.78125 -67.53125 C 29.3125 -65.820312 28.210938 -63.617188 27.484375 -60.921875 C 26.765625 -58.234375 26.300781 -55.222656 26.09375 -51.890625 C 25.894531 -48.566406 25.796875 -45.253906 25.796875 -41.953125 C 25.796875 -38.648438 25.894531 -35.316406 26.09375 -31.953125 C 26.300781 -28.597656 26.765625 -25.570312 27.484375 -22.875 C 28.210938 -20.1875 29.3125 -17.988281 30.78125 -16.28125 C 32.257812 -14.570312 34.273438 -13.71875 36.828125 -13.71875 C 39.316406 -13.71875 41.285156 -14.570312 42.734375 -16.28125 C 44.179688 -17.988281 45.265625 -20.1875 45.984375 -22.875 C 46.710938 -25.570312 47.175781 -28.597656 47.375 -31.953125 C 47.582031 -35.316406 47.6875 -38.648438 47.6875 -41.953125 Z M 47.6875 -41.953125 "/></g></g></g><g fill="#ffffff" fill-opacity="1"><g transform="translate(840.234176, 573.911481)"><g><path d="M 69.21875 -41.953125 C 69.21875 -38.304688 69.054688 -34.703125 68.734375 -31.140625 C 68.421875 -27.578125 67.828125 -24.1875 66.953125 -20.96875 C 66.085938 -17.757812 64.890625 -14.789062 63.359375 -12.0625 C 61.828125 -9.34375 59.859375 -6.984375 57.453125 -4.984375 C 55.046875 -2.992188 52.148438 -1.429688 48.765625 -0.296875 C 45.378906 0.828125 41.398438 1.390625 36.828125 1.390625 C 29.878906 1.390625 24.273438 0.160156 20.015625 -2.296875 C 15.765625 -4.765625 12.460938 -8.023438 10.109375 -12.078125 C 7.765625 -16.128906 6.203125 -20.742188 5.421875 -25.921875 C 4.640625 -31.109375 4.25 -36.453125 4.25 -41.953125 C 4.25 -45.597656 4.410156 -49.1875 4.734375 -52.71875 C 5.054688 -56.25 5.648438 -59.617188 6.515625 -62.828125 C 7.378906 -66.046875 8.578125 -69.015625 10.109375 -71.734375 C 11.648438 -74.460938 13.617188 -76.820312 16.015625 -78.8125 C 18.421875 -80.8125 21.332031 -82.375 24.75 -83.5 C 28.164062 -84.632812 32.191406 -85.203125 36.828125 -85.203125 C 41.398438 -85.203125 45.378906 -84.632812 48.765625 -83.5 C 52.148438 -82.375 55.046875 -80.8125 57.453125 -78.8125 C 59.859375 -76.820312 61.828125 -74.460938 63.359375 -71.734375 C 64.890625 -69.015625 66.085938 -66.046875 66.953125 -62.828125 C 67.828125 -59.617188 68.421875 -56.234375 68.734375 -52.671875 C 69.054688 -49.109375 69.21875 -45.535156 69.21875 -41.953125 Z M 47.6875 -41.953125 C 47.6875 -45.253906 47.582031 -48.566406 47.375 -51.890625 C 47.175781 -55.222656 46.710938 -58.234375 45.984375 -60.921875 C 45.265625 -63.617188 44.179688 -65.820312 42.734375 -67.53125 C 41.285156 -69.238281 39.316406 -70.09375 36.828125 -70.09375 C 34.273438 -70.09375 32.257812 -69.238281 30.78125 -67.53125 C 29.3125 -65.820312 28.210938 -63.617188 27.484375 -60.921875 C 26.765625 -58.234375 26.300781 -55.222656 26.09375 -51.890625 C 25.894531 -48.566406 25.796875 -45.253906 25.796875 -41.953125 C 25.796875 -38.648438 25.894531 -35.316406 26.09375 -31.953125 C 26.300781 -28.597656 26.765625 -25.570312 27.484375 -22.875 C 28.210938 -20.1875 29.3125 -17.988281 30.78125 -16.28125 C 32.257812 -14.570312 34.273438 -13.71875 36.828125 -13.71875 C 39.316406 -13.71875 41.285156 -14.570312 42.734375 -16.28125 C 44.179688 -17.988281 45.265625 -20.1875 45.984375 -22.875 C 46.710938 -25.570312 47.175781 -28.597656 47.375 -31.953125 C 47.582031 -35.316406 47.6875 -38.648438 47.6875 -41.953125 Z M 47.6875 -41.953125 "/></g></g></g><g fill="#ffffff" fill-opacity="1"><g transform="translate(913.704117, 573.911481)"><g><path d="M 69.21875 -41.953125 C 69.21875 -38.304688 69.054688 -34.703125 68.734375 -31.140625 C 68.421875 -27.578125 67.828125 -24.1875 66.953125 -20.96875 C 66.085938 -17.757812 64.890625 -14.789062 63.359375 -12.0625 C 61.828125 -9.34375 59.859375 -6.984375 57.453125 -4.984375 C 55.046875 -2.992188 52.148438 -1.429688 48.765625 -0.296875 C 45.378906 0.828125 41.398438 1.390625 36.828125 1.390625 C 29.878906 1.390625 24.273438 0.160156 20.015625 -2.296875 C 15.765625 -4.765625 12.460938 -8.023438 10.109375 -12.078125 C 7.765625 -16.128906 6.203125 -20.742188 5.421875 -25.921875 C 4.640625 -31.109375 4.25 -36.453125 4.25 -41.953125 C 4.25 -45.597656 4.410156 -49.1875 4.734375 -52.71875 C 5.054688 -56.25 5.648438 -59.617188 6.515625 -62.828125 C 7.378906 -66.046875 8.578125 -69.015625 10.109375 -71.734375 C 11.648438 -74.460938 13.617188 -76.820312 16.015625 -78.8125 C 18.421875 -80.8125 21.332031 -82.375 24.75 -83.5 C 28.164062 -84.632812 32.191406 -85.203125 36.828125 -85.203125 C 41.398438 -85.203125 45.378906 -84.632812 48.765625 -83.5 C 52.148438 -82.375 55.046875 -80.8125 57.453125 -78.8125 C 59.859375 -76.820312 61.828125 -74.460938 63.359375 -71.734375 C 64.890625 -69.015625 66.085938 -66.046875 66.953125 -62.828125 C 67.828125 -59.617188 68.421875 -56.234375 68.734375 -52.671875 C 69.054688 -49.109375 69.21875 -45.535156 69.21875 -41.953125 Z M 47.6875 -41.953125 C 47.6875 -45.253906 47.582031 -48.566406 47.375 -51.890625 C 47.175781 -55.222656 46.710938 -58.234375 45.984375 -60.921875 C 45.265625 -63.617188 44.179688 -65.820312 42.734375 -67.53125 C 41.285156 -69.238281 39.316406 -70.09375 36.828125 -70.09375 C 34.273438 -70.09375 32.257812 -69.238281 30.78125 -67.53125 C 29.3125 -65.820312 28.210938 -63.617188 27.484375 -60.921875 C 26.765625 -58.234375 26.300781 -55.222656 26.09375 -51.890625 C 25.894531 -48.566406 25.796875 -45.253906 25.796875 -41.953125 C 25.796875 -38.648438 25.894531 -35.316406 26.09375 -31.953125 C 26.300781 -28.597656 26.765625 -25.570312 27.484375 -22.875 C 28.210938 -20.1875 29.3125 -17.988281 30.78125 -16.28125 C 32.257812 -14.570312 34.273438 -13.71875 36.828125 -13.71875 C 39.316406 -13.71875 41.285156 -14.570312 42.734375 -16.28125 C 44.179688 -17.988281 45.265625 -20.1875 45.984375 -22.875 C 46.710938 -25.570312 47.175781 -28.597656 47.375 -31.953125 C 47.582031 -35.316406 47.6875 -38.648438 47.6875 -41.953125 Z M 47.6875 -41.953125 "/></g></g></g><g fill="#ffffff" fill-opacity="1"><g transform="translate(987.174059, 573.911481)"><g><path d="M 3.734375 -24.40625 L 3.734375 -40.21875 L 36.296875 -40.21875 L 36.296875 -24.40625 Z M 3.734375 -24.40625 "/></g></g></g><g clip-path="url(#32dca56f1e)"><g clip-path="url(#6b5c8770e9)"><g clip-path="url(#5249f2e797)"><path fill="#ffd900" d="M 91.144531 75.648438 L 405.464844 0 L 475.242188 289.921875 L 160.921875 365.574219 Z M 91.144531 75.648438 " fill-opacity="1" fill-rule="nonzero"/></g></g></g><g clip-path="url(#ac27c80ddc)"><g clip-path="url(#5b53c8b07b)"><g fill="#000000" fill-opacity="1"><g transform="translate(188.091312, 232.567331)"><g><path d="M 20.484375 -4.15625 C 16.171875 -3.113281 12.597656 -3.191406 9.765625 -4.390625 C 6.929688 -5.585938 4.65625 -7.660156 2.9375 -10.609375 C 1.226562 -13.554688 -0.128906 -17.144531 -1.140625 -21.375 C -2.835938 -28.40625 -3.023438 -33.773438 -1.703125 -37.484375 C -0.390625 -41.191406 2.328125 -43.539062 6.453125 -44.53125 C 8.160156 -44.9375 9.734375 -44.96875 11.171875 -44.625 C 12.617188 -44.28125 13.9375 -43.332031 15.125 -41.78125 L 15.421875 -41.84375 C 15.671875 -43.800781 16.492188 -45.28125 17.890625 -46.28125 C 19.296875 -47.289062 20.898438 -48.007812 22.703125 -48.4375 C 26.035156 -49.238281 28.753906 -48.945312 30.859375 -47.5625 C 32.972656 -46.175781 34.445312 -43.757812 35.28125 -40.3125 L 42.515625 -10.234375 L 31.59375 -7.609375 L 24.84375 -35.640625 C 24.476562 -37.148438 23.988281 -38.109375 23.375 -38.515625 C 22.769531 -38.929688 22.054688 -39.039062 21.234375 -38.84375 C 20.316406 -38.625 19.6875 -38.191406 19.34375 -37.546875 C 19.007812 -36.910156 18.925781 -35.9375 19.09375 -34.625 L 14.796875 -33.59375 C 14.265625 -34.90625 13.675781 -35.738281 13.03125 -36.09375 C 12.382812 -36.457031 11.695312 -36.550781 10.96875 -36.375 C 9.695312 -36.070312 8.957031 -34.96875 8.75 -33.0625 C 8.550781 -31.164062 8.953125 -28.132812 9.953125 -23.96875 C 10.941406 -19.84375 12.1875 -16.789062 13.6875 -14.8125 C 15.1875 -12.832031 17.34375 -12.179688 20.15625 -12.859375 C 21.332031 -13.140625 22.25 -13.507812 22.90625 -13.96875 L 25.875 -6.453125 C 24.46875 -5.441406 22.671875 -4.675781 20.484375 -4.15625 Z M 20.484375 -4.15625 "/></g></g></g></g></g><g clip-path="url(#67328aa6a2)"><g clip-path="url(#9a41fad66c)"><g fill="#000000" fill-opacity="1"><g transform="translate(234.691454, 221.351644)"><g><path d="M -27.171875 -41.53125 L -31.140625 -58.0625 L -21.09375 -60.484375 L -17.125 -43.953125 Z M -27.171875 -41.53125 "/></g></g></g></g></g><g clip-path="url(#e7a826ffff)"><g clip-path="url(#4a0a7a5ac0)"><g fill="#000000" fill-opacity="1"><g transform="translate(235.710783, 221.106313)"><g><path d="M 21.203125 -4.109375 C 15.285156 -2.679688 10.546875 -3.066406 6.984375 -5.265625 C 3.421875 -7.460938 0.957031 -11.398438 -0.40625 -17.078125 C -0.625 -18.003906 -0.867188 -19.175781 -1.140625 -20.59375 C -1.410156 -22.019531 -1.597656 -23.285156 -1.703125 -24.390625 L 15.765625 -28.59375 L 17.421875 -21.6875 L 10.21875 -19.953125 L 10.46875 -18.9375 C 11.164062 -16.019531 12.21875 -14.023438 13.625 -12.953125 C 15.039062 -11.878906 16.894531 -11.617188 19.1875 -12.171875 C 21.601562 -12.753906 23.289062 -14.054688 24.25 -16.078125 C 25.207031 -18.109375 25.128906 -21.429688 24.015625 -26.046875 C 22.972656 -30.359375 21.425781 -33.410156 19.375 -35.203125 C 17.320312 -36.992188 14.304688 -37.410156 10.328125 -36.453125 C 8.140625 -35.929688 5.960938 -35.050781 3.796875 -33.8125 C 1.640625 -32.570312 -0.09375 -31.351562 -1.40625 -30.15625 L -3.59375 -39.265625 C -2.226562 -40.460938 -0.257812 -41.664062 2.3125 -42.875 C 4.894531 -44.09375 7.546875 -45.03125 10.265625 -45.6875 C 14.972656 -46.8125 18.976562 -46.863281 22.28125 -45.84375 C 25.582031 -44.820312 28.28125 -42.890625 30.375 -40.046875 C 32.46875 -37.210938 34.035156 -33.640625 35.078125 -29.328125 C 36.679688 -22.671875 36.429688 -17.203125 34.328125 -12.921875 C 32.222656 -8.648438 27.847656 -5.710938 21.203125 -4.109375 Z M 21.203125 -4.109375 "/></g></g></g></g></g><g clip-path="url(#e92ae75dbd)"><g clip-path="url(#11712af68b)"><g fill="#000000" fill-opacity="1"><g transform="translate(278.888685, 210.714288)"><g><path d="M 5.609375 -1.34375 L -4 -41.25 L 4 -43.1875 L 6.96875 -37.265625 L 7.546875 -37.40625 C 7.898438 -39.59375 8.9375 -41.597656 10.65625 -43.421875 C 12.375 -45.253906 14.859375 -46.5625 18.109375 -47.34375 C 27.378906 -49.570312 33.210938 -45.710938 35.609375 -35.765625 L 41.796875 -10.0625 L 30.875 -7.421875 L 25.21875 -30.9375 C 24.5625 -33.664062 23.546875 -35.488281 22.171875 -36.40625 C 20.796875 -37.332031 19.054688 -37.546875 16.953125 -37.046875 C 14.429688 -36.429688 12.722656 -34.941406 11.828125 -32.578125 C 10.941406 -30.210938 10.976562 -27.039062 11.9375 -23.0625 L 16.53125 -3.984375 Z M 5.609375 -1.34375 "/></g></g></g></g></g><g clip-path="url(#01c3644753)"><g clip-path="url(#293fe8c9c1)"><g fill="#000000" fill-opacity="1"><g transform="translate(324.544977, 199.417637)"><g><path d="M -50.046875 -36.03125 L -51.15625 -40.625 L -44.53125 -45.4375 L -27.84375 -49.453125 L -29.046875 -54.484375 L -19.734375 -56.71875 L -16.6875 -44.046875 Z M -50.046875 -36.03125 "/></g></g><g transform="translate(324.544977, 199.417637)"><g><path d="M -30.046875 -58.328125 L -33.3125 -71.859375 L -23.859375 -74.125 L -20.59375 -60.59375 Z M -30.046875 -58.328125 "/></g></g></g></g></g><g clip-path="url(#41172cbe51)"><g clip-path="url(#2693e5fabc)"><g fill="#000000" fill-opacity="1"><g transform="translate(325.780031, 199.428514)"><g/></g></g></g></g><g clip-path="url(#a0313baaa0)"><g clip-path="url(#db75b8631e)"><g fill="#000000" fill-opacity="1"><g transform="translate(341.216314, 195.713321)"><g><path d="M 1.28125 -10.328125 L -1.140625 -20.375 L 13.9375 -58.8125 L 27.859375 -62.171875 L 35.609375 -29.984375 L 41.578125 -31.421875 L 44.171875 -20.65625 L 38.203125 -19.21875 L 40.484375 -9.75 L 28.03125 -6.75 L 25.75 -16.21875 Z M 19.578125 -45.6875 L 11.8125 -24.25 L 24.03125 -27.1875 Z M 19.578125 -45.6875 "/></g></g></g></g></g></svg>