<svg xmlns="http://www.w3.org/2000/svg" xmlns:xlink="http://www.w3.org/1999/xlink" width="1640" zoomAndPan="magnify" viewBox="0 0 1230 693.000001" height="924" preserveAspectRatio="xMidYMid meet" version="1.0"><defs><g/><clipPath id="9df2cb0014"><path d="M 209.707031 201.1875 L 1164.675781 201.1875 L 1164.675781 692 L 209.707031 692 Z M 209.707031 201.1875 " clip-rule="nonzero"/></clipPath><clipPath id="85ac1fe6da"><path d="M 101 36 L 405 36 L 405 340 L 101 340 Z M 101 36 " clip-rule="nonzero"/></clipPath><clipPath id="a5302ab33c"><path d="M 65.324219 72.917969 L 368.300781 0 L 441.21875 302.972656 L 138.246094 375.894531 Z M 65.324219 72.917969 " clip-rule="nonzero"/></clipPath><clipPath id="eb58b4d878"><path d="M 216.8125 36.460938 L 271.488281 72.515625 L 334.609375 55.046875 L 347.773438 119.203125 L 404.757812 151.488281 L 368.703125 206.160156 L 386.171875 269.28125 L 322.015625 282.449219 L 289.730469 339.433594 L 235.058594 303.378906 L 171.933594 320.84375 L 158.769531 256.6875 L 101.785156 224.40625 L 137.839844 169.730469 L 120.375 106.609375 L 184.53125 93.445312 L 216.8125 36.460938 " clip-rule="nonzero"/></clipPath><clipPath id="5edc2e0e17"><path d="M 155 186 L 205 186 L 205 237 L 155 237 Z M 155 186 " clip-rule="nonzero"/></clipPath><clipPath id="e4261d61ce"><path d="M 124.042969 108.855469 L 332.289062 58.734375 L 382.410156 266.980469 L 174.164062 317.101562 Z M 124.042969 108.855469 " clip-rule="nonzero"/></clipPath><clipPath id="5529892e52"><path d="M 176 165 L 191 165 L 191 185 L 176 185 Z M 176 165 " clip-rule="nonzero"/></clipPath><clipPath id="dcfe9ee5ce"><path d="M 124.042969 108.855469 L 332.289062 58.734375 L 382.410156 266.980469 L 174.164062 317.101562 Z M 124.042969 108.855469 " clip-rule="nonzero"/></clipPath><clipPath id="be345883ef"><path d="M 202 175 L 250 175 L 250 226 L 202 226 Z M 202 175 " clip-rule="nonzero"/></clipPath><clipPath id="848ba33813"><path d="M 124.042969 108.855469 L 332.289062 58.734375 L 382.410156 266.980469 L 174.164062 317.101562 Z M 124.042969 108.855469 " clip-rule="nonzero"/></clipPath><clipPath id="9382057b6f"><path d="M 248 164 L 295 164 L 295 214 L 248 214 Z M 248 164 " clip-rule="nonzero"/></clipPath><clipPath id="8481f288e0"><path d="M 124.042969 108.855469 L 332.289062 58.734375 L 382.410156 266.980469 L 174.164062 317.101562 Z M 124.042969 108.855469 " clip-rule="nonzero"/></clipPath><clipPath id="0cfbae10e8"><path d="M 244 129 L 282 129 L 282 168 L 244 168 Z M 244 129 " clip-rule="nonzero"/></clipPath><clipPath id="031395ca38"><path d="M 124.042969 108.855469 L 332.289062 58.734375 L 382.410156 266.980469 L 174.164062 317.101562 Z M 124.042969 108.855469 " clip-rule="nonzero"/></clipPath><clipPath id="f3463aabf2"><path d="M 299 203 L 300 203 L 300 204 L 299 204 Z M 299 203 " clip-rule="nonzero"/></clipPath><clipPath id="15f5e71704"><path d="M 124.042969 108.855469 L 332.289062 58.734375 L 382.410156 266.980469 L 174.164062 317.101562 Z M 124.042969 108.855469 " clip-rule="nonzero"/></clipPath><clipPath id="cb20d69ce0"><path d="M 303 141 L 337 141 L 337 200 L 303 200 Z M 303 141 " clip-rule="nonzero"/></clipPath><clipPath id="8b546db081"><path d="M 124.042969 108.855469 L 332.289062 58.734375 L 382.410156 266.980469 L 174.164062 317.101562 Z M 124.042969 108.855469 " clip-rule="nonzero"/></clipPath><clipPath id="c7eafcf4be"><path d="M 341 193 L 342 193 L 342 194 L 341 194 Z M 341 193 " clip-rule="nonzero"/></clipPath><clipPath id="b88c93cff9"><path d="M 124.042969 108.855469 L 332.289062 58.734375 L 382.410156 266.980469 L 174.164062 317.101562 Z M 124.042969 108.855469 " clip-rule="nonzero"/></clipPath></defs><g clip-path="url(#9df2cb0014)"><path fill="#3b3b3b" d="M 209.707031 201.1875 L 1164.675781 201.1875 L 1164.675781 692 L 209.707031 692 Z M 209.707031 201.1875 " fill-opacity="1" fill-rule="nonzero"/></g><g fill="#ffffff" fill-opacity="1"><g transform="translate(348.157985, 418.165376)"><g><path d="M 73.09375 0 L 55.078125 0 L 42.8125 -47.125 L 42.46875 -47.125 L 30.109375 0 L 11.921875 0 L 1.1875 -69.28125 L 17.515625 -69.28125 L 23.765625 -24.953125 L 24.109375 -24.953125 L 36.203125 -69.28125 L 49.0625 -69.28125 L 61.328125 -24.953125 L 61.671875 -24.953125 L 70.296875 -86.625 L 86.28125 -86.625 Z M 73.09375 0 "/></g></g></g><g fill="#ffffff" fill-opacity="1"><g transform="translate(433.085504, 418.165376)"><g><path d="M 46.953125 -48.46875 C 46.835938 -49.820312 46.425781 -51.078125 45.71875 -52.234375 C 45.019531 -53.390625 44.0625 -54.40625 42.84375 -55.28125 C 41.632812 -56.15625 40.210938 -56.832031 38.578125 -57.3125 C 36.941406 -57.789062 35.164062 -58.03125 33.25 -58.03125 C 31.4375 -58.03125 29.796875 -57.832031 28.328125 -57.4375 C 26.867188 -57.039062 25.601562 -56.503906 24.53125 -55.828125 C 23.457031 -55.148438 22.625 -54.359375 22.03125 -53.453125 C 21.445312 -52.554688 21.15625 -51.601562 21.15625 -50.59375 C 21.15625 -49.125 21.757812 -47.960938 22.96875 -47.109375 C 24.175781 -46.265625 25.78125 -45.585938 27.78125 -45.078125 C 29.789062 -44.578125 32.078125 -44.15625 34.640625 -43.8125 C 37.203125 -43.476562 39.804688 -43.03125 42.453125 -42.46875 C 45.109375 -41.90625 47.71875 -41.171875 50.28125 -40.265625 C 52.851562 -39.359375 55.140625 -38.101562 57.140625 -36.5 C 59.140625 -34.894531 60.742188 -32.835938 61.953125 -30.328125 C 63.171875 -27.816406 63.78125 -24.703125 63.78125 -20.984375 C 63.78125 -13.816406 61.253906 -8.300781 56.203125 -4.4375 C 51.160156 -0.570312 43.453125 1.359375 33.078125 1.359375 C 23.429688 1.359375 16.023438 -0.738281 10.859375 -4.9375 C 5.703125 -9.144531 3.125 -14.941406 3.125 -22.328125 L 20.46875 -22.328125 C 20.46875 -20.359375 20.890625 -18.664062 21.734375 -17.25 C 22.585938 -15.84375 23.691406 -14.6875 25.046875 -13.78125 C 26.398438 -12.882812 27.921875 -12.238281 29.609375 -11.84375 C 31.296875 -11.445312 32.988281 -11.25 34.6875 -11.25 C 36.4375 -11.25 38.054688 -11.457031 39.546875 -11.875 C 41.046875 -12.300781 42.328125 -12.867188 43.390625 -13.578125 C 44.460938 -14.285156 45.296875 -15.117188 45.890625 -16.078125 C 46.484375 -17.035156 46.78125 -18.019531 46.78125 -19.03125 C 46.78125 -21.113281 46.171875 -22.75 44.953125 -23.9375 C 43.742188 -25.125 42.140625 -26.066406 40.140625 -26.765625 C 38.140625 -27.472656 35.851562 -28.035156 33.28125 -28.453125 C 30.71875 -28.878906 28.109375 -29.332031 25.453125 -29.8125 C 22.804688 -30.289062 20.195312 -30.910156 17.625 -31.671875 C 15.0625 -32.441406 12.78125 -33.53125 10.78125 -34.9375 C 8.78125 -36.34375 7.171875 -38.1875 5.953125 -40.46875 C 4.742188 -42.757812 4.140625 -45.679688 4.140625 -49.234375 C 4.140625 -52.273438 4.832031 -55.09375 6.21875 -57.6875 C 7.601562 -60.28125 9.578125 -62.550781 12.140625 -64.5 C 14.703125 -66.445312 17.800781 -67.96875 21.4375 -69.0625 C 25.082031 -70.164062 29.1875 -70.71875 33.75 -70.71875 C 38.71875 -70.71875 43.085938 -70.125 46.859375 -68.9375 C 50.640625 -67.757812 53.796875 -66.164062 56.328125 -64.15625 C 58.867188 -62.15625 60.773438 -59.800781 62.046875 -57.09375 C 63.316406 -54.394531 63.953125 -51.519531 63.953125 -48.46875 Z M 46.953125 -48.46875 "/></g></g></g><g fill="#ffffff" fill-opacity="1"><g transform="translate(500.333889, 418.165376)"><g><path d="M -63.453125 -78 L -63.453125 -89.25 L -22.15625 -89.25 L -22.15625 -97.03125 L -5.15625 -97.03125 L -5.15625 -78 Z M -63.453125 -78 "/></g></g></g><g fill="#ffffff" fill-opacity="1"><g transform="translate(500.333889, 418.165376)"><g><path d="M 48.140625 0 L 48.140625 -46.953125 C 48.140625 -49.035156 47.753906 -50.78125 46.984375 -52.1875 C 46.222656 -53.601562 45.238281 -54.75 44.03125 -55.625 C 42.820312 -56.5 41.425781 -57.117188 39.84375 -57.484375 C 38.257812 -57.847656 36.648438 -58.03125 35.015625 -58.03125 C 33.554688 -58.03125 32.0625 -57.847656 30.53125 -57.484375 C 29.007812 -57.117188 27.628906 -56.5 26.390625 -55.625 C 25.148438 -54.75 24.132812 -53.601562 23.34375 -52.1875 C 22.550781 -50.78125 22.15625 -49.035156 22.15625 -46.953125 L 22.15625 -39.84375 L 36.71875 -39.84375 L 36.71875 -24.78125 L 22.15625 -24.78125 L 22.15625 0 L 5.15625 0 L 5.15625 -47.453125 C 5.15625 -50.554688 5.734375 -53.503906 6.890625 -56.296875 C 8.046875 -59.085938 9.820312 -61.554688 12.21875 -63.703125 C 14.613281 -65.847656 17.703125 -67.550781 21.484375 -68.8125 C 25.265625 -70.082031 29.773438 -70.71875 35.015625 -70.71875 C 40.316406 -70.71875 44.859375 -70.082031 48.640625 -68.8125 C 52.421875 -67.550781 55.535156 -65.847656 57.984375 -63.703125 C 60.441406 -61.554688 62.25 -59.085938 63.40625 -56.296875 C 64.5625 -53.503906 65.140625 -50.554688 65.140625 -47.453125 L 65.140625 0 Z M 48.140625 0 "/></g></g></g><g fill="#ffffff" fill-opacity="1"><g transform="translate(570.627482, 418.165376)"><g><path d="M -22.15625 -78 L -22.15625 -98.71875 L -5.15625 -98.71875 L -5.15625 -78 Z M -22.15625 -78 "/></g></g></g><g fill="#ffffff" fill-opacity="1"><g transform="translate(570.627482, 418.165376)"><g><path d="M 24.609375 0 L 24.609375 -39.171875 C 24.609375 -41.253906 24.3125 -43.210938 23.71875 -45.046875 C 23.132812 -46.878906 22.25 -48.457031 21.0625 -49.78125 C 19.875 -51.101562 18.378906 -52.144531 16.578125 -52.90625 C 14.773438 -53.675781 12.660156 -54.0625 10.234375 -54.0625 L 1.6875 -54.0625 L 1.6875 -69.28125 L 13.359375 -69.28125 C 18.210938 -69.28125 22.414062 -68.546875 25.96875 -67.078125 C 29.519531 -65.617188 32.453125 -63.601562 34.765625 -61.03125 C 37.078125 -58.46875 38.796875 -55.453125 39.921875 -51.984375 C 41.054688 -48.515625 41.625 -44.804688 41.625 -40.859375 L 41.625 0 Z M 24.609375 0 "/></g></g></g><g fill="#ffffff" fill-opacity="1"><g transform="translate(617.405289, 418.165376)"><g><path d="M 50.75 0 L 50.75 -53.546875 L 40.1875 -44.328125 L 28.25 -53.890625 C 27.75 -53.609375 27.0625 -53.015625 26.1875 -52.109375 C 25.3125 -51.203125 24.445312 -49.945312 23.59375 -48.34375 C 22.75 -46.738281 22.015625 -44.738281 21.390625 -42.34375 C 20.773438 -39.945312 20.46875 -37.140625 20.46875 -33.921875 C 20.46875 -29.691406 20.988281 -26.25 22.03125 -23.59375 C 23.082031 -20.945312 24.453125 -18.914062 26.140625 -17.5 C 27.828125 -16.09375 29.769531 -15.207031 31.96875 -14.84375 C 34.175781 -14.476562 36.460938 -14.492188 38.828125 -14.890625 L 38.828125 0 C 32.566406 1.1875 27.191406 1.046875 22.703125 -0.421875 C 18.222656 -1.890625 14.546875 -4.242188 11.671875 -7.484375 C 8.796875 -10.722656 6.679688 -14.65625 5.328125 -19.28125 C 3.972656 -23.90625 3.296875 -28.785156 3.296875 -33.921875 C 3.296875 -39.453125 4.070312 -44.398438 5.625 -48.765625 C 7.175781 -53.140625 9.175781 -56.875 11.625 -59.96875 C 14.082031 -63.070312 16.859375 -65.5 19.953125 -67.25 C 23.054688 -69 26.160156 -70.015625 29.265625 -70.296875 L 40.1875 -62.015625 L 48.46875 -69.28125 L 67.765625 -69.28125 L 67.765625 0 Z M 50.75 0 "/></g></g></g><g fill="#ffffff" fill-opacity="1"><g transform="translate(690.321147, 418.165376)"><g><path d="M -5.15625 -84.671875 C -5.15625 -82.535156 -5.890625 -80.890625 -7.359375 -79.734375 C -8.828125 -78.578125 -10.660156 -78 -12.859375 -78 L -63.453125 -78 L -63.453125 -89.25 L -5.15625 -89.25 Z M -5.15625 -84.671875 "/></g></g></g><g fill="#ffffff" fill-opacity="1"><g transform="translate(690.321147, 418.165376)"><g><path d="M 49.0625 0 L 49.0625 -55.75 L 38.828125 -56 C 36.398438 -56.0625 34.070312 -55.65625 31.84375 -54.78125 C 29.625 -53.90625 27.664062 -52.5625 25.96875 -50.75 C 24.28125 -48.945312 22.941406 -46.648438 21.953125 -43.859375 C 20.960938 -41.066406 20.46875 -37.753906 20.46875 -33.921875 C 20.46875 -29.691406 20.988281 -26.25 22.03125 -23.59375 C 23.082031 -20.945312 24.453125 -18.914062 26.140625 -17.5 C 27.828125 -16.09375 29.769531 -15.207031 31.96875 -14.84375 C 34.175781 -14.476562 36.460938 -14.492188 38.828125 -14.890625 L 38.828125 0 C 32.398438 1.1875 26.929688 1.046875 22.421875 -0.421875 C 17.910156 -1.890625 14.226562 -4.242188 11.375 -7.484375 C 8.53125 -10.722656 6.472656 -14.65625 5.203125 -19.28125 C 3.929688 -23.90625 3.296875 -28.785156 3.296875 -33.921875 C 3.296875 -39.109375 4 -43.882812 5.40625 -48.25 C 6.820312 -52.625 8.835938 -56.390625 11.453125 -59.546875 C 14.078125 -62.710938 17.289062 -65.164062 21.09375 -66.90625 C 24.90625 -68.65625 29.179688 -69.503906 33.921875 -69.453125 L 65.984375 -69.28125 L 65.984375 0 Z M 49.0625 0 "/></g></g></g><g fill="#ffffff" fill-opacity="1"><g transform="translate(761.545222, 418.165376)"><g><path d="M 50.75 0 L 50.75 -53.546875 L 40.1875 -44.328125 L 28.25 -53.890625 C 27.75 -53.609375 27.0625 -53.015625 26.1875 -52.109375 C 25.3125 -51.203125 24.445312 -49.945312 23.59375 -48.34375 C 22.75 -46.738281 22.015625 -44.738281 21.390625 -42.34375 C 20.773438 -39.945312 20.46875 -37.140625 20.46875 -33.921875 C 20.46875 -29.691406 20.988281 -26.25 22.03125 -23.59375 C 23.082031 -20.945312 24.453125 -18.914062 26.140625 -17.5 C 27.828125 -16.09375 29.769531 -15.207031 31.96875 -14.84375 C 34.175781 -14.476562 36.460938 -14.492188 38.828125 -14.890625 L 38.828125 0 C 32.566406 1.1875 27.191406 1.046875 22.703125 -0.421875 C 18.222656 -1.890625 14.546875 -4.242188 11.671875 -7.484375 C 8.796875 -10.722656 6.679688 -14.65625 5.328125 -19.28125 C 3.972656 -23.90625 3.296875 -28.785156 3.296875 -33.921875 C 3.296875 -39.453125 4.070312 -44.398438 5.625 -48.765625 C 7.175781 -53.140625 9.175781 -56.875 11.625 -59.96875 C 14.082031 -63.070312 16.859375 -65.5 19.953125 -67.25 C 23.054688 -69 26.160156 -70.015625 29.265625 -70.296875 L 40.1875 -62.015625 L 48.46875 -69.28125 L 67.765625 -69.28125 L 67.765625 0 Z M 50.75 0 "/></g></g></g><g fill="#ffffff" fill-opacity="1"><g transform="translate(834.461081, 418.165376)"><g><path d="M -39 -78 L -39 -97.03125 L -22 -97.03125 L -22 -89.25 L 15.5625 -89.25 L 15.5625 -78 Z M -39 -78 "/></g></g><g transform="translate(834.461081, 418.165376)"><g><path d="M -30.28125 -101.34375 L -30.28125 -105.484375 C -30.28125 -106.046875 -30.296875 -106.550781 -30.328125 -107 C -30.359375 -107.457031 -30.484375 -107.84375 -30.703125 -108.15625 C -30.929688 -108.46875 -31.285156 -108.707031 -31.765625 -108.875 C -32.242188 -109.039062 -32.90625 -109.125 -33.75 -109.125 L -35.53125 -109.125 L -35.53125 -118.515625 L -23.609375 -118.515625 C -19.765625 -118.515625 -17.066406 -117.878906 -15.515625 -116.609375 C -13.972656 -115.335938 -13.203125 -113.660156 -13.203125 -111.578125 L -13.203125 -110.734375 L 4.984375 -110.734375 L 4.984375 -101.34375 Z M -30.28125 -101.34375 "/></g></g></g><g fill="#ffffff" fill-opacity="1"><g transform="translate(834.461081, 418.165376)"><g><path d="M 64.125 -37.21875 C 64.125 -31.695312 63.644531 -26.664062 62.6875 -22.125 C 61.726562 -17.582031 60.242188 -13.660156 58.234375 -10.359375 C 56.234375 -7.066406 53.679688 -4.515625 50.578125 -2.703125 C 47.484375 -0.898438 43.789062 0 39.5 0 L 12.6875 0 L 1.6875 -69.28125 L 19.375 -69.28125 L 28.25 -12.6875 L 34.34375 -12.6875 C 35.695312 -12.6875 37.132812 -13.050781 38.65625 -13.78125 C 40.175781 -14.519531 41.554688 -15.789062 42.796875 -17.59375 C 44.046875 -19.394531 45.078125 -21.859375 45.890625 -24.984375 C 46.710938 -28.117188 47.125 -32.085938 47.125 -36.890625 C 47.125 -40.722656 46.6875 -43.894531 45.8125 -46.40625 C 44.9375 -48.914062 43.78125 -50.898438 42.34375 -52.359375 C 40.90625 -53.828125 39.238281 -54.859375 37.34375 -55.453125 C 35.457031 -56.046875 33.472656 -56.34375 31.390625 -56.34375 L 31.390625 -69.28125 L 38.15625 -69.28125 C 42.78125 -69.28125 46.738281 -68.421875 50.03125 -66.703125 C 53.332031 -64.984375 56.023438 -62.671875 58.109375 -59.765625 C 60.203125 -56.859375 61.726562 -53.457031 62.6875 -49.5625 C 63.644531 -45.675781 64.125 -41.5625 64.125 -37.21875 Z M 64.125 -37.21875 "/></g></g></g><g fill="#ffffff" fill-opacity="1"><g transform="translate(902.893714, 418.165376)"><g><path d="M 43.3125 -55.578125 L 55.234375 -43.65625 L 43.484375 -35.015625 L 35.703125 -50.25 L 27.234375 -35.1875 L 15.734375 -43.484375 L 27.921875 -55.578125 L 11.25 -58.703125 L 15.5625 -72.25 L 31.21875 -64.625 L 28.765625 -81.640625 L 42.96875 -81.640625 L 40.6875 -64.796875 L 56 -72.25 L 60.3125 -58.546875 Z M 43.3125 -55.578125 "/></g></g></g><g fill="#ffffff" fill-opacity="1"><g transform="translate(974.228365, 418.165376)"><g/></g></g><g fill="#ffffff" fill-opacity="1"><g transform="translate(560.359413, 560.309873)"><g><path d="M 67.765625 -23.015625 C 67.765625 -18.671875 66.890625 -14.945312 65.140625 -11.84375 C 63.390625 -8.738281 61.046875 -6.210938 58.109375 -4.265625 C 55.179688 -2.328125 51.769531 -0.90625 47.875 0 C 43.988281 0.90625 39.929688 1.359375 35.703125 1.359375 C 31.296875 1.359375 27.160156 0.929688 23.296875 0.078125 C 19.441406 -0.765625 16.070312 -2.113281 13.1875 -3.96875 C 10.3125 -5.832031 8.03125 -8.226562 6.34375 -11.15625 C 4.65625 -14.09375 3.8125 -17.648438 3.8125 -21.828125 C 3.8125 -24.816406 4.242188 -27.421875 5.109375 -29.640625 C 5.984375 -31.867188 7.15625 -33.785156 8.625 -35.390625 C 10.09375 -37.003906 11.800781 -38.332031 13.75 -39.375 C 15.695312 -40.414062 17.769531 -41.273438 19.96875 -41.953125 C 18.101562 -42.628906 16.3125 -43.546875 14.59375 -44.703125 C 12.875 -45.859375 11.378906 -47.195312 10.109375 -48.71875 C 8.835938 -50.25 7.820312 -51.941406 7.0625 -53.796875 C 6.300781 -55.660156 5.921875 -57.609375 5.921875 -59.640625 C 5.921875 -63.921875 6.765625 -67.554688 8.453125 -70.546875 C 10.148438 -73.535156 12.40625 -75.945312 15.21875 -77.78125 C 18.039062 -79.613281 21.296875 -80.9375 24.984375 -81.75 C 28.679688 -82.570312 32.535156 -82.984375 36.546875 -82.984375 C 40.609375 -82.984375 44.34375 -82.5625 47.75 -81.71875 C 51.164062 -80.875 54.128906 -79.59375 56.640625 -77.875 C 59.148438 -76.15625 61.109375 -73.984375 62.515625 -71.359375 C 63.921875 -68.734375 64.625 -65.617188 64.625 -62.015625 C 64.625 -59.472656 64.257812 -57.195312 63.53125 -55.1875 C 62.800781 -53.1875 61.828125 -51.425781 60.609375 -49.90625 C 59.398438 -48.382812 57.976562 -47.070312 56.34375 -45.96875 C 54.707031 -44.875 53.015625 -43.988281 51.265625 -43.3125 L 51.265625 -43.140625 C 53.460938 -42.460938 55.5625 -41.601562 57.5625 -40.5625 C 59.5625 -39.519531 61.320312 -38.222656 62.84375 -36.671875 C 64.375 -35.117188 65.578125 -33.226562 66.453125 -31 C 67.328125 -28.769531 67.765625 -26.109375 67.765625 -23.015625 Z M 45 -60.3125 C 45 -61.78125 44.71875 -63.050781 44.15625 -64.125 C 43.59375 -65.195312 42.84375 -66.097656 41.90625 -66.828125 C 40.976562 -67.554688 39.921875 -68.085938 38.734375 -68.421875 C 37.554688 -68.765625 36.375 -68.9375 35.1875 -68.9375 C 33.894531 -68.9375 32.671875 -68.695312 31.515625 -68.21875 C 30.359375 -67.738281 29.34375 -67.078125 28.46875 -66.234375 C 27.59375 -65.390625 26.898438 -64.390625 26.390625 -63.234375 C 25.878906 -62.078125 25.625 -60.796875 25.625 -59.390625 C 25.625 -57.859375 25.921875 -56.539062 26.515625 -55.4375 C 27.109375 -54.34375 27.898438 -53.382812 28.890625 -52.5625 C 29.878906 -51.75 30.976562 -51.03125 32.1875 -50.40625 C 33.394531 -49.789062 34.625 -49.203125 35.875 -48.640625 C 38.75 -50.273438 40.988281 -51.953125 42.59375 -53.671875 C 44.195312 -55.390625 45 -57.601562 45 -60.3125 Z M 46.609375 -23.9375 C 46.609375 -25.738281 46.226562 -27.285156 45.46875 -28.578125 C 44.707031 -29.878906 43.734375 -30.984375 42.546875 -31.890625 C 41.367188 -32.796875 40.046875 -33.539062 38.578125 -34.125 C 37.109375 -34.71875 35.695312 -35.242188 34.34375 -35.703125 C 33.050781 -35.078125 31.828125 -34.382812 30.671875 -33.625 C 29.515625 -32.863281 28.507812 -32.003906 27.65625 -31.046875 C 26.8125 -30.085938 26.148438 -28.988281 25.671875 -27.75 C 25.191406 -26.507812 24.953125 -25.128906 24.953125 -23.609375 C 24.953125 -22.140625 25.21875 -20.769531 25.75 -19.5 C 26.289062 -18.226562 27.039062 -17.140625 28 -16.234375 C 28.957031 -15.335938 30.082031 -14.632812 31.375 -14.125 C 32.675781 -13.613281 34.0625 -13.359375 35.53125 -13.359375 C 37.050781 -13.359375 38.488281 -13.597656 39.84375 -14.078125 C 41.195312 -14.554688 42.363281 -15.234375 43.34375 -16.109375 C 44.332031 -16.984375 45.125 -18.082031 45.71875 -19.40625 C 46.3125 -20.738281 46.609375 -22.25 46.609375 -23.9375 Z M 46.609375 -23.9375 "/></g></g></g><g fill="#ffffff" fill-opacity="1"><g transform="translate(631.921844, 560.309873)"><g><path d="M 66.65625 -44.328125 C 66.65625 -38.066406 66.046875 -32.15625 64.828125 -26.59375 C 63.617188 -21.039062 61.617188 -16.191406 58.828125 -12.046875 C 56.035156 -7.910156 52.351562 -4.640625 47.78125 -2.234375 C 43.21875 0.160156 37.582031 1.359375 30.875 1.359375 C 26.644531 1.359375 22.8125 1.0625 19.375 0.46875 C 15.9375 -0.125 12.664062 -1.039062 9.5625 -2.28125 L 10.90625 -18.359375 C 12.65625 -17.117188 14.953125 -16.085938 17.796875 -15.265625 C 20.648438 -14.453125 24.078125 -14.046875 28.078125 -14.046875 C 31.691406 -14.046875 34.710938 -14.625 37.140625 -15.78125 C 39.566406 -16.9375 41.507812 -18.554688 42.96875 -20.640625 C 44.4375 -22.722656 45.476562 -25.226562 46.09375 -28.15625 C 46.71875 -31.09375 47.0625 -34.367188 47.125 -37.984375 L 46.953125 -37.984375 C 44.972656 -35.273438 42.546875 -33.203125 39.671875 -31.765625 C 36.796875 -30.328125 33.328125 -29.609375 29.265625 -29.609375 C 25.492188 -29.609375 22.097656 -30.269531 19.078125 -31.59375 C 16.054688 -32.914062 13.488281 -34.734375 11.375 -37.046875 C 9.257812 -39.359375 7.640625 -42.078125 6.515625 -45.203125 C 5.390625 -48.335938 4.828125 -51.738281 4.828125 -55.40625 C 4.828125 -59.1875 5.585938 -62.753906 7.109375 -66.109375 C 8.628906 -69.460938 10.742188 -72.378906 13.453125 -74.859375 C 16.160156 -77.347656 19.390625 -79.320312 23.140625 -80.78125 C 26.890625 -82.25 31.019531 -82.984375 35.53125 -82.984375 C 41.34375 -82.984375 46.222656 -81.925781 50.171875 -79.8125 C 54.117188 -77.695312 57.316406 -74.863281 59.765625 -71.3125 C 62.222656 -67.757812 63.984375 -63.65625 65.046875 -59 C 66.117188 -54.351562 66.65625 -49.460938 66.65625 -44.328125 Z M 46.265625 -56.515625 C 46.265625 -58.148438 46.039062 -59.710938 45.59375 -61.203125 C 45.144531 -62.703125 44.46875 -64.03125 43.5625 -65.1875 C 42.664062 -66.34375 41.539062 -67.253906 40.1875 -67.921875 C 38.832031 -68.597656 37.28125 -68.9375 35.53125 -68.9375 C 33.832031 -68.9375 32.332031 -68.640625 31.03125 -68.046875 C 29.738281 -67.460938 28.65625 -66.632812 27.78125 -65.5625 C 26.914062 -64.488281 26.253906 -63.242188 25.796875 -61.828125 C 25.347656 -60.421875 25.125 -58.929688 25.125 -57.359375 C 25.125 -55.660156 25.304688 -54.019531 25.671875 -52.4375 C 26.035156 -50.863281 26.625 -49.484375 27.4375 -48.296875 C 28.257812 -47.117188 29.332031 -46.160156 30.65625 -45.421875 C 31.988281 -44.691406 33.613281 -44.328125 35.53125 -44.328125 C 37.28125 -44.328125 38.832031 -44.664062 40.1875 -45.34375 C 41.539062 -46.019531 42.664062 -46.921875 43.5625 -48.046875 C 44.46875 -49.171875 45.144531 -50.46875 45.59375 -51.9375 C 46.039062 -53.40625 46.265625 -54.929688 46.265625 -56.515625 Z M 46.265625 -56.515625 "/></g></g></g><g fill="#ffffff" fill-opacity="1"><g transform="translate(703.484276, 560.309873)"><g><path d="M 67.421875 -40.859375 C 67.421875 -37.304688 67.265625 -33.796875 66.953125 -30.328125 C 66.640625 -26.859375 66.0625 -23.554688 65.21875 -20.421875 C 64.375 -17.296875 63.203125 -14.40625 61.703125 -11.75 C 60.210938 -9.101562 58.296875 -6.804688 55.953125 -4.859375 C 53.617188 -2.921875 50.800781 -1.398438 47.5 -0.296875 C 44.195312 0.804688 40.320312 1.359375 35.875 1.359375 C 29.101562 1.359375 23.644531 0.160156 19.5 -2.234375 C 15.351562 -4.640625 12.132812 -7.816406 9.84375 -11.765625 C 7.5625 -15.710938 6.039062 -20.207031 5.28125 -25.25 C 4.519531 -30.300781 4.140625 -35.503906 4.140625 -40.859375 C 4.140625 -44.410156 4.296875 -47.90625 4.609375 -51.34375 C 4.921875 -54.789062 5.5 -58.078125 6.34375 -61.203125 C 7.1875 -64.335938 8.351562 -67.226562 9.84375 -69.875 C 11.34375 -72.519531 13.265625 -74.816406 15.609375 -76.765625 C 17.953125 -78.710938 20.785156 -80.234375 24.109375 -81.328125 C 27.429688 -82.429688 31.351562 -82.984375 35.875 -82.984375 C 40.320312 -82.984375 44.195312 -82.429688 47.5 -81.328125 C 50.800781 -80.234375 53.617188 -78.710938 55.953125 -76.765625 C 58.296875 -74.816406 60.210938 -72.519531 61.703125 -69.875 C 63.203125 -67.226562 64.375 -64.335938 65.21875 -61.203125 C 66.0625 -58.078125 66.640625 -54.78125 66.953125 -51.3125 C 67.265625 -47.84375 67.421875 -44.359375 67.421875 -40.859375 Z M 46.4375 -40.859375 C 46.4375 -44.078125 46.335938 -47.304688 46.140625 -50.546875 C 45.941406 -53.785156 45.488281 -56.71875 44.78125 -59.34375 C 44.082031 -61.96875 43.023438 -64.109375 41.609375 -65.765625 C 40.203125 -67.429688 38.289062 -68.265625 35.875 -68.265625 C 33.382812 -68.265625 31.421875 -67.429688 29.984375 -65.765625 C 28.546875 -64.109375 27.472656 -61.96875 26.765625 -59.34375 C 26.066406 -56.71875 25.617188 -53.785156 25.421875 -50.546875 C 25.222656 -47.304688 25.125 -44.078125 25.125 -40.859375 C 25.125 -37.640625 25.222656 -34.394531 25.421875 -31.125 C 25.617188 -27.851562 26.066406 -24.90625 26.765625 -22.28125 C 27.472656 -19.664062 28.546875 -17.523438 29.984375 -15.859375 C 31.421875 -14.191406 33.382812 -13.359375 35.875 -13.359375 C 38.289062 -13.359375 40.203125 -14.191406 41.609375 -15.859375 C 43.023438 -17.523438 44.082031 -19.664062 44.78125 -22.28125 C 45.488281 -24.90625 45.941406 -27.851562 46.140625 -31.125 C 46.335938 -34.394531 46.4375 -37.640625 46.4375 -40.859375 Z M 46.4375 -40.859375 "/></g></g></g><g fill="#ffffff" fill-opacity="1"><g transform="translate(775.046708, 560.309873)"><g><path d="M 3.640625 -23.765625 L 3.640625 -39.171875 L 35.359375 -39.171875 L 35.359375 -23.765625 Z M 3.640625 -23.765625 "/></g></g></g><g clip-path="url(#85ac1fe6da)"><g clip-path="url(#a5302ab33c)"><g clip-path="url(#eb58b4d878)"><path fill="#ffd900" d="M 65.324219 72.917969 L 368.300781 0 L 441.21875 302.972656 L 138.246094 375.894531 Z M 65.324219 72.917969 " fill-opacity="1" fill-rule="nonzero"/></g></g></g><g clip-path="url(#5edc2e0e17)"><g clip-path="url(#e4261d61ce)"><g fill="#000000" fill-opacity="1"><g transform="translate(161.426818, 236.973384)"><g><path d="M 20.484375 -4.15625 C 16.171875 -3.113281 12.597656 -3.191406 9.765625 -4.390625 C 6.929688 -5.585938 4.65625 -7.660156 2.9375 -10.609375 C 1.226562 -13.554688 -0.128906 -17.144531 -1.140625 -21.375 C -2.835938 -28.40625 -3.023438 -33.773438 -1.703125 -37.484375 C -0.390625 -41.191406 2.328125 -43.539062 6.453125 -44.53125 C 8.160156 -44.9375 9.734375 -44.96875 11.171875 -44.625 C 12.617188 -44.28125 13.9375 -43.332031 15.125 -41.78125 L 15.421875 -41.84375 C 15.671875 -43.800781 16.492188 -45.28125 17.890625 -46.28125 C 19.296875 -47.289062 20.898438 -48.007812 22.703125 -48.4375 C 26.035156 -49.238281 28.753906 -48.945312 30.859375 -47.5625 C 32.972656 -46.175781 34.445312 -43.757812 35.28125 -40.3125 L 42.515625 -10.234375 L 31.59375 -7.609375 L 24.84375 -35.640625 C 24.476562 -37.148438 23.988281 -38.109375 23.375 -38.515625 C 22.769531 -38.929688 22.054688 -39.039062 21.234375 -38.84375 C 20.316406 -38.625 19.6875 -38.191406 19.34375 -37.546875 C 19.007812 -36.910156 18.925781 -35.9375 19.09375 -34.625 L 14.796875 -33.59375 C 14.265625 -34.90625 13.675781 -35.738281 13.03125 -36.09375 C 12.382812 -36.457031 11.695312 -36.550781 10.96875 -36.375 C 9.695312 -36.070312 8.957031 -34.96875 8.75 -33.0625 C 8.550781 -31.164062 8.953125 -28.132812 9.953125 -23.96875 C 10.941406 -19.84375 12.1875 -16.789062 13.6875 -14.8125 C 15.1875 -12.832031 17.34375 -12.179688 20.15625 -12.859375 C 21.332031 -13.140625 22.25 -13.507812 22.90625 -13.96875 L 25.875 -6.453125 C 24.46875 -5.441406 22.671875 -4.675781 20.484375 -4.15625 Z M 20.484375 -4.15625 "/></g></g></g></g></g><g clip-path="url(#5529892e52)"><g clip-path="url(#dcfe9ee5ce)"><g fill="#000000" fill-opacity="1"><g transform="translate(208.02696, 225.757697)"><g><path d="M -27.171875 -41.53125 L -31.140625 -58.0625 L -21.09375 -60.484375 L -17.125 -43.953125 Z M -27.171875 -41.53125 "/></g></g></g></g></g><g clip-path="url(#be345883ef)"><g clip-path="url(#848ba33813)"><g fill="#000000" fill-opacity="1"><g transform="translate(209.046289, 225.512366)"><g><path d="M 21.203125 -4.109375 C 15.285156 -2.679688 10.546875 -3.066406 6.984375 -5.265625 C 3.421875 -7.460938 0.957031 -11.398438 -0.40625 -17.078125 C -0.625 -18.003906 -0.867188 -19.175781 -1.140625 -20.59375 C -1.410156 -22.019531 -1.597656 -23.285156 -1.703125 -24.390625 L 15.765625 -28.59375 L 17.421875 -21.6875 L 10.21875 -19.953125 L 10.46875 -18.9375 C 11.164062 -16.019531 12.21875 -14.023438 13.625 -12.953125 C 15.039062 -11.878906 16.894531 -11.617188 19.1875 -12.171875 C 21.601562 -12.753906 23.289062 -14.054688 24.25 -16.078125 C 25.207031 -18.109375 25.128906 -21.429688 24.015625 -26.046875 C 22.972656 -30.359375 21.425781 -33.410156 19.375 -35.203125 C 17.320312 -36.992188 14.304688 -37.410156 10.328125 -36.453125 C 8.140625 -35.929688 5.960938 -35.050781 3.796875 -33.8125 C 1.640625 -32.570312 -0.09375 -31.351562 -1.40625 -30.15625 L -3.59375 -39.265625 C -2.226562 -40.460938 -0.257812 -41.664062 2.3125 -42.875 C 4.894531 -44.09375 7.546875 -45.03125 10.265625 -45.6875 C 14.972656 -46.8125 18.976562 -46.863281 22.28125 -45.84375 C 25.582031 -44.820312 28.28125 -42.890625 30.375 -40.046875 C 32.46875 -37.210938 34.035156 -33.640625 35.078125 -29.328125 C 36.679688 -22.671875 36.429688 -17.203125 34.328125 -12.921875 C 32.222656 -8.648438 27.847656 -5.710938 21.203125 -4.109375 Z M 21.203125 -4.109375 "/></g></g></g></g></g><g clip-path="url(#9382057b6f)"><g clip-path="url(#8481f288e0)"><g fill="#000000" fill-opacity="1"><g transform="translate(252.224191, 215.120341)"><g><path d="M 5.609375 -1.34375 L -4 -41.25 L 4 -43.1875 L 6.96875 -37.265625 L 7.546875 -37.40625 C 7.898438 -39.59375 8.9375 -41.597656 10.65625 -43.421875 C 12.375 -45.253906 14.859375 -46.5625 18.109375 -47.34375 C 27.378906 -49.570312 33.210938 -45.710938 35.609375 -35.765625 L 41.796875 -10.0625 L 30.875 -7.421875 L 25.21875 -30.9375 C 24.5625 -33.664062 23.546875 -35.488281 22.171875 -36.40625 C 20.796875 -37.332031 19.054688 -37.546875 16.953125 -37.046875 C 14.429688 -36.429688 12.722656 -34.941406 11.828125 -32.578125 C 10.941406 -30.210938 10.976562 -27.039062 11.9375 -23.0625 L 16.53125 -3.984375 Z M 5.609375 -1.34375 "/></g></g></g></g></g><g clip-path="url(#0cfbae10e8)"><g clip-path="url(#031395ca38)"><g fill="#000000" fill-opacity="1"><g transform="translate(297.880483, 203.82369)"><g><path d="M -50.046875 -36.03125 L -51.15625 -40.625 L -44.53125 -45.4375 L -27.84375 -49.453125 L -29.046875 -54.484375 L -19.734375 -56.71875 L -16.6875 -44.046875 Z M -50.046875 -36.03125 "/></g></g><g transform="translate(297.880483, 203.82369)"><g><path d="M -30.046875 -58.328125 L -33.3125 -71.859375 L -23.859375 -74.125 L -20.59375 -60.59375 Z M -30.046875 -58.328125 "/></g></g></g></g></g><g clip-path="url(#f3463aabf2)"><g clip-path="url(#15f5e71704)"><g fill="#000000" fill-opacity="1"><g transform="translate(299.115537, 203.834567)"><g/></g></g></g></g><g clip-path="url(#cb20d69ce0)"><g clip-path="url(#8b546db081)"><g fill="#000000" fill-opacity="1"><g transform="translate(314.551821, 200.119374)"><g><path d="M -8.046875 -42.046875 L -10.84375 -53.625 L 9.34375 -58.484375 L 22.140625 -5.328125 L 9.171875 -2.203125 L -0.828125 -43.78125 Z M -8.046875 -42.046875 "/></g></g></g></g></g><g clip-path="url(#c7eafcf4be)"><g clip-path="url(#b88c93cff9)"><g fill="#000000" fill-opacity="1"><g transform="translate(341.922733, 193.531764)"><g/></g></g></g></g></svg>