<svg xmlns="http://www.w3.org/2000/svg" xmlns:xlink="http://www.w3.org/1999/xlink" width="1640" zoomAndPan="magnify" viewBox="0 0 1230 693.000001" height="924" preserveAspectRatio="xMidYMid meet" version="1.0"><defs><g/><clipPath id="20378d1cd6"><path d="M 222.121094 178.042969 L 1154.289062 178.042969 L 1154.289062 692 L 222.121094 692 Z M 222.121094 178.042969 " clip-rule="nonzero"/></clipPath><clipPath id="d4f88f143b"><path d="M 113 41 L 458 41 L 458 359 L 113 359 Z M 113 41 " clip-rule="nonzero"/></clipPath><clipPath id="7e71591e77"><path d="M 75.710938 82.78125 L 419.667969 0 L 496.027344 317.261719 L 152.066406 400.042969 Z M 75.710938 82.78125 " clip-rule="nonzero"/></clipPath><clipPath id="e1df83a5d5"><path d="M 247.6875 41.390625 L 308.773438 78.226562 L 380.476562 58.585938 L 394.074219 125.8125 L 457.847656 158.628906 L 415.992188 216.871094 L 434.472656 282.921875 L 361.683594 298.058594 L 324.046875 358.652344 L 262.960938 321.820312 L 191.257812 341.460938 L 177.660156 274.230469 L 113.890625 241.414062 L 155.742188 183.171875 L 137.261719 117.121094 L 210.054688 101.984375 L 247.6875 41.390625 " clip-rule="nonzero"/></clipPath><clipPath id="2f0415ed33"><path d="M 180 200 L 230 200 L 230 251 L 180 251 Z M 180 200 " clip-rule="nonzero"/></clipPath><clipPath id="a69889e9a3"><path d="M 141.507812 119.328125 L 378.148438 62.371094 L 430.722656 280.808594 L 194.082031 337.765625 Z M 141.507812 119.328125 " clip-rule="nonzero"/></clipPath><clipPath id="4fdec4d2fd"><path d="M 202 179 L 217 179 L 217 199 L 202 199 Z M 202 179 " clip-rule="nonzero"/></clipPath><clipPath id="4b26a8905f"><path d="M 141.507812 119.328125 L 378.148438 62.371094 L 430.722656 280.808594 L 194.082031 337.765625 Z M 141.507812 119.328125 " clip-rule="nonzero"/></clipPath><clipPath id="951216e134"><path d="M 228 189 L 275 189 L 275 240 L 228 240 Z M 228 189 " clip-rule="nonzero"/></clipPath><clipPath id="671800460c"><path d="M 141.507812 119.328125 L 378.148438 62.371094 L 430.722656 280.808594 L 194.082031 337.765625 Z M 141.507812 119.328125 " clip-rule="nonzero"/></clipPath><clipPath id="70e08e27d9"><path d="M 273 178 L 320 178 L 320 228 L 273 228 Z M 273 178 " clip-rule="nonzero"/></clipPath><clipPath id="7fbbbeff9f"><path d="M 141.507812 119.328125 L 378.148438 62.371094 L 430.722656 280.808594 L 194.082031 337.765625 Z M 141.507812 119.328125 " clip-rule="nonzero"/></clipPath><clipPath id="486b4a5a80"><path d="M 270 143 L 307 143 L 307 182 L 270 182 Z M 270 143 " clip-rule="nonzero"/></clipPath><clipPath id="014c80d307"><path d="M 141.507812 119.328125 L 378.148438 62.371094 L 430.722656 280.808594 L 194.082031 337.765625 Z M 141.507812 119.328125 " clip-rule="nonzero"/></clipPath><clipPath id="3e63b441c0"><path d="M 324 217 L 325 217 L 325 218 L 324 218 Z M 324 217 " clip-rule="nonzero"/></clipPath><clipPath id="787d850106"><path d="M 141.507812 119.328125 L 378.148438 62.371094 L 430.722656 280.808594 L 194.082031 337.765625 Z M 141.507812 119.328125 " clip-rule="nonzero"/></clipPath><clipPath id="9e9c930b4f"><path d="M 329 150 L 380 150 L 380 213 L 329 213 Z M 329 150 " clip-rule="nonzero"/></clipPath><clipPath id="ef7dbcb2b1"><path d="M 141.507812 119.328125 L 378.148438 62.371094 L 430.722656 280.808594 L 194.082031 337.765625 Z M 141.507812 119.328125 " clip-rule="nonzero"/></clipPath><clipPath id="d0990ad309"><path d="M 381 204 L 382 204 L 382 205 L 381 205 Z M 381 204 " clip-rule="nonzero"/></clipPath><clipPath id="533f3d29d7"><path d="M 141.507812 119.328125 L 378.148438 62.371094 L 430.722656 280.808594 L 194.082031 337.765625 Z M 141.507812 119.328125 " clip-rule="nonzero"/></clipPath></defs><g clip-path="url(#20378d1cd6)"><path fill="#3b3b3b" d="M 222.121094 178.042969 L 1154.289062 178.042969 L 1154.289062 692 L 222.121094 692 Z M 222.121094 178.042969 " fill-opacity="1" fill-rule="nonzero"/></g><g fill="#ffffff" fill-opacity="1"><g transform="translate(365.135972, 405.252091)"><g><path d="M 79.28125 -2.03125 C 77.625 -1.625 75.910156 -1.210938 74.140625 -0.796875 C 72.367188 -0.378906 70.460938 -0.0078125 68.421875 0.3125 C 66.390625 0.632812 64.175781 0.898438 61.78125 1.109375 C 59.394531 1.316406 56.753906 1.421875 53.859375 1.421875 C 50.023438 1.421875 46.15625 1.078125 42.25 0.390625 C 38.351562 -0.285156 34.585938 -1.332031 30.953125 -2.75 C 27.328125 -4.164062 23.914062 -6.023438 20.71875 -8.328125 C 17.53125 -10.628906 14.738281 -13.40625 12.34375 -16.65625 C 9.957031 -19.90625 8.082031 -23.65625 6.71875 -27.90625 C 5.363281 -32.15625 4.6875 -37 4.6875 -42.4375 C 4.6875 -49.875 5.925781 -56.367188 8.40625 -61.921875 C 10.894531 -67.472656 14.320312 -72.109375 18.6875 -75.828125 C 23.0625 -79.546875 28.226562 -82.320312 34.1875 -84.15625 C 40.15625 -85.988281 46.65625 -86.90625 53.6875 -86.90625 C 58.113281 -86.90625 62.4375 -86.472656 66.65625 -85.609375 C 70.882812 -84.753906 75.035156 -83.738281 79.109375 -82.5625 L 77.25 -64.046875 C 73.53125 -66.054688 69.867188 -67.5625 66.265625 -68.5625 C 62.660156 -69.570312 58.910156 -70.078125 55.015625 -70.078125 C 50.941406 -70.078125 47.265625 -69.378906 43.984375 -67.984375 C 40.703125 -66.597656 37.894531 -64.664062 35.5625 -62.1875 C 33.226562 -59.707031 31.425781 -56.785156 30.15625 -53.421875 C 28.894531 -50.054688 28.265625 -46.394531 28.265625 -42.4375 C 28.265625 -38.238281 28.972656 -34.46875 30.390625 -31.125 C 31.804688 -27.789062 33.769531 -24.957031 36.28125 -22.625 C 38.789062 -20.300781 41.785156 -18.515625 45.265625 -17.265625 C 48.753906 -16.023438 52.59375 -15.40625 56.78125 -15.40625 C 60.5 -15.40625 64.203125 -15.832031 67.890625 -16.6875 C 71.585938 -17.550781 75.03125 -18.570312 78.21875 -19.75 Z M 79.28125 -2.03125 "/></g></g></g><g fill="#ffffff" fill-opacity="1"><g transform="translate(446.80501, 405.252091)"><g><path d="M 48.640625 0 C 48.515625 -1.707031 48.394531 -3.390625 48.28125 -5.046875 C 48.164062 -6.703125 48.109375 -8.359375 48.109375 -10.015625 L 47.921875 -10.015625 C 45.328125 -5.992188 42.429688 -3.082031 39.234375 -1.28125 C 36.046875 0.519531 32.210938 1.421875 27.734375 1.421875 C 24.535156 1.421875 21.503906 1.035156 18.640625 0.265625 C 15.773438 -0.503906 13.234375 -1.710938 11.015625 -3.359375 C 8.804688 -5.015625 7.050781 -7.113281 5.75 -9.65625 C 4.457031 -12.195312 3.8125 -15.207031 3.8125 -18.6875 C 3.8125 -21.9375 4.359375 -24.726562 5.453125 -27.0625 C 6.546875 -29.394531 7.976562 -31.359375 9.75 -32.953125 C 11.519531 -34.546875 13.554688 -35.84375 15.859375 -36.84375 C 18.160156 -37.851562 20.535156 -38.625 22.984375 -39.15625 C 25.429688 -39.6875 27.835938 -40.039062 30.203125 -40.21875 C 32.566406 -40.394531 34.722656 -40.484375 36.671875 -40.484375 C 38.503906 -40.484375 40.332031 -40.394531 42.15625 -40.21875 C 43.988281 -40.039062 45.585938 -39.804688 46.953125 -39.515625 C 46.953125 -41.691406 46.566406 -43.488281 45.796875 -44.90625 C 45.023438 -46.320312 43.988281 -47.457031 42.6875 -48.3125 C 41.394531 -49.175781 39.875 -49.769531 38.125 -50.09375 C 36.382812 -50.414062 34.515625 -50.578125 32.515625 -50.578125 C 28.972656 -50.578125 25.472656 -50.191406 22.015625 -49.421875 C 18.554688 -48.660156 15.265625 -47.421875 12.140625 -45.703125 L 11.78125 -60.765625 C 15.675781 -62.304688 19.691406 -63.441406 23.828125 -64.171875 C 27.960938 -64.910156 32.421875 -65.28125 37.203125 -65.28125 C 41.273438 -65.28125 45.15625 -64.804688 48.84375 -63.859375 C 52.539062 -62.921875 55.773438 -61.398438 58.546875 -59.296875 C 61.328125 -57.203125 63.539062 -54.472656 65.1875 -51.109375 C 66.84375 -47.742188 67.671875 -43.640625 67.671875 -38.796875 L 67.671875 -15.0625 C 67.671875 -12.519531 67.726562 -10.007812 67.84375 -7.53125 C 67.96875 -5.050781 68.265625 -2.539062 68.734375 0 Z M 46.953125 -28.265625 C 45.585938 -28.378906 44.125 -28.476562 42.5625 -28.5625 C 41 -28.65625 39.390625 -28.703125 37.734375 -28.703125 C 35.847656 -28.703125 34.09375 -28.539062 32.46875 -28.21875 C 30.84375 -27.894531 29.421875 -27.390625 28.203125 -26.703125 C 26.992188 -26.023438 26.035156 -25.140625 25.328125 -24.046875 C 24.617188 -22.953125 24.265625 -21.640625 24.265625 -20.109375 C 24.265625 -17.921875 25.132812 -16.234375 26.875 -15.046875 C 28.625 -13.867188 30.796875 -13.28125 33.390625 -13.28125 C 35.460938 -13.28125 37.335938 -13.707031 39.015625 -14.5625 C 40.703125 -15.425781 42.132812 -16.566406 43.3125 -17.984375 C 44.5 -19.398438 45.398438 -21.007812 46.015625 -22.8125 C 46.640625 -24.613281 46.953125 -26.429688 46.953125 -28.265625 Z M 46.953125 -28.265625 "/></g></g></g><g fill="#ffffff" fill-opacity="1"><g transform="translate(521.564954, 405.252091)"><g><path d="M 57.3125 -19.75 C 57.3125 -15.5625 56.441406 -12.09375 54.703125 -9.34375 C 52.960938 -6.59375 50.6875 -4.421875 47.875 -2.828125 C 45.070312 -1.234375 41.882812 -0.128906 38.3125 0.484375 C 34.738281 1.109375 31.148438 1.421875 27.546875 1.421875 C 22.585938 1.421875 18.289062 1.179688 14.65625 0.703125 C 11.03125 0.234375 7.59375 -0.53125 4.34375 -1.59375 L 5.578125 -17.625 C 8.179688 -16.5 11.28125 -15.492188 14.875 -14.609375 C 18.476562 -13.722656 22.289062 -13.28125 26.3125 -13.28125 C 27.4375 -13.28125 28.53125 -13.335938 29.59375 -13.453125 C 30.65625 -13.578125 31.597656 -13.816406 32.421875 -14.171875 C 33.242188 -14.523438 33.90625 -15.039062 34.40625 -15.71875 C 34.914062 -16.40625 35.171875 -17.28125 35.171875 -18.34375 C 35.171875 -20.164062 34.398438 -21.550781 32.859375 -22.5 C 31.328125 -23.445312 29.410156 -24.242188 27.109375 -24.890625 C 24.804688 -25.535156 22.296875 -26.210938 19.578125 -26.921875 C 16.859375 -27.640625 14.347656 -28.675781 12.046875 -30.03125 C 9.742188 -31.382812 7.820312 -33.195312 6.28125 -35.46875 C 4.75 -37.75 3.984375 -40.804688 3.984375 -44.640625 C 3.984375 -48.304688 4.796875 -51.453125 6.421875 -54.078125 C 8.046875 -56.703125 10.15625 -58.84375 12.75 -60.5 C 15.351562 -62.15625 18.25 -63.363281 21.4375 -64.125 C 24.625 -64.894531 27.8125 -65.28125 31 -65.28125 C 34.84375 -65.28125 38.664062 -65.015625 42.46875 -64.484375 C 46.28125 -63.953125 49.957031 -63.007812 53.5 -61.65625 L 51.90625 -46.234375 C 49.488281 -47.710938 46.695312 -48.804688 43.53125 -49.515625 C 40.375 -50.222656 37.410156 -50.578125 34.640625 -50.578125 C 33.453125 -50.578125 32.253906 -50.519531 31.046875 -50.40625 C 29.835938 -50.289062 28.742188 -50.054688 27.765625 -49.703125 C 26.796875 -49.347656 26 -48.875 25.375 -48.28125 C 24.757812 -47.6875 24.453125 -46.945312 24.453125 -46.0625 C 24.453125 -44.40625 25.265625 -43.175781 26.890625 -42.375 C 28.515625 -41.582031 30.535156 -40.890625 32.953125 -40.296875 C 35.367188 -39.710938 38.007812 -39.082031 40.875 -38.40625 C 43.738281 -37.726562 46.378906 -36.675781 48.796875 -35.25 C 51.222656 -33.832031 53.25 -31.910156 54.875 -29.484375 C 56.5 -27.066406 57.3125 -23.820312 57.3125 -19.75 Z M 57.3125 -19.75 "/></g></g></g><g fill="#ffffff" fill-opacity="1"><g transform="translate(582.683865, 405.252091)"><g><path d="M 52.796875 0 L 52.796875 -30.828125 C 52.796875 -33.835938 52.546875 -36.359375 52.046875 -38.390625 C 51.546875 -40.429688 50.851562 -42.085938 49.96875 -43.359375 C 49.082031 -44.628906 48.003906 -45.546875 46.734375 -46.109375 C 45.460938 -46.671875 44.085938 -46.953125 42.609375 -46.953125 C 38.054688 -46.953125 34.628906 -45.34375 32.328125 -42.125 C 30.023438 -38.90625 28.875 -33.8125 28.875 -26.84375 L 28.875 0 L 6.90625 0 L 6.90625 -91.78125 L 28.875 -91.78125 L 28.875 -54.390625 L 29.234375 -54.390625 C 31.597656 -57.703125 34.519531 -60.34375 38 -62.3125 C 41.488281 -64.289062 45.625 -65.28125 50.40625 -65.28125 C 54.769531 -65.28125 58.488281 -64.570312 61.5625 -63.15625 C 64.632812 -61.738281 67.144531 -59.847656 69.09375 -57.484375 C 71.039062 -55.128906 72.472656 -52.414062 73.390625 -49.34375 C 74.304688 -46.269531 74.765625 -43.082031 74.765625 -39.78125 L 74.765625 0 Z M 52.796875 0 "/></g></g></g><g fill="#ffffff" fill-opacity="1"><g transform="translate(664.352903, 405.252091)"><g/></g></g><g fill="#ffffff" fill-opacity="1"><g transform="translate(718.739875, 405.252091)"><g><path d="M 78.046875 -33.046875 C 78.046875 -28.316406 77.410156 -23.867188 76.140625 -19.703125 C 74.867188 -15.546875 73.003906 -11.898438 70.546875 -8.765625 C 68.097656 -5.640625 65.054688 -3.160156 61.421875 -1.328125 C 57.796875 0.503906 53.59375 1.421875 48.8125 1.421875 C 46.269531 1.421875 43.832031 1.078125 41.5 0.390625 C 39.164062 -0.285156 37.039062 -1.195312 35.125 -2.34375 C 33.207031 -3.5 31.523438 -4.859375 30.078125 -6.421875 C 28.628906 -7.984375 27.550781 -9.648438 26.84375 -11.421875 L 26.65625 -11.421875 L 26.65625 0 L 6.375 0 L 6.375 -91.78125 L 28.53125 -91.78125 L 28.53125 -55.546875 L 28.875 -55.546875 C 31.707031 -59.203125 34.941406 -61.738281 38.578125 -63.15625 C 42.210938 -64.570312 46.210938 -65.28125 50.578125 -65.28125 C 55.003906 -65.28125 58.929688 -64.320312 62.359375 -62.40625 C 65.785156 -60.488281 68.664062 -57.992188 71 -54.921875 C 73.332031 -51.847656 75.085938 -48.390625 76.265625 -44.546875 C 77.453125 -40.710938 78.046875 -36.878906 78.046875 -33.046875 Z M 55.1875 -32.6875 C 55.1875 -34.75 54.890625 -36.738281 54.296875 -38.65625 C 53.710938 -40.582031 52.859375 -42.269531 51.734375 -43.71875 C 50.609375 -45.164062 49.21875 -46.316406 47.5625 -47.171875 C 45.914062 -48.023438 44.03125 -48.453125 41.90625 -48.453125 C 39.832031 -48.453125 37.984375 -48.023438 36.359375 -47.171875 C 34.734375 -46.316406 33.332031 -45.132812 32.15625 -43.625 C 30.976562 -42.125 30.078125 -40.351562 29.453125 -38.3125 C 28.835938 -36.269531 28.53125 -34.070312 28.53125 -31.71875 C 28.53125 -29.414062 28.882812 -27.273438 29.59375 -25.296875 C 30.300781 -23.316406 31.242188 -21.585938 32.421875 -20.109375 C 33.597656 -18.628906 35 -17.472656 36.625 -16.640625 C 38.25 -15.816406 40.007812 -15.40625 41.90625 -15.40625 C 43.96875 -15.40625 45.828125 -15.832031 47.484375 -16.6875 C 49.140625 -17.550781 50.539062 -18.734375 51.6875 -20.234375 C 52.84375 -21.742188 53.710938 -23.5625 54.296875 -25.6875 C 54.890625 -27.8125 55.1875 -30.144531 55.1875 -32.6875 Z M 55.1875 -32.6875 "/></g></g></g><g fill="#ffffff" fill-opacity="1"><g transform="translate(800.586067, 405.252091)"><g><path d="M 48.640625 0 C 48.515625 -1.707031 48.394531 -3.390625 48.28125 -5.046875 C 48.164062 -6.703125 48.109375 -8.359375 48.109375 -10.015625 L 47.921875 -10.015625 C 45.328125 -5.992188 42.429688 -3.082031 39.234375 -1.28125 C 36.046875 0.519531 32.210938 1.421875 27.734375 1.421875 C 24.535156 1.421875 21.503906 1.035156 18.640625 0.265625 C 15.773438 -0.503906 13.234375 -1.710938 11.015625 -3.359375 C 8.804688 -5.015625 7.050781 -7.113281 5.75 -9.65625 C 4.457031 -12.195312 3.8125 -15.207031 3.8125 -18.6875 C 3.8125 -21.9375 4.359375 -24.726562 5.453125 -27.0625 C 6.546875 -29.394531 7.976562 -31.359375 9.75 -32.953125 C 11.519531 -34.546875 13.554688 -35.84375 15.859375 -36.84375 C 18.160156 -37.851562 20.535156 -38.625 22.984375 -39.15625 C 25.429688 -39.6875 27.835938 -40.039062 30.203125 -40.21875 C 32.566406 -40.394531 34.722656 -40.484375 36.671875 -40.484375 C 38.503906 -40.484375 40.332031 -40.394531 42.15625 -40.21875 C 43.988281 -40.039062 45.585938 -39.804688 46.953125 -39.515625 C 46.953125 -41.691406 46.566406 -43.488281 45.796875 -44.90625 C 45.023438 -46.320312 43.988281 -47.457031 42.6875 -48.3125 C 41.394531 -49.175781 39.875 -49.769531 38.125 -50.09375 C 36.382812 -50.414062 34.515625 -50.578125 32.515625 -50.578125 C 28.972656 -50.578125 25.472656 -50.191406 22.015625 -49.421875 C 18.554688 -48.660156 15.265625 -47.421875 12.140625 -45.703125 L 11.78125 -60.765625 C 15.675781 -62.304688 19.691406 -63.441406 23.828125 -64.171875 C 27.960938 -64.910156 32.421875 -65.28125 37.203125 -65.28125 C 41.273438 -65.28125 45.15625 -64.804688 48.84375 -63.859375 C 52.539062 -62.921875 55.773438 -61.398438 58.546875 -59.296875 C 61.328125 -57.203125 63.539062 -54.472656 65.1875 -51.109375 C 66.84375 -47.742188 67.671875 -43.640625 67.671875 -38.796875 L 67.671875 -15.0625 C 67.671875 -12.519531 67.726562 -10.007812 67.84375 -7.53125 C 67.96875 -5.050781 68.265625 -2.539062 68.734375 0 Z M 46.953125 -28.265625 C 45.585938 -28.378906 44.125 -28.476562 42.5625 -28.5625 C 41 -28.65625 39.390625 -28.703125 37.734375 -28.703125 C 35.847656 -28.703125 34.09375 -28.539062 32.46875 -28.21875 C 30.84375 -27.894531 29.421875 -27.390625 28.203125 -26.703125 C 26.992188 -26.023438 26.035156 -25.140625 25.328125 -24.046875 C 24.617188 -22.953125 24.265625 -21.640625 24.265625 -20.109375 C 24.265625 -17.921875 25.132812 -16.234375 26.875 -15.046875 C 28.625 -13.867188 30.796875 -13.28125 33.390625 -13.28125 C 35.460938 -13.28125 37.335938 -13.707031 39.015625 -14.5625 C 40.703125 -15.425781 42.132812 -16.566406 43.3125 -17.984375 C 44.5 -19.398438 45.398438 -21.007812 46.015625 -22.8125 C 46.640625 -24.613281 46.953125 -26.429688 46.953125 -28.265625 Z M 46.953125 -28.265625 "/></g></g></g><g fill="#ffffff" fill-opacity="1"><g transform="translate(875.346011, 405.252091)"><g><path d="M 59 -1.234375 C 56.164062 -0.347656 53.179688 0.3125 50.046875 0.75 C 46.921875 1.195312 43.851562 1.421875 40.84375 1.421875 C 35.582031 1.421875 30.691406 0.679688 26.171875 -0.796875 C 21.660156 -2.273438 17.75 -4.429688 14.4375 -7.265625 C 11.132812 -10.097656 8.535156 -13.566406 6.640625 -17.671875 C 4.753906 -21.773438 3.8125 -26.457031 3.8125 -31.71875 C 3.8125 -37.03125 4.753906 -41.765625 6.640625 -45.921875 C 8.535156 -50.085938 11.132812 -53.601562 14.4375 -56.46875 C 17.75 -59.332031 21.660156 -61.515625 26.171875 -63.015625 C 30.691406 -64.523438 35.582031 -65.28125 40.84375 -65.28125 C 44.207031 -65.28125 47.332031 -65 50.21875 -64.4375 C 53.113281 -63.882812 55.832031 -62.957031 58.375 -61.65625 L 56.78125 -45.53125 C 54.769531 -46.832031 52.726562 -47.765625 50.65625 -48.328125 C 48.59375 -48.890625 46.234375 -49.171875 43.578125 -49.171875 C 41.160156 -49.171875 38.914062 -48.753906 36.84375 -47.921875 C 34.78125 -47.097656 32.976562 -45.914062 31.4375 -44.375 C 29.90625 -42.84375 28.695312 -40.984375 27.8125 -38.796875 C 26.925781 -36.609375 26.484375 -34.128906 26.484375 -31.359375 C 26.484375 -28.816406 26.984375 -26.523438 27.984375 -24.484375 C 28.992188 -22.453125 30.335938 -20.710938 32.015625 -19.265625 C 33.703125 -17.816406 35.640625 -16.691406 37.828125 -15.890625 C 40.015625 -15.097656 42.285156 -14.703125 44.640625 -14.703125 C 47.179688 -14.703125 49.644531 -14.96875 52.03125 -15.5 C 54.425781 -16.03125 56.539062 -16.800781 58.375 -17.8125 Z M 59 -1.234375 "/></g></g></g><g fill="#ffffff" fill-opacity="1"><g transform="translate(936.464922, 405.252091)"><g><path d="M 46.765625 0 L 29.234375 -31.53125 L 28.875 -31.53125 L 28.875 0 L 6.90625 0 L 6.90625 -91.78125 L 28.875 -91.78125 L 28.875 -37.03125 L 29.234375 -37.03125 L 47.5625 -63.875 L 71.671875 -63.875 L 49.515625 -34.453125 L 73.4375 0 Z M 46.765625 0 "/></g></g></g><g fill="#ffffff" fill-opacity="1"><g transform="translate(555.381811, 554.099691)"><g><path d="M 34.28125 0 L 34.28125 -62.8125 L 18.15625 -51.203125 L 7.96875 -66.609375 L 37.03125 -85.484375 L 57.140625 -85.484375 L 57.140625 0 Z M 34.28125 0 "/></g></g></g><g fill="#ffffff" fill-opacity="1"><g transform="translate(630.318909, 554.099691)"><g><path d="M 70.609375 -42.78125 C 70.609375 -39.0625 70.441406 -35.382812 70.109375 -31.75 C 69.785156 -28.125 69.179688 -24.671875 68.296875 -21.390625 C 67.410156 -18.117188 66.1875 -15.09375 64.625 -12.3125 C 63.0625 -9.539062 61.050781 -7.132812 58.59375 -5.09375 C 56.144531 -3.050781 53.191406 -1.453125 49.734375 -0.296875 C 46.285156 0.847656 42.226562 1.421875 37.5625 1.421875 C 30.476562 1.421875 24.765625 0.164062 20.421875 -2.34375 C 16.078125 -4.851562 12.707031 -8.175781 10.3125 -12.3125 C 7.925781 -16.445312 6.332031 -21.15625 5.53125 -26.4375 C 4.738281 -31.726562 4.34375 -37.175781 4.34375 -42.78125 C 4.34375 -46.507812 4.503906 -50.171875 4.828125 -53.765625 C 5.148438 -57.367188 5.753906 -60.804688 6.640625 -64.078125 C 7.523438 -67.359375 8.75 -70.382812 10.3125 -73.15625 C 11.882812 -75.9375 13.894531 -78.347656 16.34375 -80.390625 C 18.789062 -82.429688 21.753906 -84.023438 25.234375 -85.171875 C 28.722656 -86.328125 32.832031 -86.90625 37.5625 -86.90625 C 42.226562 -86.90625 46.285156 -86.328125 49.734375 -85.171875 C 53.191406 -84.023438 56.144531 -82.429688 58.59375 -80.390625 C 61.050781 -78.347656 63.0625 -75.9375 64.625 -73.15625 C 66.1875 -70.382812 67.410156 -67.359375 68.296875 -64.078125 C 69.179688 -60.804688 69.785156 -57.351562 70.109375 -53.71875 C 70.441406 -50.09375 70.609375 -46.445312 70.609375 -42.78125 Z M 48.640625 -42.78125 C 48.640625 -46.144531 48.535156 -49.523438 48.328125 -52.921875 C 48.117188 -56.316406 47.644531 -59.390625 46.90625 -62.140625 C 46.164062 -64.890625 45.054688 -67.132812 43.578125 -68.875 C 42.109375 -70.613281 40.101562 -71.484375 37.5625 -71.484375 C 34.957031 -71.484375 32.898438 -70.613281 31.390625 -68.875 C 29.890625 -67.132812 28.769531 -64.890625 28.03125 -62.140625 C 27.300781 -59.390625 26.832031 -56.316406 26.625 -52.921875 C 26.414062 -49.523438 26.3125 -46.144531 26.3125 -42.78125 C 26.3125 -39.414062 26.414062 -36.019531 26.625 -32.59375 C 26.832031 -29.175781 27.300781 -26.09375 28.03125 -23.34375 C 28.769531 -20.59375 29.890625 -18.347656 31.390625 -16.609375 C 32.898438 -14.867188 34.957031 -14 37.5625 -14 C 40.101562 -14 42.109375 -14.867188 43.578125 -16.609375 C 45.054688 -18.347656 46.164062 -20.59375 46.90625 -23.34375 C 47.644531 -26.09375 48.117188 -29.175781 48.328125 -32.59375 C 48.535156 -36.019531 48.640625 -39.414062 48.640625 -42.78125 Z M 48.640625 -42.78125 "/></g></g></g><g fill="#ffffff" fill-opacity="1"><g transform="translate(705.256008, 554.099691)"><g><path d="M 70.609375 -42.78125 C 70.609375 -39.0625 70.441406 -35.382812 70.109375 -31.75 C 69.785156 -28.125 69.179688 -24.671875 68.296875 -21.390625 C 67.410156 -18.117188 66.1875 -15.09375 64.625 -12.3125 C 63.0625 -9.539062 61.050781 -7.132812 58.59375 -5.09375 C 56.144531 -3.050781 53.191406 -1.453125 49.734375 -0.296875 C 46.285156 0.847656 42.226562 1.421875 37.5625 1.421875 C 30.476562 1.421875 24.765625 0.164062 20.421875 -2.34375 C 16.078125 -4.851562 12.707031 -8.175781 10.3125 -12.3125 C 7.925781 -16.445312 6.332031 -21.15625 5.53125 -26.4375 C 4.738281 -31.726562 4.34375 -37.175781 4.34375 -42.78125 C 4.34375 -46.507812 4.503906 -50.171875 4.828125 -53.765625 C 5.148438 -57.367188 5.753906 -60.804688 6.640625 -64.078125 C 7.523438 -67.359375 8.75 -70.382812 10.3125 -73.15625 C 11.882812 -75.9375 13.894531 -78.347656 16.34375 -80.390625 C 18.789062 -82.429688 21.753906 -84.023438 25.234375 -85.171875 C 28.722656 -86.328125 32.832031 -86.90625 37.5625 -86.90625 C 42.226562 -86.90625 46.285156 -86.328125 49.734375 -85.171875 C 53.191406 -84.023438 56.144531 -82.429688 58.59375 -80.390625 C 61.050781 -78.347656 63.0625 -75.9375 64.625 -73.15625 C 66.1875 -70.382812 67.410156 -67.359375 68.296875 -64.078125 C 69.179688 -60.804688 69.785156 -57.351562 70.109375 -53.71875 C 70.441406 -50.09375 70.609375 -46.445312 70.609375 -42.78125 Z M 48.640625 -42.78125 C 48.640625 -46.144531 48.535156 -49.523438 48.328125 -52.921875 C 48.117188 -56.316406 47.644531 -59.390625 46.90625 -62.140625 C 46.164062 -64.890625 45.054688 -67.132812 43.578125 -68.875 C 42.109375 -70.613281 40.101562 -71.484375 37.5625 -71.484375 C 34.957031 -71.484375 32.898438 -70.613281 31.390625 -68.875 C 29.890625 -67.132812 28.769531 -64.890625 28.03125 -62.140625 C 27.300781 -59.390625 26.832031 -56.316406 26.625 -52.921875 C 26.414062 -49.523438 26.3125 -46.144531 26.3125 -42.78125 C 26.3125 -39.414062 26.414062 -36.019531 26.625 -32.59375 C 26.832031 -29.175781 27.300781 -26.09375 28.03125 -23.34375 C 28.769531 -20.59375 29.890625 -18.347656 31.390625 -16.609375 C 32.898438 -14.867188 34.957031 -14 37.5625 -14 C 40.101562 -14 42.109375 -14.867188 43.578125 -16.609375 C 45.054688 -18.347656 46.164062 -20.59375 46.90625 -23.34375 C 47.644531 -26.09375 48.117188 -29.175781 48.328125 -32.59375 C 48.535156 -36.019531 48.640625 -39.414062 48.640625 -42.78125 Z M 48.640625 -42.78125 "/></g></g></g><g fill="#ffffff" fill-opacity="1"><g transform="translate(780.193107, 554.099691)"><g><path d="M 3.8125 -24.890625 L 3.8125 -41.015625 L 37.03125 -41.015625 L 37.03125 -24.890625 Z M 3.8125 -24.890625 "/></g></g></g><g clip-path="url(#d4f88f143b)"><g clip-path="url(#7e71591e77)"><g clip-path="url(#e1df83a5d5)"><path fill="#ffd900" d="M 75.710938 82.78125 L 419.667969 0 L 496.027344 317.261719 L 152.066406 400.042969 Z M 75.710938 82.78125 " fill-opacity="1" fill-rule="nonzero"/></g></g></g><g clip-path="url(#2f0415ed33)"><g clip-path="url(#a69889e9a3)"><g fill="#000000" fill-opacity="1"><g transform="translate(186.954628, 250.895245)"><g><path d="M 20.484375 -4.15625 C 16.171875 -3.113281 12.597656 -3.191406 9.765625 -4.390625 C 6.929688 -5.585938 4.65625 -7.660156 2.9375 -10.609375 C 1.226562 -13.554688 -0.128906 -17.144531 -1.140625 -21.375 C -2.835938 -28.40625 -3.023438 -33.773438 -1.703125 -37.484375 C -0.390625 -41.191406 2.328125 -43.539062 6.453125 -44.53125 C 8.160156 -44.9375 9.734375 -44.96875 11.171875 -44.625 C 12.617188 -44.28125 13.9375 -43.332031 15.125 -41.78125 L 15.421875 -41.84375 C 15.671875 -43.800781 16.492188 -45.28125 17.890625 -46.28125 C 19.296875 -47.289062 20.898438 -48.007812 22.703125 -48.4375 C 26.035156 -49.238281 28.753906 -48.945312 30.859375 -47.5625 C 32.972656 -46.175781 34.445312 -43.757812 35.28125 -40.3125 L 42.515625 -10.234375 L 31.59375 -7.609375 L 24.84375 -35.640625 C 24.476562 -37.148438 23.988281 -38.109375 23.375 -38.515625 C 22.769531 -38.929688 22.054688 -39.039062 21.234375 -38.84375 C 20.316406 -38.625 19.6875 -38.191406 19.34375 -37.546875 C 19.007812 -36.910156 18.925781 -35.9375 19.09375 -34.625 L 14.796875 -33.59375 C 14.265625 -34.90625 13.675781 -35.738281 13.03125 -36.09375 C 12.382812 -36.457031 11.695312 -36.550781 10.96875 -36.375 C 9.695312 -36.070312 8.957031 -34.96875 8.75 -33.0625 C 8.550781 -31.164062 8.953125 -28.132812 9.953125 -23.96875 C 10.941406 -19.84375 12.1875 -16.789062 13.6875 -14.8125 C 15.1875 -12.832031 17.34375 -12.179688 20.15625 -12.859375 C 21.332031 -13.140625 22.25 -13.507812 22.90625 -13.96875 L 25.875 -6.453125 C 24.46875 -5.441406 22.671875 -4.675781 20.484375 -4.15625 Z M 20.484375 -4.15625 "/></g></g></g></g></g><g clip-path="url(#4fdec4d2fd)"><g clip-path="url(#4b26a8905f)"><g fill="#000000" fill-opacity="1"><g transform="translate(233.55477, 239.679558)"><g><path d="M -27.171875 -41.53125 L -31.140625 -58.0625 L -21.09375 -60.484375 L -17.125 -43.953125 Z M -27.171875 -41.53125 "/></g></g></g></g></g><g clip-path="url(#951216e134)"><g clip-path="url(#671800460c)"><g fill="#000000" fill-opacity="1"><g transform="translate(234.574099, 239.434227)"><g><path d="M 21.203125 -4.109375 C 15.285156 -2.679688 10.546875 -3.066406 6.984375 -5.265625 C 3.421875 -7.460938 0.957031 -11.398438 -0.40625 -17.078125 C -0.625 -18.003906 -0.867188 -19.175781 -1.140625 -20.59375 C -1.410156 -22.019531 -1.597656 -23.285156 -1.703125 -24.390625 L 15.765625 -28.59375 L 17.421875 -21.6875 L 10.21875 -19.953125 L 10.46875 -18.9375 C 11.164062 -16.019531 12.21875 -14.023438 13.625 -12.953125 C 15.039062 -11.878906 16.894531 -11.617188 19.1875 -12.171875 C 21.601562 -12.753906 23.289062 -14.054688 24.25 -16.078125 C 25.207031 -18.109375 25.128906 -21.429688 24.015625 -26.046875 C 22.972656 -30.359375 21.425781 -33.410156 19.375 -35.203125 C 17.320312 -36.992188 14.304688 -37.410156 10.328125 -36.453125 C 8.140625 -35.929688 5.960938 -35.050781 3.796875 -33.8125 C 1.640625 -32.570312 -0.09375 -31.351562 -1.40625 -30.15625 L -3.59375 -39.265625 C -2.226562 -40.460938 -0.257812 -41.664062 2.3125 -42.875 C 4.894531 -44.09375 7.546875 -45.03125 10.265625 -45.6875 C 14.972656 -46.8125 18.976562 -46.863281 22.28125 -45.84375 C 25.582031 -44.820312 28.28125 -42.890625 30.375 -40.046875 C 32.46875 -37.210938 34.035156 -33.640625 35.078125 -29.328125 C 36.679688 -22.671875 36.429688 -17.203125 34.328125 -12.921875 C 32.222656 -8.648438 27.847656 -5.710938 21.203125 -4.109375 Z M 21.203125 -4.109375 "/></g></g></g></g></g><g clip-path="url(#70e08e27d9)"><g clip-path="url(#7fbbbeff9f)"><g fill="#000000" fill-opacity="1"><g transform="translate(277.752001, 229.042202)"><g><path d="M 5.609375 -1.34375 L -4 -41.25 L 4 -43.1875 L 6.96875 -37.265625 L 7.546875 -37.40625 C 7.898438 -39.59375 8.9375 -41.597656 10.65625 -43.421875 C 12.375 -45.253906 14.859375 -46.5625 18.109375 -47.34375 C 27.378906 -49.570312 33.210938 -45.710938 35.609375 -35.765625 L 41.796875 -10.0625 L 30.875 -7.421875 L 25.21875 -30.9375 C 24.5625 -33.664062 23.546875 -35.488281 22.171875 -36.40625 C 20.796875 -37.332031 19.054688 -37.546875 16.953125 -37.046875 C 14.429688 -36.429688 12.722656 -34.941406 11.828125 -32.578125 C 10.941406 -30.210938 10.976562 -27.039062 11.9375 -23.0625 L 16.53125 -3.984375 Z M 5.609375 -1.34375 "/></g></g></g></g></g><g clip-path="url(#486b4a5a80)"><g clip-path="url(#014c80d307)"><g fill="#000000" fill-opacity="1"><g transform="translate(323.408293, 217.745551)"><g><path d="M -50.046875 -36.03125 L -51.15625 -40.625 L -44.53125 -45.4375 L -27.84375 -49.453125 L -29.046875 -54.484375 L -19.734375 -56.71875 L -16.6875 -44.046875 Z M -50.046875 -36.03125 "/></g></g><g transform="translate(323.408293, 217.745551)"><g><path d="M -30.046875 -58.328125 L -33.3125 -71.859375 L -23.859375 -74.125 L -20.59375 -60.59375 Z M -30.046875 -58.328125 "/></g></g></g></g></g><g clip-path="url(#3e63b441c0)"><g clip-path="url(#787d850106)"><g fill="#000000" fill-opacity="1"><g transform="translate(324.643347, 217.756429)"><g/></g></g></g></g><g clip-path="url(#9e9c930b4f)"><g clip-path="url(#ef7dbcb2b1)"><g fill="#000000" fill-opacity="1"><g transform="translate(340.07963, 214.041236)"><g><path d="M 0.4375 -10.671875 C 1.769531 -12.367188 2.378906 -13.148438 2.265625 -13.015625 C 6.066406 -18.097656 9.035156 -22.226562 11.171875 -25.40625 C 13.316406 -28.59375 15 -31.800781 16.21875 -35.03125 C 17.445312 -38.257812 17.75 -41.175781 17.125 -43.78125 C 16.632812 -45.78125 15.796875 -47.222656 14.609375 -48.109375 C 13.421875 -49.003906 11.898438 -49.226562 10.046875 -48.78125 C 8.203125 -48.34375 6.925781 -47.304688 6.21875 -45.671875 C 5.507812 -44.035156 5.457031 -41.957031 6.0625 -39.4375 L -5.953125 -36.53125 C -6.835938 -40.6875 -6.773438 -44.347656 -5.765625 -47.515625 C -4.753906 -50.691406 -3.035156 -53.265625 -0.609375 -55.234375 C 1.804688 -57.210938 4.6875 -58.601562 8.03125 -59.40625 C 13.8125 -60.800781 18.523438 -60.367188 22.171875 -58.109375 C 25.816406 -55.847656 28.210938 -52.335938 29.359375 -47.578125 C 30.609375 -42.378906 30 -37.132812 27.53125 -31.84375 C 25.0625 -26.5625 21.59375 -21.144531 17.125 -15.59375 L 36.78125 -20.328125 L 39.21875 -10.21875 L 2.671875 -1.421875 Z M 0.4375 -10.671875 "/></g></g></g></g></g><g clip-path="url(#d0990ad309)"><g clip-path="url(#533f3d29d7)"><g fill="#000000" fill-opacity="1"><g transform="translate(381.64902, 204.036346)"><g/></g></g></g></g></svg>