<svg xmlns="http://www.w3.org/2000/svg" xmlns:xlink="http://www.w3.org/1999/xlink" width="1640" zoomAndPan="magnify" viewBox="0 0 1230 693.000001" height="924" preserveAspectRatio="xMidYMid meet" version="1.0"><defs><g/><clipPath id="e27afd9d52"><path d="M 168.195312 213.222656 L 1139.28125 213.222656 L 1139.28125 692 L 168.195312 692 Z M 168.195312 213.222656 " clip-rule="nonzero"/></clipPath><clipPath id="c249904a94"><path d="M 126 38 L 447 38 L 447 335 L 126 335 Z M 126 38 " clip-rule="nonzero"/></clipPath><clipPath id="e27126b51e"><path d="M 90.722656 77.117188 L 411.136719 0 L 482.269531 295.546875 L 161.851562 372.664062 Z M 90.722656 77.117188 " clip-rule="nonzero"/></clipPath><clipPath id="2fa0397385"><path d="M 250.929688 38.558594 L 307.832031 72.871094 L 374.628906 54.574219 L 387.296875 117.199219 L 446.703125 147.773438 L 407.710938 202.027344 L 424.925781 263.558594 L 357.121094 277.65625 L 322.0625 334.105469 L 265.15625 299.792969 L 198.359375 318.085938 L 185.691406 255.460938 L 126.289062 224.890625 L 165.277344 170.636719 L 148.0625 109.105469 L 215.871094 95.003906 L 250.929688 38.558594 " clip-rule="nonzero"/></clipPath><clipPath id="348189076f"><path d="M 185 185 L 235 185 L 235 237 L 185 237 Z M 185 185 " clip-rule="nonzero"/></clipPath><clipPath id="94d60d50e2"><path d="M 152.003906 110.898438 L 371.898438 57.972656 L 420.789062 261.121094 L 200.894531 314.042969 Z M 152.003906 110.898438 " clip-rule="nonzero"/></clipPath><clipPath id="d00a1a2bcb"><path d="M 206 164 L 221 164 L 221 184 L 206 184 Z M 206 164 " clip-rule="nonzero"/></clipPath><clipPath id="b7c4a1a3c8"><path d="M 152.003906 110.898438 L 371.898438 57.972656 L 420.789062 261.121094 L 200.894531 314.042969 Z M 152.003906 110.898438 " clip-rule="nonzero"/></clipPath><clipPath id="a2d3e83ea3"><path d="M 232 174 L 280 174 L 280 225 L 232 225 Z M 232 174 " clip-rule="nonzero"/></clipPath><clipPath id="85365d9ad4"><path d="M 152.003906 110.898438 L 371.898438 57.972656 L 420.789062 261.121094 L 200.894531 314.042969 Z M 152.003906 110.898438 " clip-rule="nonzero"/></clipPath><clipPath id="1a8705f980"><path d="M 278 163 L 325 163 L 325 214 L 278 214 Z M 278 163 " clip-rule="nonzero"/></clipPath><clipPath id="6eaf3f4814"><path d="M 152.003906 110.898438 L 371.898438 57.972656 L 420.789062 261.121094 L 200.894531 314.042969 Z M 152.003906 110.898438 " clip-rule="nonzero"/></clipPath><clipPath id="648a53b0d7"><path d="M 274 128 L 312 128 L 312 168 L 274 168 Z M 274 128 " clip-rule="nonzero"/></clipPath><clipPath id="360205d84a"><path d="M 152.003906 110.898438 L 371.898438 57.972656 L 420.789062 261.121094 L 200.894531 314.042969 Z M 152.003906 110.898438 " clip-rule="nonzero"/></clipPath><clipPath id="2b5e05aad3"><path d="M 329 203 L 330 203 L 330 204 L 329 204 Z M 329 203 " clip-rule="nonzero"/></clipPath><clipPath id="8a64a4d54f"><path d="M 152.003906 110.898438 L 371.898438 57.972656 L 420.789062 261.121094 L 200.894531 314.042969 Z M 152.003906 110.898438 " clip-rule="nonzero"/></clipPath><clipPath id="c18fc774c1"><path d="M 335 135 L 391 135 L 391 199 L 335 199 Z M 335 135 " clip-rule="nonzero"/></clipPath><clipPath id="0bb936f61d"><path d="M 152.003906 110.898438 L 371.898438 57.972656 L 420.789062 261.121094 L 200.894531 314.042969 Z M 152.003906 110.898438 " clip-rule="nonzero"/></clipPath></defs><g clip-path="url(#e27afd9d52)"><path fill="#3b3b3b" d="M 168.195312 213.222656 L 1139.277344 213.222656 L 1139.277344 692 L 168.195312 692 Z M 168.195312 213.222656 " fill-opacity="1" fill-rule="nonzero"/></g><g fill="#ffffff" fill-opacity="1"><g transform="translate(191.346648, 422.858488)"><g><path d="M 78 -31.703125 C 78 -26.441406 77.054688 -21.757812 75.171875 -17.65625 C 73.285156 -13.5625 70.671875 -10.097656 67.328125 -7.265625 C 63.992188 -4.429688 60.066406 -2.273438 55.546875 -0.796875 C 51.035156 0.679688 46.125 1.421875 40.8125 1.421875 C 35.5625 1.421875 30.675781 0.679688 26.15625 -0.796875 C 21.644531 -2.273438 17.734375 -4.429688 14.421875 -7.265625 C 11.117188 -10.097656 8.523438 -13.5625 6.640625 -17.65625 C 4.753906 -21.757812 3.8125 -26.441406 3.8125 -31.703125 C 3.8125 -37.015625 4.753906 -41.75 6.640625 -45.90625 C 8.523438 -50.070312 11.117188 -53.582031 14.421875 -56.4375 C 17.734375 -59.300781 21.644531 -61.484375 26.15625 -62.984375 C 30.675781 -64.492188 35.5625 -65.25 40.8125 -65.25 C 46.125 -65.25 51.035156 -64.492188 55.546875 -62.984375 C 60.066406 -61.484375 63.992188 -59.300781 67.328125 -56.4375 C 70.671875 -53.582031 73.285156 -50.070312 75.171875 -45.90625 C 77.054688 -41.75 78 -37.015625 78 -31.703125 Z M 55.15625 -31.703125 C 55.15625 -34.117188 54.875 -36.414062 54.3125 -38.59375 C 53.757812 -40.78125 52.90625 -42.710938 51.75 -44.390625 C 50.601562 -46.078125 49.128906 -47.40625 47.328125 -48.375 C 45.523438 -49.351562 43.351562 -49.84375 40.8125 -49.84375 C 38.28125 -49.84375 36.097656 -49.351562 34.265625 -48.375 C 32.429688 -47.40625 30.9375 -46.078125 29.78125 -44.390625 C 28.632812 -42.710938 27.796875 -40.78125 27.265625 -38.59375 C 26.734375 -36.414062 26.46875 -34.117188 26.46875 -31.703125 C 26.46875 -29.398438 26.734375 -27.1875 27.265625 -25.0625 C 27.796875 -22.9375 28.632812 -21.046875 29.78125 -19.390625 C 30.9375 -17.734375 32.429688 -16.414062 34.265625 -15.4375 C 36.097656 -14.46875 38.28125 -13.984375 40.8125 -13.984375 C 43.351562 -13.984375 45.523438 -14.46875 47.328125 -15.4375 C 49.128906 -16.414062 50.601562 -17.734375 51.75 -19.390625 C 52.90625 -21.046875 53.757812 -22.9375 54.3125 -25.0625 C 54.875 -27.1875 55.15625 -29.398438 55.15625 -31.703125 Z M 55.15625 -31.703125 "/></g></g></g><g fill="#ffffff" fill-opacity="1"><g transform="translate(273.146395, 422.858488)"><g><path d="M 52.765625 0 L 52.765625 -30.8125 C 52.765625 -33.820312 52.515625 -36.34375 52.015625 -38.375 C 51.515625 -40.414062 50.820312 -42.070312 49.9375 -43.34375 C 49.050781 -44.613281 47.972656 -45.523438 46.703125 -46.078125 C 45.429688 -46.640625 44.0625 -46.921875 42.59375 -46.921875 C 38.039062 -46.921875 34.613281 -45.3125 32.3125 -42.09375 C 30.007812 -38.882812 28.859375 -33.796875 28.859375 -26.828125 L 28.859375 0 L 6.90625 0 L 6.90625 -63.84375 L 26.828125 -63.84375 L 26.828125 -52.0625 L 27.1875 -52.0625 C 29.363281 -56.550781 32.53125 -59.867188 36.6875 -62.015625 C 40.851562 -64.171875 45.414062 -65.25 50.375 -65.25 C 54.75 -65.25 58.46875 -64.539062 61.53125 -63.125 C 64.601562 -61.707031 67.113281 -59.816406 69.0625 -57.453125 C 71.007812 -55.097656 72.441406 -52.382812 73.359375 -49.3125 C 74.273438 -46.25 74.734375 -43.0625 74.734375 -39.75 L 74.734375 0 Z M 52.765625 0 "/></g></g></g><g fill="#ffffff" fill-opacity="1"><g transform="translate(354.769088, 422.858488)"><g><path d="M 9.390625 0 L 9.390625 -91.71875 L 31.34375 -91.71875 L 31.34375 0 Z M 9.390625 0 "/></g></g></g><g fill="#ffffff" fill-opacity="1"><g transform="translate(395.580435, 422.858488)"><g><path d="M 9.390625 -74.203125 L 9.390625 -90.3125 L 31.34375 -90.3125 L 31.34375 -74.203125 Z M 9.390625 0 L 9.390625 -63.84375 L 31.34375 -63.84375 L 31.34375 0 Z M 9.390625 0 "/></g></g></g><g fill="#ffffff" fill-opacity="1"><g transform="translate(436.391781, 422.858488)"><g><path d="M 52.765625 0 L 52.765625 -30.8125 C 52.765625 -33.820312 52.515625 -36.34375 52.015625 -38.375 C 51.515625 -40.414062 50.820312 -42.070312 49.9375 -43.34375 C 49.050781 -44.613281 47.972656 -45.523438 46.703125 -46.078125 C 45.429688 -46.640625 44.0625 -46.921875 42.59375 -46.921875 C 38.039062 -46.921875 34.613281 -45.3125 32.3125 -42.09375 C 30.007812 -38.882812 28.859375 -33.796875 28.859375 -26.828125 L 28.859375 0 L 6.90625 0 L 6.90625 -63.84375 L 26.828125 -63.84375 L 26.828125 -52.0625 L 27.1875 -52.0625 C 29.363281 -56.550781 32.53125 -59.867188 36.6875 -62.015625 C 40.851562 -64.171875 45.414062 -65.25 50.375 -65.25 C 54.75 -65.25 58.46875 -64.539062 61.53125 -63.125 C 64.601562 -61.707031 67.113281 -59.816406 69.0625 -57.453125 C 71.007812 -55.097656 72.441406 -52.382812 73.359375 -49.3125 C 74.273438 -46.25 74.734375 -43.0625 74.734375 -39.75 L 74.734375 0 Z M 52.765625 0 "/></g></g></g><g fill="#ffffff" fill-opacity="1"><g transform="translate(518.014474, 422.858488)"><g><path d="M 26.125 -25.40625 C 26.769531 -20.976562 28.703125 -17.847656 31.921875 -16.015625 C 35.140625 -14.191406 39.429688 -13.28125 44.796875 -13.28125 C 47.804688 -13.28125 50.960938 -13.632812 54.265625 -14.34375 C 57.578125 -15.050781 60.882812 -16.320312 64.1875 -18.15625 L 64.1875 -2.5625 C 60.644531 -1.207031 56.910156 -0.207031 52.984375 0.4375 C 49.066406 1.09375 45.007812 1.421875 40.8125 1.421875 C 35.5625 1.421875 30.675781 0.671875 26.15625 -0.828125 C 21.644531 -2.335938 17.734375 -4.507812 14.421875 -7.34375 C 11.117188 -10.175781 8.523438 -13.660156 6.640625 -17.796875 C 4.753906 -21.929688 3.8125 -26.625 3.8125 -31.875 C 3.8125 -37.125 4.664062 -41.816406 6.375 -45.953125 C 8.082031 -50.085938 10.441406 -53.582031 13.453125 -56.4375 C 16.460938 -59.300781 20.046875 -61.484375 24.203125 -62.984375 C 28.367188 -64.492188 32.929688 -65.25 37.890625 -65.25 C 43.796875 -65.25 48.8125 -64.273438 52.9375 -62.328125 C 57.070312 -60.378906 60.410156 -57.765625 62.953125 -54.484375 C 65.492188 -51.210938 67.335938 -47.421875 68.484375 -43.109375 C 69.640625 -38.804688 70.21875 -34.296875 70.21875 -29.578125 L 70.21875 -25.40625 Z M 50.203125 -37.890625 C 50.203125 -39.722656 49.976562 -41.460938 49.53125 -43.109375 C 49.09375 -44.765625 48.398438 -46.195312 47.453125 -47.40625 C 46.515625 -48.625 45.257812 -49.585938 43.6875 -50.296875 C 42.125 -51.003906 40.253906 -51.359375 38.078125 -51.359375 C 36.066406 -51.359375 34.320312 -51.003906 32.84375 -50.296875 C 31.375 -49.585938 30.132812 -48.625 29.125 -47.40625 C 28.125 -46.195312 27.34375 -44.765625 26.78125 -43.109375 C 26.21875 -41.460938 25.878906 -39.722656 25.765625 -37.890625 Z M 50.203125 -37.890625 "/></g></g></g><g fill="#ffffff" fill-opacity="1"><g transform="translate(592.731995, 422.858488)"><g/></g></g><g fill="#ffffff" fill-opacity="1"><g transform="translate(647.088104, 422.858488)"><g><path d="M 58.96875 -1.234375 C 56.132812 -0.347656 53.148438 0.3125 50.015625 0.75 C 46.890625 1.195312 43.820312 1.421875 40.8125 1.421875 C 35.5625 1.421875 30.675781 0.679688 26.15625 -0.796875 C 21.644531 -2.273438 17.734375 -4.429688 14.421875 -7.265625 C 11.117188 -10.097656 8.523438 -13.5625 6.640625 -17.65625 C 4.753906 -21.757812 3.8125 -26.441406 3.8125 -31.703125 C 3.8125 -37.015625 4.753906 -41.75 6.640625 -45.90625 C 8.523438 -50.070312 11.117188 -53.582031 14.421875 -56.4375 C 17.734375 -59.300781 21.644531 -61.484375 26.15625 -62.984375 C 30.675781 -64.492188 35.5625 -65.25 40.8125 -65.25 C 44.175781 -65.25 47.304688 -64.96875 50.203125 -64.40625 C 53.097656 -63.851562 55.8125 -62.925781 58.34375 -61.625 L 56.75 -45.515625 C 54.75 -46.804688 52.710938 -47.734375 50.640625 -48.296875 C 48.578125 -48.859375 46.21875 -49.140625 43.5625 -49.140625 C 41.144531 -49.140625 38.898438 -48.722656 36.828125 -47.890625 C 34.765625 -47.066406 32.960938 -45.890625 31.421875 -44.359375 C 29.890625 -42.828125 28.679688 -40.96875 27.796875 -38.78125 C 26.910156 -36.59375 26.46875 -34.113281 26.46875 -31.34375 C 26.46875 -28.800781 26.96875 -26.507812 27.96875 -24.46875 C 28.976562 -22.4375 30.320312 -20.695312 32 -19.25 C 33.6875 -17.8125 35.617188 -16.691406 37.796875 -15.890625 C 39.984375 -15.097656 42.257812 -14.703125 44.625 -14.703125 C 47.164062 -14.703125 49.628906 -14.96875 52.015625 -15.5 C 54.410156 -16.03125 56.519531 -16.796875 58.34375 -17.796875 Z M 58.96875 -1.234375 "/></g></g></g><g fill="#ffffff" fill-opacity="1"><g transform="translate(708.172332, 422.858488)"><g><path d="M 78 -31.703125 C 78 -26.441406 77.054688 -21.757812 75.171875 -17.65625 C 73.285156 -13.5625 70.671875 -10.097656 67.328125 -7.265625 C 63.992188 -4.429688 60.066406 -2.273438 55.546875 -0.796875 C 51.035156 0.679688 46.125 1.421875 40.8125 1.421875 C 35.5625 1.421875 30.675781 0.679688 26.15625 -0.796875 C 21.644531 -2.273438 17.734375 -4.429688 14.421875 -7.265625 C 11.117188 -10.097656 8.523438 -13.5625 6.640625 -17.65625 C 4.753906 -21.757812 3.8125 -26.441406 3.8125 -31.703125 C 3.8125 -37.015625 4.753906 -41.75 6.640625 -45.90625 C 8.523438 -50.070312 11.117188 -53.582031 14.421875 -56.4375 C 17.734375 -59.300781 21.644531 -61.484375 26.15625 -62.984375 C 30.675781 -64.492188 35.5625 -65.25 40.8125 -65.25 C 46.125 -65.25 51.035156 -64.492188 55.546875 -62.984375 C 60.066406 -61.484375 63.992188 -59.300781 67.328125 -56.4375 C 70.671875 -53.582031 73.285156 -50.070312 75.171875 -45.90625 C 77.054688 -41.75 78 -37.015625 78 -31.703125 Z M 55.15625 -31.703125 C 55.15625 -34.117188 54.875 -36.414062 54.3125 -38.59375 C 53.757812 -40.78125 52.90625 -42.710938 51.75 -44.390625 C 50.601562 -46.078125 49.128906 -47.40625 47.328125 -48.375 C 45.523438 -49.351562 43.351562 -49.84375 40.8125 -49.84375 C 38.28125 -49.84375 36.097656 -49.351562 34.265625 -48.375 C 32.429688 -47.40625 30.9375 -46.078125 29.78125 -44.390625 C 28.632812 -42.710938 27.796875 -40.78125 27.265625 -38.59375 C 26.734375 -36.414062 26.46875 -34.117188 26.46875 -31.703125 C 26.46875 -29.398438 26.734375 -27.1875 27.265625 -25.0625 C 27.796875 -22.9375 28.632812 -21.046875 29.78125 -19.390625 C 30.9375 -17.734375 32.429688 -16.414062 34.265625 -15.4375 C 36.097656 -14.46875 38.28125 -13.984375 40.8125 -13.984375 C 43.351562 -13.984375 45.523438 -14.46875 47.328125 -15.4375 C 49.128906 -16.414062 50.601562 -17.734375 51.75 -19.390625 C 52.90625 -21.046875 53.757812 -22.9375 54.3125 -25.0625 C 54.875 -27.1875 55.15625 -29.398438 55.15625 -31.703125 Z M 55.15625 -31.703125 "/></g></g></g><g fill="#ffffff" fill-opacity="1"><g transform="translate(789.972079, 422.858488)"><g><path d="M 54.71875 0 L 54.71875 -11.78125 L 54.359375 -11.78125 C 52.179688 -7.175781 49.023438 -3.820312 44.890625 -1.71875 C 40.753906 0.375 36.179688 1.421875 31.171875 1.421875 C 26.796875 1.421875 23.070312 0.726562 20 -0.65625 C 16.9375 -2.050781 14.429688 -3.925781 12.484375 -6.28125 C 10.535156 -8.644531 9.117188 -11.347656 8.234375 -14.390625 C 7.347656 -17.429688 6.90625 -20.601562 6.90625 -23.90625 L 6.90625 -63.84375 L 28.859375 -63.84375 L 28.859375 -33.03125 C 28.859375 -30.019531 29.109375 -27.476562 29.609375 -25.40625 C 30.117188 -23.34375 30.816406 -21.675781 31.703125 -20.40625 C 32.585938 -19.132812 33.648438 -18.21875 34.890625 -17.65625 C 36.128906 -17.101562 37.484375 -16.828125 38.953125 -16.828125 C 43.554688 -16.828125 47.007812 -18.445312 49.3125 -21.6875 C 51.613281 -24.9375 52.765625 -29.984375 52.765625 -36.828125 L 52.765625 -63.84375 L 74.734375 -63.84375 L 74.734375 0 Z M 54.71875 0 "/></g></g></g><g fill="#ffffff" fill-opacity="1"><g transform="translate(871.594772, 422.858488)"><g><path d="M 52.421875 -46.046875 C 51.117188 -46.515625 49.875 -46.773438 48.6875 -46.828125 C 47.507812 -46.890625 46.273438 -46.921875 44.984375 -46.921875 C 39.785156 -46.921875 35.796875 -45.132812 33.015625 -41.5625 C 30.242188 -38 28.859375 -33.085938 28.859375 -26.828125 L 28.859375 0 L 6.90625 0 L 6.90625 -63.84375 L 26.828125 -63.84375 L 26.828125 -52.0625 L 27.1875 -52.0625 C 29.070312 -56.070312 31.488281 -59.269531 34.4375 -61.65625 C 37.394531 -64.050781 41.265625 -65.25 46.046875 -65.25 C 47.335938 -65.25 48.632812 -65.175781 49.9375 -65.03125 C 51.238281 -64.882812 52.421875 -64.722656 53.484375 -64.546875 Z M 52.421875 -46.046875 "/></g></g></g><g fill="#ffffff" fill-opacity="1"><g transform="translate(925.950882, 422.858488)"><g><path d="M 57.28125 -19.75 C 57.28125 -15.550781 56.410156 -12.078125 54.671875 -9.328125 C 52.929688 -6.585938 50.660156 -4.421875 47.859375 -2.828125 C 45.054688 -1.234375 41.867188 -0.128906 38.296875 0.484375 C 34.722656 1.109375 31.132812 1.421875 27.53125 1.421875 C 22.570312 1.421875 18.273438 1.179688 14.640625 0.703125 C 11.015625 0.234375 7.582031 -0.53125 4.34375 -1.59375 L 5.578125 -17.625 C 8.171875 -16.5 11.269531 -15.492188 14.875 -14.609375 C 18.476562 -13.722656 22.285156 -13.28125 26.296875 -13.28125 C 27.421875 -13.28125 28.515625 -13.335938 29.578125 -13.453125 C 30.640625 -13.578125 31.582031 -13.816406 32.40625 -14.171875 C 33.226562 -14.523438 33.890625 -15.039062 34.390625 -15.71875 C 34.898438 -16.394531 35.15625 -17.265625 35.15625 -18.328125 C 35.15625 -20.160156 34.382812 -21.546875 32.84375 -22.484375 C 31.3125 -23.429688 29.394531 -24.226562 27.09375 -24.875 C 24.789062 -25.53125 22.28125 -26.210938 19.5625 -26.921875 C 16.851562 -27.628906 14.347656 -28.660156 12.046875 -30.015625 C 9.742188 -31.367188 7.820312 -33.179688 6.28125 -35.453125 C 4.75 -37.734375 3.984375 -40.789062 3.984375 -44.625 C 3.984375 -48.28125 4.796875 -51.421875 6.421875 -54.046875 C 8.046875 -56.679688 10.15625 -58.820312 12.75 -60.46875 C 15.34375 -62.125 18.234375 -63.332031 21.421875 -64.09375 C 24.609375 -64.863281 27.796875 -65.25 30.984375 -65.25 C 34.828125 -65.25 38.648438 -64.984375 42.453125 -64.453125 C 46.265625 -63.921875 49.941406 -62.976562 53.484375 -61.625 L 51.890625 -46.21875 C 49.460938 -47.695312 46.671875 -48.789062 43.515625 -49.5 C 40.359375 -50.207031 37.394531 -50.5625 34.625 -50.5625 C 33.4375 -50.5625 32.238281 -50.5 31.03125 -50.375 C 29.820312 -50.257812 28.726562 -50.023438 27.75 -49.671875 C 26.78125 -49.316406 25.984375 -48.84375 25.359375 -48.25 C 24.742188 -47.664062 24.4375 -46.929688 24.4375 -46.046875 C 24.4375 -44.390625 25.25 -43.160156 26.875 -42.359375 C 28.5 -41.566406 30.519531 -40.875 32.9375 -40.28125 C 35.351562 -39.695312 37.992188 -39.0625 40.859375 -38.375 C 43.722656 -37.695312 46.363281 -36.648438 48.78125 -35.234375 C 51.207031 -33.816406 53.226562 -31.898438 54.84375 -29.484375 C 56.46875 -27.066406 57.28125 -23.820312 57.28125 -19.75 Z M 57.28125 -19.75 "/></g></g></g><g fill="#ffffff" fill-opacity="1"><g transform="translate(987.035109, 422.858488)"><g><path d="M 26.125 -25.40625 C 26.769531 -20.976562 28.703125 -17.847656 31.921875 -16.015625 C 35.140625 -14.191406 39.429688 -13.28125 44.796875 -13.28125 C 47.804688 -13.28125 50.960938 -13.632812 54.265625 -14.34375 C 57.578125 -15.050781 60.882812 -16.320312 64.1875 -18.15625 L 64.1875 -2.5625 C 60.644531 -1.207031 56.910156 -0.207031 52.984375 0.4375 C 49.066406 1.09375 45.007812 1.421875 40.8125 1.421875 C 35.5625 1.421875 30.675781 0.671875 26.15625 -0.828125 C 21.644531 -2.335938 17.734375 -4.507812 14.421875 -7.34375 C 11.117188 -10.175781 8.523438 -13.660156 6.640625 -17.796875 C 4.753906 -21.929688 3.8125 -26.625 3.8125 -31.875 C 3.8125 -37.125 4.664062 -41.816406 6.375 -45.953125 C 8.082031 -50.085938 10.441406 -53.582031 13.453125 -56.4375 C 16.460938 -59.300781 20.046875 -61.484375 24.203125 -62.984375 C 28.367188 -64.492188 32.929688 -65.25 37.890625 -65.25 C 43.796875 -65.25 48.8125 -64.273438 52.9375 -62.328125 C 57.070312 -60.378906 60.410156 -57.765625 62.953125 -54.484375 C 65.492188 -51.210938 67.335938 -47.421875 68.484375 -43.109375 C 69.640625 -38.804688 70.21875 -34.296875 70.21875 -29.578125 L 70.21875 -25.40625 Z M 50.203125 -37.890625 C 50.203125 -39.722656 49.976562 -41.460938 49.53125 -43.109375 C 49.09375 -44.765625 48.398438 -46.195312 47.453125 -47.40625 C 46.515625 -48.625 45.257812 -49.585938 43.6875 -50.296875 C 42.125 -51.003906 40.253906 -51.359375 38.078125 -51.359375 C 36.066406 -51.359375 34.320312 -51.003906 32.84375 -50.296875 C 31.375 -49.585938 30.132812 -48.625 29.125 -47.40625 C 28.125 -46.195312 27.34375 -44.765625 26.78125 -43.109375 C 26.21875 -41.460938 25.878906 -39.722656 25.765625 -37.890625 Z M 50.203125 -37.890625 "/></g></g></g><g fill="#ffffff" fill-opacity="1"><g transform="translate(1061.743805, 422.858488)"><g/></g></g><g fill="#ffffff" fill-opacity="1"><g transform="translate(303.118235, 571.621622)"><g><path d="M 68.171875 -19.921875 C 68.171875 -16.796875 67.640625 -13.945312 66.578125 -11.375 C 65.515625 -8.8125 64.007812 -6.628906 62.0625 -4.828125 C 60.113281 -3.023438 57.753906 -1.617188 54.984375 -0.609375 C 52.210938 0.390625 49.113281 0.890625 45.6875 0.890625 C 43.09375 0.890625 40.6875 0.625 38.46875 0.09375 C 36.257812 -0.4375 34.207031 -1.160156 32.3125 -2.078125 C 30.425781 -2.992188 28.726562 -4.054688 27.21875 -5.265625 C 25.71875 -6.472656 24.378906 -7.785156 23.203125 -9.203125 L 23.203125 0 L 5.40625 0 L 5.40625 -72.515625 L 13.015625 -72.515625 C 16.140625 -72.515625 18.617188 -71.703125 20.453125 -70.078125 C 22.285156 -68.453125 23.203125 -65.8125 23.203125 -62.15625 L 23.203125 -28.859375 C 23.203125 -27.148438 23.566406 -25.304688 24.296875 -23.328125 C 25.035156 -21.347656 26.082031 -19.53125 27.4375 -17.875 C 28.800781 -16.226562 30.472656 -14.859375 32.453125 -13.765625 C 34.429688 -12.671875 36.660156 -12.125 39.140625 -12.125 C 41.203125 -12.125 42.941406 -12.445312 44.359375 -13.09375 C 45.773438 -13.75 46.925781 -14.664062 47.8125 -15.84375 C 48.695312 -17.03125 49.34375 -18.429688 49.75 -20.046875 C 50.164062 -21.671875 50.375 -23.457031 50.375 -25.40625 L 50.375 -72.515625 L 68.171875 -72.515625 Z M 68.171875 -19.921875 "/></g></g></g><g fill="#ffffff" fill-opacity="1"><g transform="translate(376.68489, 571.621622)"><g><path d="M -5.40625 14.515625 C -5.40625 16.941406 -5.769531 19.113281 -6.5 21.03125 C -7.238281 22.945312 -8.476562 24.566406 -10.21875 25.890625 C -11.96875 27.222656 -14.257812 28.226562 -17.09375 28.90625 C -19.925781 29.582031 -23.40625 29.921875 -27.53125 29.921875 C -31.90625 29.921875 -35.535156 29.609375 -38.421875 28.984375 C -41.316406 28.367188 -43.632812 27.457031 -45.375 26.25 C -47.113281 25.039062 -48.351562 23.566406 -49.09375 21.828125 C -49.832031 20.085938 -50.203125 18.066406 -50.203125 15.765625 L -54.015625 15.765625 L -54.015625 5.40625 L -33.203125 5.40625 L -33.203125 14.515625 C -33.203125 16.171875 -32.757812 17.367188 -31.875 18.109375 C -30.988281 18.847656 -29.78125 19.21875 -28.25 19.21875 C -26.65625 19.21875 -25.414062 18.847656 -24.53125 18.109375 C -23.644531 17.367188 -23.203125 16.171875 -23.203125 14.515625 L -23.203125 5.40625 L -5.40625 5.40625 Z M -5.40625 14.515625 "/></g></g></g><g fill="#ffffff" fill-opacity="1"><g transform="translate(376.68489, 571.621622)"><g><path d="M 49.671875 0 L 49.671875 -29.578125 C 49.492188 -29.984375 49.066406 -30.523438 48.390625 -31.203125 C 47.710938 -31.890625 46.765625 -32.554688 45.546875 -33.203125 C 44.335938 -33.847656 42.890625 -34.390625 41.203125 -34.828125 C 39.523438 -35.273438 37.625 -35.5 35.5 -35.5 C 33.375 -35.5 31.425781 -35.203125 29.65625 -34.609375 C 27.882812 -34.023438 26.363281 -33.226562 25.09375 -32.21875 C 23.832031 -31.21875 22.847656 -30.023438 22.140625 -28.640625 C 21.429688 -27.253906 21.078125 -25.734375 21.078125 -24.078125 C 21.078125 -21.660156 21.632812 -19.671875 22.75 -18.109375 C 23.875 -16.546875 25.289062 -15.378906 27 -14.609375 C 28.71875 -13.835938 30.578125 -13.453125 32.578125 -13.453125 C 34.585938 -13.453125 36.476562 -13.804688 38.25 -14.515625 L 38.25 -0.171875 C 32.34375 1.003906 27.207031 1.132812 22.84375 0.21875 C 18.476562 -0.695312 14.863281 -2.316406 12 -4.640625 C 9.132812 -6.972656 6.992188 -9.851562 5.578125 -13.28125 C 4.160156 -16.707031 3.453125 -20.367188 3.453125 -24.265625 C 3.453125 -27.679688 4.070312 -30.96875 5.3125 -34.125 C 6.550781 -37.289062 8.378906 -40.082031 10.796875 -42.5 C 13.222656 -44.914062 16.265625 -46.863281 19.921875 -48.34375 C 23.578125 -49.820312 27.828125 -50.5625 32.671875 -50.5625 C 37.210938 -50.5625 40.914062 -50.070312 43.78125 -49.09375 C 46.644531 -48.125 48.609375 -47.164062 49.671875 -46.21875 L 49.671875 -50.03125 C 49.671875 -51.675781 49.316406 -53.148438 48.609375 -54.453125 C 47.898438 -55.753906 46.953125 -56.875 45.765625 -57.8125 C 44.585938 -58.757812 43.171875 -59.484375 41.515625 -59.984375 C 39.867188 -60.484375 38.128906 -60.734375 36.296875 -60.734375 C 32.460938 -60.734375 29.347656 -59.863281 26.953125 -58.125 C 24.566406 -56.382812 23.019531 -54.242188 22.3125 -51.703125 L 4.15625 -51.703125 C 4.457031 -54.359375 5.359375 -57.015625 6.859375 -59.671875 C 8.367188 -62.328125 10.453125 -64.71875 13.109375 -66.84375 C 15.765625 -68.96875 18.992188 -70.691406 22.796875 -72.015625 C 26.609375 -73.347656 30.992188 -74.015625 35.953125 -74.015625 C 41.265625 -74.015625 45.894531 -73.4375 49.84375 -72.28125 C 53.800781 -71.132812 57.09375 -69.53125 59.71875 -67.46875 C 62.34375 -65.40625 64.289062 -62.957031 65.5625 -60.125 C 66.832031 -57.289062 67.46875 -54.160156 67.46875 -50.734375 L 67.46875 0 Z M 49.671875 0 "/></g></g></g><g fill="#ffffff" fill-opacity="1"><g transform="translate(449.543322, 571.621622)"><g><path d="M 50.375 0 L 50.375 -49.140625 C 50.375 -51.328125 49.972656 -53.15625 49.171875 -54.625 C 48.378906 -56.101562 47.347656 -57.300781 46.078125 -58.21875 C 44.816406 -59.132812 43.359375 -59.78125 41.703125 -60.15625 C 40.046875 -60.539062 38.363281 -60.734375 36.65625 -60.734375 C 35.125 -60.734375 33.5625 -60.539062 31.96875 -60.15625 C 30.375 -59.78125 28.925781 -59.132812 27.625 -58.21875 C 26.320312 -57.300781 25.257812 -56.101562 24.4375 -54.625 C 23.613281 -53.15625 23.203125 -51.328125 23.203125 -49.140625 L 23.203125 -41.703125 L 38.421875 -41.703125 L 38.421875 -25.9375 L 23.203125 -25.9375 L 23.203125 0 L 5.40625 0 L 5.40625 -49.671875 C 5.40625 -52.921875 6.007812 -56.003906 7.21875 -58.921875 C 8.425781 -61.847656 10.285156 -64.429688 12.796875 -66.671875 C 15.304688 -68.910156 18.535156 -70.691406 22.484375 -72.015625 C 26.441406 -73.347656 31.164062 -74.015625 36.65625 -74.015625 C 42.207031 -74.015625 46.957031 -73.347656 50.90625 -72.015625 C 54.863281 -70.691406 58.125 -68.910156 60.6875 -66.671875 C 63.257812 -64.429688 65.148438 -61.847656 66.359375 -58.921875 C 67.566406 -56.003906 68.171875 -52.921875 68.171875 -49.671875 L 68.171875 0 Z M 50.375 0 "/></g></g></g><g fill="#ffffff" fill-opacity="1"><g transform="translate(523.109978, 571.621622)"><g><path d="M -23.203125 -81.640625 L -23.203125 -103.328125 L -5.40625 -103.328125 L -5.40625 -81.640625 Z M -23.203125 -81.640625 "/></g></g></g><g fill="#ffffff" fill-opacity="1"><g transform="translate(523.109978, 571.621622)"><g><path d="M 25.765625 0 L 25.765625 -41 C 25.765625 -43.175781 25.453125 -45.222656 24.828125 -47.140625 C 24.210938 -49.066406 23.285156 -50.722656 22.046875 -52.109375 C 20.804688 -53.492188 19.238281 -54.582031 17.34375 -55.375 C 15.457031 -56.175781 13.25 -56.578125 10.71875 -56.578125 L 1.765625 -56.578125 L 1.765625 -72.515625 L 13.984375 -72.515625 C 19.066406 -72.515625 23.46875 -71.742188 27.1875 -70.203125 C 30.90625 -68.671875 33.972656 -66.5625 36.390625 -63.875 C 38.804688 -61.195312 40.601562 -58.039062 41.78125 -54.40625 C 42.96875 -50.78125 43.5625 -46.898438 43.5625 -42.765625 L 43.5625 0 Z M 25.765625 0 "/></g></g></g><g fill="#ffffff" fill-opacity="1"><g transform="translate(572.065887, 571.621622)"><g/></g></g><g fill="#ffffff" fill-opacity="1"><g transform="translate(626.421997, 571.621622)"><g><path d="M 34.265625 0 L 34.265625 -62.78125 L 18.15625 -51.171875 L 7.96875 -66.578125 L 37.015625 -85.4375 L 57.109375 -85.4375 L 57.109375 0 Z M 34.265625 0 "/></g></g></g><g fill="#ffffff" fill-opacity="1"><g transform="translate(701.316571, 571.621622)"><g><path d="M 17.09375 13.453125 L 0.171875 13.453125 L 8.5 -19.75 L 29.046875 -19.75 Z M 17.09375 13.453125 "/></g></g></g><g fill="#ffffff" fill-opacity="1"><g transform="translate(738.852387, 571.621622)"><g><path d="M 70.5625 -42.765625 C 70.5625 -39.046875 70.398438 -35.367188 70.078125 -31.734375 C 69.753906 -28.109375 69.148438 -24.65625 68.265625 -21.375 C 67.378906 -18.101562 66.15625 -15.078125 64.59375 -12.296875 C 63.03125 -9.523438 61.019531 -7.117188 58.5625 -5.078125 C 56.113281 -3.046875 53.160156 -1.453125 49.703125 -0.296875 C 46.253906 0.847656 42.203125 1.421875 37.546875 1.421875 C 30.460938 1.421875 24.75 0.164062 20.40625 -2.34375 C 16.070312 -4.851562 12.707031 -8.171875 10.3125 -12.296875 C 7.925781 -16.429688 6.332031 -21.140625 5.53125 -26.421875 C 4.738281 -31.710938 4.34375 -37.160156 4.34375 -42.765625 C 4.34375 -46.484375 4.503906 -50.140625 4.828125 -53.734375 C 5.148438 -57.335938 5.753906 -60.773438 6.640625 -64.046875 C 7.523438 -67.328125 8.75 -70.351562 10.3125 -73.125 C 11.875 -75.90625 13.878906 -78.3125 16.328125 -80.34375 C 18.785156 -82.382812 21.753906 -83.976562 25.234375 -85.125 C 28.710938 -86.28125 32.816406 -86.859375 37.546875 -86.859375 C 42.203125 -86.859375 46.253906 -86.28125 49.703125 -85.125 C 53.160156 -83.976562 56.113281 -82.382812 58.5625 -80.34375 C 61.019531 -78.3125 63.03125 -75.90625 64.59375 -73.125 C 66.15625 -70.351562 67.378906 -67.328125 68.265625 -64.046875 C 69.148438 -60.773438 69.753906 -57.320312 70.078125 -53.6875 C 70.398438 -50.0625 70.5625 -46.421875 70.5625 -42.765625 Z M 48.609375 -42.765625 C 48.609375 -46.128906 48.503906 -49.507812 48.296875 -52.90625 C 48.085938 -56.300781 47.613281 -59.367188 46.875 -62.109375 C 46.144531 -64.859375 45.039062 -67.101562 43.5625 -68.84375 C 42.082031 -70.582031 40.078125 -71.453125 37.546875 -71.453125 C 34.941406 -71.453125 32.882812 -70.582031 31.375 -68.84375 C 29.875 -67.101562 28.753906 -64.859375 28.015625 -62.109375 C 27.285156 -59.367188 26.816406 -56.300781 26.609375 -52.90625 C 26.398438 -49.507812 26.296875 -46.128906 26.296875 -42.765625 C 26.296875 -39.398438 26.398438 -36.003906 26.609375 -32.578125 C 26.816406 -29.160156 27.285156 -26.078125 28.015625 -23.328125 C 28.753906 -20.585938 29.875 -18.34375 31.375 -16.59375 C 32.882812 -14.851562 34.941406 -13.984375 37.546875 -13.984375 C 40.078125 -13.984375 42.082031 -14.851562 43.5625 -16.59375 C 45.039062 -18.34375 46.144531 -20.585938 46.875 -23.328125 C 47.613281 -26.078125 48.085938 -29.160156 48.296875 -32.578125 C 48.503906 -36.003906 48.609375 -39.398438 48.609375 -42.765625 Z M 48.609375 -42.765625 "/></g></g></g><g fill="#ffffff" fill-opacity="1"><g transform="translate(813.746961, 571.621622)"><g><path d="M 70.5625 -42.765625 C 70.5625 -39.046875 70.398438 -35.367188 70.078125 -31.734375 C 69.753906 -28.109375 69.148438 -24.65625 68.265625 -21.375 C 67.378906 -18.101562 66.15625 -15.078125 64.59375 -12.296875 C 63.03125 -9.523438 61.019531 -7.117188 58.5625 -5.078125 C 56.113281 -3.046875 53.160156 -1.453125 49.703125 -0.296875 C 46.253906 0.847656 42.203125 1.421875 37.546875 1.421875 C 30.460938 1.421875 24.75 0.164062 20.40625 -2.34375 C 16.070312 -4.851562 12.707031 -8.171875 10.3125 -12.296875 C 7.925781 -16.429688 6.332031 -21.140625 5.53125 -26.421875 C 4.738281 -31.710938 4.34375 -37.160156 4.34375 -42.765625 C 4.34375 -46.484375 4.503906 -50.140625 4.828125 -53.734375 C 5.148438 -57.335938 5.753906 -60.773438 6.640625 -64.046875 C 7.523438 -67.328125 8.75 -70.351562 10.3125 -73.125 C 11.875 -75.90625 13.878906 -78.3125 16.328125 -80.34375 C 18.785156 -82.382812 21.753906 -83.976562 25.234375 -85.125 C 28.710938 -86.28125 32.816406 -86.859375 37.546875 -86.859375 C 42.203125 -86.859375 46.253906 -86.28125 49.703125 -85.125 C 53.160156 -83.976562 56.113281 -82.382812 58.5625 -80.34375 C 61.019531 -78.3125 63.03125 -75.90625 64.59375 -73.125 C 66.15625 -70.351562 67.378906 -67.328125 68.265625 -64.046875 C 69.148438 -60.773438 69.753906 -57.320312 70.078125 -53.6875 C 70.398438 -50.0625 70.5625 -46.421875 70.5625 -42.765625 Z M 48.609375 -42.765625 C 48.609375 -46.128906 48.503906 -49.507812 48.296875 -52.90625 C 48.085938 -56.300781 47.613281 -59.367188 46.875 -62.109375 C 46.144531 -64.859375 45.039062 -67.101562 43.5625 -68.84375 C 42.082031 -70.582031 40.078125 -71.453125 37.546875 -71.453125 C 34.941406 -71.453125 32.882812 -70.582031 31.375 -68.84375 C 29.875 -67.101562 28.753906 -64.859375 28.015625 -62.109375 C 27.285156 -59.367188 26.816406 -56.300781 26.609375 -52.90625 C 26.398438 -49.507812 26.296875 -46.128906 26.296875 -42.765625 C 26.296875 -39.398438 26.398438 -36.003906 26.609375 -32.578125 C 26.816406 -29.160156 27.285156 -26.078125 28.015625 -23.328125 C 28.753906 -20.585938 29.875 -18.34375 31.375 -16.59375 C 32.882812 -14.851562 34.941406 -13.984375 37.546875 -13.984375 C 40.078125 -13.984375 42.082031 -14.851562 43.5625 -16.59375 C 45.039062 -18.34375 46.144531 -20.585938 46.875 -23.328125 C 47.613281 -26.078125 48.085938 -29.160156 48.296875 -32.578125 C 48.503906 -36.003906 48.609375 -39.398438 48.609375 -42.765625 Z M 48.609375 -42.765625 "/></g></g></g><g fill="#ffffff" fill-opacity="1"><g transform="translate(888.641536, 571.621622)"><g><path d="M 70.5625 -42.765625 C 70.5625 -39.046875 70.398438 -35.367188 70.078125 -31.734375 C 69.753906 -28.109375 69.148438 -24.65625 68.265625 -21.375 C 67.378906 -18.101562 66.15625 -15.078125 64.59375 -12.296875 C 63.03125 -9.523438 61.019531 -7.117188 58.5625 -5.078125 C 56.113281 -3.046875 53.160156 -1.453125 49.703125 -0.296875 C 46.253906 0.847656 42.203125 1.421875 37.546875 1.421875 C 30.460938 1.421875 24.75 0.164062 20.40625 -2.34375 C 16.070312 -4.851562 12.707031 -8.171875 10.3125 -12.296875 C 7.925781 -16.429688 6.332031 -21.140625 5.53125 -26.421875 C 4.738281 -31.710938 4.34375 -37.160156 4.34375 -42.765625 C 4.34375 -46.484375 4.503906 -50.140625 4.828125 -53.734375 C 5.148438 -57.335938 5.753906 -60.773438 6.640625 -64.046875 C 7.523438 -67.328125 8.75 -70.351562 10.3125 -73.125 C 11.875 -75.90625 13.878906 -78.3125 16.328125 -80.34375 C 18.785156 -82.382812 21.753906 -83.976562 25.234375 -85.125 C 28.710938 -86.28125 32.816406 -86.859375 37.546875 -86.859375 C 42.203125 -86.859375 46.253906 -86.28125 49.703125 -85.125 C 53.160156 -83.976562 56.113281 -82.382812 58.5625 -80.34375 C 61.019531 -78.3125 63.03125 -75.90625 64.59375 -73.125 C 66.15625 -70.351562 67.378906 -67.328125 68.265625 -64.046875 C 69.148438 -60.773438 69.753906 -57.320312 70.078125 -53.6875 C 70.398438 -50.0625 70.5625 -46.421875 70.5625 -42.765625 Z M 48.609375 -42.765625 C 48.609375 -46.128906 48.503906 -49.507812 48.296875 -52.90625 C 48.085938 -56.300781 47.613281 -59.367188 46.875 -62.109375 C 46.144531 -64.859375 45.039062 -67.101562 43.5625 -68.84375 C 42.082031 -70.582031 40.078125 -71.453125 37.546875 -71.453125 C 34.941406 -71.453125 32.882812 -70.582031 31.375 -68.84375 C 29.875 -67.101562 28.753906 -64.859375 28.015625 -62.109375 C 27.285156 -59.367188 26.816406 -56.300781 26.609375 -52.90625 C 26.398438 -49.507812 26.296875 -46.128906 26.296875 -42.765625 C 26.296875 -39.398438 26.398438 -36.003906 26.609375 -32.578125 C 26.816406 -29.160156 27.285156 -26.078125 28.015625 -23.328125 C 28.753906 -20.585938 29.875 -18.34375 31.375 -16.59375 C 32.882812 -14.851562 34.941406 -13.984375 37.546875 -13.984375 C 40.078125 -13.984375 42.082031 -14.851562 43.5625 -16.59375 C 45.039062 -18.34375 46.144531 -20.585938 46.875 -23.328125 C 47.613281 -26.078125 48.085938 -29.160156 48.296875 -32.578125 C 48.503906 -36.003906 48.609375 -39.398438 48.609375 -42.765625 Z M 48.609375 -42.765625 "/></g></g></g><g fill="#ffffff" fill-opacity="1"><g transform="translate(963.53611, 571.621622)"><g><path d="M 3.8125 -24.875 L 3.8125 -41 L 37.015625 -41 L 37.015625 -24.875 Z M 3.8125 -24.875 "/></g></g></g><g clip-path="url(#c249904a94)"><g clip-path="url(#e27126b51e)"><g clip-path="url(#2fa0397385)"><path fill="#ffd900" d="M 90.722656 77.117188 L 411.136719 0 L 482.269531 295.546875 L 161.851562 372.664062 Z M 90.722656 77.117188 " fill-opacity="1" fill-rule="nonzero"/></g></g></g><g clip-path="url(#348189076f)"><g clip-path="url(#94d60d50e2)"><g fill="#000000" fill-opacity="1"><g transform="translate(191.419347, 236.213267)"><g><path d="M 20.484375 -4.15625 C 16.171875 -3.113281 12.597656 -3.191406 9.765625 -4.390625 C 6.929688 -5.585938 4.65625 -7.660156 2.9375 -10.609375 C 1.226562 -13.554688 -0.128906 -17.144531 -1.140625 -21.375 C -2.835938 -28.40625 -3.023438 -33.773438 -1.703125 -37.484375 C -0.390625 -41.191406 2.328125 -43.539062 6.453125 -44.53125 C 8.160156 -44.9375 9.734375 -44.96875 11.171875 -44.625 C 12.617188 -44.28125 13.9375 -43.332031 15.125 -41.78125 L 15.421875 -41.84375 C 15.671875 -43.800781 16.492188 -45.28125 17.890625 -46.28125 C 19.296875 -47.289062 20.898438 -48.007812 22.703125 -48.4375 C 26.035156 -49.238281 28.753906 -48.945312 30.859375 -47.5625 C 32.972656 -46.175781 34.445312 -43.757812 35.28125 -40.3125 L 42.515625 -10.234375 L 31.59375 -7.609375 L 24.84375 -35.640625 C 24.476562 -37.148438 23.988281 -38.109375 23.375 -38.515625 C 22.769531 -38.929688 22.054688 -39.039062 21.234375 -38.84375 C 20.316406 -38.625 19.6875 -38.191406 19.34375 -37.546875 C 19.007812 -36.910156 18.925781 -35.9375 19.09375 -34.625 L 14.796875 -33.59375 C 14.265625 -34.90625 13.675781 -35.738281 13.03125 -36.09375 C 12.382812 -36.457031 11.695312 -36.550781 10.96875 -36.375 C 9.695312 -36.070312 8.957031 -34.96875 8.75 -33.0625 C 8.550781 -31.164062 8.953125 -28.132812 9.953125 -23.96875 C 10.941406 -19.84375 12.1875 -16.789062 13.6875 -14.8125 C 15.1875 -12.832031 17.34375 -12.179688 20.15625 -12.859375 C 21.332031 -13.140625 22.25 -13.507812 22.90625 -13.96875 L 25.875 -6.453125 C 24.46875 -5.441406 22.671875 -4.675781 20.484375 -4.15625 Z M 20.484375 -4.15625 "/></g></g></g></g></g><g clip-path="url(#d00a1a2bcb)"><g clip-path="url(#b7c4a1a3c8)"><g fill="#000000" fill-opacity="1"><g transform="translate(238.019489, 224.99758)"><g><path d="M -27.171875 -41.53125 L -31.140625 -58.0625 L -21.09375 -60.484375 L -17.125 -43.953125 Z M -27.171875 -41.53125 "/></g></g></g></g></g><g clip-path="url(#a2d3e83ea3)"><g clip-path="url(#85365d9ad4)"><g fill="#000000" fill-opacity="1"><g transform="translate(239.038818, 224.752248)"><g><path d="M 21.203125 -4.109375 C 15.285156 -2.679688 10.546875 -3.066406 6.984375 -5.265625 C 3.421875 -7.460938 0.957031 -11.398438 -0.40625 -17.078125 C -0.625 -18.003906 -0.867188 -19.175781 -1.140625 -20.59375 C -1.410156 -22.019531 -1.597656 -23.285156 -1.703125 -24.390625 L 15.765625 -28.59375 L 17.421875 -21.6875 L 10.21875 -19.953125 L 10.46875 -18.9375 C 11.164062 -16.019531 12.21875 -14.023438 13.625 -12.953125 C 15.039062 -11.878906 16.894531 -11.617188 19.1875 -12.171875 C 21.601562 -12.753906 23.289062 -14.054688 24.25 -16.078125 C 25.207031 -18.109375 25.128906 -21.429688 24.015625 -26.046875 C 22.972656 -30.359375 21.425781 -33.410156 19.375 -35.203125 C 17.320312 -36.992188 14.304688 -37.410156 10.328125 -36.453125 C 8.140625 -35.929688 5.960938 -35.050781 3.796875 -33.8125 C 1.640625 -32.570312 -0.09375 -31.351562 -1.40625 -30.15625 L -3.59375 -39.265625 C -2.226562 -40.460938 -0.257812 -41.664062 2.3125 -42.875 C 4.894531 -44.09375 7.546875 -45.03125 10.265625 -45.6875 C 14.972656 -46.8125 18.976562 -46.863281 22.28125 -45.84375 C 25.582031 -44.820312 28.28125 -42.890625 30.375 -40.046875 C 32.46875 -37.210938 34.035156 -33.640625 35.078125 -29.328125 C 36.679688 -22.671875 36.429688 -17.203125 34.328125 -12.921875 C 32.222656 -8.648438 27.847656 -5.710938 21.203125 -4.109375 Z M 21.203125 -4.109375 "/></g></g></g></g></g><g clip-path="url(#1a8705f980)"><g clip-path="url(#6eaf3f4814)"><g fill="#000000" fill-opacity="1"><g transform="translate(282.21672, 214.360224)"><g><path d="M 5.609375 -1.34375 L -4 -41.25 L 4 -43.1875 L 6.96875 -37.265625 L 7.546875 -37.40625 C 7.898438 -39.59375 8.9375 -41.597656 10.65625 -43.421875 C 12.375 -45.253906 14.859375 -46.5625 18.109375 -47.34375 C 27.378906 -49.570312 33.210938 -45.710938 35.609375 -35.765625 L 41.796875 -10.0625 L 30.875 -7.421875 L 25.21875 -30.9375 C 24.5625 -33.664062 23.546875 -35.488281 22.171875 -36.40625 C 20.796875 -37.332031 19.054688 -37.546875 16.953125 -37.046875 C 14.429688 -36.429688 12.722656 -34.941406 11.828125 -32.578125 C 10.941406 -30.210938 10.976562 -27.039062 11.9375 -23.0625 L 16.53125 -3.984375 Z M 5.609375 -1.34375 "/></g></g></g></g></g><g clip-path="url(#648a53b0d7)"><g clip-path="url(#360205d84a)"><g fill="#000000" fill-opacity="1"><g transform="translate(327.873012, 203.063573)"><g><path d="M -50.046875 -36.03125 L -51.15625 -40.625 L -44.53125 -45.4375 L -27.84375 -49.453125 L -29.046875 -54.484375 L -19.734375 -56.71875 L -16.6875 -44.046875 Z M -50.046875 -36.03125 "/></g></g><g transform="translate(327.873012, 203.063573)"><g><path d="M -30.046875 -58.328125 L -33.3125 -71.859375 L -23.859375 -74.125 L -20.59375 -60.59375 Z M -30.046875 -58.328125 "/></g></g></g></g></g><g clip-path="url(#2b5e05aad3)"><g clip-path="url(#8a64a4d54f)"><g fill="#000000" fill-opacity="1"><g transform="translate(329.108065, 203.07445)"><g/></g></g></g></g><g clip-path="url(#c18fc774c1)"><g clip-path="url(#0bb936f61d)"><g fill="#000000" fill-opacity="1"><g transform="translate(344.544349, 199.359257)"><g><path d="M 1.28125 -10.328125 L -1.140625 -20.375 L 13.9375 -58.8125 L 27.859375 -62.171875 L 35.609375 -29.984375 L 41.578125 -31.421875 L 44.171875 -20.65625 L 38.203125 -19.21875 L 40.484375 -9.75 L 28.03125 -6.75 L 25.75 -16.21875 Z M 19.578125 -45.6875 L 11.8125 -24.25 L 24.03125 -27.1875 Z M 19.578125 -45.6875 "/></g></g></g></g></g></svg>