<svg xmlns="http://www.w3.org/2000/svg" xmlns:xlink="http://www.w3.org/1999/xlink" width="500" zoomAndPan="magnify" viewBox="0 0 375 374.999991" height="500" preserveAspectRatio="xMidYMid meet" version="1.0"><defs><g/><clipPath id="a0f5ae42e0"><path d="M 41 41 L 334 41 L 334 334 L 41 334 Z M 41 41 " clip-rule="nonzero"/></clipPath><clipPath id="c8e2ca1f1c"><path d="M 6.734375 76.71875 L 298.242188 6.558594 L 368.398438 298.0625 L 76.894531 368.222656 Z M 6.734375 76.71875 " clip-rule="nonzero"/></clipPath><clipPath id="a7dd5534d6"><path d="M 152.488281 41.636719 L 205.09375 76.328125 L 265.824219 59.523438 L 278.492188 121.25 L 333.320312 152.308594 L 298.628906 204.914062 L 315.433594 265.648438 L 253.707031 278.316406 L 222.648438 333.140625 L 170.042969 298.453125 L 109.308594 315.257812 L 96.640625 253.53125 L 41.816406 222.46875 L 76.503906 169.863281 L 59.699219 109.132812 L 121.425781 96.464844 L 152.488281 41.636719 " clip-rule="nonzero"/></clipPath><clipPath id="00bae7b988"><path d="M 103 185 L 144 185 L 144 229 L 103 229 Z M 103 185 " clip-rule="nonzero"/></clipPath><clipPath id="ff80753212"><path d="M 62.824219 111.046875 L 263.347656 62.78125 L 311.609375 263.308594 L 111.085938 311.570312 Z M 62.824219 111.046875 " clip-rule="nonzero"/></clipPath><clipPath id="51ef861638"><path d="M 124 167 L 133 167 L 133 182 L 124 182 Z M 124 167 " clip-rule="nonzero"/></clipPath><clipPath id="305cca6e89"><path d="M 62.824219 111.046875 L 263.347656 62.78125 L 311.609375 263.308594 L 111.085938 311.570312 Z M 62.824219 111.046875 " clip-rule="nonzero"/></clipPath><clipPath id="a476cf48ca"><path d="M 143 176 L 181 176 L 181 219 L 143 219 Z M 143 176 " clip-rule="nonzero"/></clipPath><clipPath id="4cf767a7e6"><path d="M 62.824219 111.046875 L 263.347656 62.78125 L 311.609375 263.308594 L 111.085938 311.570312 Z M 62.824219 111.046875 " clip-rule="nonzero"/></clipPath><clipPath id="a91853eaca"><path d="M 181 167 L 219 167 L 219 210 L 181 210 Z M 181 167 " clip-rule="nonzero"/></clipPath><clipPath id="24e9df3208"><path d="M 62.824219 111.046875 L 263.347656 62.78125 L 311.609375 263.308594 L 111.085938 311.570312 Z M 62.824219 111.046875 " clip-rule="nonzero"/></clipPath><clipPath id="65d673951f"><path d="M 178 138 L 208 138 L 208 170 L 178 170 Z M 178 138 " clip-rule="nonzero"/></clipPath><clipPath id="d813f6449c"><path d="M 62.824219 111.046875 L 263.347656 62.78125 L 311.609375 263.308594 L 111.085938 311.570312 Z M 62.824219 111.046875 " clip-rule="nonzero"/></clipPath><clipPath id="67d64dd038"><path d="M 223 201 L 224 201 L 224 202 L 223 202 Z M 223 201 " clip-rule="nonzero"/></clipPath><clipPath id="ba562bbd3f"><path d="M 62.824219 111.046875 L 263.347656 62.78125 L 311.609375 263.308594 L 111.085938 311.570312 Z M 62.824219 111.046875 " clip-rule="nonzero"/></clipPath><clipPath id="f1b0c06917"><path d="M 231 148 L 255 148 L 255 197 L 231 197 Z M 231 148 " clip-rule="nonzero"/></clipPath><clipPath id="2b4d01dac6"><path d="M 62.824219 111.046875 L 263.347656 62.78125 L 311.609375 263.308594 L 111.085938 311.570312 Z M 62.824219 111.046875 " clip-rule="nonzero"/></clipPath><clipPath id="ccc5765667"><path d="M 260 192 L 261 192 L 261 193 L 260 193 Z M 260 192 " clip-rule="nonzero"/></clipPath><clipPath id="c14a88b777"><path d="M 62.824219 111.046875 L 263.347656 62.78125 L 311.609375 263.308594 L 111.085938 311.570312 Z M 62.824219 111.046875 " clip-rule="nonzero"/></clipPath></defs><g clip-path="url(#a0f5ae42e0)"><g clip-path="url(#c8e2ca1f1c)"><g clip-path="url(#a7dd5534d6)"><path fill="#ffd900" d="M 6.734375 76.71875 L 298.242188 6.558594 L 368.398438 298.0625 L 76.894531 368.222656 Z M 6.734375 76.71875 " fill-opacity="1" fill-rule="nonzero"/></g></g></g><g clip-path="url(#00bae7b988)"><g clip-path="url(#ff80753212)"><g fill="#000000" fill-opacity="1"><g transform="translate(108.220829, 228.945818)"><g><path d="M 17.53125 -3.546875 C 14 -2.691406 11.066406 -2.84375 8.734375 -4 C 6.410156 -5.15625 4.53125 -7.039062 3.09375 -9.65625 C 1.65625 -12.28125 0.503906 -15.382812 -0.359375 -18.96875 C -1.835938 -25.113281 -2.023438 -29.734375 -0.921875 -32.828125 C 0.179688 -35.929688 2.378906 -37.878906 5.671875 -38.671875 C 7.140625 -39.023438 8.445312 -39.070312 9.59375 -38.8125 C 10.75 -38.550781 11.679688 -37.890625 12.390625 -36.828125 L 12.65625 -36.890625 C 12.789062 -38.148438 13.34375 -39.164062 14.3125 -39.9375 C 15.289062 -40.71875 16.519531 -41.285156 18 -41.640625 C 20.726562 -42.296875 23.019531 -42.066406 24.875 -40.953125 C 26.726562 -39.835938 28.007812 -37.804688 28.71875 -34.859375 L 35.078125 -8.4375 L 29.453125 -7.09375 L 23.109375 -33.453125 C 22.710938 -35.085938 22.082031 -36.109375 21.21875 -36.515625 C 20.363281 -36.929688 19.390625 -37.007812 18.296875 -36.75 C 17.066406 -36.457031 16.238281 -35.945312 15.8125 -35.21875 C 15.394531 -34.5 15.285156 -33.453125 15.484375 -32.078125 L 11.9375 -31.21875 C 11.414062 -32.644531 10.734375 -33.535156 9.890625 -33.890625 C 9.046875 -34.242188 8.179688 -34.316406 7.296875 -34.109375 C 5.617188 -33.703125 4.59375 -32.40625 4.21875 -30.21875 C 3.84375 -28.039062 4.195312 -24.71875 5.28125 -20.25 C 5.976562 -17.34375 6.800781 -14.898438 7.75 -12.921875 C 8.695312 -10.953125 9.910156 -9.566406 11.390625 -8.765625 C 12.878906 -7.960938 14.785156 -7.835938 17.109375 -8.390625 C 17.953125 -8.597656 18.632812 -8.804688 19.15625 -9.015625 C 19.6875 -9.234375 20.1875 -9.46875 20.65625 -9.71875 L 22.25 -5.5625 C 21.695312 -5.101562 20.992188 -4.703125 20.140625 -4.359375 C 19.285156 -4.023438 18.414062 -3.753906 17.53125 -3.546875 Z M 17.53125 -3.546875 "/></g></g></g></g></g><g clip-path="url(#51ef861638)"><g clip-path="url(#305cca6e89)"><g fill="#000000" fill-opacity="1"><g transform="translate(148.157259, 219.333948)"><g><path d="M -20.890625 -37.4375 L -24.09375 -50.75 L -18.546875 -52.078125 L -15.34375 -38.765625 Z M -20.890625 -37.4375 "/></g></g></g></g></g><g clip-path="url(#a476cf48ca)"><g clip-path="url(#4cf767a7e6)"><g fill="#000000" fill-opacity="1"><g transform="translate(148.408326, 219.273521)"><g><path d="M 17.53125 -3.546875 C 12.988281 -2.453125 9.304688 -2.8125 6.484375 -4.625 C 3.660156 -6.4375 1.628906 -9.914062 0.390625 -15.0625 C 0.179688 -15.90625 -0.00390625 -16.828125 -0.171875 -17.828125 C -0.347656 -18.835938 -0.515625 -19.835938 -0.671875 -20.828125 L 12.59375 -24.03125 L 13.65625 -19.609375 L 5.703125 -17.6875 L 6.015625 -16.421875 C 6.660156 -13.734375 7.453125 -11.71875 8.390625 -10.375 C 9.335938 -9.039062 10.460938 -8.21875 11.765625 -7.90625 C 13.066406 -7.601562 14.582031 -7.660156 16.3125 -8.078125 C 18.207031 -8.535156 19.765625 -9.285156 20.984375 -10.328125 C 22.203125 -11.378906 22.957031 -12.945312 23.25 -15.03125 C 23.550781 -17.113281 23.273438 -19.921875 22.421875 -23.453125 C 21.304688 -28.085938 19.695312 -31.304688 17.59375 -33.109375 C 15.488281 -34.921875 12.5 -35.359375 8.625 -34.421875 C 6.601562 -33.941406 4.738281 -33.21875 3.03125 -32.25 C 1.320312 -31.28125 -0.253906 -30.113281 -1.703125 -28.75 L -2.96875 -33.984375 C -1.863281 -34.960938 -0.335938 -35.941406 1.609375 -36.921875 C 3.554688 -37.910156 5.753906 -38.695312 8.203125 -39.28125 C 11.898438 -40.175781 15.078125 -40.148438 17.734375 -39.203125 C 20.398438 -38.265625 22.585938 -36.5625 24.296875 -34.09375 C 26.003906 -31.625 27.300781 -28.535156 28.1875 -24.828125 C 29.082031 -21.117188 29.359375 -17.820312 29.015625 -14.9375 C 28.679688 -12.0625 27.597656 -9.660156 25.765625 -7.734375 C 23.941406 -5.816406 21.195312 -4.421875 17.53125 -3.546875 Z M 17.53125 -3.546875 "/></g></g></g></g></g><g clip-path="url(#a91853eaca)"><g clip-path="url(#24e9df3208)"><g fill="#000000" fill-opacity="1"><g transform="translate(184.678172, 210.544122)"><g><path d="M 5.296875 -1.28125 L -3.046875 -35.921875 L 0.875 -36.859375 L 3.21875 -31.609375 L 3.484375 -31.671875 C 3.734375 -33.734375 4.675781 -35.539062 6.3125 -37.09375 C 7.945312 -38.644531 10.113281 -39.742188 12.8125 -40.390625 C 16.5625 -41.296875 19.738281 -41.035156 22.34375 -39.609375 C 24.957031 -38.191406 26.773438 -35.378906 27.796875 -31.171875 L 33.359375 -8.03125 L 27.734375 -6.671875 L 22.25 -29.484375 C 21.007812 -34.617188 17.882812 -36.582031 12.875 -35.375 C 10.894531 -34.90625 9.320312 -34.035156 8.15625 -32.765625 C 6.988281 -31.503906 6.238281 -30 5.90625 -28.25 C 5.570312 -26.5 5.640625 -24.632812 6.109375 -22.65625 L 10.9375 -2.625 Z M 5.296875 -1.28125 "/></g></g></g></g></g><g clip-path="url(#65d673951f)"><g clip-path="url(#d813f6449c)"><g fill="#000000" fill-opacity="1"><g transform="translate(222.97165, 201.327677)"><g><path d="M -42.140625 -32.328125 L -42.734375 -34.78125 L -38.609375 -37.90625 L -21.609375 -41.984375 L -22.84375 -47.109375 L -17.53125 -48.390625 L -15.8125 -41.25 L -15.875 -41.234375 L -15.28125 -38.78125 Z M -42.140625 -32.328125 "/></g></g><g transform="translate(222.97165, 201.327677)"><g><path d="M -23.796875 -50.828125 L -26.28125 -61.125 L -20.90625 -62.40625 L -18.421875 -52.109375 Z M -23.796875 -50.828125 "/></g></g></g></g></g><g clip-path="url(#67d64dd038)"><g clip-path="url(#ba562bbd3f)"><g fill="#000000" fill-opacity="1"><g transform="translate(223.159596, 201.282442)"><g/></g></g></g></g><g clip-path="url(#f1b0c06917)"><g clip-path="url(#2b4d01dac6)"><g fill="#000000" fill-opacity="1"><g transform="translate(240.030759, 197.221904)"><g><path d="M -7.328125 -41.015625 L -8.59375 -46.265625 L 3.28125 -49.125 L 14.28125 -3.4375 L 8.46875 -2.03125 L -1.265625 -42.46875 Z M -7.328125 -41.015625 "/></g></g></g></g></g><g clip-path="url(#ccc5765667)"><g clip-path="url(#c14a88b777)"><g fill="#000000" fill-opacity="1"><g transform="translate(260.243029, 192.35723)"><g/></g></g></g></g></svg>