<svg xmlns="http://www.w3.org/2000/svg" xmlns:xlink="http://www.w3.org/1999/xlink" width="500" zoomAndPan="magnify" viewBox="0 0 375 374.999991" height="500" preserveAspectRatio="xMidYMid meet" version="1.0"><defs><g/><clipPath id="2f17ab7505"><path d="M 41 41 L 334 41 L 334 334 L 41 334 Z M 41 41 " clip-rule="nonzero"/></clipPath><clipPath id="cd069b7a42"><path d="M 6.429688 76.960938 L 298.554688 6.65625 L 368.863281 298.777344 L 76.738281 369.085938 Z M 6.429688 76.960938 " clip-rule="nonzero"/></clipPath><clipPath id="bc81a9ba41"><path d="M 152.4375 41.820312 L 205.125 76.519531 L 265.960938 59.6875 L 278.632812 121.449219 L 333.546875 152.515625 L 298.78125 205.164062 L 315.601562 265.929688 L 253.765625 278.621094 L 222.636719 333.492188 L 169.953125 298.792969 L 109.113281 315.625 L 96.441406 253.863281 L 41.53125 222.796875 L 76.292969 170.148438 L 59.476562 109.382812 L 121.3125 96.691406 L 152.4375 41.820312 " clip-rule="nonzero"/></clipPath><clipPath id="31876cbedd"><path d="M 95 188 L 136 188 L 136 232 L 95 232 Z M 95 188 " clip-rule="nonzero"/></clipPath><clipPath id="7d498132b8"><path d="M 63.425781 111.84375 L 263.949219 63.582031 L 312.210938 264.105469 L 111.6875 312.367188 Z M 63.425781 111.84375 " clip-rule="nonzero"/></clipPath><clipPath id="aa5b41baba"><path d="M 116 170 L 125 170 L 125 185 L 116 185 Z M 116 170 " clip-rule="nonzero"/></clipPath><clipPath id="618d165d10"><path d="M 63.425781 111.84375 L 263.949219 63.582031 L 312.210938 264.105469 L 111.6875 312.367188 Z M 63.425781 111.84375 " clip-rule="nonzero"/></clipPath><clipPath id="7ca9d0ef9c"><path d="M 135 179 L 173 179 L 173 222 L 135 222 Z M 135 179 " clip-rule="nonzero"/></clipPath><clipPath id="8712465d82"><path d="M 63.425781 111.84375 L 263.949219 63.582031 L 312.210938 264.105469 L 111.6875 312.367188 Z M 63.425781 111.84375 " clip-rule="nonzero"/></clipPath><clipPath id="df20f0babb"><path d="M 173 170 L 211 170 L 211 213 L 173 213 Z M 173 170 " clip-rule="nonzero"/></clipPath><clipPath id="a1b96c9033"><path d="M 63.425781 111.84375 L 263.949219 63.582031 L 312.210938 264.105469 L 111.6875 312.367188 Z M 63.425781 111.84375 " clip-rule="nonzero"/></clipPath><clipPath id="198d84b9ee"><path d="M 170 141 L 200 141 L 200 172 L 170 172 Z M 170 141 " clip-rule="nonzero"/></clipPath><clipPath id="f84d3fede4"><path d="M 63.425781 111.84375 L 263.949219 63.582031 L 312.210938 264.105469 L 111.6875 312.367188 Z M 63.425781 111.84375 " clip-rule="nonzero"/></clipPath><clipPath id="39039ca6d4"><path d="M 215 204 L 216 204 L 216 205 L 215 205 Z M 215 204 " clip-rule="nonzero"/></clipPath><clipPath id="c6166bc6ea"><path d="M 63.425781 111.84375 L 263.949219 63.582031 L 312.210938 264.105469 L 111.6875 312.367188 Z M 63.425781 111.84375 " clip-rule="nonzero"/></clipPath><clipPath id="8eec1019fb"><path d="M 224 145 L 266 145 L 266 199 L 224 199 Z M 224 145 " clip-rule="nonzero"/></clipPath><clipPath id="5ec5a32210"><path d="M 63.425781 111.84375 L 263.949219 63.582031 L 312.210938 264.105469 L 111.6875 312.367188 Z M 63.425781 111.84375 " clip-rule="nonzero"/></clipPath><clipPath id="b5d610efe8"><path d="M 268 191 L 269 191 L 269 192 L 268 192 Z M 268 191 " clip-rule="nonzero"/></clipPath><clipPath id="509062c3e4"><path d="M 63.425781 111.84375 L 263.949219 63.582031 L 312.210938 264.105469 L 111.6875 312.367188 Z M 63.425781 111.84375 " clip-rule="nonzero"/></clipPath></defs><g clip-path="url(#2f17ab7505)"><g clip-path="url(#cd069b7a42)"><g clip-path="url(#bc81a9ba41)"><path fill="#ffd900" d="M 6.429688 76.960938 L 298.554688 6.65625 L 368.726562 298.226562 L 76.605469 368.535156 Z M 6.429688 76.960938 " fill-opacity="1" fill-rule="nonzero"/></g></g></g><g clip-path="url(#31876cbedd)"><g clip-path="url(#7d498132b8)"><g fill="#000000" fill-opacity="1"><g transform="translate(100.286619, 231.798909)"><g><path d="M 17.53125 -3.546875 C 14 -2.691406 11.066406 -2.84375 8.734375 -4 C 6.410156 -5.15625 4.53125 -7.039062 3.09375 -9.65625 C 1.65625 -12.28125 0.503906 -15.382812 -0.359375 -18.96875 C -1.835938 -25.113281 -2.023438 -29.734375 -0.921875 -32.828125 C 0.179688 -35.929688 2.378906 -37.878906 5.671875 -38.671875 C 7.140625 -39.023438 8.445312 -39.070312 9.59375 -38.8125 C 10.75 -38.550781 11.679688 -37.890625 12.390625 -36.828125 L 12.65625 -36.890625 C 12.789062 -38.148438 13.34375 -39.164062 14.3125 -39.9375 C 15.289062 -40.71875 16.519531 -41.285156 18 -41.640625 C 20.726562 -42.296875 23.019531 -42.066406 24.875 -40.953125 C 26.726562 -39.835938 28.007812 -37.804688 28.71875 -34.859375 L 35.078125 -8.4375 L 29.453125 -7.09375 L 23.109375 -33.453125 C 22.710938 -35.085938 22.082031 -36.109375 21.21875 -36.515625 C 20.363281 -36.929688 19.390625 -37.007812 18.296875 -36.75 C 17.066406 -36.457031 16.238281 -35.945312 15.8125 -35.21875 C 15.394531 -34.5 15.285156 -33.453125 15.484375 -32.078125 L 11.9375 -31.21875 C 11.414062 -32.644531 10.734375 -33.535156 9.890625 -33.890625 C 9.046875 -34.242188 8.179688 -34.316406 7.296875 -34.109375 C 5.617188 -33.703125 4.59375 -32.40625 4.21875 -30.21875 C 3.84375 -28.039062 4.195312 -24.71875 5.28125 -20.25 C 5.976562 -17.34375 6.800781 -14.898438 7.75 -12.921875 C 8.695312 -10.953125 9.910156 -9.566406 11.390625 -8.765625 C 12.878906 -7.960938 14.785156 -7.835938 17.109375 -8.390625 C 17.953125 -8.597656 18.632812 -8.804688 19.15625 -9.015625 C 19.6875 -9.234375 20.1875 -9.46875 20.65625 -9.71875 L 22.25 -5.5625 C 21.695312 -5.101562 20.992188 -4.703125 20.140625 -4.359375 C 19.285156 -4.023438 18.414062 -3.753906 17.53125 -3.546875 Z M 17.53125 -3.546875 "/></g></g></g></g></g><g clip-path="url(#aa5b41baba)"><g clip-path="url(#618d165d10)"><g fill="#000000" fill-opacity="1"><g transform="translate(140.22305, 222.187039)"><g><path d="M -20.890625 -37.4375 L -24.09375 -50.75 L -18.546875 -52.078125 L -15.34375 -38.765625 Z M -20.890625 -37.4375 "/></g></g></g></g></g><g clip-path="url(#7ca9d0ef9c)"><g clip-path="url(#8712465d82)"><g fill="#000000" fill-opacity="1"><g transform="translate(140.474116, 222.126613)"><g><path d="M 17.53125 -3.546875 C 12.988281 -2.453125 9.304688 -2.8125 6.484375 -4.625 C 3.660156 -6.4375 1.628906 -9.914062 0.390625 -15.0625 C 0.179688 -15.90625 -0.00390625 -16.828125 -0.171875 -17.828125 C -0.347656 -18.835938 -0.515625 -19.835938 -0.671875 -20.828125 L 12.59375 -24.03125 L 13.65625 -19.609375 L 5.703125 -17.6875 L 6.015625 -16.421875 C 6.660156 -13.734375 7.453125 -11.71875 8.390625 -10.375 C 9.335938 -9.039062 10.460938 -8.21875 11.765625 -7.90625 C 13.066406 -7.601562 14.582031 -7.660156 16.3125 -8.078125 C 18.207031 -8.535156 19.765625 -9.285156 20.984375 -10.328125 C 22.203125 -11.378906 22.957031 -12.945312 23.25 -15.03125 C 23.550781 -17.113281 23.273438 -19.921875 22.421875 -23.453125 C 21.304688 -28.085938 19.695312 -31.304688 17.59375 -33.109375 C 15.488281 -34.921875 12.5 -35.359375 8.625 -34.421875 C 6.601562 -33.941406 4.738281 -33.21875 3.03125 -32.25 C 1.320312 -31.28125 -0.253906 -30.113281 -1.703125 -28.75 L -2.96875 -33.984375 C -1.863281 -34.960938 -0.335938 -35.941406 1.609375 -36.921875 C 3.554688 -37.910156 5.753906 -38.695312 8.203125 -39.28125 C 11.898438 -40.175781 15.078125 -40.148438 17.734375 -39.203125 C 20.398438 -38.265625 22.585938 -36.5625 24.296875 -34.09375 C 26.003906 -31.625 27.300781 -28.535156 28.1875 -24.828125 C 29.082031 -21.117188 29.359375 -17.820312 29.015625 -14.9375 C 28.679688 -12.0625 27.597656 -9.660156 25.765625 -7.734375 C 23.941406 -5.816406 21.195312 -4.421875 17.53125 -3.546875 Z M 17.53125 -3.546875 "/></g></g></g></g></g><g clip-path="url(#df20f0babb)"><g clip-path="url(#a1b96c9033)"><g fill="#000000" fill-opacity="1"><g transform="translate(176.743963, 213.397214)"><g><path d="M 5.296875 -1.28125 L -3.046875 -35.921875 L 0.875 -36.859375 L 3.21875 -31.609375 L 3.484375 -31.671875 C 3.734375 -33.734375 4.675781 -35.539062 6.3125 -37.09375 C 7.945312 -38.644531 10.113281 -39.742188 12.8125 -40.390625 C 16.5625 -41.296875 19.738281 -41.035156 22.34375 -39.609375 C 24.957031 -38.191406 26.773438 -35.378906 27.796875 -31.171875 L 33.359375 -8.03125 L 27.734375 -6.671875 L 22.25 -29.484375 C 21.007812 -34.617188 17.882812 -36.582031 12.875 -35.375 C 10.894531 -34.90625 9.320312 -34.035156 8.15625 -32.765625 C 6.988281 -31.503906 6.238281 -30 5.90625 -28.25 C 5.570312 -26.5 5.640625 -24.632812 6.109375 -22.65625 L 10.9375 -2.625 Z M 5.296875 -1.28125 "/></g></g></g></g></g><g clip-path="url(#198d84b9ee)"><g clip-path="url(#f84d3fede4)"><g fill="#000000" fill-opacity="1"><g transform="translate(215.03744, 204.180769)"><g><path d="M -42.140625 -32.328125 L -42.734375 -34.78125 L -38.609375 -37.90625 L -21.609375 -41.984375 L -22.84375 -47.109375 L -17.53125 -48.390625 L -15.8125 -41.25 L -15.875 -41.234375 L -15.28125 -38.78125 Z M -42.140625 -32.328125 "/></g></g><g transform="translate(215.03744, 204.180769)"><g><path d="M -23.796875 -50.828125 L -26.28125 -61.125 L -20.90625 -62.40625 L -18.421875 -52.109375 Z M -23.796875 -50.828125 "/></g></g></g></g></g><g clip-path="url(#39039ca6d4)"><g clip-path="url(#c6166bc6ea)"><g fill="#000000" fill-opacity="1"><g transform="translate(215.225387, 204.135534)"><g/></g></g></g></g><g clip-path="url(#8eec1019fb)"><g clip-path="url(#5ec5a32210)"><g fill="#000000" fill-opacity="1"><g transform="translate(232.096549, 200.074995)"><g><path d="M 2.109375 -5.40625 C 6.421875 -10.976562 9.765625 -15.507812 12.140625 -19 C 14.515625 -22.5 16.378906 -26.003906 17.734375 -29.515625 C 19.085938 -33.023438 19.414062 -36.234375 18.71875 -39.140625 C 18.0625 -41.878906 16.878906 -43.875 15.171875 -45.125 C 13.472656 -46.382812 11.148438 -46.660156 8.203125 -45.953125 C 5.335938 -45.265625 3.328125 -43.835938 2.171875 -41.671875 C 1.015625 -39.503906 0.738281 -36.90625 1.34375 -33.875 L -4.21875 -32.546875 C -5.195312 -37.296875 -4.640625 -41.28125 -2.546875 -44.5 C -0.460938 -47.726562 2.703125 -49.851562 6.953125 -50.875 C 11.285156 -51.925781 15.015625 -51.554688 18.140625 -49.765625 C 21.265625 -47.972656 23.335938 -44.972656 24.359375 -40.765625 C 25.203125 -37.253906 24.976562 -33.59375 23.6875 -29.78125 C 22.394531 -25.976562 20.722656 -22.503906 18.671875 -19.359375 C 16.617188 -16.210938 13.925781 -12.476562 10.59375 -8.15625 L 32.34375 -13.390625 L 33.5 -8.59375 L 3.09375 -1.28125 Z M 2.109375 -5.40625 "/></g></g></g></g></g><g clip-path="url(#b5d610efe8)"><g clip-path="url(#509062c3e4)"><g fill="#000000" fill-opacity="1"><g transform="translate(268.41909, 191.332914)"><g/></g></g></g></g></svg>