<svg xmlns="http://www.w3.org/2000/svg" xmlns:xlink="http://www.w3.org/1999/xlink" width="500" zoomAndPan="magnify" viewBox="0 0 375 374.999991" height="500" preserveAspectRatio="xMidYMid meet" version="1.0"><defs><g/><clipPath id="bd96a8256b"><path d="M 41 41 L 334 41 L 334 334 L 41 334 Z M 41 41 " clip-rule="nonzero"/></clipPath><clipPath id="eb657a0367"><path d="M 6.566406 76.765625 L 298.386719 6.527344 L 368.621094 298.347656 L 76.800781 368.585938 Z M 6.566406 76.765625 " clip-rule="nonzero"/></clipPath><clipPath id="b16cd5575e"><path d="M 152.398438 41.664062 L 205.035156 76.375 L 265.800781 59.558594 L 278.476562 121.324219 L 333.335938 152.402344 L 298.625 205.035156 L 315.441406 265.800781 L 253.675781 278.476562 L 222.597656 333.335938 L 169.964844 298.625 L 109.199219 315.441406 L 96.523438 253.675781 L 41.664062 222.597656 L 76.375 169.964844 L 59.558594 109.199219 L 121.324219 96.523438 L 152.398438 41.664062 " clip-rule="nonzero"/></clipPath><clipPath id="105f333048"><path d="M 103 186 L 144 186 L 144 230 L 103 230 Z M 103 186 " clip-rule="nonzero"/></clipPath><clipPath id="0fe248e690"><path d="M 63.558594 111.644531 L 264.082031 63.382812 L 312.34375 263.90625 L 111.820312 312.167969 Z M 63.558594 111.644531 " clip-rule="nonzero"/></clipPath><clipPath id="7bfb36178b"><path d="M 124 168 L 133 168 L 133 183 L 124 183 Z M 124 168 " clip-rule="nonzero"/></clipPath><clipPath id="b0167a4414"><path d="M 63.558594 111.644531 L 264.082031 63.382812 L 312.34375 263.90625 L 111.820312 312.167969 Z M 63.558594 111.644531 " clip-rule="nonzero"/></clipPath><clipPath id="a1f20093a6"><path d="M 143 177 L 181 177 L 181 220 L 143 220 Z M 143 177 " clip-rule="nonzero"/></clipPath><clipPath id="548ea8d999"><path d="M 63.558594 111.644531 L 264.082031 63.382812 L 312.34375 263.90625 L 111.820312 312.167969 Z M 63.558594 111.644531 " clip-rule="nonzero"/></clipPath><clipPath id="c6d480ff8f"><path d="M 181 168 L 219 168 L 219 211 L 181 211 Z M 181 168 " clip-rule="nonzero"/></clipPath><clipPath id="4e5f01fa4e"><path d="M 63.558594 111.644531 L 264.082031 63.382812 L 312.34375 263.90625 L 111.820312 312.167969 Z M 63.558594 111.644531 " clip-rule="nonzero"/></clipPath><clipPath id="0c1460d038"><path d="M 178 139 L 208 139 L 208 170 L 178 170 Z M 178 139 " clip-rule="nonzero"/></clipPath><clipPath id="260b35870a"><path d="M 63.558594 111.644531 L 264.082031 63.382812 L 312.34375 263.90625 L 111.820312 312.167969 Z M 63.558594 111.644531 " clip-rule="nonzero"/></clipPath><clipPath id="2f26422117"><path d="M 223 202 L 224 202 L 224 203 L 223 203 Z M 223 202 " clip-rule="nonzero"/></clipPath><clipPath id="cec9d9309c"><path d="M 63.558594 111.644531 L 264.082031 63.382812 L 312.34375 263.90625 L 111.820312 312.167969 Z M 63.558594 111.644531 " clip-rule="nonzero"/></clipPath><clipPath id="02609777a1"><path d="M 231 143 L 274 143 L 274 198 L 231 198 Z M 231 143 " clip-rule="nonzero"/></clipPath><clipPath id="6a8de714c1"><path d="M 63.558594 111.644531 L 264.082031 63.382812 L 312.34375 263.90625 L 111.820312 312.167969 Z M 63.558594 111.644531 " clip-rule="nonzero"/></clipPath></defs><g clip-path="url(#bd96a8256b)"><g clip-path="url(#eb657a0367)"><g clip-path="url(#b16cd5575e)"><path fill="#ffd900" d="M 6.566406 76.765625 L 298.386719 6.527344 L 368.621094 298.347656 L 76.800781 368.585938 Z M 6.566406 76.765625 " fill-opacity="1" fill-rule="nonzero"/></g></g></g><g clip-path="url(#105f333048)"><g clip-path="url(#0fe248e690)"><g fill="#000000" fill-opacity="1"><g transform="translate(108.248658, 229.71665)"><g><path d="M 17.53125 -3.546875 C 14 -2.691406 11.066406 -2.84375 8.734375 -4 C 6.410156 -5.15625 4.53125 -7.039062 3.09375 -9.65625 C 1.65625 -12.28125 0.503906 -15.382812 -0.359375 -18.96875 C -1.835938 -25.113281 -2.023438 -29.734375 -0.921875 -32.828125 C 0.179688 -35.929688 2.378906 -37.878906 5.671875 -38.671875 C 7.140625 -39.023438 8.445312 -39.070312 9.59375 -38.8125 C 10.75 -38.550781 11.679688 -37.890625 12.390625 -36.828125 L 12.65625 -36.890625 C 12.789062 -38.148438 13.34375 -39.164062 14.3125 -39.9375 C 15.289062 -40.71875 16.519531 -41.285156 18 -41.640625 C 20.726562 -42.296875 23.019531 -42.066406 24.875 -40.953125 C 26.726562 -39.835938 28.007812 -37.804688 28.71875 -34.859375 L 35.078125 -8.4375 L 29.453125 -7.09375 L 23.109375 -33.453125 C 22.710938 -35.085938 22.082031 -36.109375 21.21875 -36.515625 C 20.363281 -36.929688 19.390625 -37.007812 18.296875 -36.75 C 17.066406 -36.457031 16.238281 -35.945312 15.8125 -35.21875 C 15.394531 -34.5 15.285156 -33.453125 15.484375 -32.078125 L 11.9375 -31.21875 C 11.414062 -32.644531 10.734375 -33.535156 9.890625 -33.890625 C 9.046875 -34.242188 8.179688 -34.316406 7.296875 -34.109375 C 5.617188 -33.703125 4.59375 -32.40625 4.21875 -30.21875 C 3.84375 -28.039062 4.195312 -24.71875 5.28125 -20.25 C 5.976562 -17.34375 6.800781 -14.898438 7.75 -12.921875 C 8.695312 -10.953125 9.910156 -9.566406 11.390625 -8.765625 C 12.878906 -7.960938 14.785156 -7.835938 17.109375 -8.390625 C 17.953125 -8.597656 18.632812 -8.804688 19.15625 -9.015625 C 19.6875 -9.234375 20.1875 -9.46875 20.65625 -9.71875 L 22.25 -5.5625 C 21.695312 -5.101562 20.992188 -4.703125 20.140625 -4.359375 C 19.285156 -4.023438 18.414062 -3.753906 17.53125 -3.546875 Z M 17.53125 -3.546875 "/></g></g></g></g></g><g clip-path="url(#7bfb36178b)"><g clip-path="url(#b0167a4414)"><g fill="#000000" fill-opacity="1"><g transform="translate(148.185088, 220.10478)"><g><path d="M -20.890625 -37.4375 L -24.09375 -50.75 L -18.546875 -52.078125 L -15.34375 -38.765625 Z M -20.890625 -37.4375 "/></g></g></g></g></g><g clip-path="url(#a1f20093a6)"><g clip-path="url(#548ea8d999)"><g fill="#000000" fill-opacity="1"><g transform="translate(148.436155, 220.044353)"><g><path d="M 17.53125 -3.546875 C 12.988281 -2.453125 9.304688 -2.8125 6.484375 -4.625 C 3.660156 -6.4375 1.628906 -9.914062 0.390625 -15.0625 C 0.179688 -15.90625 -0.00390625 -16.828125 -0.171875 -17.828125 C -0.347656 -18.835938 -0.515625 -19.835938 -0.671875 -20.828125 L 12.59375 -24.03125 L 13.65625 -19.609375 L 5.703125 -17.6875 L 6.015625 -16.421875 C 6.660156 -13.734375 7.453125 -11.71875 8.390625 -10.375 C 9.335938 -9.039062 10.460938 -8.21875 11.765625 -7.90625 C 13.066406 -7.601562 14.582031 -7.660156 16.3125 -8.078125 C 18.207031 -8.535156 19.765625 -9.285156 20.984375 -10.328125 C 22.203125 -11.378906 22.957031 -12.945312 23.25 -15.03125 C 23.550781 -17.113281 23.273438 -19.921875 22.421875 -23.453125 C 21.304688 -28.085938 19.695312 -31.304688 17.59375 -33.109375 C 15.488281 -34.921875 12.5 -35.359375 8.625 -34.421875 C 6.601562 -33.941406 4.738281 -33.21875 3.03125 -32.25 C 1.320312 -31.28125 -0.253906 -30.113281 -1.703125 -28.75 L -2.96875 -33.984375 C -1.863281 -34.960938 -0.335938 -35.941406 1.609375 -36.921875 C 3.554688 -37.910156 5.753906 -38.695312 8.203125 -39.28125 C 11.898438 -40.175781 15.078125 -40.148438 17.734375 -39.203125 C 20.398438 -38.265625 22.585938 -36.5625 24.296875 -34.09375 C 26.003906 -31.625 27.300781 -28.535156 28.1875 -24.828125 C 29.082031 -21.117188 29.359375 -17.820312 29.015625 -14.9375 C 28.679688 -12.0625 27.597656 -9.660156 25.765625 -7.734375 C 23.941406 -5.816406 21.195312 -4.421875 17.53125 -3.546875 Z M 17.53125 -3.546875 "/></g></g></g></g></g><g clip-path="url(#c6d480ff8f)"><g clip-path="url(#4e5f01fa4e)"><g fill="#000000" fill-opacity="1"><g transform="translate(184.706001, 211.314954)"><g><path d="M 5.296875 -1.28125 L -3.046875 -35.921875 L 0.875 -36.859375 L 3.21875 -31.609375 L 3.484375 -31.671875 C 3.734375 -33.734375 4.675781 -35.539062 6.3125 -37.09375 C 7.945312 -38.644531 10.113281 -39.742188 12.8125 -40.390625 C 16.5625 -41.296875 19.738281 -41.035156 22.34375 -39.609375 C 24.957031 -38.191406 26.773438 -35.378906 27.796875 -31.171875 L 33.359375 -8.03125 L 27.734375 -6.671875 L 22.25 -29.484375 C 21.007812 -34.617188 17.882812 -36.582031 12.875 -35.375 C 10.894531 -34.90625 9.320312 -34.035156 8.15625 -32.765625 C 6.988281 -31.503906 6.238281 -30 5.90625 -28.25 C 5.570312 -26.5 5.640625 -24.632812 6.109375 -22.65625 L 10.9375 -2.625 Z M 5.296875 -1.28125 "/></g></g></g></g></g><g clip-path="url(#0c1460d038)"><g clip-path="url(#260b35870a)"><g fill="#000000" fill-opacity="1"><g transform="translate(222.999478, 202.098509)"><g><path d="M -42.140625 -32.328125 L -42.734375 -34.78125 L -38.609375 -37.90625 L -21.609375 -41.984375 L -22.84375 -47.109375 L -17.53125 -48.390625 L -15.8125 -41.25 L -15.875 -41.234375 L -15.28125 -38.78125 Z M -42.140625 -32.328125 "/></g></g><g transform="translate(222.999478, 202.098509)"><g><path d="M -23.796875 -50.828125 L -26.28125 -61.125 L -20.90625 -62.40625 L -18.421875 -52.109375 Z M -23.796875 -50.828125 "/></g></g></g></g></g><g clip-path="url(#2f26422117)"><g clip-path="url(#cec9d9309c)"><g fill="#000000" fill-opacity="1"><g transform="translate(223.187425, 202.053274)"><g/></g></g></g></g><g clip-path="url(#02609777a1)"><g clip-path="url(#6a8de714c1)"><g fill="#000000" fill-opacity="1"><g transform="translate(240.058587, 197.992736)"><g><path d="M -4.4375 -35.09375 C -5.070312 -39.039062 -4.304688 -42.4375 -2.140625 -45.28125 C 0.0234375 -48.125 3.265625 -50.0625 7.578125 -51.09375 C 10.429688 -51.78125 13.019531 -51.859375 15.34375 -51.328125 C 17.675781 -50.804688 19.59375 -49.785156 21.09375 -48.265625 C 22.601562 -46.753906 23.628906 -44.878906 24.171875 -42.640625 C 24.796875 -40.035156 24.585938 -37.601562 23.546875 -35.34375 C 22.515625 -33.09375 20.859375 -31.40625 18.578125 -30.28125 L 18.65625 -29.96875 C 21.5625 -29.945312 24.050781 -29.140625 26.125 -27.546875 C 28.195312 -25.953125 29.617188 -23.550781 30.390625 -20.34375 C 30.972656 -17.945312 30.945312 -15.660156 30.3125 -13.484375 C 29.675781 -11.304688 28.394531 -9.40625 26.46875 -7.78125 C 24.550781 -6.15625 22.050781 -4.972656 18.96875 -4.234375 C 14.507812 -3.160156 10.5625 -3.445312 7.125 -5.09375 C 3.695312 -6.738281 1.300781 -9.671875 -0.0625 -13.890625 L 5.5 -15.21875 C 6.394531 -12.769531 7.921875 -10.957031 10.078125 -9.78125 C 12.234375 -8.613281 14.789062 -8.382812 17.75 -9.09375 C 20.6875 -9.800781 22.738281 -11.101562 23.90625 -13 C 25.082031 -14.90625 25.378906 -17.082031 24.796875 -19.53125 C 24.035156 -22.6875 22.429688 -24.707031 19.984375 -25.59375 C 17.546875 -26.476562 14.191406 -26.410156 9.921875 -25.390625 L 8.484375 -25.03125 L 7.328125 -29.828125 L 8.84375 -30.203125 C 12.707031 -31.171875 15.476562 -32.519531 17.15625 -34.25 C 18.84375 -35.976562 19.367188 -38.144531 18.734375 -40.75 C 18.203125 -42.976562 17.046875 -44.585938 15.265625 -45.578125 C 13.492188 -46.578125 11.257812 -46.753906 8.5625 -46.109375 C 5.945312 -45.484375 4 -44.300781 2.71875 -42.5625 C 1.445312 -40.832031 0.9375 -38.796875 1.1875 -36.453125 Z M -4.4375 -35.09375 "/></g></g></g></g></g></svg>