<svg xmlns="http://www.w3.org/2000/svg" xmlns:xlink="http://www.w3.org/1999/xlink" width="500" zoomAndPan="magnify" viewBox="0 0 375 374.999991" height="500" preserveAspectRatio="xMidYMid meet" version="1.0"><defs><g/><clipPath id="3b825114d0"><path d="M 41 41 L 334 41 L 334 334 L 41 334 Z M 41 41 " clip-rule="nonzero"/></clipPath><clipPath id="e3a2af544b"><path d="M 6.566406 76.765625 L 298.339844 6.539062 L 368.5625 298.3125 L 76.789062 368.539062 Z M 6.566406 76.765625 " clip-rule="nonzero"/></clipPath><clipPath id="35ea68b371"><path d="M 152.398438 41.664062 L 205.035156 76.375 L 265.800781 59.558594 L 278.476562 121.324219 L 333.335938 152.402344 L 298.625 205.035156 L 315.441406 265.800781 L 253.675781 278.476562 L 222.597656 333.335938 L 169.964844 298.625 L 109.199219 315.441406 L 96.523438 253.675781 L 41.664062 222.597656 L 76.375 169.964844 L 59.558594 109.199219 L 121.324219 96.523438 L 152.398438 41.664062 " clip-rule="nonzero"/></clipPath><clipPath id="658e8e20cb"><path d="M 102 186 L 143 186 L 143 230 L 102 230 Z M 102 186 " clip-rule="nonzero"/></clipPath><clipPath id="b3909efc21"><path d="M 63.558594 111.644531 L 264.082031 63.382812 L 312.34375 263.90625 L 111.820312 312.167969 Z M 63.558594 111.644531 " clip-rule="nonzero"/></clipPath><clipPath id="940d1faeba"><path d="M 122 168 L 132 168 L 132 183 L 122 183 Z M 122 168 " clip-rule="nonzero"/></clipPath><clipPath id="a6bd13978c"><path d="M 63.558594 111.644531 L 264.082031 63.382812 L 312.34375 263.90625 L 111.820312 312.167969 Z M 63.558594 111.644531 " clip-rule="nonzero"/></clipPath><clipPath id="f1e03e9c5d"><path d="M 142 177 L 180 177 L 180 221 L 142 221 Z M 142 177 " clip-rule="nonzero"/></clipPath><clipPath id="482688ff29"><path d="M 63.558594 111.644531 L 264.082031 63.382812 L 312.34375 263.90625 L 111.820312 312.167969 Z M 63.558594 111.644531 " clip-rule="nonzero"/></clipPath><clipPath id="142582aa41"><path d="M 180 168 L 217 168 L 217 211 L 180 211 Z M 180 168 " clip-rule="nonzero"/></clipPath><clipPath id="7957246a1e"><path d="M 63.558594 111.644531 L 264.082031 63.382812 L 312.34375 263.90625 L 111.820312 312.167969 Z M 63.558594 111.644531 " clip-rule="nonzero"/></clipPath><clipPath id="2cb94eabf0"><path d="M 177 139 L 207 139 L 207 171 L 177 171 Z M 177 139 " clip-rule="nonzero"/></clipPath><clipPath id="0a67d4764d"><path d="M 63.558594 111.644531 L 264.082031 63.382812 L 312.34375 263.90625 L 111.820312 312.167969 Z M 63.558594 111.644531 " clip-rule="nonzero"/></clipPath><clipPath id="50acedd123"><path d="M 221 202 L 222 202 L 222 203 L 221 203 Z M 221 202 " clip-rule="nonzero"/></clipPath><clipPath id="8644441dbc"><path d="M 63.558594 111.644531 L 264.082031 63.382812 L 312.34375 263.90625 L 111.820312 312.167969 Z M 63.558594 111.644531 " clip-rule="nonzero"/></clipPath><clipPath id="6933e7fe3e"><path d="M 230 143 L 277 143 L 277 198 L 230 198 Z M 230 143 " clip-rule="nonzero"/></clipPath><clipPath id="a3bb5b6342"><path d="M 63.558594 111.644531 L 264.082031 63.382812 L 312.34375 263.90625 L 111.820312 312.167969 Z M 63.558594 111.644531 " clip-rule="nonzero"/></clipPath></defs><g clip-path="url(#3b825114d0)"><g clip-path="url(#e3a2af544b)"><g clip-path="url(#35ea68b371)"><path fill="#ffd900" d="M 6.566406 76.765625 L 298.339844 6.539062 L 368.5625 298.3125 L 76.789062 368.539062 Z M 6.566406 76.765625 " fill-opacity="1" fill-rule="nonzero"/></g></g></g><g clip-path="url(#658e8e20cb)"><g clip-path="url(#b3909efc21)"><g fill="#000000" fill-opacity="1"><g transform="translate(106.98399, 230.021029)"><g><path d="M 17.53125 -3.546875 C 14 -2.691406 11.066406 -2.84375 8.734375 -4 C 6.410156 -5.15625 4.53125 -7.039062 3.09375 -9.65625 C 1.65625 -12.28125 0.503906 -15.382812 -0.359375 -18.96875 C -1.835938 -25.113281 -2.023438 -29.734375 -0.921875 -32.828125 C 0.179688 -35.929688 2.378906 -37.878906 5.671875 -38.671875 C 7.140625 -39.023438 8.445312 -39.070312 9.59375 -38.8125 C 10.75 -38.550781 11.679688 -37.890625 12.390625 -36.828125 L 12.65625 -36.890625 C 12.789062 -38.148438 13.34375 -39.164062 14.3125 -39.9375 C 15.289062 -40.71875 16.519531 -41.285156 18 -41.640625 C 20.726562 -42.296875 23.019531 -42.066406 24.875 -40.953125 C 26.726562 -39.835938 28.007812 -37.804688 28.71875 -34.859375 L 35.078125 -8.4375 L 29.453125 -7.09375 L 23.109375 -33.453125 C 22.710938 -35.085938 22.082031 -36.109375 21.21875 -36.515625 C 20.363281 -36.929688 19.390625 -37.007812 18.296875 -36.75 C 17.066406 -36.457031 16.238281 -35.945312 15.8125 -35.21875 C 15.394531 -34.5 15.285156 -33.453125 15.484375 -32.078125 L 11.9375 -31.21875 C 11.414062 -32.644531 10.734375 -33.535156 9.890625 -33.890625 C 9.046875 -34.242188 8.179688 -34.316406 7.296875 -34.109375 C 5.617188 -33.703125 4.59375 -32.40625 4.21875 -30.21875 C 3.84375 -28.039062 4.195312 -24.71875 5.28125 -20.25 C 5.976562 -17.34375 6.800781 -14.898438 7.75 -12.921875 C 8.695312 -10.953125 9.910156 -9.566406 11.390625 -8.765625 C 12.878906 -7.960938 14.785156 -7.835938 17.109375 -8.390625 C 17.953125 -8.597656 18.632812 -8.804688 19.15625 -9.015625 C 19.6875 -9.234375 20.1875 -9.46875 20.65625 -9.71875 L 22.25 -5.5625 C 21.695312 -5.101562 20.992188 -4.703125 20.140625 -4.359375 C 19.285156 -4.023438 18.414062 -3.753906 17.53125 -3.546875 Z M 17.53125 -3.546875 "/></g></g></g></g></g><g clip-path="url(#940d1faeba)"><g clip-path="url(#a6bd13978c)"><g fill="#000000" fill-opacity="1"><g transform="translate(146.92042, 220.409159)"><g><path d="M -20.890625 -37.4375 L -24.09375 -50.75 L -18.546875 -52.078125 L -15.34375 -38.765625 Z M -20.890625 -37.4375 "/></g></g></g></g></g><g clip-path="url(#f1e03e9c5d)"><g clip-path="url(#482688ff29)"><g fill="#000000" fill-opacity="1"><g transform="translate(147.171487, 220.348733)"><g><path d="M 17.53125 -3.546875 C 12.988281 -2.453125 9.304688 -2.8125 6.484375 -4.625 C 3.660156 -6.4375 1.628906 -9.914062 0.390625 -15.0625 C 0.179688 -15.90625 -0.00390625 -16.828125 -0.171875 -17.828125 C -0.347656 -18.835938 -0.515625 -19.835938 -0.671875 -20.828125 L 12.59375 -24.03125 L 13.65625 -19.609375 L 5.703125 -17.6875 L 6.015625 -16.421875 C 6.660156 -13.734375 7.453125 -11.71875 8.390625 -10.375 C 9.335938 -9.039062 10.460938 -8.21875 11.765625 -7.90625 C 13.066406 -7.601562 14.582031 -7.660156 16.3125 -8.078125 C 18.207031 -8.535156 19.765625 -9.285156 20.984375 -10.328125 C 22.203125 -11.378906 22.957031 -12.945312 23.25 -15.03125 C 23.550781 -17.113281 23.273438 -19.921875 22.421875 -23.453125 C 21.304688 -28.085938 19.695312 -31.304688 17.59375 -33.109375 C 15.488281 -34.921875 12.5 -35.359375 8.625 -34.421875 C 6.601562 -33.941406 4.738281 -33.21875 3.03125 -32.25 C 1.320312 -31.28125 -0.253906 -30.113281 -1.703125 -28.75 L -2.96875 -33.984375 C -1.863281 -34.960938 -0.335938 -35.941406 1.609375 -36.921875 C 3.554688 -37.910156 5.753906 -38.695312 8.203125 -39.28125 C 11.898438 -40.175781 15.078125 -40.148438 17.734375 -39.203125 C 20.398438 -38.265625 22.585938 -36.5625 24.296875 -34.09375 C 26.003906 -31.625 27.300781 -28.535156 28.1875 -24.828125 C 29.082031 -21.117188 29.359375 -17.820312 29.015625 -14.9375 C 28.679688 -12.0625 27.597656 -9.660156 25.765625 -7.734375 C 23.941406 -5.816406 21.195312 -4.421875 17.53125 -3.546875 Z M 17.53125 -3.546875 "/></g></g></g></g></g><g clip-path="url(#142582aa41)"><g clip-path="url(#7957246a1e)"><g fill="#000000" fill-opacity="1"><g transform="translate(183.441333, 211.619334)"><g><path d="M 5.296875 -1.28125 L -3.046875 -35.921875 L 0.875 -36.859375 L 3.21875 -31.609375 L 3.484375 -31.671875 C 3.734375 -33.734375 4.675781 -35.539062 6.3125 -37.09375 C 7.945312 -38.644531 10.113281 -39.742188 12.8125 -40.390625 C 16.5625 -41.296875 19.738281 -41.035156 22.34375 -39.609375 C 24.957031 -38.191406 26.773438 -35.378906 27.796875 -31.171875 L 33.359375 -8.03125 L 27.734375 -6.671875 L 22.25 -29.484375 C 21.007812 -34.617188 17.882812 -36.582031 12.875 -35.375 C 10.894531 -34.90625 9.320312 -34.035156 8.15625 -32.765625 C 6.988281 -31.503906 6.238281 -30 5.90625 -28.25 C 5.570312 -26.5 5.640625 -24.632812 6.109375 -22.65625 L 10.9375 -2.625 Z M 5.296875 -1.28125 "/></g></g></g></g></g><g clip-path="url(#2cb94eabf0)"><g clip-path="url(#0a67d4764d)"><g fill="#000000" fill-opacity="1"><g transform="translate(221.734811, 202.402888)"><g><path d="M -42.140625 -32.328125 L -42.734375 -34.78125 L -38.609375 -37.90625 L -21.609375 -41.984375 L -22.84375 -47.109375 L -17.53125 -48.390625 L -15.8125 -41.25 L -15.875 -41.234375 L -15.28125 -38.78125 Z M -42.140625 -32.328125 "/></g></g><g transform="translate(221.734811, 202.402888)"><g><path d="M -23.796875 -50.828125 L -26.28125 -61.125 L -20.90625 -62.40625 L -18.421875 -52.109375 Z M -23.796875 -50.828125 "/></g></g></g></g></g><g clip-path="url(#50acedd123)"><g clip-path="url(#8644441dbc)"><g fill="#000000" fill-opacity="1"><g transform="translate(221.922757, 202.357654)"><g/></g></g></g></g><g clip-path="url(#6933e7fe3e)"><g clip-path="url(#a3bb5b6342)"><g fill="#000000" fill-opacity="1"><g transform="translate(238.79392, 198.297115)"><g><path d="M 0.0625 -10.78125 L -0.984375 -15.140625 L 13.828125 -51.203125 L 20.703125 -52.859375 L 27.9375 -22.765625 L 34.265625 -24.28125 L 35.46875 -19.296875 L 29.140625 -17.78125 L 31.59375 -7.609375 L 25.921875 -6.234375 L 23.46875 -16.40625 Z M 16.71875 -45.53125 L 5.5 -17.359375 L 22.5 -21.453125 Z M 16.71875 -45.53125 "/></g></g></g></g></g></svg>