<svg xmlns="http://www.w3.org/2000/svg" xmlns:xlink="http://www.w3.org/1999/xlink" width="500" zoomAndPan="magnify" viewBox="0 0 375 149.999998" height="200" preserveAspectRatio="xMidYMid meet" version="1.0"><defs><clipPath id="ebbddfa922"><path d="M 9.457031 50 L 365.707031 50 L 365.707031 150 L 9.457031 150 Z M 9.457031 50 " clip-rule="nonzero"/></clipPath></defs><g clip-path="url(#ebbddfa922)"><path fill="#ffffff" d="M 353.648438 50 L 353.648438 86.023438 C 353.664062 91.523438 352.816406 96.890625 351.109375 102.121094 L 357.855469 103.523438 C 357.855469 102.082031 357.855469 100.644531 357.855469 99.167969 L 357.855469 70.566406 C 357.921875 63.414062 356.519531 56.554688 353.648438 50 Z M 331.289062 141.816406 L 327.992188 145.113281 C 330.199219 144.148438 332.320312 143.023438 334.359375 141.742188 C 334.152344 141.542969 333.914062 141.390625 333.644531 141.285156 C 333.375 141.183594 333.097656 141.132812 332.808594 141.140625 C 332.519531 141.148438 332.246094 141.210938 331.980469 141.328125 C 331.71875 141.445312 331.488281 141.609375 331.289062 141.816406 Z M 321.324219 147.234375 L 318.746094 135.871094 C 312.945312 137.980469 306.957031 139.027344 300.785156 139.015625 L 66.804688 139.015625 C 65.070312 139.007812 63.34375 138.917969 61.617188 138.742188 C 59.894531 138.566406 58.183594 138.308594 56.484375 137.964844 C 54.785156 137.621094 53.109375 137.195312 51.453125 136.6875 C 49.792969 136.183594 48.167969 135.59375 46.566406 134.929688 C 44.96875 134.261719 43.40625 133.519531 41.878906 132.699219 C 40.351562 131.878906 38.871094 130.984375 37.429688 130.019531 C 35.992188 129.054688 34.601562 128.023438 33.265625 126.921875 C 31.925781 125.820312 30.648438 124.65625 29.421875 123.429688 C 28.199219 122.203125 27.039062 120.917969 25.941406 119.578125 C 24.84375 118.238281 23.8125 116.847656 22.851562 115.40625 C 21.890625 113.964844 21.003906 112.480469 20.1875 110.953125 C 19.371094 109.425781 18.632812 107.863281 17.96875 106.261719 C 17.304688 104.660156 16.722656 103.03125 16.21875 101.375 C 15.71875 99.714844 15.296875 98.039062 14.957031 96.339844 C 14.621094 94.640625 14.367188 92.929688 14.195312 91.207031 C 14.023438 89.484375 13.9375 87.753906 13.9375 86.023438 L 13.9375 50 C 10.972656 56.535156 9.484375 63.390625 9.464844 70.566406 L 9.464844 99.167969 C 9.46875 100.8125 9.550781 102.453125 9.714844 104.089844 C 9.878906 105.726562 10.121094 107.351562 10.445312 108.96875 C 10.769531 110.582031 11.171875 112.171875 11.652344 113.746094 C 12.128906 115.320312 12.6875 116.867188 13.320312 118.386719 C 13.949219 119.90625 14.65625 121.390625 15.433594 122.84375 C 16.210938 124.292969 17.058594 125.699219 17.976562 127.066406 C 18.890625 128.433594 19.871094 129.753906 20.917969 131.023438 C 21.964844 132.296875 23.070312 133.511719 24.234375 134.675781 C 25.402344 135.835938 26.621094 136.9375 27.894531 137.980469 C 29.167969 139.023438 30.488281 140 31.859375 140.914062 C 33.230469 141.828125 34.640625 142.671875 36.09375 143.445312 C 37.546875 144.21875 39.03125 144.917969 40.554688 145.546875 C 42.074219 146.175781 43.625 146.726562 45.199219 147.203125 C 46.777344 147.679688 48.371094 148.078125 49.984375 148.398438 C 51.601562 148.71875 53.226562 148.957031 54.867188 149.117188 C 56.503906 149.277344 58.148438 149.355469 59.792969 149.355469 L 307.792969 149.355469 C 312.417969 149.371094 316.953125 148.738281 321.398438 147.460938 C 321.398438 147.460938 321.363281 147.3125 321.324219 147.234375 Z M 349.824219 83.371094 L 349.824219 83.789062 C 349.328125 84.960938 348.761719 86.097656 348.15625 87.234375 C 348.15625 87.613281 347.738281 87.992188 347.511719 88.371094 C 347.285156 88.75 346.449219 90.1875 345.882812 91.0625 C 345.3125 91.933594 345.464844 91.742188 345.199219 92.082031 C 344.402344 93.21875 343.570312 94.355469 342.699219 95.453125 L 342.46875 95.683594 C 341.636719 96.699219 340.753906 97.671875 339.816406 98.597656 C 339.53125 98.90625 339.230469 99.199219 338.90625 99.46875 L 347.664062 101.289062 C 349.289062 96.367188 350.113281 91.316406 350.125 86.136719 L 350.125 83.484375 Z M 313.554688 112.460938 C 312.570312 112.460938 311.546875 112.804688 310.5625 112.917969 L 309.234375 112.917969 C 307.734375 113.070312 306.230469 113.144531 304.722656 113.144531 L 62.863281 113.144531 C 61.355469 113.144531 59.851562 113.070312 58.351562 112.917969 L 57.027344 112.917969 C 55.964844 112.917969 54.867188 112.613281 53.804688 112.425781 L 52.515625 112.160156 C 51.132812 111.890625 49.769531 111.546875 48.425781 111.136719 C 47.058594 110.683594 45.695312 110.1875 44.367188 109.660156 L 43.230469 109.128906 C 42.246094 108.726562 41.300781 108.269531 40.390625 107.765625 L 39.253906 107.160156 C 38.066406 106.523438 36.917969 105.828125 35.804688 105.074219 L 35.613281 105.074219 C 34.441406 104.28125 33.304688 103.410156 32.203125 102.539062 L 31.292969 101.742188 C 30.488281 101.074219 29.71875 100.367188 28.984375 99.621094 C 28.660156 99.351562 28.359375 99.058594 28.074219 98.75 C 27.136719 97.824219 26.253906 96.851562 25.421875 95.832031 L 25.191406 95.605469 C 24.320312 94.507812 23.488281 93.371094 22.691406 92.234375 C 22.425781 91.894531 22.238281 91.554688 22.007812 91.210938 C 21.78125 90.871094 20.871094 89.433594 20.378906 88.523438 C 19.886719 87.613281 19.925781 87.765625 19.734375 87.386719 C 19.128906 86.25 18.5625 85.113281 18.066406 83.9375 L 18.066406 83.523438 L 18.066406 86.175781 C 18.074219 87.78125 18.160156 89.386719 18.324219 90.984375 C 18.492188 92.585938 18.734375 94.171875 19.054688 95.75 C 19.375 97.324219 19.769531 98.882812 20.242188 100.417969 C 20.714844 101.953125 21.261719 103.464844 21.882812 104.949219 C 22.503906 106.433594 23.195312 107.882812 23.957031 109.296875 C 24.722656 110.714844 25.550781 112.089844 26.449219 113.421875 C 27.347656 114.757812 28.308594 116.042969 29.332031 117.285156 C 30.355469 118.523438 31.4375 119.710938 32.578125 120.847656 C 33.71875 121.980469 34.910156 123.058594 36.15625 124.074219 C 37.402344 125.09375 38.695312 126.046875 40.035156 126.9375 C 41.375 127.828125 42.753906 128.652344 44.171875 129.410156 C 45.59375 130.164062 47.046875 130.847656 48.535156 131.460938 C 50.019531 132.078125 51.535156 132.617188 53.074219 133.082031 C 54.613281 133.546875 56.171875 133.9375 57.75 134.25 C 59.328125 134.5625 60.917969 134.796875 62.519531 134.953125 C 64.121094 135.109375 65.726562 135.1875 67.335938 135.1875 L 300.785156 135.1875 C 306.683594 135.195312 312.390625 134.160156 317.914062 132.082031 Z M 365.058594 131.894531 L 347.359375 149.582031 C 347.179688 149.761719 346.976562 149.902344 346.742188 149.996094 C 346.507812 150.09375 346.265625 150.144531 346.015625 150.144531 C 345.761719 150.144531 345.519531 150.09375 345.285156 149.996094 C 345.050781 149.902344 344.847656 149.761719 344.667969 149.582031 L 334.132812 139.054688 C 333.953125 138.878906 333.746094 138.742188 333.511719 138.648438 C 333.28125 138.554688 333.039062 138.507812 332.789062 138.507812 C 332.535156 138.507812 332.292969 138.554688 332.0625 138.648438 C 331.828125 138.742188 331.621094 138.878906 331.441406 139.054688 L 325.945312 144.546875 C 325.703125 144.789062 325.414062 144.953125 325.082031 145.039062 C 324.75 145.125 324.417969 145.121094 324.089844 145.027344 C 323.757812 144.929688 323.472656 144.761719 323.238281 144.511719 C 323 144.261719 322.84375 143.972656 322.765625 143.636719 L 320.679688 134.925781 L 319.769531 131.136719 L 315.222656 112.195312 L 314.351562 108.410156 L 312.152344 99.242188 C 312.117188 99.085938 312.101562 98.925781 312.109375 98.765625 C 312.113281 98.605469 312.136719 98.445312 312.183594 98.292969 C 312.226562 98.136719 312.289062 97.988281 312.371094 97.851562 C 312.453125 97.710938 312.546875 97.585938 312.660156 97.46875 C 312.773438 97.355469 312.898438 97.257812 313.039062 97.171875 C 313.175781 97.089844 313.320312 97.023438 313.476562 96.976562 C 313.628906 96.929688 313.789062 96.902344 313.949219 96.894531 C 314.109375 96.886719 314.269531 96.898438 314.425781 96.933594 L 331.214844 100.71875 L 335.953125 101.816406 L 346.261719 104.203125 L 350.050781 105.074219 L 357.628906 106.78125 L 359.257812 107.160156 C 359.59375 107.238281 359.886719 107.394531 360.132812 107.632812 C 360.382812 107.867188 360.554688 108.152344 360.648438 108.484375 C 360.742188 108.8125 360.746094 109.144531 360.660156 109.476562 C 360.574219 109.808594 360.410156 110.097656 360.167969 110.339844 L 354.710938 115.796875 C 354.402344 116.101562 354.222656 116.472656 354.171875 116.902344 C 354.121094 117.335938 354.214844 117.738281 354.445312 118.105469 C 354.5 118.257812 354.589844 118.382812 354.710938 118.484375 L 365.058594 129.167969 C 365.242188 129.34375 365.386719 129.554688 365.488281 129.789062 C 365.585938 130.027344 365.636719 130.273438 365.636719 130.53125 C 365.636719 130.789062 365.585938 131.035156 365.488281 131.269531 C 365.386719 131.507812 365.242188 131.714844 365.058594 131.894531 Z M 365.058594 131.894531 " fill-opacity="1" fill-rule="nonzero"/></g><path fill="#ffffff" d="M 349.632812 41.175781 L 349.632812 40.304688 C 349.484375 38.933594 349.269531 37.578125 348.996094 36.230469 C 348.722656 34.882812 348.386719 33.546875 347.992188 32.230469 C 347.59375 30.914062 347.140625 29.617188 346.625 28.339844 C 346.109375 27.0625 345.539062 25.8125 344.90625 24.589844 C 344.277344 23.367188 343.59375 22.175781 342.855469 21.011719 C 342.117188 19.851562 341.328125 18.726562 340.488281 17.636719 C 339.648438 16.546875 338.757812 15.5 337.820312 14.492188 C 336.882812 13.484375 335.902344 12.519531 334.878906 11.601562 C 333.851562 10.683594 332.789062 9.816406 331.683594 8.996094 C 330.578125 8.171875 329.4375 7.40625 328.265625 6.6875 C 327.089844 5.972656 325.882812 5.308594 324.648438 4.703125 C 323.414062 4.097656 322.152344 3.546875 320.867188 3.054688 C 319.582031 2.5625 318.277344 2.132812 316.949219 1.757812 C 315.625 1.386719 314.285156 1.078125 312.933594 0.828125 C 311.578125 0.578125 310.214844 0.390625 308.84375 0.261719 C 307.476562 0.136719 306.101562 0.0742188 304.722656 0.0742188 L 62.863281 0.0742188 C 61.488281 0.078125 60.117188 0.144531 58.746094 0.269531 C 57.378906 0.398438 56.015625 0.585938 54.664062 0.839844 C 53.3125 1.089844 51.976562 1.402344 50.652344 1.777344 C 49.332031 2.148438 48.027344 2.582031 46.742188 3.074219 C 45.460938 3.566406 44.203125 4.117188 42.96875 4.726562 C 41.734375 5.332031 40.53125 5.996094 39.359375 6.710938 C 38.1875 7.429688 37.046875 8.199219 35.945312 9.019531 C 34.84375 9.839844 33.78125 10.710938 32.757812 11.628906 C 31.734375 12.546875 30.753906 13.507812 29.820312 14.515625 C 28.882812 15.523438 27.996094 16.570312 27.15625 17.660156 C 26.316406 18.75 25.53125 19.871094 24.792969 21.03125 C 24.058594 22.195312 23.375 23.386719 22.746094 24.605469 C 22.117188 25.828125 21.546875 27.078125 21.035156 28.351562 C 20.519531 29.628906 20.066406 30.921875 19.667969 32.238281 C 19.273438 33.554688 18.941406 34.886719 18.664062 36.234375 C 18.390625 37.582031 18.179688 38.9375 18.03125 40.304688 L 18.03125 41.175781 C 18.03125 42.5 17.800781 43.824219 17.800781 45.1875 L 17.800781 64.433594 C 17.804688 65.910156 17.878906 67.382812 18.027344 68.851562 C 18.175781 70.320312 18.390625 71.777344 18.683594 73.226562 C 18.972656 74.671875 19.332031 76.101562 19.761719 77.515625 C 20.195312 78.925781 20.691406 80.316406 21.257812 81.679688 C 21.824219 83.042969 22.457031 84.375 23.15625 85.675781 C 23.851562 86.976562 24.613281 88.242188 25.433594 89.46875 C 26.253906 90.695312 27.136719 91.878906 28.074219 93.019531 C 29.011719 94.160156 30.003906 95.253906 31.046875 96.296875 C 32.09375 97.339844 33.1875 98.328125 34.328125 99.265625 C 35.46875 100.203125 36.65625 101.082031 37.882812 101.902344 C 39.113281 102.722656 40.375 103.480469 41.679688 104.175781 C 42.980469 104.871094 44.316406 105.5 45.679688 106.066406 C 47.046875 106.632812 48.433594 107.128906 49.847656 107.558594 C 51.261719 107.988281 52.691406 108.347656 54.140625 108.636719 C 55.589844 108.925781 57.046875 109.140625 58.519531 109.289062 C 59.988281 109.433594 61.460938 109.507812 62.9375 109.507812 L 304.722656 109.507812 C 307.386719 109.511719 310.027344 109.269531 312.644531 108.789062 L 309.953125 96.78125 C 309.914062 96.597656 309.898438 96.414062 309.90625 96.226562 C 309.914062 96.042969 309.945312 95.859375 309.996094 95.679688 C 310.050781 95.5 310.125 95.332031 310.21875 95.171875 C 310.316406 95.011719 310.429688 94.867188 310.558594 94.734375 C 310.691406 94.601562 310.839844 94.488281 311 94.394531 C 311.160156 94.296875 311.328125 94.222656 311.507812 94.171875 C 311.6875 94.117188 311.867188 94.089844 312.054688 94.082031 C 312.242188 94.074219 312.425781 94.089844 312.605469 94.128906 L 334.019531 98.597656 C 336.480469 96.492188 338.691406 94.144531 340.644531 91.5625 C 342.601562 88.976562 344.253906 86.214844 345.613281 83.273438 C 346.96875 80.328125 347.996094 77.277344 348.695312 74.113281 C 349.390625 70.949219 349.742188 67.746094 349.746094 64.507812 L 349.746094 45.1875 C 349.859375 43.824219 349.746094 42.5 349.632812 41.175781 Z M 73.359375 73.257812 C 73.359375 73.546875 73.332031 73.832031 73.273438 74.113281 C 73.21875 74.398438 73.136719 74.671875 73.023438 74.9375 C 72.914062 75.203125 72.777344 75.457031 72.617188 75.695312 C 72.457031 75.9375 72.277344 76.15625 72.070312 76.363281 C 71.867188 76.566406 71.644531 76.746094 71.40625 76.90625 C 71.164062 77.066406 70.914062 77.203125 70.644531 77.3125 C 70.378906 77.421875 70.105469 77.507812 69.820312 77.5625 C 69.539062 77.617188 69.253906 77.648438 68.964844 77.648438 C 68.675781 77.648438 68.390625 77.617188 68.105469 77.5625 C 67.824219 77.507812 67.550781 77.421875 67.28125 77.3125 C 67.015625 77.203125 66.761719 77.066406 66.523438 76.90625 C 66.285156 76.746094 66.0625 76.566406 65.855469 76.363281 C 65.652344 76.15625 65.472656 75.9375 65.3125 75.695312 C 65.148438 75.457031 65.015625 75.203125 64.902344 74.9375 C 64.792969 74.671875 64.710938 74.398438 64.652344 74.113281 C 64.597656 73.832031 64.570312 73.546875 64.566406 73.257812 L 64.566406 53.183594 L 57.59375 63.597656 C 55.664062 66.667969 53.046875 66.667969 51.113281 63.597656 L 44.066406 53.183594 L 44.066406 73.257812 C 44.0625 73.539062 44.035156 73.820312 43.976562 74.09375 C 43.921875 74.371094 43.839844 74.640625 43.730469 74.902344 C 43.625 75.164062 43.492188 75.410156 43.335938 75.644531 C 43.179688 75.882812 43.003906 76.097656 42.804688 76.300781 C 42.609375 76.503906 42.390625 76.683594 42.160156 76.84375 C 41.925781 77.003906 41.679688 77.136719 41.421875 77.25 C 41.164062 77.363281 40.894531 77.449219 40.621094 77.511719 C 40.34375 77.570312 40.066406 77.605469 39.785156 77.613281 C 39.496094 77.609375 39.214844 77.582031 38.933594 77.523438 C 38.652344 77.464844 38.378906 77.382812 38.117188 77.273438 C 37.851562 77.164062 37.601562 77.027344 37.359375 76.871094 C 37.121094 76.710938 36.902344 76.53125 36.699219 76.328125 C 36.496094 76.128906 36.3125 75.910156 36.152344 75.671875 C 35.992188 75.433594 35.855469 75.183594 35.742188 74.921875 C 35.628906 74.660156 35.542969 74.386719 35.484375 74.105469 C 35.425781 73.828125 35.390625 73.542969 35.386719 73.257812 L 35.386719 43.976562 C 35.378906 43.375 35.46875 42.785156 35.65625 42.214844 C 35.839844 41.640625 36.113281 41.113281 36.472656 40.628906 C 36.832031 40.144531 37.261719 39.730469 37.757812 39.390625 C 38.253906 39.046875 38.789062 38.792969 39.371094 38.625 C 39.949219 38.460938 40.539062 38.390625 41.140625 38.421875 C 41.746094 38.449219 42.328125 38.574219 42.886719 38.792969 C 43.449219 39.011719 43.960938 39.316406 44.421875 39.707031 C 44.882812 40.09375 45.269531 40.546875 45.582031 41.0625 L 54.375 54.582031 L 63.242188 41.0625 C 63.753906 40.265625 64.421875 39.636719 65.246094 39.171875 C 66.070312 38.710938 66.957031 38.46875 67.902344 38.445312 C 68.265625 38.449219 68.625 38.488281 68.980469 38.558594 C 69.335938 38.632812 69.679688 38.738281 70.015625 38.878906 C 70.347656 39.019531 70.667969 39.1875 70.96875 39.390625 C 71.269531 39.59375 71.546875 39.820312 71.804688 40.078125 C 72.0625 40.335938 72.289062 40.613281 72.492188 40.914062 C 72.695312 41.214844 72.863281 41.53125 73.003906 41.867188 C 73.144531 42.199219 73.25 42.546875 73.324219 42.902344 C 73.394531 43.257812 73.433594 43.613281 73.4375 43.976562 Z M 98.714844 77.6875 C 98.050781 77.71875 97.390625 77.714844 96.730469 77.675781 C 96.070312 77.640625 95.410156 77.566406 94.757812 77.464844 C 94.101562 77.359375 93.457031 77.222656 92.816406 77.054688 C 92.175781 76.882812 91.546875 76.683594 90.925781 76.449219 C 90.304688 76.214844 89.699219 75.953125 89.105469 75.660156 C 88.511719 75.363281 87.9375 75.042969 87.375 74.6875 C 86.816406 74.335938 86.273438 73.957031 85.753906 73.550781 C 85.230469 73.140625 84.730469 72.710938 84.25 72.253906 C 83.773438 71.792969 83.320312 71.3125 82.890625 70.808594 C 82.460938 70.308594 82.054688 69.78125 81.679688 69.238281 C 81.300781 68.695312 80.953125 68.132812 80.632812 67.554688 C 80.3125 66.972656 80.023438 66.378906 79.761719 65.769531 C 79.503906 65.164062 79.273438 64.542969 79.078125 63.910156 C 78.878906 63.277344 78.714844 62.640625 78.582031 61.992188 C 78.449219 61.34375 78.347656 60.6875 78.28125 60.03125 C 78.214844 59.371094 78.183594 58.710938 78.183594 58.050781 C 78.183594 57.386719 78.214844 56.726562 78.28125 56.070312 C 78.347656 55.410156 78.449219 54.757812 78.582031 54.109375 C 78.714844 53.460938 78.878906 52.820312 79.078125 52.1875 C 79.273438 51.554688 79.503906 50.9375 79.761719 50.328125 C 80.023438 49.71875 80.3125 49.125 80.632812 48.546875 C 80.953125 47.964844 81.300781 47.402344 81.679688 46.859375 C 82.054688 46.316406 82.460938 45.792969 82.890625 45.289062 C 83.320312 44.785156 83.773438 44.304688 84.25 43.847656 C 84.730469 43.390625 85.230469 42.957031 85.753906 42.550781 C 86.273438 42.140625 86.816406 41.761719 87.375 41.410156 C 87.9375 41.058594 88.511719 40.734375 89.105469 40.441406 C 89.699219 40.144531 90.304688 39.882812 90.925781 39.648438 C 91.546875 39.414062 92.175781 39.214844 92.816406 39.046875 C 93.457031 38.875 94.101562 38.738281 94.757812 38.636719 C 95.410156 38.53125 96.070312 38.460938 96.730469 38.421875 C 97.390625 38.382812 98.050781 38.378906 98.714844 38.410156 C 99.375 38.378906 100.035156 38.382812 100.699219 38.421875 C 101.359375 38.460938 102.015625 38.53125 102.671875 38.636719 C 103.324219 38.738281 103.972656 38.875 104.613281 39.046875 C 105.25 39.214844 105.882812 39.414062 106.5 39.648438 C 107.121094 39.882812 107.726562 40.144531 108.320312 40.441406 C 108.914062 40.734375 109.492188 41.058594 110.050781 41.410156 C 110.613281 41.761719 111.152344 42.140625 111.675781 42.550781 C 112.199219 42.957031 112.699219 43.390625 113.175781 43.847656 C 113.65625 44.304688 114.109375 44.785156 114.539062 45.289062 C 114.96875 45.792969 115.371094 46.316406 115.75 46.859375 C 116.125 47.402344 116.472656 47.964844 116.792969 48.546875 C 117.113281 49.125 117.40625 49.71875 117.664062 50.328125 C 117.925781 50.9375 118.152344 51.554688 118.351562 52.1875 C 118.546875 52.820312 118.714844 53.460938 118.847656 54.109375 C 118.980469 54.757812 119.078125 55.410156 119.144531 56.070312 C 119.210938 56.726562 119.246094 57.386719 119.246094 58.050781 C 119.246094 58.710938 119.210938 59.371094 119.144531 60.03125 C 119.078125 60.6875 118.980469 61.34375 118.847656 61.992188 C 118.714844 62.640625 118.546875 63.277344 118.351562 63.910156 C 118.152344 64.542969 117.925781 65.164062 117.664062 65.769531 C 117.40625 66.378906 117.113281 66.972656 116.792969 67.554688 C 116.472656 68.132812 116.125 68.695312 115.75 69.238281 C 115.371094 69.78125 114.96875 70.308594 114.539062 70.808594 C 114.109375 71.3125 113.65625 71.792969 113.175781 72.253906 C 112.699219 72.710938 112.199219 73.140625 111.675781 73.550781 C 111.152344 73.957031 110.613281 74.335938 110.050781 74.6875 C 109.492188 75.042969 108.914062 75.363281 108.320312 75.660156 C 107.726562 75.953125 107.121094 76.214844 106.5 76.449219 C 105.882812 76.683594 105.25 76.882812 104.613281 77.054688 C 103.972656 77.222656 103.324219 77.359375 102.671875 77.464844 C 102.015625 77.566406 101.359375 77.636719 100.699219 77.675781 C 100.035156 77.714844 99.375 77.71875 98.714844 77.6875 Z M 153.097656 71.554688 C 153.527344 72.179688 153.730469 72.875 153.703125 73.636719 C 153.703125 74.136719 153.605469 74.621094 153.414062 75.085938 C 153.222656 75.550781 152.949219 75.960938 152.59375 76.316406 C 152.238281 76.671875 151.828125 76.945312 151.363281 77.136719 C 150.898438 77.328125 150.414062 77.425781 149.914062 77.425781 C 149.230469 77.398438 148.589844 77.222656 147.988281 76.898438 C 147.390625 76.570312 146.894531 76.128906 146.503906 75.566406 L 138.621094 64.203125 L 133.277344 64.203125 L 133.277344 73.066406 C 133.222656 73.636719 133.070312 74.179688 132.816406 74.691406 C 132.5625 75.203125 132.222656 75.652344 131.800781 76.035156 C 131.378906 76.421875 130.902344 76.71875 130.367188 76.925781 C 129.835938 77.132812 129.28125 77.234375 128.710938 77.234375 C 128.136719 77.234375 127.585938 77.132812 127.050781 76.925781 C 126.519531 76.71875 126.039062 76.421875 125.617188 76.035156 C 125.195312 75.652344 124.855469 75.203125 124.601562 74.691406 C 124.347656 74.179688 124.195312 73.636719 124.144531 73.066406 L 124.144531 43.863281 C 124.109375 43.546875 124.113281 43.230469 124.152344 42.914062 C 124.1875 42.597656 124.261719 42.292969 124.367188 41.992188 C 124.472656 41.691406 124.613281 41.40625 124.78125 41.136719 C 124.953125 40.871094 125.148438 40.621094 125.375 40.398438 C 125.601562 40.171875 125.847656 39.976562 126.117188 39.804688 C 126.386719 39.636719 126.667969 39.496094 126.96875 39.390625 C 127.269531 39.285156 127.578125 39.210938 127.894531 39.175781 C 128.210938 39.136719 128.527344 39.132812 128.84375 39.167969 L 139.871094 39.167969 C 148.585938 39.167969 154.195312 43.863281 154.195312 51.554688 C 154.238281 52.152344 154.230469 52.753906 154.175781 53.351562 C 154.121094 53.953125 154.019531 54.542969 153.867188 55.128906 C 153.71875 55.710938 153.527344 56.277344 153.285156 56.832031 C 153.046875 57.382812 152.765625 57.914062 152.441406 58.421875 C 152.121094 58.929688 151.757812 59.410156 151.359375 59.859375 C 150.957031 60.308594 150.527344 60.726562 150.058594 61.109375 C 149.59375 61.488281 149.101562 61.832031 148.582031 62.136719 C 148.058594 62.4375 147.519531 62.699219 146.957031 62.917969 Z M 183.148438 53.675781 C 183.652344 53.675781 184.136719 53.769531 184.601562 53.960938 C 185.0625 54.15625 185.472656 54.429688 185.828125 54.785156 C 186.183594 55.140625 186.457031 55.546875 186.652344 56.011719 C 186.84375 56.476562 186.9375 56.960938 186.9375 57.460938 C 186.9375 57.964844 186.84375 58.449219 186.652344 58.910156 C 186.457031 59.375 186.183594 59.785156 185.828125 60.140625 C 185.472656 60.496094 185.0625 60.769531 184.601562 60.960938 C 184.136719 61.152344 183.652344 61.25 183.148438 61.25 L 169.394531 61.25 L 169.394531 69.054688 L 184.550781 69.054688 C 185.054688 69.054688 185.539062 69.148438 186 69.339844 C 186.464844 69.535156 186.875 69.808594 187.230469 70.164062 C 187.585938 70.519531 187.859375 70.925781 188.054688 71.390625 C 188.246094 71.855469 188.339844 72.339844 188.339844 72.839844 C 188.339844 73.34375 188.246094 73.828125 188.054688 74.289062 C 187.859375 74.753906 187.585938 75.164062 187.230469 75.519531 C 186.875 75.875 186.464844 76.148438 186 76.339844 C 185.539062 76.53125 185.054688 76.628906 184.550781 76.628906 L 164.84375 76.628906 C 164.53125 76.660156 164.21875 76.660156 163.902344 76.621094 C 163.589844 76.585938 163.285156 76.511719 162.988281 76.40625 C 162.6875 76.300781 162.40625 76.164062 162.140625 75.996094 C 161.871094 75.828125 161.628906 75.632812 161.402344 75.410156 C 161.179688 75.1875 160.984375 74.941406 160.816406 74.671875 C 160.648438 74.40625 160.511719 74.125 160.40625 73.828125 C 160.300781 73.53125 160.226562 73.222656 160.191406 72.910156 C 160.152344 72.597656 160.152344 72.285156 160.183594 71.96875 L 160.183594 43.863281 C 160.148438 43.546875 160.148438 43.234375 160.183594 42.917969 C 160.21875 42.601562 160.289062 42.292969 160.390625 41.992188 C 160.496094 41.695312 160.632812 41.410156 160.800781 41.140625 C 160.96875 40.871094 161.164062 40.625 161.386719 40.398438 C 161.609375 40.171875 161.855469 39.976562 162.125 39.804688 C 162.394531 39.632812 162.675781 39.496094 162.976562 39.390625 C 163.277344 39.28125 163.582031 39.210938 163.898438 39.171875 C 164.214844 39.136719 164.527344 39.132812 164.84375 39.167969 L 184.398438 39.167969 C 184.902344 39.167969 185.386719 39.261719 185.851562 39.453125 C 186.316406 39.648438 186.722656 39.921875 187.078125 40.277344 C 187.433594 40.632812 187.710938 41.039062 187.902344 41.503906 C 188.09375 41.96875 188.191406 42.453125 188.191406 42.953125 C 188.191406 43.457031 188.09375 43.941406 187.902344 44.402344 C 187.710938 44.867188 187.433594 45.277344 187.078125 45.632812 C 186.722656 45.988281 186.316406 46.261719 185.851562 46.453125 C 185.386719 46.644531 184.902344 46.742188 184.398438 46.742188 L 169.242188 46.742188 L 169.242188 53.597656 Z M 216.15625 73.066406 C 216.15625 73.367188 216.128906 73.664062 216.070312 73.953125 C 216.011719 74.246094 215.925781 74.53125 215.8125 74.808594 C 215.699219 75.082031 215.558594 75.34375 215.390625 75.59375 C 215.226562 75.839844 215.039062 76.070312 214.824219 76.28125 C 214.613281 76.492188 214.386719 76.683594 214.136719 76.847656 C 213.890625 77.011719 213.625 77.152344 213.351562 77.269531 C 213.074219 77.382812 212.789062 77.46875 212.496094 77.527344 C 212.203125 77.585938 211.910156 77.613281 211.609375 77.613281 C 211.3125 77.613281 211.015625 77.585938 210.722656 77.527344 C 210.429688 77.46875 210.144531 77.382812 209.871094 77.269531 C 209.59375 77.152344 209.332031 77.011719 209.082031 76.847656 C 208.835938 76.683594 208.605469 76.492188 208.394531 76.28125 C 208.183594 76.070312 207.996094 75.839844 207.828125 75.59375 C 207.664062 75.34375 207.523438 75.082031 207.410156 74.808594 C 207.292969 74.53125 207.207031 74.246094 207.148438 73.953125 C 207.09375 73.664062 207.0625 73.367188 207.0625 73.066406 L 207.0625 42.765625 C 207.0625 42.464844 207.09375 42.171875 207.148438 41.878906 C 207.207031 41.585938 207.292969 41.300781 207.410156 41.027344 C 207.523438 40.75 207.664062 40.488281 207.828125 40.238281 C 207.996094 39.992188 208.183594 39.761719 208.394531 39.550781 C 208.605469 39.339844 208.835938 39.152344 209.082031 38.984375 C 209.332031 38.820312 209.59375 38.679688 209.871094 38.566406 C 210.144531 38.453125 210.429688 38.363281 210.722656 38.308594 C 211.015625 38.25 211.3125 38.21875 211.609375 38.21875 C 211.910156 38.21875 212.203125 38.25 212.496094 38.308594 C 212.789062 38.363281 213.074219 38.453125 213.351562 38.566406 C 213.625 38.679688 213.890625 38.820312 214.136719 38.984375 C 214.386719 39.152344 214.613281 39.339844 214.824219 39.550781 C 215.039062 39.761719 215.226562 39.992188 215.390625 40.238281 C 215.558594 40.488281 215.699219 40.75 215.8125 41.027344 C 215.925781 41.300781 216.011719 41.585938 216.070312 41.878906 C 216.128906 42.171875 216.15625 42.464844 216.15625 42.765625 Z M 254.28125 72.574219 C 254.285156 73.125 254.203125 73.660156 254.03125 74.179688 C 253.859375 74.703125 253.609375 75.183594 253.28125 75.625 C 252.953125 76.0625 252.5625 76.441406 252.109375 76.75 C 251.65625 77.0625 251.167969 77.296875 250.640625 77.449219 C 250.113281 77.601562 249.574219 77.664062 249.027344 77.640625 C 248.476562 77.617188 247.945312 77.507812 247.433594 77.308594 C 246.921875 77.113281 246.453125 76.839844 246.03125 76.488281 C 245.605469 76.140625 245.25 75.730469 244.960938 75.265625 L 231.734375 54.28125 L 231.734375 73.21875 C 231.734375 73.511719 231.707031 73.804688 231.648438 74.089844 C 231.589844 74.378906 231.507812 74.660156 231.394531 74.929688 C 231.28125 75.203125 231.144531 75.457031 230.980469 75.703125 C 230.816406 75.945312 230.632812 76.171875 230.425781 76.378906 C 230.214844 76.585938 229.992188 76.773438 229.746094 76.9375 C 229.503906 77.097656 229.246094 77.238281 228.972656 77.347656 C 228.703125 77.460938 228.421875 77.546875 228.132812 77.601562 C 227.847656 77.660156 227.554688 77.6875 227.261719 77.6875 C 226.96875 77.6875 226.675781 77.660156 226.390625 77.601562 C 226.101562 77.546875 225.820312 77.460938 225.550781 77.347656 C 225.28125 77.238281 225.023438 77.097656 224.777344 76.9375 C 224.535156 76.773438 224.308594 76.585938 224.101562 76.378906 C 223.890625 76.171875 223.707031 75.945312 223.542969 75.703125 C 223.378906 75.457031 223.242188 75.203125 223.128906 74.929688 C 223.019531 74.660156 222.933594 74.378906 222.875 74.089844 C 222.820312 73.804688 222.789062 73.511719 222.789062 73.21875 L 222.789062 43.5625 C 222.789062 43.214844 222.820312 42.875 222.882812 42.539062 C 222.949219 42.199219 223.042969 41.871094 223.171875 41.550781 C 223.300781 41.230469 223.460938 40.929688 223.648438 40.640625 C 223.835938 40.351562 224.050781 40.085938 224.292969 39.839844 C 224.535156 39.59375 224.796875 39.375 225.082031 39.179688 C 225.363281 38.984375 225.664062 38.820312 225.980469 38.683594 C 226.296875 38.546875 226.625 38.445312 226.960938 38.371094 C 227.296875 38.300781 227.636719 38.261719 227.980469 38.257812 C 228.882812 38.265625 229.722656 38.492188 230.503906 38.9375 C 231.289062 39.382812 231.910156 39.988281 232.378906 40.757812 L 245.300781 60.984375 L 245.300781 42.804688 C 245.351562 42.242188 245.503906 41.710938 245.753906 41.207031 C 246.003906 40.707031 246.335938 40.265625 246.753906 39.886719 C 247.167969 39.507812 247.636719 39.214844 248.164062 39.011719 C 248.6875 38.808594 249.230469 38.707031 249.792969 38.707031 C 250.355469 38.707031 250.898438 38.808594 251.421875 39.011719 C 251.945312 39.214844 252.417969 39.507812 252.832031 39.886719 C 253.246094 40.265625 253.578125 40.707031 253.832031 41.207031 C 254.082031 41.710938 254.230469 42.242188 254.28125 42.804688 Z M 285.167969 46.816406 L 270.011719 46.816406 L 270.011719 55.074219 L 283.765625 55.074219 C 284.269531 55.074219 284.753906 55.171875 285.21875 55.363281 C 285.683594 55.554688 286.089844 55.828125 286.445312 56.183594 C 286.800781 56.539062 287.078125 56.949219 287.269531 57.414062 C 287.460938 57.878906 287.558594 58.359375 287.558594 58.863281 C 287.558594 59.367188 287.460938 59.847656 287.269531 60.3125 C 287.078125 60.777344 286.800781 61.1875 286.445312 61.542969 C 286.089844 61.898438 285.683594 62.171875 285.21875 62.363281 C 284.753906 62.554688 284.269531 62.652344 283.765625 62.652344 L 270.046875 62.652344 L 270.046875 72.574219 C 270.046875 72.875 270.019531 73.167969 269.960938 73.460938 C 269.902344 73.753906 269.816406 74.039062 269.703125 74.316406 C 269.589844 74.589844 269.449219 74.851562 269.28125 75.101562 C 269.117188 75.347656 268.925781 75.578125 268.714844 75.789062 C 268.503906 76 268.277344 76.1875 268.027344 76.355469 C 267.777344 76.519531 267.515625 76.660156 267.242188 76.773438 C 266.964844 76.890625 266.679688 76.976562 266.386719 77.035156 C 266.09375 77.09375 265.800781 77.121094 265.5 77.121094 C 265.203125 77.121094 264.90625 77.09375 264.613281 77.035156 C 264.320312 76.976562 264.035156 76.890625 263.761719 76.773438 C 263.484375 76.660156 263.222656 76.519531 262.972656 76.355469 C 262.726562 76.1875 262.496094 76 262.285156 75.789062 C 262.074219 75.578125 261.886719 75.347656 261.71875 75.101562 C 261.554688 74.851562 261.414062 74.589844 261.300781 74.316406 C 261.183594 74.039062 261.097656 73.753906 261.039062 73.460938 C 260.980469 73.167969 260.953125 72.875 260.953125 72.574219 L 260.953125 43.789062 C 260.917969 43.472656 260.917969 43.15625 260.953125 42.839844 C 260.988281 42.527344 261.058594 42.21875 261.160156 41.917969 C 261.265625 41.617188 261.402344 41.332031 261.570312 41.066406 C 261.738281 40.796875 261.933594 40.546875 262.15625 40.324219 C 262.378906 40.097656 262.625 39.898438 262.894531 39.730469 C 263.164062 39.558594 263.445312 39.421875 263.746094 39.3125 C 264.042969 39.207031 264.351562 39.136719 264.667969 39.097656 C 264.984375 39.058594 265.296875 39.058594 265.613281 39.089844 L 285.167969 39.089844 C 285.671875 39.089844 286.15625 39.1875 286.621094 39.378906 C 287.085938 39.570312 287.492188 39.84375 287.847656 40.199219 C 288.203125 40.554688 288.476562 40.964844 288.671875 41.429688 C 288.863281 41.894531 288.960938 42.375 288.960938 42.878906 C 288.960938 43.382812 288.863281 43.863281 288.671875 44.328125 C 288.476562 44.792969 288.203125 45.203125 287.847656 45.558594 C 287.492188 45.914062 287.085938 46.1875 286.621094 46.378906 C 286.15625 46.570312 285.671875 46.667969 285.167969 46.667969 Z M 304.117188 97.726562 C 303.953125 97.867188 303.765625 97.945312 303.550781 97.953125 L 292.066406 97.953125 C 291.847656 97.957031 291.65625 97.878906 291.5 97.722656 C 291.34375 97.566406 291.265625 97.378906 291.265625 97.160156 C 291.265625 96.9375 291.34375 96.75 291.5 96.59375 C 291.65625 96.441406 291.847656 96.363281 292.066406 96.363281 L 303.625 96.363281 C 303.84375 96.363281 304.03125 96.441406 304.1875 96.597656 C 304.34375 96.75 304.421875 96.9375 304.421875 97.160156 C 304.410156 97.375 304.335938 97.5625 304.195312 97.726562 Z M 305.976562 91.289062 C 305.8125 91.460938 305.609375 91.550781 305.367188 91.550781 C 305.128906 91.550781 304.925781 91.460938 304.761719 91.289062 L 295.210938 81.78125 C 295.039062 81.617188 294.949219 81.414062 294.949219 81.175781 C 294.949219 80.933594 295.039062 80.734375 295.210938 80.566406 C 295.289062 80.484375 295.375 80.421875 295.480469 80.378906 C 295.582031 80.332031 295.6875 80.308594 295.800781 80.308594 C 295.910156 80.308594 296.019531 80.332031 296.121094 80.378906 C 296.222656 80.421875 296.3125 80.484375 296.386719 80.566406 L 305.976562 90.152344 C 306.132812 90.308594 306.214844 90.496094 306.214844 90.71875 C 306.214844 90.941406 306.132812 91.132812 305.976562 91.289062 Z M 313.214844 77.539062 L 313.214844 88.332031 C 313.207031 88.550781 313.132812 88.742188 312.984375 88.902344 C 312.734375 89.15625 312.441406 89.21875 312.113281 89.078125 C 311.78125 88.941406 311.617188 88.691406 311.621094 88.332031 L 311.621094 77.613281 C 311.179688 77.597656 310.738281 77.566406 310.296875 77.519531 C 309.855469 77.472656 309.417969 77.414062 308.980469 77.339844 C 308.546875 77.265625 308.113281 77.179688 307.679688 77.074219 C 307.25 76.972656 306.824219 76.859375 306.398438 76.726562 C 305.976562 76.597656 305.558594 76.457031 305.144531 76.296875 C 304.730469 76.140625 304.320312 75.972656 303.917969 75.789062 C 303.515625 75.605469 303.117188 75.410156 302.726562 75.203125 C 302.335938 74.992188 301.953125 74.769531 301.578125 74.539062 C 301.203125 74.304688 300.835938 74.058594 300.472656 73.800781 C 300.113281 73.542969 299.761719 73.277344 299.417969 72.996094 C 299.078125 72.714844 298.742188 72.425781 298.417969 72.121094 C 298.09375 71.820312 297.78125 71.507812 297.476562 71.1875 C 297.171875 70.867188 296.878906 70.535156 296.597656 70.195312 C 296.316406 69.851562 296.042969 69.503906 295.785156 69.144531 C 295.523438 68.785156 295.277344 68.421875 295.042969 68.046875 C 294.804688 67.671875 294.582031 67.289062 294.371094 66.902344 C 294.160156 66.511719 293.960938 66.117188 293.773438 65.714844 C 293.589844 65.3125 293.414062 64.90625 293.257812 64.492188 C 293.097656 64.082031 292.949219 63.664062 292.816406 63.242188 C 292.6875 62.820312 292.566406 62.394531 292.460938 61.960938 C 292.355469 61.53125 292.265625 61.101562 292.1875 60.664062 C 292.113281 60.226562 292.050781 59.789062 292 59.351562 C 291.953125 58.910156 291.917969 58.46875 291.898438 58.027344 C 291.878906 57.585938 291.871094 57.144531 291.882812 56.699219 C 291.890625 56.257812 291.914062 55.816406 291.949219 55.375 C 291.988281 54.933594 292.039062 54.496094 292.105469 54.058594 C 292.167969 53.621094 292.25 53.183594 292.34375 52.753906 C 292.4375 52.320312 292.542969 51.890625 292.664062 51.464844 C 292.789062 51.039062 292.921875 50.617188 293.070312 50.203125 C 293.21875 49.785156 293.382812 49.375 293.558594 48.96875 C 293.734375 48.5625 293.921875 48.160156 294.121094 47.765625 C 294.324219 47.371094 294.535156 46.984375 294.761719 46.605469 C 294.988281 46.222656 295.226562 45.851562 295.476562 45.488281 C 295.730469 45.121094 295.992188 44.765625 296.265625 44.417969 C 296.539062 44.070312 296.820312 43.730469 297.117188 43.402344 C 297.414062 43.070312 297.71875 42.75 298.035156 42.441406 C 298.351562 42.132812 298.675781 41.832031 299.011719 41.542969 C 299.347656 41.253906 299.691406 40.976562 300.046875 40.710938 C 300.398438 40.445312 300.761719 40.1875 301.128906 39.945312 C 301.5 39.703125 301.878906 39.472656 302.261719 39.253906 C 302.648438 39.035156 303.039062 38.828125 303.4375 38.632812 C 303.835938 38.441406 304.238281 38.261719 304.648438 38.09375 C 305.058594 37.925781 305.472656 37.773438 305.894531 37.632812 C 306.3125 37.492188 306.738281 37.363281 307.164062 37.25 C 307.59375 37.136719 308.023438 37.039062 308.460938 36.953125 C 308.894531 36.867188 309.332031 36.796875 309.769531 36.738281 C 310.207031 36.683594 310.648438 36.640625 311.089844 36.609375 C 311.53125 36.582031 311.976562 36.570312 312.417969 36.570312 C 312.859375 36.570312 313.304688 36.582031 313.746094 36.609375 C 314.1875 36.640625 314.628906 36.683594 315.066406 36.738281 C 315.503906 36.796875 315.941406 36.867188 316.375 36.953125 C 316.8125 37.039062 317.242188 37.136719 317.671875 37.25 C 318.097656 37.363281 318.523438 37.492188 318.941406 37.632812 C 319.363281 37.773438 319.777344 37.925781 320.1875 38.09375 C 320.597656 38.261719 321 38.441406 321.398438 38.632812 C 321.796875 38.828125 322.1875 39.035156 322.574219 39.253906 C 322.957031 39.472656 323.335938 39.703125 323.703125 39.945312 C 324.074219 40.1875 324.4375 40.445312 324.789062 40.710938 C 325.144531 40.976562 325.488281 41.253906 325.824219 41.542969 C 326.160156 41.832031 326.484375 42.132812 326.800781 42.441406 C 327.117188 42.75 327.421875 43.070312 327.71875 43.402344 C 328.011719 43.730469 328.296875 44.070312 328.570312 44.417969 C 328.84375 44.765625 329.105469 45.121094 329.355469 45.488281 C 329.609375 45.851562 329.847656 46.222656 330.070312 46.605469 C 330.296875 46.984375 330.511719 47.371094 330.714844 47.765625 C 330.914062 48.160156 331.101562 48.5625 331.277344 48.96875 C 331.453125 49.375 331.617188 49.785156 331.765625 50.203125 C 331.914062 50.617188 332.046875 51.039062 332.167969 51.464844 C 332.292969 51.890625 332.398438 52.320312 332.492188 52.753906 C 332.585938 53.183594 332.667969 53.621094 332.730469 54.058594 C 332.796875 54.496094 332.847656 54.933594 332.886719 55.375 C 332.921875 55.816406 332.945312 56.257812 332.953125 56.699219 C 332.964844 57.144531 332.957031 57.585938 332.9375 58.027344 C 332.917969 58.46875 332.882812 58.910156 332.835938 59.351562 C 332.785156 59.789062 332.722656 60.226562 332.644531 60.664062 C 332.570312 61.101562 332.476562 61.53125 332.375 61.960938 C 332.269531 62.394531 332.148438 62.820312 332.015625 63.242188 C 331.886719 63.664062 331.738281 64.082031 331.578125 64.492188 C 331.421875 64.90625 331.246094 65.3125 331.0625 65.714844 C 330.875 66.117188 330.675781 66.511719 330.464844 66.902344 C 330.253906 67.289062 330.03125 67.671875 329.792969 68.046875 C 329.558594 68.421875 329.308594 68.785156 329.050781 69.144531 C 328.789062 69.503906 328.519531 69.851562 328.238281 70.195312 C 327.953125 70.535156 327.660156 70.867188 327.359375 71.1875 C 327.054688 71.507812 326.738281 71.820312 326.417969 72.121094 C 326.09375 72.425781 325.757812 72.714844 325.417969 72.996094 C 325.074219 73.277344 324.722656 73.542969 324.363281 73.800781 C 324 74.058594 323.632812 74.304688 323.257812 74.539062 C 322.882812 74.769531 322.496094 74.992188 322.105469 75.203125 C 321.71875 75.410156 321.320312 75.605469 320.917969 75.789062 C 320.515625 75.972656 320.105469 76.140625 319.691406 76.296875 C 319.277344 76.457031 318.859375 76.597656 318.433594 76.726562 C 318.011719 76.859375 317.585938 76.972656 317.152344 77.074219 C 316.722656 77.179688 316.289062 77.265625 315.851562 77.339844 C 315.417969 77.414062 314.976562 77.472656 314.539062 77.519531 C 314.097656 77.566406 313.65625 77.597656 313.214844 77.613281 Z M 145.101562 51.667969 C 145.101562 54.886719 143.433594 56.402344 139.074219 56.402344 L 133.277344 56.402344 L 133.277344 47.007812 L 139.035156 47.007812 C 143.433594 47.007812 145.101562 48.445312 145.101562 51.667969 Z M 109.816406 57.992188 C 109.894531 58.761719 109.894531 59.53125 109.8125 60.300781 C 109.726562 61.070312 109.566406 61.820312 109.324219 62.554688 C 109.082031 63.292969 108.769531 63.992188 108.378906 64.664062 C 107.992188 65.332031 107.539062 65.953125 107.019531 66.527344 C 106.5 67.101562 105.929688 67.613281 105.300781 68.070312 C 104.675781 68.523438 104.007812 68.90625 103.300781 69.21875 C 102.59375 69.535156 101.863281 69.769531 101.105469 69.933594 C 100.347656 70.09375 99.582031 70.171875 98.808594 70.171875 C 98.035156 70.171875 97.269531 70.09375 96.511719 69.933594 C 95.753906 69.769531 95.023438 69.535156 94.316406 69.21875 C 93.609375 68.90625 92.941406 68.523438 92.316406 68.070312 C 91.6875 67.613281 91.117188 67.101562 90.597656 66.527344 C 90.078125 65.953125 89.625 65.332031 89.238281 64.664062 C 88.847656 63.992188 88.535156 63.292969 88.292969 62.554688 C 88.050781 61.820312 87.890625 61.070312 87.804688 60.300781 C 87.722656 59.53125 87.722656 58.761719 87.800781 57.992188 C 87.722656 57.222656 87.722656 56.453125 87.804688 55.683594 C 87.890625 54.914062 88.050781 54.164062 88.292969 53.429688 C 88.535156 52.695312 88.847656 51.992188 89.238281 51.324219 C 89.625 50.652344 90.078125 50.03125 90.597656 49.457031 C 91.117188 48.882812 91.6875 48.371094 92.316406 47.917969 C 92.941406 47.460938 93.609375 47.078125 94.316406 46.765625 C 95.023438 46.449219 95.753906 46.214844 96.511719 46.054688 C 97.269531 45.890625 98.035156 45.8125 98.808594 45.8125 C 99.582031 45.8125 100.347656 45.890625 101.105469 46.054688 C 101.863281 46.214844 102.59375 46.449219 103.300781 46.765625 C 104.007812 47.078125 104.675781 47.460938 105.300781 47.917969 C 105.929688 48.371094 106.5 48.882812 107.019531 49.457031 C 107.539062 50.03125 107.992188 50.652344 108.378906 51.324219 C 108.769531 51.992188 109.082031 52.695312 109.324219 53.429688 C 109.566406 54.164062 109.726562 54.914062 109.8125 55.683594 C 109.894531 56.453125 109.894531 57.222656 109.816406 57.992188 Z M 323.371094 57.992188 C 323.449219 58.761719 323.445312 59.53125 323.363281 60.300781 C 323.28125 61.070312 323.117188 61.820312 322.875 62.554688 C 322.636719 63.292969 322.320312 63.992188 321.933594 64.664062 C 321.542969 65.332031 321.089844 65.953125 320.574219 66.527344 C 320.054688 67.101562 319.480469 67.613281 318.855469 68.066406 C 318.226562 68.523438 317.5625 68.90625 316.855469 69.21875 C 316.144531 69.535156 315.414062 69.769531 314.65625 69.933594 C 313.898438 70.09375 313.136719 70.171875 312.359375 70.171875 C 311.585938 70.171875 310.820312 70.09375 310.066406 69.933594 C 309.308594 69.769531 308.574219 69.535156 307.867188 69.21875 C 307.160156 68.90625 306.496094 68.523438 305.867188 68.066406 C 305.242188 67.613281 304.667969 67.101562 304.148438 66.527344 C 303.628906 65.953125 303.175781 65.332031 302.789062 64.664062 C 302.402344 63.992188 302.085938 63.292969 301.84375 62.554688 C 301.605469 61.820312 301.441406 61.070312 301.359375 60.300781 C 301.277344 59.53125 301.273438 58.761719 301.351562 57.992188 C 301.273438 57.222656 301.277344 56.453125 301.359375 55.683594 C 301.441406 54.914062 301.605469 54.164062 301.84375 53.429688 C 302.085938 52.695312 302.402344 51.992188 302.789062 51.324219 C 303.175781 50.652344 303.628906 50.03125 304.148438 49.457031 C 304.667969 48.882812 305.242188 48.371094 305.867188 47.917969 C 306.496094 47.460938 307.160156 47.078125 307.867188 46.765625 C 308.574219 46.449219 309.308594 46.214844 310.066406 46.054688 C 310.820312 45.890625 311.585938 45.8125 312.359375 45.8125 C 313.136719 45.8125 313.898438 45.890625 314.65625 46.054688 C 315.414062 46.214844 316.144531 46.449219 316.855469 46.765625 C 317.5625 47.078125 318.226562 47.460938 318.855469 47.917969 C 319.480469 48.371094 320.054688 48.882812 320.574219 49.457031 C 321.089844 50.03125 321.542969 50.652344 321.933594 51.324219 C 322.320312 51.992188 322.636719 52.695312 322.875 53.429688 C 323.117188 54.164062 323.28125 54.914062 323.363281 55.683594 C 323.445312 56.453125 323.449219 57.222656 323.371094 57.992188 Z M 323.371094 57.992188 " fill-opacity="1" fill-rule="nonzero"/></svg>