<svg xmlns="http://www.w3.org/2000/svg" xmlns:xlink="http://www.w3.org/1999/xlink" width="907" zoomAndPan="magnify" viewBox="0 0 680.25 34.499999" height="46" preserveAspectRatio="xMidYMid meet" version="1.0"><defs><g/><clipPath id="7edfc7ba0f"><path d="M 455.960938 0.527344 L 674.976562 0.527344 L 674.976562 33.796875 L 455.960938 33.796875 Z M 455.960938 0.527344 " clip-rule="nonzero"/></clipPath><clipPath id="30b8bcea92"><path d="M 472.480469 0.527344 L 657.855469 0.527344 C 666.976562 0.527344 674.371094 7.925781 674.371094 17.046875 C 674.371094 26.167969 666.976562 33.5625 657.855469 33.5625 L 472.480469 33.5625 C 463.359375 33.5625 455.960938 26.167969 455.960938 17.046875 C 455.960938 7.925781 463.359375 0.527344 472.480469 0.527344 " clip-rule="nonzero"/></clipPath><clipPath id="99b2e3eafa"><path d="M 652.175781 15 L 659.570312 15 L 659.570312 22.46875 L 652.175781 22.46875 Z M 652.175781 15 " clip-rule="nonzero"/></clipPath><clipPath id="96f21958bf"><path d="M 653 11.378906 L 659 11.378906 L 659 20 L 653 20 Z M 653 11.378906 " clip-rule="nonzero"/></clipPath><clipPath id="154453848b"><path d="M 470.445312 11.378906 L 481.535156 11.378906 L 481.535156 22.46875 L 470.445312 22.46875 Z M 470.445312 11.378906 " clip-rule="nonzero"/></clipPath></defs><g clip-path="url(#7edfc7ba0f)"><g clip-path="url(#30b8bcea92)"><path fill="#3b3b3b" d="M 455.960938 0.527344 L 674.28125 0.527344 L 674.28125 33.796875 L 455.960938 33.796875 Z M 455.960938 0.527344 " fill-opacity="1" fill-rule="nonzero"/></g></g><g clip-path="url(#99b2e3eafa)"><path fill="#ffffff" d="M 659.3125 15.746094 C 659.238281 15.746094 659.179688 15.773438 659.128906 15.824219 C 659.078125 15.875 659.054688 15.9375 659.054688 16.011719 L 659.054688 16.855469 C 659.054688 17.285156 658.972656 17.695312 658.8125 18.089844 C 658.652344 18.488281 658.421875 18.835938 658.125 19.136719 C 657.824219 19.441406 657.484375 19.675781 657.09375 19.839844 C 656.703125 20.003906 656.300781 20.085938 655.878906 20.085938 C 655.457031 20.085938 655.054688 20.003906 654.664062 19.839844 C 654.273438 19.675781 653.933594 19.441406 653.632812 19.136719 C 653.335938 18.835938 653.105469 18.488281 652.945312 18.089844 C 652.785156 17.695312 652.703125 17.285156 652.703125 16.855469 L 652.703125 16.011719 C 652.703125 15.9375 652.679688 15.875 652.628906 15.824219 C 652.578125 15.773438 652.519531 15.746094 652.445312 15.746094 C 652.375 15.746094 652.3125 15.773438 652.265625 15.824219 C 652.214844 15.875 652.1875 15.9375 652.1875 16.011719 L 652.1875 16.855469 C 652.1875 17.332031 652.273438 17.789062 652.445312 18.230469 C 652.617188 18.671875 652.863281 19.066406 653.179688 19.414062 C 653.5 19.761719 653.867188 20.035156 654.289062 20.242188 C 654.710938 20.445312 655.15625 20.566406 655.621094 20.597656 L 655.621094 21.9375 L 654.015625 21.9375 C 653.945312 21.9375 653.882812 21.960938 653.832031 22.015625 C 653.78125 22.066406 653.757812 22.128906 653.757812 22.199219 C 653.757812 22.273438 653.78125 22.335938 653.832031 22.386719 C 653.882812 22.4375 653.945312 22.460938 654.015625 22.460938 L 657.742188 22.460938 C 657.8125 22.460938 657.875 22.4375 657.925781 22.386719 C 657.976562 22.335938 658 22.273438 658 22.199219 C 658 22.128906 657.976562 22.066406 657.925781 22.015625 C 657.875 21.960938 657.8125 21.9375 657.742188 21.9375 L 656.136719 21.9375 L 656.136719 20.597656 C 656.601562 20.566406 657.046875 20.445312 657.46875 20.242188 C 657.890625 20.035156 658.257812 19.761719 658.578125 19.414062 C 658.894531 19.066406 659.140625 18.671875 659.3125 18.230469 C 659.484375 17.789062 659.570312 17.332031 659.570312 16.855469 L 659.570312 16.011719 C 659.570312 15.9375 659.542969 15.875 659.496094 15.824219 C 659.445312 15.773438 659.382812 15.746094 659.3125 15.746094 Z M 659.3125 15.746094 " fill-opacity="1" fill-rule="nonzero"/></g><g clip-path="url(#96f21958bf)"><path fill="#ffffff" d="M 654.183594 16.648438 L 654.710938 16.648438 C 654.78125 16.648438 654.84375 16.671875 654.894531 16.722656 C 654.945312 16.777344 654.96875 16.835938 654.96875 16.910156 C 654.96875 16.984375 654.945312 17.042969 654.894531 17.097656 C 654.84375 17.148438 654.78125 17.171875 654.710938 17.171875 L 653.472656 17.171875 C 653.476562 17.492188 653.542969 17.800781 653.667969 18.09375 C 653.792969 18.390625 653.96875 18.648438 654.191406 18.875 C 654.417969 19.097656 654.675781 19.269531 654.96875 19.390625 C 655.261719 19.511719 655.5625 19.574219 655.878906 19.574219 C 656.195312 19.574219 656.496094 19.511719 656.789062 19.390625 C 657.082031 19.269531 657.339844 19.097656 657.566406 18.875 C 657.789062 18.648438 657.964844 18.390625 658.089844 18.09375 C 658.214844 17.800781 658.28125 17.492188 658.285156 17.171875 L 657.175781 17.171875 C 657.105469 17.171875 657.042969 17.148438 656.996094 17.097656 C 656.945312 17.042969 656.917969 16.984375 656.917969 16.910156 C 656.917969 16.835938 656.945312 16.777344 656.996094 16.722656 C 657.042969 16.671875 657.105469 16.648438 657.175781 16.648438 L 658.289062 16.648438 L 658.289062 15.851562 L 657.175781 15.851562 C 657.105469 15.851562 657.042969 15.828125 656.996094 15.777344 C 656.945312 15.726562 656.917969 15.664062 656.917969 15.589844 C 656.917969 15.515625 656.945312 15.457031 656.996094 15.40625 C 657.042969 15.351562 657.105469 15.328125 657.175781 15.328125 L 658.289062 15.328125 L 658.289062 14.53125 L 657.175781 14.53125 C 657.105469 14.53125 657.042969 14.507812 656.996094 14.457031 C 656.945312 14.40625 656.917969 14.34375 656.917969 14.269531 C 656.917969 14.199219 656.945312 14.136719 656.996094 14.085938 C 657.042969 14.03125 657.105469 14.007812 657.175781 14.007812 L 658.289062 14.007812 L 658.289062 13.808594 C 658.289062 13.484375 658.222656 13.175781 658.101562 12.875 C 657.976562 12.578125 657.804688 12.316406 657.578125 12.085938 C 657.351562 11.859375 657.089844 11.683594 656.796875 11.558594 C 656.503906 11.4375 656.195312 11.375 655.878906 11.375 C 655.5625 11.375 655.253906 11.4375 654.960938 11.558594 C 654.667969 11.683594 654.40625 11.859375 654.179688 12.085938 C 653.953125 12.316406 653.78125 12.578125 653.65625 12.875 C 653.535156 13.175781 653.472656 13.484375 653.46875 13.808594 L 653.46875 14.007812 L 654.710938 14.007812 C 654.78125 14.007812 654.84375 14.03125 654.894531 14.085938 C 654.945312 14.136719 654.96875 14.199219 654.96875 14.269531 C 654.96875 14.34375 654.945312 14.40625 654.894531 14.457031 C 654.84375 14.507812 654.78125 14.53125 654.710938 14.53125 L 653.46875 14.53125 L 653.46875 15.328125 L 654.710938 15.328125 C 654.78125 15.328125 654.84375 15.351562 654.894531 15.40625 C 654.945312 15.457031 654.96875 15.515625 654.96875 15.589844 C 654.96875 15.664062 654.945312 15.726562 654.894531 15.777344 C 654.84375 15.828125 654.78125 15.851562 654.710938 15.851562 L 653.46875 15.851562 L 653.46875 16.648438 Z M 655.621094 14.269531 C 655.621094 14.199219 655.644531 14.136719 655.695312 14.085938 C 655.746094 14.03125 655.808594 14.007812 655.878906 14.007812 C 655.949219 14.007812 656.011719 14.03125 656.0625 14.085938 C 656.113281 14.136719 656.136719 14.199219 656.136719 14.269531 L 656.136719 14.570312 C 656.136719 14.640625 656.113281 14.703125 656.0625 14.753906 C 656.011719 14.804688 655.949219 14.832031 655.878906 14.832031 C 655.808594 14.832031 655.746094 14.804688 655.695312 14.753906 C 655.644531 14.703125 655.621094 14.640625 655.621094 14.570312 Z M 655.621094 15.402344 C 655.621094 15.328125 655.644531 15.269531 655.695312 15.214844 C 655.746094 15.164062 655.808594 15.140625 655.878906 15.140625 C 655.949219 15.140625 656.011719 15.164062 656.0625 15.214844 C 656.113281 15.269531 656.136719 15.328125 656.136719 15.402344 L 656.136719 15.703125 C 656.136719 15.773438 656.113281 15.835938 656.0625 15.886719 C 656.011719 15.9375 655.949219 15.964844 655.878906 15.964844 C 655.808594 15.964844 655.746094 15.9375 655.695312 15.886719 C 655.644531 15.835938 655.621094 15.773438 655.621094 15.703125 Z M 655.621094 16.535156 C 655.621094 16.460938 655.644531 16.398438 655.695312 16.347656 C 655.746094 16.296875 655.808594 16.273438 655.878906 16.273438 C 655.949219 16.273438 656.011719 16.296875 656.0625 16.347656 C 656.113281 16.398438 656.136719 16.460938 656.136719 16.535156 L 656.136719 16.832031 C 656.136719 16.90625 656.113281 16.96875 656.0625 17.019531 C 656.011719 17.070312 655.949219 17.097656 655.878906 17.097656 C 655.808594 17.097656 655.746094 17.070312 655.695312 17.019531 C 655.644531 16.96875 655.621094 16.90625 655.621094 16.832031 Z M 655.621094 16.535156 " fill-opacity="1" fill-rule="nonzero"/></g><g clip-path="url(#154453848b)"><path fill="#ffffff" d="M 481.199219 20.921875 L 479.449219 19.171875 C 480.007812 18.375 480.335938 17.402344 480.335938 16.355469 C 480.339844 13.671875 478.175781 11.46875 475.496094 11.425781 C 472.710938 11.378906 470.445312 13.644531 470.488281 16.429688 C 470.535156 19.109375 472.738281 21.273438 475.421875 21.269531 C 476.46875 21.269531 477.4375 20.941406 478.238281 20.382812 C 478.238281 20.382812 479.988281 22.132812 479.988281 22.132812 C 480.324219 22.46875 480.863281 22.46875 481.199219 22.132812 C 481.535156 21.800781 481.535156 21.257812 481.199219 20.921875 Z M 475.414062 19.558594 C 473.644531 19.558594 472.203125 18.117188 472.203125 16.347656 C 472.203125 14.578125 473.644531 13.136719 475.414062 13.136719 C 477.183594 13.136719 478.625 14.578125 478.625 16.347656 C 478.625 18.117188 477.183594 19.558594 475.414062 19.558594 Z M 475.414062 19.558594 " fill-opacity="1" fill-rule="nonzero"/></g><g fill="#ffffff" fill-opacity="1"><g transform="translate(492.412746, 20.003568)"><g><path d="M 4.828125 -1.53125 L 1.828125 -1.53125 L 1.265625 0 L 0.328125 0 L 2.8125 -6.828125 L 3.84375 -6.828125 L 6.3125 0 L 5.375 0 Z M 4.5625 -2.25 L 3.328125 -5.734375 L 2.078125 -2.25 Z M 4.5625 -2.25 "/></g></g></g><g fill="#ffffff" fill-opacity="1"><g transform="translate(499.053841, 20.003568)"><g><path d="M 1.65625 -4.53125 C 1.8125 -4.832031 2.035156 -5.066406 2.328125 -5.234375 C 2.617188 -5.410156 2.976562 -5.5 3.40625 -5.5 L 3.40625 -4.578125 L 3.171875 -4.578125 C 2.160156 -4.578125 1.65625 -4.03125 1.65625 -2.9375 L 1.65625 0 L 0.765625 0 L 0.765625 -5.40625 L 1.65625 -5.40625 Z M 1.65625 -4.53125 "/></g></g></g><g fill="#ffffff" fill-opacity="1"><g transform="translate(502.729107, 20.003568)"><g><path d="M 1.859375 -4.65625 L 1.859375 -1.484375 C 1.859375 -1.210938 1.910156 -1.023438 2.015625 -0.921875 C 2.128906 -0.816406 2.328125 -0.765625 2.609375 -0.765625 L 3.265625 -0.765625 L 3.265625 0 L 2.453125 0 C 1.953125 0 1.578125 -0.113281 1.328125 -0.34375 C 1.078125 -0.570312 0.953125 -0.953125 0.953125 -1.484375 L 0.953125 -4.65625 L 0.25 -4.65625 L 0.25 -5.40625 L 0.953125 -5.40625 L 0.953125 -6.765625 L 1.859375 -6.765625 L 1.859375 -5.40625 L 3.265625 -5.40625 L 3.265625 -4.65625 Z M 1.859375 -4.65625 "/></g></g></g><g fill="#ffffff" fill-opacity="1"><g transform="translate(506.315696, 20.003568)"><g><path d="M 1.21875 -6.28125 C 1.050781 -6.28125 0.90625 -6.335938 0.78125 -6.453125 C 0.664062 -6.578125 0.609375 -6.722656 0.609375 -6.890625 C 0.609375 -7.054688 0.664062 -7.195312 0.78125 -7.3125 C 0.90625 -7.4375 1.050781 -7.5 1.21875 -7.5 C 1.382812 -7.5 1.523438 -7.4375 1.640625 -7.3125 C 1.753906 -7.195312 1.8125 -7.054688 1.8125 -6.890625 C 1.8125 -6.722656 1.753906 -6.578125 1.640625 -6.453125 C 1.523438 -6.335938 1.382812 -6.28125 1.21875 -6.28125 Z M 1.65625 -5.40625 L 1.65625 0 L 0.765625 0 L 0.765625 -5.40625 Z M 1.65625 -5.40625 "/></g></g></g><g fill="#ffffff" fill-opacity="1"><g transform="translate(508.739593, 20.003568)"><g><path d="M 2.671875 0.09375 C 2.253906 0.09375 1.878906 0.0234375 1.546875 -0.109375 C 1.222656 -0.253906 0.96875 -0.453125 0.78125 -0.703125 C 0.59375 -0.960938 0.488281 -1.257812 0.46875 -1.59375 L 1.390625 -1.59375 C 1.410156 -1.320312 1.535156 -1.097656 1.765625 -0.921875 C 1.992188 -0.753906 2.289062 -0.671875 2.65625 -0.671875 C 3 -0.671875 3.269531 -0.742188 3.46875 -0.890625 C 3.664062 -1.046875 3.765625 -1.238281 3.765625 -1.46875 C 3.765625 -1.707031 3.660156 -1.882812 3.453125 -2 C 3.242188 -2.113281 2.914062 -2.226562 2.46875 -2.34375 C 2.070312 -2.445312 1.742188 -2.550781 1.484375 -2.65625 C 1.234375 -2.757812 1.019531 -2.914062 0.84375 -3.125 C 0.664062 -3.34375 0.578125 -3.628906 0.578125 -3.984375 C 0.578125 -4.253906 0.65625 -4.503906 0.8125 -4.734375 C 0.976562 -4.972656 1.210938 -5.15625 1.515625 -5.28125 C 1.816406 -5.414062 2.160156 -5.484375 2.546875 -5.484375 C 3.148438 -5.484375 3.632812 -5.332031 4 -5.03125 C 4.375 -4.726562 4.570312 -4.316406 4.59375 -3.796875 L 3.703125 -3.796875 C 3.679688 -4.078125 3.566406 -4.300781 3.359375 -4.46875 C 3.148438 -4.644531 2.875 -4.734375 2.53125 -4.734375 C 2.207031 -4.734375 1.945312 -4.660156 1.75 -4.515625 C 1.5625 -4.378906 1.46875 -4.203125 1.46875 -3.984375 C 1.46875 -3.804688 1.523438 -3.660156 1.640625 -3.546875 C 1.753906 -3.429688 1.898438 -3.335938 2.078125 -3.265625 C 2.253906 -3.203125 2.492188 -3.125 2.796875 -3.03125 C 3.179688 -2.925781 3.492188 -2.820312 3.734375 -2.71875 C 3.984375 -2.625 4.195312 -2.472656 4.375 -2.265625 C 4.550781 -2.066406 4.640625 -1.800781 4.640625 -1.46875 C 4.640625 -1.175781 4.554688 -0.910156 4.390625 -0.671875 C 4.234375 -0.429688 4.003906 -0.242188 3.703125 -0.109375 C 3.398438 0.0234375 3.054688 0.09375 2.671875 0.09375 Z M 2.671875 0.09375 "/></g></g></g><g fill="#ffffff" fill-opacity="1"><g transform="translate(513.882996, 20.003568)"><g><path d="M 1.859375 -4.65625 L 1.859375 -1.484375 C 1.859375 -1.210938 1.910156 -1.023438 2.015625 -0.921875 C 2.128906 -0.816406 2.328125 -0.765625 2.609375 -0.765625 L 3.265625 -0.765625 L 3.265625 0 L 2.453125 0 C 1.953125 0 1.578125 -0.113281 1.328125 -0.34375 C 1.078125 -0.570312 0.953125 -0.953125 0.953125 -1.484375 L 0.953125 -4.65625 L 0.25 -4.65625 L 0.25 -5.40625 L 0.953125 -5.40625 L 0.953125 -6.765625 L 1.859375 -6.765625 L 1.859375 -5.40625 L 3.265625 -5.40625 L 3.265625 -4.65625 Z M 1.859375 -4.65625 "/></g></g></g><g fill="#ffffff" fill-opacity="1"><g transform="translate(517.469585, 20.003568)"><g><path d="M 1.6875 -1.25 L 0.578125 1.40625 L -0.015625 1.40625 L 0.703125 -1.25 Z M 1.6875 -1.25 "/></g></g></g><g fill="#ffffff" fill-opacity="1"><g transform="translate(519.420531, 20.003568)"><g/></g></g><g fill="#ffffff" fill-opacity="1"><g transform="translate(522.051349, 20.003568)"><g><path d="M 7.734375 -6.828125 L 7.734375 0 L 6.828125 0 L 6.828125 -5.09375 L 4.5625 0 L 3.9375 0 L 1.65625 -5.09375 L 1.65625 0 L 0.765625 0 L 0.765625 -6.828125 L 1.71875 -6.828125 L 4.25 -1.1875 L 6.765625 -6.828125 Z M 7.734375 -6.828125 "/></g></g></g><g fill="#ffffff" fill-opacity="1"><g transform="translate(530.535006, 20.003568)"><g><path d="M 5.546875 -5.40625 L 5.546875 0 L 4.65625 0 L 4.65625 -0.796875 C 4.476562 -0.523438 4.238281 -0.3125 3.9375 -0.15625 C 3.632812 0 3.296875 0.078125 2.921875 0.078125 C 2.503906 0.078125 2.128906 -0.00390625 1.796875 -0.171875 C 1.460938 -0.347656 1.195312 -0.609375 1 -0.953125 C 0.800781 -1.304688 0.703125 -1.734375 0.703125 -2.234375 L 0.703125 -5.40625 L 1.59375 -5.40625 L 1.59375 -2.359375 C 1.59375 -1.828125 1.726562 -1.414062 2 -1.125 C 2.269531 -0.84375 2.640625 -0.703125 3.109375 -0.703125 C 3.585938 -0.703125 3.960938 -0.847656 4.234375 -1.140625 C 4.515625 -1.441406 4.65625 -1.875 4.65625 -2.4375 L 4.65625 -5.40625 Z M 5.546875 -5.40625 "/></g></g></g><g fill="#ffffff" fill-opacity="1"><g transform="translate(536.841089, 20.003568)"><g><path d="M 2.671875 0.09375 C 2.253906 0.09375 1.878906 0.0234375 1.546875 -0.109375 C 1.222656 -0.253906 0.96875 -0.453125 0.78125 -0.703125 C 0.59375 -0.960938 0.488281 -1.257812 0.46875 -1.59375 L 1.390625 -1.59375 C 1.410156 -1.320312 1.535156 -1.097656 1.765625 -0.921875 C 1.992188 -0.753906 2.289062 -0.671875 2.65625 -0.671875 C 3 -0.671875 3.269531 -0.742188 3.46875 -0.890625 C 3.664062 -1.046875 3.765625 -1.238281 3.765625 -1.46875 C 3.765625 -1.707031 3.660156 -1.882812 3.453125 -2 C 3.242188 -2.113281 2.914062 -2.226562 2.46875 -2.34375 C 2.070312 -2.445312 1.742188 -2.550781 1.484375 -2.65625 C 1.234375 -2.757812 1.019531 -2.914062 0.84375 -3.125 C 0.664062 -3.34375 0.578125 -3.628906 0.578125 -3.984375 C 0.578125 -4.253906 0.65625 -4.503906 0.8125 -4.734375 C 0.976562 -4.972656 1.210938 -5.15625 1.515625 -5.28125 C 1.816406 -5.414062 2.160156 -5.484375 2.546875 -5.484375 C 3.148438 -5.484375 3.632812 -5.332031 4 -5.03125 C 4.375 -4.726562 4.570312 -4.316406 4.59375 -3.796875 L 3.703125 -3.796875 C 3.679688 -4.078125 3.566406 -4.300781 3.359375 -4.46875 C 3.148438 -4.644531 2.875 -4.734375 2.53125 -4.734375 C 2.207031 -4.734375 1.945312 -4.660156 1.75 -4.515625 C 1.5625 -4.378906 1.46875 -4.203125 1.46875 -3.984375 C 1.46875 -3.804688 1.523438 -3.660156 1.640625 -3.546875 C 1.753906 -3.429688 1.898438 -3.335938 2.078125 -3.265625 C 2.253906 -3.203125 2.492188 -3.125 2.796875 -3.03125 C 3.179688 -2.925781 3.492188 -2.820312 3.734375 -2.71875 C 3.984375 -2.625 4.195312 -2.472656 4.375 -2.265625 C 4.550781 -2.066406 4.640625 -1.800781 4.640625 -1.46875 C 4.640625 -1.175781 4.554688 -0.910156 4.390625 -0.671875 C 4.234375 -0.429688 4.003906 -0.242188 3.703125 -0.109375 C 3.398438 0.0234375 3.054688 0.09375 2.671875 0.09375 Z M 2.671875 0.09375 "/></g></g></g><g fill="#ffffff" fill-opacity="1"><g transform="translate(541.984492, 20.003568)"><g><path d="M 1.21875 -6.28125 C 1.050781 -6.28125 0.90625 -6.335938 0.78125 -6.453125 C 0.664062 -6.578125 0.609375 -6.722656 0.609375 -6.890625 C 0.609375 -7.054688 0.664062 -7.195312 0.78125 -7.3125 C 0.90625 -7.4375 1.050781 -7.5 1.21875 -7.5 C 1.382812 -7.5 1.523438 -7.4375 1.640625 -7.3125 C 1.753906 -7.195312 1.8125 -7.054688 1.8125 -6.890625 C 1.8125 -6.722656 1.753906 -6.578125 1.640625 -6.453125 C 1.523438 -6.335938 1.382812 -6.28125 1.21875 -6.28125 Z M 1.65625 -5.40625 L 1.65625 0 L 0.765625 0 L 0.765625 -5.40625 Z M 1.65625 -5.40625 "/></g></g></g><g fill="#ffffff" fill-opacity="1"><g transform="translate(544.408389, 20.003568)"><g><path d="M 0.421875 -2.71875 C 0.421875 -3.269531 0.53125 -3.753906 0.75 -4.171875 C 0.976562 -4.585938 1.289062 -4.910156 1.6875 -5.140625 C 2.082031 -5.367188 2.539062 -5.484375 3.0625 -5.484375 C 3.71875 -5.484375 4.257812 -5.320312 4.6875 -5 C 5.125 -4.6875 5.410156 -4.242188 5.546875 -3.671875 L 4.578125 -3.671875 C 4.492188 -3.992188 4.316406 -4.25 4.046875 -4.4375 C 3.773438 -4.632812 3.445312 -4.734375 3.0625 -4.734375 C 2.539062 -4.734375 2.125 -4.554688 1.8125 -4.203125 C 1.5 -3.847656 1.34375 -3.351562 1.34375 -2.71875 C 1.34375 -2.0625 1.5 -1.554688 1.8125 -1.203125 C 2.125 -0.847656 2.539062 -0.671875 3.0625 -0.671875 C 3.445312 -0.671875 3.769531 -0.757812 4.03125 -0.9375 C 4.300781 -1.125 4.484375 -1.390625 4.578125 -1.734375 L 5.546875 -1.734375 C 5.398438 -1.179688 5.109375 -0.738281 4.671875 -0.40625 C 4.242188 -0.0703125 3.707031 0.09375 3.0625 0.09375 C 2.539062 0.09375 2.082031 -0.0195312 1.6875 -0.25 C 1.289062 -0.476562 0.976562 -0.800781 0.75 -1.21875 C 0.53125 -1.644531 0.421875 -2.144531 0.421875 -2.71875 Z M 0.421875 -2.71875 "/></g></g></g><g fill="#ffffff" fill-opacity="1"><g transform="translate(550.38932, 20.003568)"><g><path d="M 1.6875 -1.25 L 0.578125 1.40625 L -0.015625 1.40625 L 0.703125 -1.25 Z M 1.6875 -1.25 "/></g></g></g><g fill="#ffffff" fill-opacity="1"><g transform="translate(552.340267, 20.003568)"><g/></g></g><g fill="#ffffff" fill-opacity="1"><g transform="translate(554.971084, 20.003568)"><g><path d="M 4.828125 -1.53125 L 1.828125 -1.53125 L 1.265625 0 L 0.328125 0 L 2.8125 -6.828125 L 3.84375 -6.828125 L 6.3125 0 L 5.375 0 Z M 4.5625 -2.25 L 3.328125 -5.734375 L 2.078125 -2.25 Z M 4.5625 -2.25 "/></g></g></g><g fill="#ffffff" fill-opacity="1"><g transform="translate(561.612179, 20.003568)"><g><path d="M 1.65625 -7.296875 L 1.65625 0 L 0.765625 0 L 0.765625 -7.296875 Z M 1.65625 -7.296875 "/></g></g></g><g fill="#ffffff" fill-opacity="1"><g transform="translate(564.036076, 20.003568)"><g><path d="M 1.65625 -4.390625 C 1.84375 -4.710938 2.113281 -4.972656 2.46875 -5.171875 C 2.820312 -5.378906 3.222656 -5.484375 3.671875 -5.484375 C 4.160156 -5.484375 4.597656 -5.367188 4.984375 -5.140625 C 5.378906 -4.910156 5.6875 -4.585938 5.90625 -4.171875 C 6.125 -3.753906 6.234375 -3.269531 6.234375 -2.71875 C 6.234375 -2.175781 6.125 -1.691406 5.90625 -1.265625 C 5.6875 -0.835938 5.378906 -0.503906 4.984375 -0.265625 C 4.585938 -0.0234375 4.148438 0.09375 3.671875 0.09375 C 3.210938 0.09375 2.804688 -0.00390625 2.453125 -0.203125 C 2.097656 -0.410156 1.832031 -0.675781 1.65625 -1 L 1.65625 0 L 0.765625 0 L 0.765625 -7.296875 L 1.65625 -7.296875 Z M 5.328125 -2.71875 C 5.328125 -3.125 5.242188 -3.476562 5.078125 -3.78125 C 4.910156 -4.082031 4.6875 -4.3125 4.40625 -4.46875 C 4.132812 -4.632812 3.828125 -4.71875 3.484375 -4.71875 C 3.160156 -4.71875 2.859375 -4.632812 2.578125 -4.46875 C 2.296875 -4.3125 2.070312 -4.078125 1.90625 -3.765625 C 1.738281 -3.460938 1.65625 -3.113281 1.65625 -2.71875 C 1.65625 -2.300781 1.738281 -1.941406 1.90625 -1.640625 C 2.070312 -1.335938 2.296875 -1.101562 2.578125 -0.9375 C 2.859375 -0.78125 3.160156 -0.703125 3.484375 -0.703125 C 3.828125 -0.703125 4.132812 -0.78125 4.40625 -0.9375 C 4.6875 -1.101562 4.910156 -1.335938 5.078125 -1.640625 C 5.242188 -1.941406 5.328125 -2.300781 5.328125 -2.71875 Z M 5.328125 -2.71875 "/></g></g></g><g fill="#ffffff" fill-opacity="1"><g transform="translate(570.696878, 20.003568)"><g><path d="M 5.546875 -5.40625 L 5.546875 0 L 4.65625 0 L 4.65625 -0.796875 C 4.476562 -0.523438 4.238281 -0.3125 3.9375 -0.15625 C 3.632812 0 3.296875 0.078125 2.921875 0.078125 C 2.503906 0.078125 2.128906 -0.00390625 1.796875 -0.171875 C 1.460938 -0.347656 1.195312 -0.609375 1 -0.953125 C 0.800781 -1.304688 0.703125 -1.734375 0.703125 -2.234375 L 0.703125 -5.40625 L 1.59375 -5.40625 L 1.59375 -2.359375 C 1.59375 -1.828125 1.726562 -1.414062 2 -1.125 C 2.269531 -0.84375 2.640625 -0.703125 3.109375 -0.703125 C 3.585938 -0.703125 3.960938 -0.847656 4.234375 -1.140625 C 4.515625 -1.441406 4.65625 -1.875 4.65625 -2.4375 L 4.65625 -5.40625 Z M 5.546875 -5.40625 "/></g></g></g><g fill="#ffffff" fill-opacity="1"><g transform="translate(577.002961, 20.003568)"><g><path d="M 7.25 -5.5 C 7.675781 -5.5 8.050781 -5.410156 8.375 -5.234375 C 8.707031 -5.066406 8.96875 -4.804688 9.15625 -4.453125 C 9.34375 -4.109375 9.4375 -3.6875 9.4375 -3.1875 L 9.4375 0 L 8.5625 0 L 8.5625 -3.0625 C 8.5625 -3.59375 8.425781 -4 8.15625 -4.28125 C 7.894531 -4.570312 7.535156 -4.71875 7.078125 -4.71875 C 6.609375 -4.71875 6.234375 -4.566406 5.953125 -4.265625 C 5.679688 -3.972656 5.546875 -3.546875 5.546875 -2.984375 L 5.546875 0 L 4.65625 0 L 4.65625 -3.0625 C 4.65625 -3.59375 4.519531 -4 4.25 -4.28125 C 3.988281 -4.570312 3.632812 -4.71875 3.1875 -4.71875 C 2.71875 -4.71875 2.34375 -4.566406 2.0625 -4.265625 C 1.789062 -3.972656 1.65625 -3.546875 1.65625 -2.984375 L 1.65625 0 L 0.765625 0 L 0.765625 -5.40625 L 1.65625 -5.40625 L 1.65625 -4.625 C 1.832031 -4.90625 2.066406 -5.117188 2.359375 -5.265625 C 2.660156 -5.421875 2.992188 -5.5 3.359375 -5.5 C 3.816406 -5.5 4.21875 -5.394531 4.5625 -5.1875 C 4.914062 -4.988281 5.175781 -4.691406 5.34375 -4.296875 C 5.5 -4.679688 5.75 -4.976562 6.09375 -5.1875 C 6.4375 -5.394531 6.820312 -5.5 7.25 -5.5 Z M 7.25 -5.5 "/></g></g></g><g fill="#ffffff" fill-opacity="1"><g transform="translate(587.151816, 20.003568)"><g><path d="M 1.6875 -1.25 L 0.578125 1.40625 L -0.015625 1.40625 L 0.703125 -1.25 Z M 1.6875 -1.25 "/></g></g></g><g fill="#ffffff" fill-opacity="1"><g transform="translate(589.102762, 20.003568)"><g/></g></g><g fill="#ffffff" fill-opacity="1"><g transform="translate(591.73358, 20.003568)"><g><path d="M 5.6875 -2.90625 C 5.6875 -2.738281 5.675781 -2.554688 5.65625 -2.359375 L 1.34375 -2.359375 C 1.375 -1.828125 1.554688 -1.410156 1.890625 -1.109375 C 2.222656 -0.816406 2.625 -0.671875 3.09375 -0.671875 C 3.476562 -0.671875 3.800781 -0.757812 4.0625 -0.9375 C 4.320312 -1.125 4.503906 -1.367188 4.609375 -1.671875 L 5.578125 -1.671875 C 5.429688 -1.148438 5.140625 -0.722656 4.703125 -0.390625 C 4.273438 -0.0664062 3.738281 0.09375 3.09375 0.09375 C 2.582031 0.09375 2.125 -0.0195312 1.71875 -0.25 C 1.3125 -0.476562 0.992188 -0.804688 0.765625 -1.234375 C 0.535156 -1.660156 0.421875 -2.15625 0.421875 -2.71875 C 0.421875 -3.269531 0.53125 -3.753906 0.75 -4.171875 C 0.976562 -4.597656 1.296875 -4.921875 1.703125 -5.140625 C 2.109375 -5.367188 2.570312 -5.484375 3.09375 -5.484375 C 3.601562 -5.484375 4.054688 -5.375 4.453125 -5.15625 C 4.847656 -4.9375 5.148438 -4.628906 5.359375 -4.234375 C 5.578125 -3.835938 5.6875 -3.394531 5.6875 -2.90625 Z M 4.765625 -3.09375 C 4.765625 -3.4375 4.6875 -3.726562 4.53125 -3.96875 C 4.382812 -4.21875 4.179688 -4.40625 3.921875 -4.53125 C 3.660156 -4.664062 3.375 -4.734375 3.0625 -4.734375 C 2.601562 -4.734375 2.210938 -4.585938 1.890625 -4.296875 C 1.578125 -4.003906 1.394531 -3.601562 1.34375 -3.09375 Z M 4.765625 -3.09375 "/></g></g></g><g fill="#ffffff" fill-opacity="1"><g transform="translate(597.842602, 20.003568)"><g><path d="M 1.859375 -4.65625 L 1.859375 -1.484375 C 1.859375 -1.210938 1.910156 -1.023438 2.015625 -0.921875 C 2.128906 -0.816406 2.328125 -0.765625 2.609375 -0.765625 L 3.265625 -0.765625 L 3.265625 0 L 2.453125 0 C 1.953125 0 1.578125 -0.113281 1.328125 -0.34375 C 1.078125 -0.570312 0.953125 -0.953125 0.953125 -1.484375 L 0.953125 -4.65625 L 0.25 -4.65625 L 0.25 -5.40625 L 0.953125 -5.40625 L 0.953125 -6.765625 L 1.859375 -6.765625 L 1.859375 -5.40625 L 3.265625 -5.40625 L 3.265625 -4.65625 Z M 1.859375 -4.65625 "/></g></g></g><g fill="#ffffff" fill-opacity="1"><g transform="translate(601.429191, 20.003568)"><g><path d="M 0.421875 -2.71875 C 0.421875 -3.269531 0.53125 -3.753906 0.75 -4.171875 C 0.976562 -4.585938 1.289062 -4.910156 1.6875 -5.140625 C 2.082031 -5.367188 2.539062 -5.484375 3.0625 -5.484375 C 3.71875 -5.484375 4.257812 -5.320312 4.6875 -5 C 5.125 -4.6875 5.410156 -4.242188 5.546875 -3.671875 L 4.578125 -3.671875 C 4.492188 -3.992188 4.316406 -4.25 4.046875 -4.4375 C 3.773438 -4.632812 3.445312 -4.734375 3.0625 -4.734375 C 2.539062 -4.734375 2.125 -4.554688 1.8125 -4.203125 C 1.5 -3.847656 1.34375 -3.351562 1.34375 -2.71875 C 1.34375 -2.0625 1.5 -1.554688 1.8125 -1.203125 C 2.125 -0.847656 2.539062 -0.671875 3.0625 -0.671875 C 3.445312 -0.671875 3.769531 -0.757812 4.03125 -0.9375 C 4.300781 -1.125 4.484375 -1.390625 4.578125 -1.734375 L 5.546875 -1.734375 C 5.398438 -1.179688 5.109375 -0.738281 4.671875 -0.40625 C 4.242188 -0.0703125 3.707031 0.09375 3.0625 0.09375 C 2.539062 0.09375 2.082031 -0.0195312 1.6875 -0.25 C 1.289062 -0.476562 0.976562 -0.800781 0.75 -1.21875 C 0.53125 -1.644531 0.421875 -2.144531 0.421875 -2.71875 Z M 0.421875 -2.71875 "/></g></g></g><g fill="#ffffff" fill-opacity="1"><g transform="translate(5.061565, 23.971069)"><g><path d="M 19.25 -13.140625 L 15.8125 0 L 11.9375 0 L 9.84375 -8.640625 L 7.671875 0 L 3.796875 0 L 0.46875 -13.140625 L 3.890625 -13.140625 L 5.78125 -3.578125 L 8.125 -13.140625 L 11.640625 -13.140625 L 13.890625 -3.578125 L 15.796875 -13.140625 Z M 19.25 -13.140625 "/></g></g></g><g fill="#ffffff" fill-opacity="1"><g transform="translate(24.759992, 23.971069)"><g><path d="M 11 -5.390625 C 11 -5.085938 10.984375 -4.773438 10.953125 -4.453125 L 3.703125 -4.453125 C 3.753906 -3.804688 3.960938 -3.3125 4.328125 -2.96875 C 4.703125 -2.625 5.15625 -2.453125 5.6875 -2.453125 C 6.488281 -2.453125 7.046875 -2.789062 7.359375 -3.46875 L 10.765625 -3.46875 C 10.585938 -2.78125 10.269531 -2.160156 9.8125 -1.609375 C 9.363281 -1.054688 8.796875 -0.625 8.109375 -0.3125 C 7.421875 0 6.648438 0.15625 5.796875 0.15625 C 4.773438 0.15625 3.863281 -0.0625 3.0625 -0.5 C 2.269531 -0.9375 1.648438 -1.5625 1.203125 -2.375 C 0.753906 -3.1875 0.53125 -4.132812 0.53125 -5.21875 C 0.53125 -6.300781 0.75 -7.25 1.1875 -8.0625 C 1.632812 -8.875 2.253906 -9.5 3.046875 -9.9375 C 3.847656 -10.375 4.765625 -10.59375 5.796875 -10.59375 C 6.804688 -10.59375 7.703125 -10.378906 8.484375 -9.953125 C 9.273438 -9.535156 9.890625 -8.929688 10.328125 -8.140625 C 10.773438 -7.359375 11 -6.441406 11 -5.390625 Z M 7.734375 -6.234375 C 7.734375 -6.785156 7.546875 -7.222656 7.171875 -7.546875 C 6.796875 -7.867188 6.328125 -8.03125 5.765625 -8.03125 C 5.222656 -8.03125 4.769531 -7.875 4.40625 -7.5625 C 4.039062 -7.25 3.8125 -6.804688 3.71875 -6.234375 Z M 7.734375 -6.234375 "/></g></g></g><g fill="#ffffff" fill-opacity="1"><g transform="translate(36.294432, 23.971069)"><g><path d="M 4.359375 -13.859375 L 4.359375 0 L 1.15625 0 L 1.15625 -13.859375 Z M 4.359375 -13.859375 "/></g></g></g><g fill="#ffffff" fill-opacity="1"><g transform="translate(41.818228, 23.971069)"><g><path d="M 0.53125 -5.21875 C 0.53125 -6.300781 0.75 -7.25 1.1875 -8.0625 C 1.632812 -8.875 2.253906 -9.5 3.046875 -9.9375 C 3.835938 -10.375 4.742188 -10.59375 5.765625 -10.59375 C 7.078125 -10.59375 8.171875 -10.25 9.046875 -9.5625 C 9.929688 -8.875 10.507812 -7.90625 10.78125 -6.65625 L 7.375 -6.65625 C 7.082031 -7.457031 6.523438 -7.859375 5.703125 -7.859375 C 5.117188 -7.859375 4.648438 -7.628906 4.296875 -7.171875 C 3.953125 -6.722656 3.78125 -6.070312 3.78125 -5.21875 C 3.78125 -4.375 3.953125 -3.722656 4.296875 -3.265625 C 4.648438 -2.804688 5.117188 -2.578125 5.703125 -2.578125 C 6.523438 -2.578125 7.082031 -2.976562 7.375 -3.78125 L 10.78125 -3.78125 C 10.507812 -2.5625 9.929688 -1.597656 9.046875 -0.890625 C 8.160156 -0.191406 7.066406 0.15625 5.765625 0.15625 C 4.742188 0.15625 3.835938 -0.0625 3.046875 -0.5 C 2.253906 -0.9375 1.632812 -1.5625 1.1875 -2.375 C 0.75 -3.1875 0.53125 -4.132812 0.53125 -5.21875 Z M 0.53125 -5.21875 "/></g></g></g><g fill="#ffffff" fill-opacity="1"><g transform="translate(53.146696, 23.971069)"><g><path d="M 5.921875 0.15625 C 4.890625 0.15625 3.960938 -0.0625 3.140625 -0.5 C 2.328125 -0.9375 1.6875 -1.5625 1.21875 -2.375 C 0.757812 -3.1875 0.53125 -4.132812 0.53125 -5.21875 C 0.53125 -6.289062 0.765625 -7.234375 1.234375 -8.046875 C 1.710938 -8.867188 2.363281 -9.5 3.1875 -9.9375 C 4.007812 -10.375 4.929688 -10.59375 5.953125 -10.59375 C 6.972656 -10.59375 7.894531 -10.375 8.71875 -9.9375 C 9.539062 -9.5 10.1875 -8.867188 10.65625 -8.046875 C 11.132812 -7.234375 11.375 -6.289062 11.375 -5.21875 C 11.375 -4.144531 11.132812 -3.195312 10.65625 -2.375 C 10.175781 -1.5625 9.519531 -0.9375 8.6875 -0.5 C 7.863281 -0.0625 6.941406 0.15625 5.921875 0.15625 Z M 5.921875 -2.625 C 6.523438 -2.625 7.039062 -2.847656 7.46875 -3.296875 C 7.90625 -3.742188 8.125 -4.382812 8.125 -5.21875 C 8.125 -6.0625 7.914062 -6.707031 7.5 -7.15625 C 7.082031 -7.601562 6.566406 -7.828125 5.953125 -7.828125 C 5.328125 -7.828125 4.804688 -7.601562 4.390625 -7.15625 C 3.984375 -6.71875 3.78125 -6.070312 3.78125 -5.21875 C 3.78125 -4.382812 3.984375 -3.742188 4.390625 -3.296875 C 4.796875 -2.847656 5.304688 -2.625 5.921875 -2.625 Z M 5.921875 -2.625 "/></g></g></g><g fill="#ffffff" fill-opacity="1"><g transform="translate(65.074355, 23.971069)"><g><path d="M 14.484375 -10.5625 C 15.785156 -10.5625 16.816406 -10.164062 17.578125 -9.375 C 18.347656 -8.59375 18.734375 -7.503906 18.734375 -6.109375 L 18.734375 0 L 15.5625 0 L 15.5625 -5.671875 C 15.5625 -6.347656 15.378906 -6.867188 15.015625 -7.234375 C 14.660156 -7.597656 14.171875 -7.78125 13.546875 -7.78125 C 12.921875 -7.78125 12.429688 -7.597656 12.078125 -7.234375 C 11.722656 -6.867188 11.546875 -6.347656 11.546875 -5.671875 L 11.546875 0 L 8.375 0 L 8.375 -5.671875 C 8.375 -6.347656 8.191406 -6.867188 7.828125 -7.234375 C 7.472656 -7.597656 6.984375 -7.78125 6.359375 -7.78125 C 5.734375 -7.78125 5.242188 -7.597656 4.890625 -7.234375 C 4.535156 -6.867188 4.359375 -6.347656 4.359375 -5.671875 L 4.359375 0 L 1.15625 0 L 1.15625 -10.4375 L 4.359375 -10.4375 L 4.359375 -9.140625 C 4.679688 -9.578125 5.101562 -9.921875 5.625 -10.171875 C 6.15625 -10.429688 6.75 -10.5625 7.40625 -10.5625 C 8.195312 -10.5625 8.898438 -10.390625 9.515625 -10.046875 C 10.128906 -9.710938 10.613281 -9.234375 10.96875 -8.609375 C 11.332031 -9.179688 11.828125 -9.648438 12.453125 -10.015625 C 13.078125 -10.378906 13.753906 -10.5625 14.484375 -10.5625 Z M 14.484375 -10.5625 "/></g></g></g><g fill="#ffffff" fill-opacity="1"><g transform="translate(84.903863, 23.971069)"><g><path d="M 11 -5.390625 C 11 -5.085938 10.984375 -4.773438 10.953125 -4.453125 L 3.703125 -4.453125 C 3.753906 -3.804688 3.960938 -3.3125 4.328125 -2.96875 C 4.703125 -2.625 5.15625 -2.453125 5.6875 -2.453125 C 6.488281 -2.453125 7.046875 -2.789062 7.359375 -3.46875 L 10.765625 -3.46875 C 10.585938 -2.78125 10.269531 -2.160156 9.8125 -1.609375 C 9.363281 -1.054688 8.796875 -0.625 8.109375 -0.3125 C 7.421875 0 6.648438 0.15625 5.796875 0.15625 C 4.773438 0.15625 3.863281 -0.0625 3.0625 -0.5 C 2.269531 -0.9375 1.648438 -1.5625 1.203125 -2.375 C 0.753906 -3.1875 0.53125 -4.132812 0.53125 -5.21875 C 0.53125 -6.300781 0.75 -7.25 1.1875 -8.0625 C 1.632812 -8.875 2.253906 -9.5 3.046875 -9.9375 C 3.847656 -10.375 4.765625 -10.59375 5.796875 -10.59375 C 6.804688 -10.59375 7.703125 -10.378906 8.484375 -9.953125 C 9.273438 -9.535156 9.890625 -8.929688 10.328125 -8.140625 C 10.773438 -7.359375 11 -6.441406 11 -5.390625 Z M 7.734375 -6.234375 C 7.734375 -6.785156 7.546875 -7.222656 7.171875 -7.546875 C 6.796875 -7.867188 6.328125 -8.03125 5.765625 -8.03125 C 5.222656 -8.03125 4.769531 -7.875 4.40625 -7.5625 C 4.039062 -7.25 3.8125 -6.804688 3.71875 -6.234375 Z M 7.734375 -6.234375 "/></g></g></g><g fill="#ffffff" fill-opacity="1"><g transform="translate(96.438303, 23.971069)"><g><path d="M 4.609375 -2.953125 L 2.53125 2.421875 L 0.484375 2.421875 L 1.578125 -2.953125 Z M 4.609375 -2.953125 "/></g></g></g><g fill="#ffffff" fill-opacity="1"><g transform="translate(101.812304, 23.971069)"><g/></g></g><g fill="#ffffff" fill-opacity="1"><g transform="translate(105.781949, 23.971069)"><g><path d="M 10.609375 -13.140625 L 10.609375 -10.578125 L 7.125 -10.578125 L 7.125 0 L 3.9375 0 L 3.9375 -10.578125 L 0.453125 -10.578125 L 0.453125 -13.140625 Z M 10.609375 -13.140625 "/></g></g></g><g fill="#ffffff" fill-opacity="1"><g transform="translate(116.848278, 23.971069)"><g><path d="M 7.578125 -10.5625 C 8.773438 -10.5625 9.734375 -10.164062 10.453125 -9.375 C 11.179688 -8.582031 11.546875 -7.492188 11.546875 -6.109375 L 11.546875 0 L 8.375 0 L 8.375 -5.671875 C 8.375 -6.367188 8.191406 -6.910156 7.828125 -7.296875 C 7.460938 -7.679688 6.972656 -7.875 6.359375 -7.875 C 5.753906 -7.875 5.269531 -7.679688 4.90625 -7.296875 C 4.539062 -6.910156 4.359375 -6.367188 4.359375 -5.671875 L 4.359375 0 L 1.15625 0 L 1.15625 -13.859375 L 4.359375 -13.859375 L 4.359375 -9.046875 C 4.679688 -9.503906 5.125 -9.867188 5.6875 -10.140625 C 6.25 -10.421875 6.878906 -10.5625 7.578125 -10.5625 Z M 7.578125 -10.5625 "/></g></g></g><g fill="#ffffff" fill-opacity="1"><g transform="translate(129.468758, 23.971069)"><g><path d="M 0.53125 -5.234375 C 0.53125 -6.304688 0.726562 -7.25 1.125 -8.0625 C 1.53125 -8.875 2.082031 -9.5 2.78125 -9.9375 C 3.488281 -10.375 4.269531 -10.59375 5.125 -10.59375 C 5.863281 -10.59375 6.507812 -10.441406 7.0625 -10.140625 C 7.625 -9.847656 8.050781 -9.457031 8.34375 -8.96875 L 8.34375 -10.4375 L 11.546875 -10.4375 L 11.546875 0 L 8.34375 0 L 8.34375 -1.484375 C 8.03125 -0.992188 7.597656 -0.597656 7.046875 -0.296875 C 6.492188 0.00390625 5.847656 0.15625 5.109375 0.15625 C 4.265625 0.15625 3.488281 -0.0625 2.78125 -0.5 C 2.082031 -0.945312 1.53125 -1.578125 1.125 -2.390625 C 0.726562 -3.210938 0.53125 -4.160156 0.53125 -5.234375 Z M 8.34375 -5.21875 C 8.34375 -6.019531 8.117188 -6.648438 7.671875 -7.109375 C 7.234375 -7.578125 6.695312 -7.8125 6.0625 -7.8125 C 5.425781 -7.8125 4.882812 -7.582031 4.4375 -7.125 C 4 -6.664062 3.78125 -6.035156 3.78125 -5.234375 C 3.78125 -4.441406 4 -3.8125 4.4375 -3.34375 C 4.882812 -2.875 5.425781 -2.640625 6.0625 -2.640625 C 6.695312 -2.640625 7.234375 -2.867188 7.671875 -3.328125 C 8.117188 -3.796875 8.34375 -4.425781 8.34375 -5.21875 Z M 8.34375 -5.21875 "/></g></g></g><g fill="#ffffff" fill-opacity="1"><g transform="translate(142.182856, 23.971069)"><g><path d="M 14.484375 -10.5625 C 15.785156 -10.5625 16.816406 -10.164062 17.578125 -9.375 C 18.347656 -8.59375 18.734375 -7.503906 18.734375 -6.109375 L 18.734375 0 L 15.5625 0 L 15.5625 -5.671875 C 15.5625 -6.347656 15.378906 -6.867188 15.015625 -7.234375 C 14.660156 -7.597656 14.171875 -7.78125 13.546875 -7.78125 C 12.921875 -7.78125 12.429688 -7.597656 12.078125 -7.234375 C 11.722656 -6.867188 11.546875 -6.347656 11.546875 -5.671875 L 11.546875 0 L 8.375 0 L 8.375 -5.671875 C 8.375 -6.347656 8.191406 -6.867188 7.828125 -7.234375 C 7.472656 -7.597656 6.984375 -7.78125 6.359375 -7.78125 C 5.734375 -7.78125 5.242188 -7.597656 4.890625 -7.234375 C 4.535156 -6.867188 4.359375 -6.347656 4.359375 -5.671875 L 4.359375 0 L 1.15625 0 L 1.15625 -10.4375 L 4.359375 -10.4375 L 4.359375 -9.140625 C 4.679688 -9.578125 5.101562 -9.921875 5.625 -10.171875 C 6.15625 -10.429688 6.75 -10.5625 7.40625 -10.5625 C 8.195312 -10.5625 8.898438 -10.390625 9.515625 -10.046875 C 10.128906 -9.710938 10.613281 -9.234375 10.96875 -8.609375 C 11.332031 -9.179688 11.828125 -9.648438 12.453125 -10.015625 C 13.078125 -10.378906 13.753906 -10.5625 14.484375 -10.5625 Z M 14.484375 -10.5625 "/></g></g></g><g fill="#ffffff" fill-opacity="1"><g transform="translate(162.012364, 23.971069)"><g><path d="M 14.484375 -10.5625 C 15.785156 -10.5625 16.816406 -10.164062 17.578125 -9.375 C 18.347656 -8.59375 18.734375 -7.503906 18.734375 -6.109375 L 18.734375 0 L 15.5625 0 L 15.5625 -5.671875 C 15.5625 -6.347656 15.378906 -6.867188 15.015625 -7.234375 C 14.660156 -7.597656 14.171875 -7.78125 13.546875 -7.78125 C 12.921875 -7.78125 12.429688 -7.597656 12.078125 -7.234375 C 11.722656 -6.867188 11.546875 -6.347656 11.546875 -5.671875 L 11.546875 0 L 8.375 0 L 8.375 -5.671875 C 8.375 -6.347656 8.191406 -6.867188 7.828125 -7.234375 C 7.472656 -7.597656 6.984375 -7.78125 6.359375 -7.78125 C 5.734375 -7.78125 5.242188 -7.597656 4.890625 -7.234375 C 4.535156 -6.867188 4.359375 -6.347656 4.359375 -5.671875 L 4.359375 0 L 1.15625 0 L 1.15625 -10.4375 L 4.359375 -10.4375 L 4.359375 -9.140625 C 4.679688 -9.578125 5.101562 -9.921875 5.625 -10.171875 C 6.15625 -10.429688 6.75 -10.5625 7.40625 -10.5625 C 8.195312 -10.5625 8.898438 -10.390625 9.515625 -10.046875 C 10.128906 -9.710938 10.613281 -9.234375 10.96875 -8.609375 C 11.332031 -9.179688 11.828125 -9.648438 12.453125 -10.015625 C 13.078125 -10.378906 13.753906 -10.5625 14.484375 -10.5625 Z M 14.484375 -10.5625 "/></g></g></g><g fill="#ffffff" fill-opacity="1"><g transform="translate(181.841872, 23.971069)"><g><path d="M 0.53125 -5.234375 C 0.53125 -6.304688 0.726562 -7.25 1.125 -8.0625 C 1.53125 -8.875 2.082031 -9.5 2.78125 -9.9375 C 3.488281 -10.375 4.269531 -10.59375 5.125 -10.59375 C 5.863281 -10.59375 6.507812 -10.441406 7.0625 -10.140625 C 7.625 -9.847656 8.050781 -9.457031 8.34375 -8.96875 L 8.34375 -10.4375 L 11.546875 -10.4375 L 11.546875 0 L 8.34375 0 L 8.34375 -1.484375 C 8.03125 -0.992188 7.597656 -0.597656 7.046875 -0.296875 C 6.492188 0.00390625 5.847656 0.15625 5.109375 0.15625 C 4.265625 0.15625 3.488281 -0.0625 2.78125 -0.5 C 2.082031 -0.945312 1.53125 -1.578125 1.125 -2.390625 C 0.726562 -3.210938 0.53125 -4.160156 0.53125 -5.234375 Z M 8.34375 -5.21875 C 8.34375 -6.019531 8.117188 -6.648438 7.671875 -7.109375 C 7.234375 -7.578125 6.695312 -7.8125 6.0625 -7.8125 C 5.425781 -7.8125 4.882812 -7.582031 4.4375 -7.125 C 4 -6.664062 3.78125 -6.035156 3.78125 -5.234375 C 3.78125 -4.441406 4 -3.8125 4.4375 -3.34375 C 4.882812 -2.875 5.425781 -2.640625 6.0625 -2.640625 C 6.695312 -2.640625 7.234375 -2.867188 7.671875 -3.328125 C 8.117188 -3.796875 8.34375 -4.425781 8.34375 -5.21875 Z M 8.34375 -5.21875 "/></g></g></g><g fill="#ffffff" fill-opacity="1"><g transform="translate(194.55597, 23.971069)"><g><path d="M 5.40625 0.15625 C 4.5 0.15625 3.6875 0 2.96875 -0.3125 C 2.257812 -0.625 1.695312 -1.050781 1.28125 -1.59375 C 0.875 -2.144531 0.644531 -2.753906 0.59375 -3.421875 L 3.765625 -3.421875 C 3.796875 -3.054688 3.960938 -2.757812 4.265625 -2.53125 C 4.566406 -2.3125 4.9375 -2.203125 5.375 -2.203125 C 5.769531 -2.203125 6.078125 -2.28125 6.296875 -2.4375 C 6.515625 -2.59375 6.625 -2.796875 6.625 -3.046875 C 6.625 -3.347656 6.46875 -3.570312 6.15625 -3.71875 C 5.84375 -3.863281 5.335938 -4.019531 4.640625 -4.1875 C 3.890625 -4.363281 3.265625 -4.546875 2.765625 -4.734375 C 2.265625 -4.929688 1.832031 -5.238281 1.46875 -5.65625 C 1.113281 -6.082031 0.9375 -6.648438 0.9375 -7.359375 C 0.9375 -7.953125 1.097656 -8.492188 1.421875 -8.984375 C 1.753906 -9.484375 2.242188 -9.875 2.890625 -10.15625 C 3.535156 -10.445312 4.300781 -10.59375 5.1875 -10.59375 C 6.5 -10.59375 7.53125 -10.265625 8.28125 -9.609375 C 9.039062 -8.960938 9.472656 -8.101562 9.578125 -7.03125 L 6.625 -7.03125 C 6.570312 -7.394531 6.410156 -7.679688 6.140625 -7.890625 C 5.878906 -8.109375 5.53125 -8.21875 5.09375 -8.21875 C 4.71875 -8.21875 4.429688 -8.144531 4.234375 -8 C 4.035156 -7.851562 3.9375 -7.65625 3.9375 -7.40625 C 3.9375 -7.113281 4.09375 -6.890625 4.40625 -6.734375 C 4.726562 -6.585938 5.222656 -6.441406 5.890625 -6.296875 C 6.671875 -6.085938 7.300781 -5.882812 7.78125 -5.6875 C 8.269531 -5.5 8.695312 -5.191406 9.0625 -4.765625 C 9.4375 -4.335938 9.628906 -3.757812 9.640625 -3.03125 C 9.640625 -2.414062 9.46875 -1.867188 9.125 -1.390625 C 8.78125 -0.910156 8.285156 -0.53125 7.640625 -0.25 C 7.003906 0.0195312 6.257812 0.15625 5.40625 0.15625 Z M 5.40625 0.15625 "/></g></g></g><g fill="#ffffff" fill-opacity="1"><g transform="translate(205.004381, 23.971069)"><g><path d="M 0.53125 -5.234375 C 0.53125 -6.304688 0.726562 -7.25 1.125 -8.0625 C 1.53125 -8.875 2.082031 -9.5 2.78125 -9.9375 C 3.488281 -10.375 4.269531 -10.59375 5.125 -10.59375 C 5.863281 -10.59375 6.507812 -10.441406 7.0625 -10.140625 C 7.625 -9.847656 8.050781 -9.457031 8.34375 -8.96875 L 8.34375 -10.4375 L 11.546875 -10.4375 L 11.546875 0 L 8.34375 0 L 8.34375 -1.484375 C 8.03125 -0.992188 7.597656 -0.597656 7.046875 -0.296875 C 6.492188 0.00390625 5.847656 0.15625 5.109375 0.15625 C 4.265625 0.15625 3.488281 -0.0625 2.78125 -0.5 C 2.082031 -0.945312 1.53125 -1.578125 1.125 -2.390625 C 0.726562 -3.210938 0.53125 -4.160156 0.53125 -5.234375 Z M 8.34375 -5.21875 C 8.34375 -6.019531 8.117188 -6.648438 7.671875 -7.109375 C 7.234375 -7.578125 6.695312 -7.8125 6.0625 -7.8125 C 5.425781 -7.8125 4.882812 -7.582031 4.4375 -7.125 C 4 -6.664062 3.78125 -6.035156 3.78125 -5.234375 C 3.78125 -4.441406 4 -3.8125 4.4375 -3.34375 C 4.882812 -2.875 5.425781 -2.640625 6.0625 -2.640625 C 6.695312 -2.640625 7.234375 -2.867188 7.671875 -3.328125 C 8.117188 -3.796875 8.34375 -4.425781 8.34375 -5.21875 Z M 8.34375 -5.21875 "/></g></g></g><g fill="#ffffff" fill-opacity="1"><g transform="translate(217.71848, 23.971069)"><g><path d="M 6.984375 -2.71875 L 6.984375 0 L 5.359375 0 C 4.191406 0 3.285156 -0.28125 2.640625 -0.84375 C 1.992188 -1.414062 1.671875 -2.34375 1.671875 -3.625 L 1.671875 -7.78125 L 0.390625 -7.78125 L 0.390625 -10.4375 L 1.671875 -10.4375 L 1.671875 -12.984375 L 4.859375 -12.984375 L 4.859375 -10.4375 L 6.96875 -10.4375 L 6.96875 -7.78125 L 4.859375 -7.78125 L 4.859375 -3.59375 C 4.859375 -3.28125 4.929688 -3.054688 5.078125 -2.921875 C 5.234375 -2.785156 5.488281 -2.71875 5.84375 -2.71875 Z M 6.984375 -2.71875 "/></g></g></g><g fill="#ffffff" fill-opacity="1"><g transform="translate(225.320727, 23.971069)"><g/></g></g><g fill="#ffffff" fill-opacity="1"><g transform="translate(229.290371, 23.971069)"><g><path d="M 3.09375 -7.34375 C 1.914062 -7.96875 1.328125 -8.945312 1.328125 -10.28125 C 1.328125 -10.945312 1.5 -11.554688 1.84375 -12.109375 C 2.195312 -12.671875 2.726562 -13.117188 3.4375 -13.453125 C 4.15625 -13.785156 5.03125 -13.953125 6.0625 -13.953125 C 7.101562 -13.953125 7.972656 -13.785156 8.671875 -13.453125 C 9.378906 -13.117188 9.90625 -12.671875 10.25 -12.109375 C 10.601562 -11.554688 10.78125 -10.945312 10.78125 -10.28125 C 10.78125 -9.601562 10.617188 -9.015625 10.296875 -8.515625 C 9.984375 -8.015625 9.554688 -7.625 9.015625 -7.34375 C 9.691406 -7.007812 10.210938 -6.554688 10.578125 -5.984375 C 10.941406 -5.421875 11.125 -4.757812 11.125 -4 C 11.125 -3.113281 10.894531 -2.347656 10.4375 -1.703125 C 9.988281 -1.066406 9.378906 -0.578125 8.609375 -0.234375 C 7.847656 0.0976562 7 0.265625 6.0625 0.265625 C 5.125 0.265625 4.269531 0.0976562 3.5 -0.234375 C 2.738281 -0.578125 2.132812 -1.066406 1.6875 -1.703125 C 1.238281 -2.347656 1.015625 -3.113281 1.015625 -4 C 1.015625 -4.78125 1.191406 -5.453125 1.546875 -6.015625 C 1.910156 -6.585938 2.425781 -7.03125 3.09375 -7.34375 Z M 7.671875 -9.796875 C 7.671875 -10.304688 7.523438 -10.703125 7.234375 -10.984375 C 6.941406 -11.265625 6.550781 -11.40625 6.0625 -11.40625 C 5.570312 -11.40625 5.179688 -11.257812 4.890625 -10.96875 C 4.597656 -10.675781 4.453125 -10.273438 4.453125 -9.765625 C 4.453125 -9.285156 4.601562 -8.90625 4.90625 -8.625 C 5.207031 -8.34375 5.59375 -8.203125 6.0625 -8.203125 C 6.539062 -8.203125 6.925781 -8.34375 7.21875 -8.625 C 7.519531 -8.914062 7.671875 -9.304688 7.671875 -9.796875 Z M 6.0625 -5.953125 C 5.476562 -5.953125 5.003906 -5.789062 4.640625 -5.46875 C 4.273438 -5.15625 4.09375 -4.71875 4.09375 -4.15625 C 4.09375 -3.632812 4.269531 -3.203125 4.625 -2.859375 C 4.988281 -2.523438 5.46875 -2.359375 6.0625 -2.359375 C 6.664062 -2.359375 7.140625 -2.523438 7.484375 -2.859375 C 7.828125 -3.203125 8 -3.632812 8 -4.15625 C 8 -4.707031 7.816406 -5.144531 7.453125 -5.46875 C 7.097656 -5.789062 6.632812 -5.953125 6.0625 -5.953125 Z M 6.0625 -5.953125 "/></g></g></g><g fill="#ffffff" fill-opacity="1"><g transform="translate(241.424015, 23.971069)"><g><path d="M 4.28125 -4 C 4.46875 -3.019531 5.046875 -2.53125 6.015625 -2.53125 C 6.671875 -2.53125 7.132812 -2.820312 7.40625 -3.40625 C 7.6875 -3.988281 7.828125 -4.941406 7.828125 -6.265625 C 7.546875 -5.878906 7.164062 -5.578125 6.6875 -5.359375 C 6.21875 -5.148438 5.691406 -5.046875 5.109375 -5.046875 C 4.304688 -5.046875 3.59375 -5.210938 2.96875 -5.546875 C 2.351562 -5.878906 1.863281 -6.375 1.5 -7.03125 C 1.144531 -7.6875 0.96875 -8.484375 0.96875 -9.421875 C 0.96875 -10.335938 1.15625 -11.140625 1.53125 -11.828125 C 1.914062 -12.515625 2.460938 -13.046875 3.171875 -13.421875 C 3.878906 -13.796875 4.710938 -13.984375 5.671875 -13.984375 C 7.515625 -13.984375 8.804688 -13.40625 9.546875 -12.25 C 10.285156 -11.101562 10.65625 -9.414062 10.65625 -7.1875 C 10.65625 -5.5625 10.503906 -4.222656 10.203125 -3.171875 C 9.910156 -2.117188 9.414062 -1.316406 8.71875 -0.765625 C 8.03125 -0.210938 7.085938 0.0625 5.890625 0.0625 C 4.941406 0.0625 4.132812 -0.125 3.46875 -0.5 C 2.800781 -0.875 2.289062 -1.367188 1.9375 -1.984375 C 1.582031 -2.597656 1.378906 -3.269531 1.328125 -4 Z M 5.84375 -7.578125 C 6.363281 -7.578125 6.78125 -7.734375 7.09375 -8.046875 C 7.40625 -8.367188 7.5625 -8.804688 7.5625 -9.359375 C 7.5625 -9.960938 7.398438 -10.425781 7.078125 -10.75 C 6.753906 -11.070312 6.316406 -11.234375 5.765625 -11.234375 C 5.210938 -11.234375 4.773438 -11.066406 4.453125 -10.734375 C 4.140625 -10.398438 3.984375 -9.945312 3.984375 -9.375 C 3.984375 -8.84375 4.140625 -8.410156 4.453125 -8.078125 C 4.773438 -7.742188 5.238281 -7.578125 5.84375 -7.578125 Z M 5.84375 -7.578125 "/></g></g></g><g fill="#ffffff" fill-opacity="1"><g transform="translate(252.930185, 23.971069)"><g/></g></g></svg>