<svg xmlns="http://www.w3.org/2000/svg" xmlns:xlink="http://www.w3.org/1999/xlink" width="210" zoomAndPan="magnify" viewBox="0 0 157.5 300.749996" height="401" preserveAspectRatio="xMidYMid meet" version="1.0"><defs><g/><clipPath id="fca7192082"><path d="M 0.339844 265.417969 L 157 265.417969 L 157 300.148438 L 0.339844 300.148438 Z M 0.339844 265.417969 " clip-rule="nonzero"/></clipPath><clipPath id="8854f1810d"><path d="M 17.941406 265.417969 L 139.460938 265.417969 C 149.179688 265.417969 157.058594 273.296875 157.058594 283.015625 C 157.058594 292.738281 149.179688 300.617188 139.460938 300.617188 L 17.941406 300.617188 C 8.21875 300.617188 0.339844 292.738281 0.339844 283.015625 C 0.339844 273.296875 8.21875 265.417969 17.941406 265.417969 " clip-rule="nonzero"/></clipPath><clipPath id="877c7e50d6"><path d="M 26.984375 114.105469 L 31.625 114.105469 L 31.625 116.082031 L 26.984375 116.082031 Z M 26.984375 114.105469 " clip-rule="nonzero"/></clipPath><clipPath id="9485420721"><path d="M 19.917969 95.089844 L 38.667969 95.089844 L 38.667969 113.34375 L 19.917969 113.34375 Z M 19.917969 95.089844 " clip-rule="nonzero"/></clipPath><clipPath id="1d9f0640f4"><path d="M 31 95.085938 L 38.667969 95.085938 L 38.667969 103 L 31 103 Z M 31 95.085938 " clip-rule="nonzero"/></clipPath><clipPath id="b565a5f255"><path d="M 19.917969 140.539062 L 38.652344 140.539062 L 38.652344 159.289062 L 19.917969 159.289062 Z M 19.917969 140.539062 " clip-rule="nonzero"/></clipPath><clipPath id="167e8f04df"><path d="M 19.917969 51.046875 L 29 51.046875 L 29 60 L 19.917969 60 Z M 19.917969 51.046875 " clip-rule="nonzero"/></clipPath><clipPath id="67cb20dcc4"><path d="M 29 51.046875 L 38.667969 51.046875 L 38.667969 60 L 29 60 Z M 29 51.046875 " clip-rule="nonzero"/></clipPath><clipPath id="bd4a76f1b6"><path d="M 19.917969 61 L 29 61 L 29 69.796875 L 19.917969 69.796875 Z M 19.917969 61 " clip-rule="nonzero"/></clipPath><clipPath id="84241fc029"><path d="M 29 61 L 38.667969 61 L 38.667969 69.796875 L 29 69.796875 Z M 29 61 " clip-rule="nonzero"/></clipPath><clipPath id="2e486ac5dd"><path d="M 22 184.589844 L 38.027344 184.589844 L 38.027344 201 L 22 201 Z M 22 184.589844 " clip-rule="nonzero"/></clipPath><clipPath id="b125a69e2a"><path d="M 20.027344 184.589844 L 27 184.589844 L 27 204.839844 L 20.027344 204.839844 Z M 20.027344 184.589844 " clip-rule="nonzero"/></clipPath></defs><g clip-path="url(#fca7192082)"><g clip-path="url(#8854f1810d)"><path fill="#bb00aa" d="M 0.339844 265.417969 L 157.421875 265.417969 L 157.421875 300.984375 L 0.339844 300.984375 Z M 0.339844 265.417969 " fill-opacity="1" fill-rule="nonzero"/></g></g><g clip-path="url(#877c7e50d6)"><path fill="#ffffff" d="M 29.292969 116.082031 C 30.347656 116.082031 31.242188 115.417969 31.574219 114.496094 C 31.644531 114.308594 31.503906 114.113281 31.304688 114.113281 L 27.277344 114.113281 C 27.078125 114.113281 26.941406 114.308594 27.007812 114.496094 C 27.339844 115.417969 28.238281 116.082031 29.292969 116.082031 " fill-opacity="1" fill-rule="nonzero"/></g><g clip-path="url(#9485420721)"><path fill="#ffffff" d="M 38.4375 111.3125 L 37.828125 110.273438 C 37.171875 109.160156 36.824219 107.894531 36.824219 106.605469 L 36.824219 104.152344 C 36.824219 100.613281 34.300781 97.660156 30.925781 96.925781 L 30.925781 96.699219 C 30.925781 95.808594 30.195312 95.089844 29.292969 95.089844 C 28.390625 95.089844 27.65625 95.808594 27.65625 96.699219 L 27.65625 96.925781 C 24.28125 97.660156 21.757812 100.613281 21.757812 104.152344 L 21.757812 106.605469 C 21.757812 107.894531 21.414062 109.160156 20.757812 110.273438 L 20.144531 111.3125 C 19.554688 112.160156 20.175781 113.3125 21.222656 113.3125 L 37.363281 113.3125 C 38.410156 113.3125 39.027344 112.160156 38.4375 111.3125 " fill-opacity="1" fill-rule="nonzero"/></g><g clip-path="url(#1d9f0640f4)"><path fill="#f155e3" d="M 38.152344 99.21875 C 38.152344 101.152344 36.558594 102.71875 34.589844 102.71875 C 32.625 102.71875 31.03125 101.152344 31.03125 99.21875 C 31.03125 97.285156 32.625 95.71875 34.589844 95.71875 C 36.558594 95.71875 38.152344 97.285156 38.152344 99.21875 " fill-opacity="1" fill-rule="nonzero"/></g><path fill="#ffffff" d="M 35.140625 97.34375 L 35.140625 101.09375 L 34.1875 101.09375 L 34.1875 99.082031 C 34.1875 98.792969 34.179688 98.617188 34.167969 98.558594 C 34.152344 98.5 34.113281 98.457031 34.050781 98.425781 C 33.988281 98.394531 33.84375 98.378906 33.625 98.378906 L 33.53125 98.378906 L 33.53125 97.945312 C 33.992188 97.847656 34.339844 97.644531 34.578125 97.34375 L 35.140625 97.34375 " fill-opacity="1" fill-rule="nonzero"/><g clip-path="url(#b565a5f255)"><path fill="#ffffff" d="M 29.226562 146.347656 C 31.175781 146.3125 32.785156 147.863281 32.820312 149.8125 C 32.820312 149.847656 32.820312 149.882812 32.820312 149.914062 C 32.839844 151.863281 31.28125 153.464844 29.332031 153.484375 C 27.382812 153.507812 25.785156 151.945312 25.761719 149.996094 C 25.761719 149.96875 25.761719 149.941406 25.761719 149.914062 C 25.742188 147.976562 27.285156 146.382812 29.226562 146.347656 Z M 29.605469 140.546875 C 29.078125 140.527344 28.550781 140.554688 28.027344 140.625 C 27.84375 140.652344 27.691406 140.78125 27.636719 140.957031 L 27.117188 142.648438 C 27.074219 142.792969 26.964844 142.90625 26.824219 142.957031 C 26.578125 143.042969 26.339844 143.144531 26.101562 143.253906 C 25.96875 143.320312 25.808594 143.316406 25.675781 143.246094 L 24.113281 142.417969 C 23.949219 142.332031 23.746094 142.347656 23.601562 142.460938 C 22.933594 142.96875 22.335938 143.566406 21.828125 144.234375 C 21.714844 144.382812 21.695312 144.578125 21.785156 144.742188 L 22.613281 146.308594 C 22.6875 146.4375 22.691406 146.597656 22.632812 146.734375 C 22.519531 146.96875 22.417969 147.210938 22.332031 147.453125 C 22.28125 147.597656 22.167969 147.707031 22.023438 147.75 L 20.332031 148.269531 C 20.152344 148.324219 20.023438 148.476562 20 148.660156 C 19.886719 149.496094 19.886719 150.335938 20 151.171875 C 20.023438 151.355469 20.152344 151.507812 20.332031 151.5625 L 22.023438 152.082031 C 22.167969 152.125 22.28125 152.234375 22.332031 152.378906 C 22.417969 152.621094 22.519531 152.863281 22.632812 153.097656 C 22.691406 153.234375 22.6875 153.394531 22.613281 153.523438 L 21.785156 155.085938 C 21.695312 155.25 21.714844 155.449219 21.828125 155.597656 C 22.335938 156.265625 22.933594 156.863281 23.601562 157.371094 C 23.746094 157.484375 23.949219 157.5 24.113281 157.414062 L 25.675781 156.585938 C 25.808594 156.515625 25.96875 156.511719 26.101562 156.574219 C 26.339844 156.6875 26.578125 156.789062 26.824219 156.875 C 26.964844 156.925781 27.074219 157.039062 27.117188 157.183594 L 27.636719 158.875 C 27.691406 159.050781 27.84375 159.179688 28.027344 159.203125 C 28.863281 159.316406 29.707031 159.316406 30.539062 159.203125 C 30.722656 159.179688 30.875 159.050781 30.929688 158.875 L 31.449219 157.183594 C 31.492188 157.039062 31.601562 156.925781 31.746094 156.875 C 31.988281 156.789062 32.230469 156.6875 32.464844 156.574219 C 32.601562 156.511719 32.757812 156.515625 32.890625 156.585938 L 34.453125 157.414062 C 34.621094 157.5 34.820312 157.484375 34.964844 157.371094 C 35.636719 156.863281 36.230469 156.265625 36.738281 155.597656 C 36.851562 155.449219 36.871094 155.25 36.785156 155.085938 L 35.953125 153.523438 C 35.882812 153.394531 35.875 153.234375 35.9375 153.097656 C 36.050781 152.863281 36.148438 152.621094 36.234375 152.378906 C 36.285156 152.234375 36.402344 152.125 36.546875 152.082031 L 38.238281 151.5625 C 38.414062 151.503906 38.542969 151.355469 38.566406 151.171875 C 38.679688 150.335938 38.679688 149.496094 38.566406 148.660156 C 38.542969 148.476562 38.414062 148.324219 38.238281 148.269531 L 36.546875 147.75 C 36.402344 147.707031 36.285156 147.597656 36.234375 147.453125 C 36.148438 147.210938 36.050781 146.96875 35.9375 146.734375 C 35.875 146.597656 35.882812 146.4375 35.953125 146.308594 L 36.785156 144.742188 C 36.871094 144.578125 36.851562 144.382812 36.738281 144.234375 C 36.230469 143.566406 35.636719 142.96875 34.964844 142.460938 C 34.820312 142.347656 34.621094 142.332031 34.453125 142.417969 L 32.890625 143.246094 C 32.757812 143.316406 32.601562 143.320312 32.464844 143.257812 C 32.230469 143.144531 31.988281 143.042969 31.746094 142.957031 C 31.601562 142.90625 31.492188 142.792969 31.449219 142.648438 L 30.929688 140.957031 C 30.875 140.78125 30.722656 140.652344 30.539062 140.625 C 30.226562 140.585938 29.917969 140.558594 29.605469 140.546875 " fill-opacity="1" fill-rule="nonzero"/></g><g clip-path="url(#167e8f04df)"><path fill="#f155e3" d="M 22.261719 51.046875 L 26.363281 51.046875 C 26.671875 51.046875 26.972656 51.105469 27.257812 51.222656 C 27.546875 51.34375 27.800781 51.511719 28.019531 51.730469 C 28.238281 51.953125 28.40625 52.207031 28.527344 52.492188 C 28.644531 52.78125 28.707031 53.078125 28.707031 53.390625 L 28.707031 57.492188 C 28.707031 57.800781 28.644531 58.101562 28.527344 58.386719 C 28.40625 58.675781 28.238281 58.929688 28.019531 59.148438 C 27.800781 59.367188 27.546875 59.539062 27.257812 59.65625 C 26.972656 59.773438 26.671875 59.835938 26.363281 59.835938 L 22.261719 59.835938 C 21.949219 59.835938 21.648438 59.773438 21.363281 59.65625 C 21.074219 59.539062 20.824219 59.367188 20.601562 59.148438 C 20.382812 58.929688 20.214844 58.675781 20.09375 58.386719 C 19.976562 58.101562 19.917969 57.800781 19.917969 57.492188 L 19.917969 53.390625 C 19.917969 53.078125 19.976562 52.78125 20.09375 52.492188 C 20.214844 52.207031 20.382812 51.953125 20.601562 51.730469 C 20.824219 51.511719 21.074219 51.34375 21.363281 51.222656 C 21.648438 51.105469 21.949219 51.046875 22.261719 51.046875 Z M 22.261719 51.046875 " fill-opacity="1" fill-rule="nonzero"/></g><g clip-path="url(#67cb20dcc4)"><path fill="#f155e3" d="M 32.222656 51.046875 L 36.324219 51.046875 C 36.632812 51.046875 36.933594 51.105469 37.21875 51.222656 C 37.507812 51.34375 37.761719 51.511719 37.980469 51.730469 C 38.199219 51.953125 38.367188 52.207031 38.488281 52.492188 C 38.605469 52.78125 38.667969 53.078125 38.667969 53.390625 L 38.667969 57.492188 C 38.667969 57.800781 38.605469 58.101562 38.488281 58.386719 C 38.367188 58.675781 38.199219 58.929688 37.980469 59.148438 C 37.761719 59.367188 37.507812 59.539062 37.21875 59.65625 C 36.933594 59.773438 36.632812 59.835938 36.324219 59.835938 L 32.222656 59.835938 C 31.910156 59.835938 31.609375 59.773438 31.324219 59.65625 C 31.035156 59.539062 30.785156 59.367188 30.5625 59.148438 C 30.34375 58.929688 30.175781 58.675781 30.054688 58.386719 C 29.9375 58.101562 29.878906 57.800781 29.878906 57.492188 L 29.878906 53.390625 C 29.878906 53.078125 29.9375 52.78125 30.054688 52.492188 C 30.175781 52.207031 30.34375 51.953125 30.5625 51.730469 C 30.785156 51.511719 31.035156 51.34375 31.324219 51.222656 C 31.609375 51.105469 31.910156 51.046875 32.222656 51.046875 Z M 32.222656 51.046875 " fill-opacity="1" fill-rule="nonzero"/></g><g clip-path="url(#bd4a76f1b6)"><path fill="#f155e3" d="M 22.261719 61.007812 L 26.363281 61.007812 C 26.671875 61.007812 26.972656 61.066406 27.257812 61.183594 C 27.546875 61.304688 27.800781 61.472656 28.019531 61.691406 C 28.238281 61.914062 28.40625 62.167969 28.527344 62.453125 C 28.644531 62.742188 28.707031 63.039062 28.707031 63.351562 L 28.707031 67.453125 C 28.707031 67.761719 28.644531 68.0625 28.527344 68.347656 C 28.40625 68.636719 28.238281 68.890625 28.019531 69.109375 C 27.800781 69.328125 27.546875 69.5 27.257812 69.617188 C 26.972656 69.734375 26.671875 69.796875 26.363281 69.796875 L 22.261719 69.796875 C 21.949219 69.796875 21.648438 69.734375 21.363281 69.617188 C 21.074219 69.5 20.824219 69.328125 20.601562 69.109375 C 20.382812 68.890625 20.214844 68.636719 20.09375 68.347656 C 19.976562 68.0625 19.917969 67.761719 19.917969 67.453125 L 19.917969 63.351562 C 19.917969 63.039062 19.976562 62.742188 20.09375 62.453125 C 20.214844 62.167969 20.382812 61.914062 20.601562 61.691406 C 20.824219 61.472656 21.074219 61.304688 21.363281 61.183594 C 21.648438 61.066406 21.949219 61.007812 22.261719 61.007812 Z M 22.261719 61.007812 " fill-opacity="1" fill-rule="nonzero"/></g><g clip-path="url(#84241fc029)"><path fill="#f155e3" d="M 32.222656 61.007812 L 36.324219 61.007812 C 36.632812 61.007812 36.933594 61.066406 37.21875 61.183594 C 37.507812 61.304688 37.761719 61.472656 37.980469 61.691406 C 38.199219 61.914062 38.367188 62.167969 38.488281 62.453125 C 38.605469 62.742188 38.667969 63.039062 38.667969 63.351562 L 38.667969 67.453125 C 38.667969 67.761719 38.605469 68.0625 38.488281 68.347656 C 38.367188 68.636719 38.199219 68.890625 37.980469 69.109375 C 37.761719 69.328125 37.507812 69.5 37.21875 69.617188 C 36.933594 69.734375 36.632812 69.796875 36.324219 69.796875 L 32.222656 69.796875 C 31.910156 69.796875 31.609375 69.734375 31.324219 69.617188 C 31.035156 69.5 30.785156 69.328125 30.5625 69.109375 C 30.34375 68.890625 30.175781 68.636719 30.054688 68.347656 C 29.9375 68.0625 29.878906 67.761719 29.878906 67.453125 L 29.878906 63.351562 C 29.878906 63.039062 29.9375 62.742188 30.054688 62.453125 C 30.175781 62.167969 30.34375 61.914062 30.5625 61.691406 C 30.785156 61.472656 31.035156 61.304688 31.324219 61.183594 C 31.609375 61.066406 31.910156 61.007812 32.222656 61.007812 Z M 32.222656 61.007812 " fill-opacity="1" fill-rule="nonzero"/></g><g clip-path="url(#2e486ac5dd)"><path fill="#ffffff" d="M 37.894531 192.09375 L 36.09375 190.25 C 36.007812 190.164062 35.902344 190.121094 35.78125 190.121094 C 35.65625 190.121094 35.554688 190.167969 35.464844 190.253906 C 35.378906 190.34375 35.335938 190.449219 35.335938 190.574219 C 35.335938 190.699219 35.378906 190.804688 35.464844 190.894531 L 36.488281 191.953125 L 33.527344 191.953125 L 33.527344 185.054688 C 33.53125 184.925781 33.484375 184.816406 33.398438 184.726562 C 33.308594 184.636719 33.203125 184.589844 33.078125 184.59375 L 22.054688 184.59375 L 26.742188 188.59375 C 27.066406 188.871094 27.230469 189.222656 27.226562 189.652344 L 27.226562 200.234375 L 33.078125 200.234375 C 33.203125 200.234375 33.308594 200.191406 33.398438 200.101562 C 33.484375 200.011719 33.53125 199.902344 33.527344 199.773438 L 33.527344 193.792969 L 30.378906 193.792969 C 30.253906 193.792969 30.148438 193.75 30.058594 193.660156 C 29.972656 193.570312 29.929688 193.460938 29.929688 193.335938 C 29.929688 193.207031 29.972656 193.097656 30.058594 193.007812 C 30.148438 192.917969 30.253906 192.875 30.378906 192.875 L 36.488281 192.875 L 35.464844 193.933594 C 35.378906 194.019531 35.335938 194.128906 35.335938 194.253906 C 35.335938 194.378906 35.378906 194.484375 35.464844 194.574219 C 35.554688 194.660156 35.65625 194.707031 35.78125 194.707031 C 35.902344 194.707031 36.007812 194.664062 36.09375 194.578125 L 37.894531 192.734375 C 37.984375 192.648438 38.027344 192.539062 38.027344 192.414062 C 38.027344 192.285156 37.984375 192.179688 37.894531 192.09375 Z M 37.894531 192.09375 " fill-opacity="1" fill-rule="nonzero"/></g><g clip-path="url(#b125a69e2a)"><path fill="#ffffff" d="M 20.765625 184.699219 C 20.621094 184.574219 20.460938 184.554688 20.289062 184.636719 C 20.113281 184.71875 20.027344 184.859375 20.027344 185.054688 L 20.027344 199.773438 C 20.027344 199.917969 20.082031 200.035156 20.191406 200.128906 L 25.589844 204.730469 C 25.671875 204.800781 25.769531 204.835938 25.878906 204.835938 C 26.003906 204.835938 26.109375 204.789062 26.195312 204.699219 C 26.285156 204.609375 26.328125 204.503906 26.328125 204.375 L 26.328125 189.652344 C 26.328125 189.511719 26.273438 189.390625 26.167969 189.300781 Z M 20.765625 184.699219 " fill-opacity="1" fill-rule="nonzero"/></g><path stroke-linecap="butt" transform="matrix(0.747372, 0, 0, 0.75, 77.199815, 8.777)" fill="none" stroke-linejoin="miter" d="M -0.000797522 0.500458 L 80.285689 0.500458 " stroke="#ffffff" stroke-width="1" stroke-opacity="1" stroke-miterlimit="4"/><path stroke-linecap="butt" transform="matrix(0.743847, 0, 0, 0.75, 111.694787, 239.482068)" fill="none" stroke-linejoin="miter" d="M 0.000706321 0.497867 L 34.292462 0.497867 " stroke="#ffffff" stroke-width="1" stroke-opacity="1" stroke-miterlimit="4"/><g fill="#ffffff" fill-opacity="1"><g transform="translate(19.916034, 244.357065)"><g><path d="M 11.296875 -9.734375 L 11.296875 0 L 9.703125 0 L 9.703125 -6.65625 L 6.734375 0 L 5.625 0 L 2.640625 -6.65625 L 2.640625 0 L 1.046875 0 L 1.046875 -9.734375 L 2.765625 -9.734375 L 6.1875 -2.09375 L 9.59375 -9.734375 Z M 11.296875 -9.734375 "/></g></g></g><g fill="#ffffff" fill-opacity="1"><g transform="translate(32.257147, 244.357065)"><g><path d="M 8 -7.71875 L 3.265625 3.625 L 1.609375 3.625 L 3.171875 -0.125 L 0.140625 -7.71875 L 1.921875 -7.71875 L 4.09375 -1.828125 L 6.34375 -7.71875 Z M 8 -7.71875 "/></g></g></g><g fill="#ffffff" fill-opacity="1"><g transform="translate(40.400602, 244.357065)"><g/></g></g><g fill="#ffffff" fill-opacity="1"><g transform="translate(44.038576, 244.357065)"><g><path d="M 7.859375 -6.828125 C 7.859375 -6.335938 7.738281 -5.875 7.5 -5.4375 C 7.269531 -5 6.894531 -4.640625 6.375 -4.359375 C 5.863281 -4.085938 5.207031 -3.953125 4.40625 -3.953125 L 2.640625 -3.953125 L 2.640625 0 L 1.046875 0 L 1.046875 -9.734375 L 4.40625 -9.734375 C 5.15625 -9.734375 5.785156 -9.601562 6.296875 -9.34375 C 6.816406 -9.082031 7.207031 -8.734375 7.46875 -8.296875 C 7.726562 -7.859375 7.859375 -7.367188 7.859375 -6.828125 Z M 4.40625 -5.25 C 5.007812 -5.25 5.460938 -5.382812 5.765625 -5.65625 C 6.066406 -5.9375 6.21875 -6.328125 6.21875 -6.828125 C 6.21875 -7.890625 5.613281 -8.421875 4.40625 -8.421875 L 2.640625 -8.421875 L 2.640625 -5.25 Z M 4.40625 -5.25 "/></g></g></g><g fill="#ffffff" fill-opacity="1"><g transform="translate(52.363924, 244.357065)"><g><path d="M 2.640625 -10.359375 L 2.640625 0 L 1.046875 0 L 1.046875 -10.359375 Z M 2.640625 -10.359375 "/></g></g></g><g fill="#ffffff" fill-opacity="1"><g transform="translate(56.057859, 244.357065)"><g><path d="M 0.515625 -3.890625 C 0.515625 -4.660156 0.675781 -5.34375 1 -5.9375 C 1.320312 -6.539062 1.757812 -7.007812 2.3125 -7.34375 C 2.875 -7.675781 3.488281 -7.84375 4.15625 -7.84375 C 4.757812 -7.84375 5.285156 -7.722656 5.734375 -7.484375 C 6.191406 -7.242188 6.554688 -6.945312 6.828125 -6.59375 L 6.828125 -7.71875 L 8.4375 -7.71875 L 8.4375 0 L 6.828125 0 L 6.828125 -1.140625 C 6.554688 -0.785156 6.1875 -0.484375 5.71875 -0.234375 C 5.257812 0.00390625 4.726562 0.125 4.125 0.125 C 3.46875 0.125 2.863281 -0.0390625 2.3125 -0.375 C 1.757812 -0.71875 1.320312 -1.195312 1 -1.8125 C 0.675781 -2.425781 0.515625 -3.117188 0.515625 -3.890625 Z M 6.828125 -3.859375 C 6.828125 -4.390625 6.71875 -4.851562 6.5 -5.25 C 6.28125 -5.644531 5.992188 -5.941406 5.640625 -6.140625 C 5.285156 -6.347656 4.90625 -6.453125 4.5 -6.453125 C 4.082031 -6.453125 3.695312 -6.351562 3.34375 -6.15625 C 2.988281 -5.957031 2.703125 -5.660156 2.484375 -5.265625 C 2.265625 -4.878906 2.15625 -4.421875 2.15625 -3.890625 C 2.15625 -3.359375 2.265625 -2.890625 2.484375 -2.484375 C 2.703125 -2.085938 2.988281 -1.785156 3.34375 -1.578125 C 3.707031 -1.367188 4.09375 -1.265625 4.5 -1.265625 C 4.90625 -1.265625 5.285156 -1.363281 5.640625 -1.5625 C 5.992188 -1.769531 6.28125 -2.070312 6.5 -2.46875 C 6.71875 -2.863281 6.828125 -3.328125 6.828125 -3.859375 Z M 6.828125 -3.859375 "/></g></g></g><g fill="#ffffff" fill-opacity="1"><g transform="translate(65.544564, 244.357065)"><g><path d="M 8 -7.71875 L 3.265625 3.625 L 1.609375 3.625 L 3.171875 -0.125 L 0.140625 -7.71875 L 1.921875 -7.71875 L 4.09375 -1.828125 L 6.34375 -7.71875 Z M 8 -7.71875 "/></g></g></g><g fill="#ffffff" fill-opacity="1"><g transform="translate(73.688019, 244.357065)"><g><path d="M 2.640625 -10.359375 L 2.640625 0 L 1.046875 0 L 1.046875 -10.359375 Z M 2.640625 -10.359375 "/></g></g></g><g fill="#ffffff" fill-opacity="1"><g transform="translate(77.381954, 244.357065)"><g><path d="M 1.859375 -8.734375 C 1.566406 -8.734375 1.320312 -8.832031 1.125 -9.03125 C 0.9375 -9.226562 0.84375 -9.472656 0.84375 -9.765625 C 0.84375 -10.046875 0.9375 -10.285156 1.125 -10.484375 C 1.320312 -10.679688 1.566406 -10.78125 1.859375 -10.78125 C 2.140625 -10.78125 2.378906 -10.679688 2.578125 -10.484375 C 2.773438 -10.285156 2.875 -10.046875 2.875 -9.765625 C 2.875 -9.472656 2.773438 -9.226562 2.578125 -9.03125 C 2.378906 -8.832031 2.140625 -8.734375 1.859375 -8.734375 Z M 2.640625 -7.71875 L 2.640625 0 L 1.046875 0 L 1.046875 -7.71875 Z M 2.640625 -7.71875 "/></g></g></g><g fill="#ffffff" fill-opacity="1"><g transform="translate(81.075889, 244.357065)"><g><path d="M 3.84375 0.125 C 3.238281 0.125 2.695312 0.015625 2.21875 -0.203125 C 1.738281 -0.421875 1.359375 -0.71875 1.078125 -1.09375 C 0.796875 -1.476562 0.644531 -1.898438 0.625 -2.359375 L 2.28125 -2.359375 C 2.3125 -2.035156 2.46875 -1.765625 2.75 -1.546875 C 3.03125 -1.328125 3.390625 -1.21875 3.828125 -1.21875 C 4.273438 -1.21875 4.617188 -1.300781 4.859375 -1.46875 C 5.109375 -1.644531 5.234375 -1.867188 5.234375 -2.140625 C 5.234375 -2.429688 5.09375 -2.644531 4.8125 -2.78125 C 4.539062 -2.925781 4.109375 -3.082031 3.515625 -3.25 C 2.929688 -3.40625 2.457031 -3.554688 2.09375 -3.703125 C 1.726562 -3.859375 1.410156 -4.085938 1.140625 -4.390625 C 0.878906 -4.703125 0.75 -5.109375 0.75 -5.609375 C 0.75 -6.023438 0.867188 -6.398438 1.109375 -6.734375 C 1.359375 -7.078125 1.707031 -7.347656 2.15625 -7.546875 C 2.613281 -7.742188 3.132812 -7.84375 3.71875 -7.84375 C 4.601562 -7.84375 5.3125 -7.617188 5.84375 -7.171875 C 6.382812 -6.734375 6.671875 -6.128906 6.703125 -5.359375 L 5.109375 -5.359375 C 5.078125 -5.703125 4.9375 -5.976562 4.6875 -6.1875 C 4.4375 -6.394531 4.097656 -6.5 3.671875 -6.5 C 3.242188 -6.5 2.914062 -6.414062 2.6875 -6.25 C 2.46875 -6.09375 2.359375 -5.882812 2.359375 -5.625 C 2.359375 -5.414062 2.429688 -5.242188 2.578125 -5.109375 C 2.734375 -4.972656 2.914062 -4.863281 3.125 -4.78125 C 3.34375 -4.695312 3.664062 -4.597656 4.09375 -4.484375 C 4.644531 -4.328125 5.097656 -4.171875 5.453125 -4.015625 C 5.816406 -3.867188 6.128906 -3.644531 6.390625 -3.34375 C 6.660156 -3.039062 6.796875 -2.644531 6.796875 -2.15625 C 6.796875 -1.71875 6.675781 -1.328125 6.4375 -0.984375 C 6.195312 -0.640625 5.851562 -0.367188 5.40625 -0.171875 C 4.96875 0.0234375 4.445312 0.125 3.84375 0.125 Z M 3.84375 0.125 "/></g></g></g><g fill="#ffffff" fill-opacity="1"><g transform="translate(88.547714, 244.357065)"><g><path d="M 2.90625 -6.40625 L 2.90625 -2.140625 C 2.90625 -1.847656 2.972656 -1.640625 3.109375 -1.515625 C 3.242188 -1.390625 3.476562 -1.328125 3.8125 -1.328125 L 4.78125 -1.328125 L 4.78125 0 L 3.53125 0 C 2.8125 0 2.257812 -0.164062 1.875 -0.5 C 1.488281 -0.84375 1.296875 -1.390625 1.296875 -2.140625 L 1.296875 -6.40625 L 0.390625 -6.40625 L 0.390625 -7.71875 L 1.296875 -7.71875 L 1.296875 -9.625 L 2.90625 -9.625 L 2.90625 -7.71875 L 4.78125 -7.71875 L 4.78125 -6.40625 Z M 2.90625 -6.40625 "/></g></g></g><g fill="#ffffff" fill-opacity="1"><g transform="translate(14.475265, 286.969049)"><g><path d="M 14.09375 -9.625 L 11.578125 0 L 8.75 0 L 7.203125 -6.328125 L 5.625 0 L 2.78125 0 L 0.34375 -9.625 L 2.84375 -9.625 L 4.234375 -2.625 L 5.953125 -9.625 L 8.515625 -9.625 L 10.171875 -2.625 L 11.5625 -9.625 Z M 14.09375 -9.625 "/></g></g></g><g fill="#ffffff" fill-opacity="1"><g transform="translate(28.882649, 286.969049)"><g><path d="M 4.328125 0.109375 C 3.578125 0.109375 2.898438 -0.046875 2.296875 -0.359375 C 1.703125 -0.679688 1.234375 -1.140625 0.890625 -1.734375 C 0.554688 -2.328125 0.390625 -3.023438 0.390625 -3.828125 C 0.390625 -4.609375 0.5625 -5.296875 0.90625 -5.890625 C 1.25 -6.492188 1.722656 -6.953125 2.328125 -7.265625 C 2.929688 -7.585938 3.609375 -7.75 4.359375 -7.75 C 5.109375 -7.75 5.785156 -7.585938 6.390625 -7.265625 C 6.992188 -6.953125 7.46875 -6.492188 7.8125 -5.890625 C 8.15625 -5.296875 8.328125 -4.609375 8.328125 -3.828125 C 8.328125 -3.035156 8.148438 -2.335938 7.796875 -1.734375 C 7.453125 -1.140625 6.972656 -0.679688 6.359375 -0.359375 C 5.753906 -0.046875 5.078125 0.109375 4.328125 0.109375 Z M 4.328125 -1.921875 C 4.773438 -1.921875 5.15625 -2.082031 5.46875 -2.40625 C 5.789062 -2.738281 5.953125 -3.210938 5.953125 -3.828125 C 5.953125 -4.429688 5.796875 -4.898438 5.484375 -5.234375 C 5.179688 -5.566406 4.804688 -5.734375 4.359375 -5.734375 C 3.898438 -5.734375 3.519531 -5.566406 3.21875 -5.234375 C 2.914062 -4.910156 2.765625 -4.441406 2.765625 -3.828125 C 2.765625 -3.210938 2.910156 -2.738281 3.203125 -2.40625 C 3.503906 -2.082031 3.878906 -1.921875 4.328125 -1.921875 Z M 4.328125 -1.921875 "/></g></g></g><g fill="#ffffff" fill-opacity="1"><g transform="translate(37.60651, 286.969049)"><g><path d="M 3.1875 -6.375 C 3.46875 -6.789062 3.8125 -7.117188 4.21875 -7.359375 C 4.632812 -7.609375 5.09375 -7.734375 5.59375 -7.734375 L 5.59375 -5.25 L 4.953125 -5.25 C 4.359375 -5.25 3.914062 -5.125 3.625 -4.875 C 3.332031 -4.625 3.1875 -4.179688 3.1875 -3.546875 L 3.1875 0 L 0.84375 0 L 0.84375 -7.640625 L 3.1875 -7.640625 Z M 3.1875 -6.375 "/></g></g></g><g fill="#ffffff" fill-opacity="1"><g transform="translate(43.468072, 286.969049)"><g><path d="M 5.515625 0 L 3.1875 -3.203125 L 3.1875 0 L 0.84375 0 L 0.84375 -10.140625 L 3.1875 -10.140625 L 3.1875 -4.53125 L 5.515625 -7.640625 L 8.40625 -7.640625 L 5.21875 -3.8125 L 8.421875 0 Z M 5.515625 0 "/></g></g></g><g fill="#ffffff" fill-opacity="1"><g transform="translate(51.93173, 286.969049)"><g><path d="M 3.953125 0.109375 C 3.285156 0.109375 2.691406 -0.00390625 2.171875 -0.234375 C 1.648438 -0.460938 1.238281 -0.773438 0.9375 -1.171875 C 0.644531 -1.566406 0.476562 -2.007812 0.4375 -2.5 L 2.75 -2.5 C 2.78125 -2.238281 2.90625 -2.023438 3.125 -1.859375 C 3.34375 -1.691406 3.613281 -1.609375 3.9375 -1.609375 C 4.226562 -1.609375 4.453125 -1.664062 4.609375 -1.78125 C 4.765625 -1.894531 4.84375 -2.046875 4.84375 -2.234375 C 4.84375 -2.453125 4.726562 -2.613281 4.5 -2.71875 C 4.28125 -2.820312 3.910156 -2.9375 3.390625 -3.0625 C 2.847656 -3.195312 2.394531 -3.332031 2.03125 -3.46875 C 1.664062 -3.613281 1.347656 -3.835938 1.078125 -4.140625 C 0.816406 -4.453125 0.6875 -4.867188 0.6875 -5.390625 C 0.6875 -5.828125 0.804688 -6.222656 1.046875 -6.578125 C 1.285156 -6.941406 1.640625 -7.226562 2.109375 -7.4375 C 2.585938 -7.644531 3.148438 -7.75 3.796875 -7.75 C 4.753906 -7.75 5.507812 -7.507812 6.0625 -7.03125 C 6.613281 -6.5625 6.929688 -5.9375 7.015625 -5.15625 L 4.84375 -5.15625 C 4.8125 -5.414062 4.695312 -5.625 4.5 -5.78125 C 4.300781 -5.9375 4.046875 -6.015625 3.734375 -6.015625 C 3.453125 -6.015625 3.238281 -5.960938 3.09375 -5.859375 C 2.945312 -5.753906 2.875 -5.609375 2.875 -5.421875 C 2.875 -5.203125 2.988281 -5.035156 3.21875 -4.921875 C 3.457031 -4.816406 3.820312 -4.710938 4.3125 -4.609375 C 4.882812 -4.460938 5.347656 -4.316406 5.703125 -4.171875 C 6.054688 -4.023438 6.367188 -3.796875 6.640625 -3.484375 C 6.910156 -3.171875 7.050781 -2.75 7.0625 -2.21875 C 7.0625 -1.769531 6.929688 -1.367188 6.671875 -1.015625 C 6.421875 -0.671875 6.0625 -0.394531 5.59375 -0.1875 C 5.125 0.0078125 4.578125 0.109375 3.953125 0.109375 Z M 3.953125 0.109375 "/></g></g></g><g fill="#ffffff" fill-opacity="1"><g transform="translate(59.57367, 286.969049)"><g><path d="M 5.546875 -7.734375 C 6.421875 -7.734375 7.125 -7.441406 7.65625 -6.859375 C 8.1875 -6.273438 8.453125 -5.476562 8.453125 -4.46875 L 8.453125 0 L 6.125 0 L 6.125 -4.15625 C 6.125 -4.664062 5.988281 -5.0625 5.71875 -5.34375 C 5.457031 -5.625 5.101562 -5.765625 4.65625 -5.765625 C 4.207031 -5.765625 3.847656 -5.625 3.578125 -5.34375 C 3.316406 -5.0625 3.1875 -4.664062 3.1875 -4.15625 L 3.1875 0 L 0.84375 0 L 0.84375 -10.140625 L 3.1875 -10.140625 L 3.1875 -6.625 C 3.425781 -6.957031 3.75 -7.222656 4.15625 -7.421875 C 4.570312 -7.628906 5.035156 -7.734375 5.546875 -7.734375 Z M 5.546875 -7.734375 "/></g></g></g><g fill="#ffffff" fill-opacity="1"><g transform="translate(68.80426, 286.969049)"><g><path d="M 4.328125 0.109375 C 3.578125 0.109375 2.898438 -0.046875 2.296875 -0.359375 C 1.703125 -0.679688 1.234375 -1.140625 0.890625 -1.734375 C 0.554688 -2.328125 0.390625 -3.023438 0.390625 -3.828125 C 0.390625 -4.609375 0.5625 -5.296875 0.90625 -5.890625 C 1.25 -6.492188 1.722656 -6.953125 2.328125 -7.265625 C 2.929688 -7.585938 3.609375 -7.75 4.359375 -7.75 C 5.109375 -7.75 5.785156 -7.585938 6.390625 -7.265625 C 6.992188 -6.953125 7.46875 -6.492188 7.8125 -5.890625 C 8.15625 -5.296875 8.328125 -4.609375 8.328125 -3.828125 C 8.328125 -3.035156 8.148438 -2.335938 7.796875 -1.734375 C 7.453125 -1.140625 6.972656 -0.679688 6.359375 -0.359375 C 5.753906 -0.046875 5.078125 0.109375 4.328125 0.109375 Z M 4.328125 -1.921875 C 4.773438 -1.921875 5.15625 -2.082031 5.46875 -2.40625 C 5.789062 -2.738281 5.953125 -3.210938 5.953125 -3.828125 C 5.953125 -4.429688 5.796875 -4.898438 5.484375 -5.234375 C 5.179688 -5.566406 4.804688 -5.734375 4.359375 -5.734375 C 3.898438 -5.734375 3.519531 -5.566406 3.21875 -5.234375 C 2.914062 -4.910156 2.765625 -4.441406 2.765625 -3.828125 C 2.765625 -3.210938 2.910156 -2.738281 3.203125 -2.40625 C 3.503906 -2.082031 3.878906 -1.921875 4.328125 -1.921875 Z M 4.328125 -1.921875 "/></g></g></g><g fill="#ffffff" fill-opacity="1"><g transform="translate(77.528121, 286.969049)"><g><path d="M 3.1875 -6.5625 C 3.414062 -6.914062 3.726562 -7.203125 4.125 -7.421875 C 4.53125 -7.640625 5.003906 -7.75 5.546875 -7.75 C 6.179688 -7.75 6.753906 -7.585938 7.265625 -7.265625 C 7.773438 -6.953125 8.175781 -6.5 8.46875 -5.90625 C 8.769531 -5.3125 8.921875 -4.625 8.921875 -3.84375 C 8.921875 -3.050781 8.769531 -2.351562 8.46875 -1.75 C 8.175781 -1.15625 7.773438 -0.695312 7.265625 -0.375 C 6.753906 -0.0507812 6.179688 0.109375 5.546875 0.109375 C 5.015625 0.109375 4.546875 0 4.140625 -0.21875 C 3.734375 -0.4375 3.414062 -0.71875 3.1875 -1.0625 L 3.1875 3.640625 L 0.84375 3.640625 L 0.84375 -7.640625 L 3.1875 -7.640625 Z M 6.53125 -3.84375 C 6.53125 -4.425781 6.367188 -4.882812 6.046875 -5.21875 C 5.722656 -5.550781 5.320312 -5.71875 4.84375 -5.71875 C 4.382812 -5.71875 3.988281 -5.546875 3.65625 -5.203125 C 3.332031 -4.867188 3.171875 -4.410156 3.171875 -3.828125 C 3.171875 -3.242188 3.332031 -2.78125 3.65625 -2.4375 C 3.988281 -2.101562 4.382812 -1.9375 4.84375 -1.9375 C 5.3125 -1.9375 5.707031 -2.101562 6.03125 -2.4375 C 6.363281 -2.78125 6.53125 -3.25 6.53125 -3.84375 Z M 6.53125 -3.84375 "/></g></g></g><g fill="#ffffff" fill-opacity="1"><g transform="translate(86.827187, 286.969049)"><g/></g></g><g fill="#ffffff" fill-opacity="1"><g transform="translate(89.730574, 286.969049)"><g><path d="M 6.84375 -1.703125 L 3.25 -1.703125 L 2.671875 0 L 0.21875 0 L 3.703125 -9.625 L 6.40625 -9.625 L 9.890625 0 L 7.40625 0 Z M 6.234375 -3.515625 L 5.046875 -7.03125 L 3.859375 -3.515625 Z M 6.234375 -3.515625 "/></g></g></g><g fill="#ffffff" fill-opacity="1"><g transform="translate(99.823959, 286.969049)"><g><path d="M 3.75 -7.75 C 4.289062 -7.75 4.765625 -7.640625 5.171875 -7.421875 C 5.578125 -7.203125 5.890625 -6.914062 6.109375 -6.5625 L 6.109375 -7.640625 L 8.453125 -7.640625 L 8.453125 -0.015625 C 8.453125 0.691406 8.3125 1.328125 8.03125 1.890625 C 7.757812 2.460938 7.335938 2.914062 6.765625 3.25 C 6.191406 3.59375 5.476562 3.765625 4.625 3.765625 C 3.5 3.765625 2.582031 3.5 1.875 2.96875 C 1.175781 2.4375 0.773438 1.710938 0.671875 0.796875 L 2.984375 0.796875 C 3.054688 1.085938 3.226562 1.316406 3.5 1.484375 C 3.78125 1.648438 4.117188 1.734375 4.515625 1.734375 C 5.003906 1.734375 5.390625 1.59375 5.671875 1.3125 C 5.960938 1.039062 6.109375 0.597656 6.109375 -0.015625 L 6.109375 -1.09375 C 5.878906 -0.738281 5.5625 -0.445312 5.15625 -0.21875 C 4.757812 0 4.289062 0.109375 3.75 0.109375 C 3.125 0.109375 2.554688 -0.0507812 2.046875 -0.375 C 1.535156 -0.695312 1.128906 -1.15625 0.828125 -1.75 C 0.535156 -2.351562 0.390625 -3.050781 0.390625 -3.84375 C 0.390625 -4.625 0.535156 -5.3125 0.828125 -5.90625 C 1.128906 -6.5 1.535156 -6.953125 2.046875 -7.265625 C 2.554688 -7.585938 3.125 -7.75 3.75 -7.75 Z M 6.109375 -3.828125 C 6.109375 -4.410156 5.945312 -4.867188 5.625 -5.203125 C 5.300781 -5.546875 4.90625 -5.71875 4.4375 -5.71875 C 3.96875 -5.71875 3.570312 -5.550781 3.25 -5.21875 C 2.925781 -4.882812 2.765625 -4.425781 2.765625 -3.84375 C 2.765625 -3.25 2.925781 -2.78125 3.25 -2.4375 C 3.570312 -2.101562 3.96875 -1.9375 4.4375 -1.9375 C 4.90625 -1.9375 5.300781 -2.101562 5.625 -2.4375 C 5.945312 -2.78125 6.109375 -3.242188 6.109375 -3.828125 Z M 6.109375 -3.828125 "/></g></g></g><g fill="#ffffff" fill-opacity="1"><g transform="translate(109.123025, 286.969049)"><g><path d="M 8.0625 -3.953125 C 8.0625 -3.734375 8.046875 -3.503906 8.015625 -3.265625 L 2.71875 -3.265625 C 2.75 -2.785156 2.898438 -2.421875 3.171875 -2.171875 C 3.441406 -1.921875 3.773438 -1.796875 4.171875 -1.796875 C 4.753906 -1.796875 5.160156 -2.039062 5.390625 -2.53125 L 7.875 -2.53125 C 7.75 -2.03125 7.519531 -1.578125 7.1875 -1.171875 C 6.851562 -0.773438 6.4375 -0.460938 5.9375 -0.234375 C 5.4375 -0.00390625 4.875 0.109375 4.25 0.109375 C 3.5 0.109375 2.832031 -0.046875 2.25 -0.359375 C 1.664062 -0.679688 1.207031 -1.140625 0.875 -1.734375 C 0.550781 -2.328125 0.390625 -3.023438 0.390625 -3.828125 C 0.390625 -4.617188 0.550781 -5.3125 0.875 -5.90625 C 1.195312 -6.5 1.648438 -6.953125 2.234375 -7.265625 C 2.816406 -7.585938 3.488281 -7.75 4.25 -7.75 C 4.988281 -7.75 5.644531 -7.59375 6.21875 -7.28125 C 6.789062 -6.976562 7.238281 -6.535156 7.5625 -5.953125 C 7.894531 -5.378906 8.0625 -4.710938 8.0625 -3.953125 Z M 5.65625 -4.5625 C 5.65625 -4.96875 5.519531 -5.285156 5.25 -5.515625 C 4.976562 -5.753906 4.632812 -5.875 4.21875 -5.875 C 3.820312 -5.875 3.488281 -5.757812 3.21875 -5.53125 C 2.957031 -5.300781 2.796875 -4.976562 2.734375 -4.5625 Z M 5.65625 -4.5625 "/></g></g></g><g fill="#ffffff" fill-opacity="1"><g transform="translate(117.559284, 286.969049)"><g><path d="M 5.515625 -7.734375 C 6.398438 -7.734375 7.109375 -7.441406 7.640625 -6.859375 C 8.179688 -6.273438 8.453125 -5.476562 8.453125 -4.46875 L 8.453125 0 L 6.125 0 L 6.125 -4.15625 C 6.125 -4.664062 5.988281 -5.0625 5.71875 -5.34375 C 5.457031 -5.625 5.101562 -5.765625 4.65625 -5.765625 C 4.207031 -5.765625 3.847656 -5.625 3.578125 -5.34375 C 3.316406 -5.0625 3.1875 -4.664062 3.1875 -4.15625 L 3.1875 0 L 0.84375 0 L 0.84375 -7.640625 L 3.1875 -7.640625 L 3.1875 -6.625 C 3.425781 -6.96875 3.742188 -7.238281 4.140625 -7.4375 C 4.546875 -7.632812 5.003906 -7.734375 5.515625 -7.734375 Z M 5.515625 -7.734375 "/></g></g></g><g fill="#ffffff" fill-opacity="1"><g transform="translate(126.789874, 286.969049)"><g><path d="M 0.390625 -3.84375 C 0.390625 -4.625 0.535156 -5.3125 0.828125 -5.90625 C 1.128906 -6.5 1.535156 -6.953125 2.046875 -7.265625 C 2.554688 -7.585938 3.125 -7.75 3.75 -7.75 C 4.257812 -7.75 4.71875 -7.644531 5.125 -7.4375 C 5.539062 -7.226562 5.867188 -6.945312 6.109375 -6.59375 L 6.109375 -10.140625 L 8.453125 -10.140625 L 8.453125 0 L 6.109375 0 L 6.109375 -1.09375 C 5.890625 -0.726562 5.578125 -0.4375 5.171875 -0.21875 C 4.765625 0 4.289062 0.109375 3.75 0.109375 C 3.125 0.109375 2.554688 -0.0507812 2.046875 -0.375 C 1.535156 -0.695312 1.128906 -1.15625 0.828125 -1.75 C 0.535156 -2.351562 0.390625 -3.050781 0.390625 -3.84375 Z M 6.109375 -3.828125 C 6.109375 -4.410156 5.945312 -4.867188 5.625 -5.203125 C 5.300781 -5.546875 4.90625 -5.71875 4.4375 -5.71875 C 3.96875 -5.71875 3.570312 -5.550781 3.25 -5.21875 C 2.925781 -4.882812 2.765625 -4.425781 2.765625 -3.84375 C 2.765625 -3.25 2.925781 -2.78125 3.25 -2.4375 C 3.570312 -2.101562 3.96875 -1.9375 4.4375 -1.9375 C 4.90625 -1.9375 5.300781 -2.101562 5.625 -2.4375 C 5.945312 -2.78125 6.109375 -3.242188 6.109375 -3.828125 Z M 6.109375 -3.828125 "/></g></g></g><g fill="#ffffff" fill-opacity="1"><g transform="translate(136.08894, 286.969049)"><g><path d="M 0.390625 -3.84375 C 0.390625 -4.625 0.535156 -5.3125 0.828125 -5.90625 C 1.128906 -6.5 1.535156 -6.953125 2.046875 -7.265625 C 2.554688 -7.585938 3.125 -7.75 3.75 -7.75 C 4.289062 -7.75 4.765625 -7.640625 5.171875 -7.421875 C 5.578125 -7.203125 5.890625 -6.914062 6.109375 -6.5625 L 6.109375 -7.640625 L 8.453125 -7.640625 L 8.453125 0 L 6.109375 0 L 6.109375 -1.078125 C 5.878906 -0.722656 5.5625 -0.4375 5.15625 -0.21875 C 4.75 0 4.273438 0.109375 3.734375 0.109375 C 3.117188 0.109375 2.554688 -0.0507812 2.046875 -0.375 C 1.535156 -0.695312 1.128906 -1.15625 0.828125 -1.75 C 0.535156 -2.351562 0.390625 -3.050781 0.390625 -3.84375 Z M 6.109375 -3.828125 C 6.109375 -4.410156 5.945312 -4.867188 5.625 -5.203125 C 5.300781 -5.546875 4.90625 -5.71875 4.4375 -5.71875 C 3.96875 -5.71875 3.570312 -5.550781 3.25 -5.21875 C 2.925781 -4.882812 2.765625 -4.425781 2.765625 -3.84375 C 2.765625 -3.25 2.925781 -2.78125 3.25 -2.4375 C 3.570312 -2.101562 3.96875 -1.9375 4.4375 -1.9375 C 4.90625 -1.9375 5.300781 -2.101562 5.625 -2.4375 C 5.945312 -2.78125 6.109375 -3.242188 6.109375 -3.828125 Z M 6.109375 -3.828125 "/></g></g></g><g fill="#ffffff" fill-opacity="1"><g transform="translate(145.377261, 286.969049)"><g/></g></g><g fill="#ffffff" fill-opacity="1"><g transform="translate(48.853613, 110.154814)"><g><path d="M 9.046875 0 L 7.453125 0 L 2.640625 -7.265625 L 2.640625 0 L 1.046875 0 L 1.046875 -9.75 L 2.640625 -9.75 L 7.453125 -2.484375 L 7.453125 -9.75 L 9.046875 -9.75 Z M 9.046875 0 "/></g></g></g><g fill="#ffffff" fill-opacity="1"><g transform="translate(58.94198, 110.154814)"><g><path d="M 4.390625 0.125 C 3.660156 0.125 3.003906 -0.0390625 2.421875 -0.375 C 1.835938 -0.707031 1.375 -1.171875 1.03125 -1.765625 C 0.695312 -2.367188 0.53125 -3.066406 0.53125 -3.859375 C 0.53125 -4.648438 0.703125 -5.347656 1.046875 -5.953125 C 1.390625 -6.554688 1.859375 -7.019531 2.453125 -7.34375 C 3.054688 -7.675781 3.726562 -7.84375 4.46875 -7.84375 C 5.207031 -7.84375 5.875 -7.675781 6.46875 -7.34375 C 7.0625 -7.019531 7.53125 -6.554688 7.875 -5.953125 C 8.226562 -5.347656 8.40625 -4.648438 8.40625 -3.859375 C 8.40625 -3.078125 8.226562 -2.382812 7.875 -1.78125 C 7.519531 -1.175781 7.035156 -0.707031 6.421875 -0.375 C 5.804688 -0.0390625 5.128906 0.125 4.390625 0.125 Z M 4.390625 -1.265625 C 4.804688 -1.265625 5.191406 -1.359375 5.546875 -1.546875 C 5.910156 -1.742188 6.203125 -2.039062 6.421875 -2.4375 C 6.648438 -2.832031 6.765625 -3.304688 6.765625 -3.859375 C 6.765625 -4.421875 6.65625 -4.894531 6.4375 -5.28125 C 6.226562 -5.664062 5.941406 -5.957031 5.578125 -6.15625 C 5.222656 -6.351562 4.84375 -6.453125 4.4375 -6.453125 C 4.03125 -6.453125 3.648438 -6.351562 3.296875 -6.15625 C 2.941406 -5.957031 2.660156 -5.664062 2.453125 -5.28125 C 2.253906 -4.894531 2.15625 -4.421875 2.15625 -3.859375 C 2.15625 -3.035156 2.367188 -2.394531 2.796875 -1.9375 C 3.222656 -1.488281 3.753906 -1.265625 4.390625 -1.265625 Z M 4.390625 -1.265625 "/></g></g></g><g fill="#ffffff" fill-opacity="1"><g transform="translate(67.869, 110.154814)"><g><path d="M 2.90625 -6.40625 L 2.90625 -2.140625 C 2.90625 -1.847656 2.972656 -1.640625 3.109375 -1.515625 C 3.242188 -1.390625 3.476562 -1.328125 3.8125 -1.328125 L 4.78125 -1.328125 L 4.78125 0 L 3.53125 0 C 2.8125 0 2.257812 -0.164062 1.875 -0.5 C 1.488281 -0.84375 1.296875 -1.390625 1.296875 -2.140625 L 1.296875 -6.40625 L 0.390625 -6.40625 L 0.390625 -7.71875 L 1.296875 -7.71875 L 1.296875 -9.625 L 2.90625 -9.625 L 2.90625 -7.71875 L 4.78125 -7.71875 L 4.78125 -6.40625 Z M 2.90625 -6.40625 "/></g></g></g><g fill="#ffffff" fill-opacity="1"><g transform="translate(73.074093, 110.154814)"><g><path d="M 1.859375 -8.734375 C 1.566406 -8.734375 1.320312 -8.832031 1.125 -9.03125 C 0.9375 -9.226562 0.84375 -9.472656 0.84375 -9.765625 C 0.84375 -10.046875 0.9375 -10.285156 1.125 -10.484375 C 1.320312 -10.679688 1.566406 -10.78125 1.859375 -10.78125 C 2.140625 -10.78125 2.378906 -10.679688 2.578125 -10.484375 C 2.773438 -10.285156 2.875 -10.046875 2.875 -9.765625 C 2.875 -9.472656 2.773438 -9.226562 2.578125 -9.03125 C 2.378906 -8.832031 2.140625 -8.734375 1.859375 -8.734375 Z M 2.640625 -7.71875 L 2.640625 0 L 1.046875 0 L 1.046875 -7.71875 Z M 2.640625 -7.71875 "/></g></g></g><g fill="#ffffff" fill-opacity="1"><g transform="translate(76.768028, 110.154814)"><g><path d="M 4.28125 -6.40625 L 2.859375 -6.40625 L 2.859375 0 L 1.25 0 L 1.25 -6.40625 L 0.34375 -6.40625 L 0.34375 -7.71875 L 1.25 -7.71875 L 1.25 -8.265625 C 1.25 -9.148438 1.484375 -9.796875 1.953125 -10.203125 C 2.421875 -10.609375 3.160156 -10.8125 4.171875 -10.8125 L 4.171875 -9.484375 C 3.679688 -9.484375 3.335938 -9.390625 3.140625 -9.203125 C 2.953125 -9.023438 2.859375 -8.710938 2.859375 -8.265625 L 2.859375 -7.71875 L 4.28125 -7.71875 Z M 4.28125 -6.40625 "/></g></g></g><g fill="#ffffff" fill-opacity="1"><g transform="translate(81.413437, 110.154814)"><g><path d="M 1.859375 -8.734375 C 1.566406 -8.734375 1.320312 -8.832031 1.125 -9.03125 C 0.9375 -9.226562 0.84375 -9.472656 0.84375 -9.765625 C 0.84375 -10.046875 0.9375 -10.285156 1.125 -10.484375 C 1.320312 -10.679688 1.566406 -10.78125 1.859375 -10.78125 C 2.140625 -10.78125 2.378906 -10.679688 2.578125 -10.484375 C 2.773438 -10.285156 2.875 -10.046875 2.875 -9.765625 C 2.875 -9.472656 2.773438 -9.226562 2.578125 -9.03125 C 2.378906 -8.832031 2.140625 -8.734375 1.859375 -8.734375 Z M 2.640625 -7.71875 L 2.640625 0 L 1.046875 0 L 1.046875 -7.71875 Z M 2.640625 -7.71875 "/></g></g></g><g fill="#ffffff" fill-opacity="1"><g transform="translate(85.107372, 110.154814)"><g><path d="M 0.515625 -3.859375 C 0.515625 -4.648438 0.675781 -5.347656 1 -5.953125 C 1.320312 -6.554688 1.765625 -7.019531 2.328125 -7.34375 C 2.898438 -7.675781 3.554688 -7.84375 4.296875 -7.84375 C 5.234375 -7.84375 6.003906 -7.617188 6.609375 -7.171875 C 7.222656 -6.734375 7.640625 -6.101562 7.859375 -5.28125 L 6.125 -5.28125 C 5.988281 -5.664062 5.765625 -5.960938 5.453125 -6.171875 C 5.148438 -6.390625 4.765625 -6.5 4.296875 -6.5 C 3.640625 -6.5 3.117188 -6.265625 2.734375 -5.796875 C 2.347656 -5.335938 2.15625 -4.691406 2.15625 -3.859375 C 2.15625 -3.035156 2.347656 -2.390625 2.734375 -1.921875 C 3.117188 -1.453125 3.640625 -1.21875 4.296875 -1.21875 C 5.222656 -1.21875 5.832031 -1.625 6.125 -2.4375 L 7.859375 -2.4375 C 7.628906 -1.65625 7.207031 -1.03125 6.59375 -0.5625 C 5.976562 -0.101562 5.210938 0.125 4.296875 0.125 C 3.554688 0.125 2.898438 -0.0390625 2.328125 -0.375 C 1.765625 -0.707031 1.320312 -1.171875 1 -1.765625 C 0.675781 -2.367188 0.515625 -3.066406 0.515625 -3.859375 Z M 0.515625 -3.859375 "/></g></g></g><g fill="#ffffff" fill-opacity="1"><g transform="translate(93.502689, 110.154814)"><g><path d="M 0.515625 -3.890625 C 0.515625 -4.660156 0.675781 -5.34375 1 -5.9375 C 1.320312 -6.539062 1.757812 -7.007812 2.3125 -7.34375 C 2.875 -7.675781 3.488281 -7.84375 4.15625 -7.84375 C 4.757812 -7.84375 5.285156 -7.722656 5.734375 -7.484375 C 6.191406 -7.242188 6.554688 -6.945312 6.828125 -6.59375 L 6.828125 -7.71875 L 8.4375 -7.71875 L 8.4375 0 L 6.828125 0 L 6.828125 -1.140625 C 6.554688 -0.785156 6.1875 -0.484375 5.71875 -0.234375 C 5.257812 0.00390625 4.726562 0.125 4.125 0.125 C 3.46875 0.125 2.863281 -0.0390625 2.3125 -0.375 C 1.757812 -0.71875 1.320312 -1.195312 1 -1.8125 C 0.675781 -2.425781 0.515625 -3.117188 0.515625 -3.890625 Z M 6.828125 -3.859375 C 6.828125 -4.390625 6.71875 -4.851562 6.5 -5.25 C 6.28125 -5.644531 5.992188 -5.941406 5.640625 -6.140625 C 5.285156 -6.347656 4.90625 -6.453125 4.5 -6.453125 C 4.082031 -6.453125 3.695312 -6.351562 3.34375 -6.15625 C 2.988281 -5.957031 2.703125 -5.660156 2.484375 -5.265625 C 2.265625 -4.878906 2.15625 -4.421875 2.15625 -3.890625 C 2.15625 -3.359375 2.265625 -2.890625 2.484375 -2.484375 C 2.703125 -2.085938 2.988281 -1.785156 3.34375 -1.578125 C 3.707031 -1.367188 4.09375 -1.265625 4.5 -1.265625 C 4.90625 -1.265625 5.285156 -1.363281 5.640625 -1.5625 C 5.992188 -1.769531 6.28125 -2.070312 6.5 -2.46875 C 6.71875 -2.863281 6.828125 -3.328125 6.828125 -3.859375 Z M 6.828125 -3.859375 "/></g></g></g><g fill="#ffffff" fill-opacity="1"><g transform="translate(102.989394, 110.154814)"><g><path d="M 2.90625 -6.40625 L 2.90625 -2.140625 C 2.90625 -1.847656 2.972656 -1.640625 3.109375 -1.515625 C 3.242188 -1.390625 3.476562 -1.328125 3.8125 -1.328125 L 4.78125 -1.328125 L 4.78125 0 L 3.53125 0 C 2.8125 0 2.257812 -0.164062 1.875 -0.5 C 1.488281 -0.84375 1.296875 -1.390625 1.296875 -2.140625 L 1.296875 -6.40625 L 0.390625 -6.40625 L 0.390625 -7.71875 L 1.296875 -7.71875 L 1.296875 -9.625 L 2.90625 -9.625 L 2.90625 -7.71875 L 4.78125 -7.71875 L 4.78125 -6.40625 Z M 2.90625 -6.40625 "/></g></g></g><g fill="#ffffff" fill-opacity="1"><g transform="translate(108.194487, 110.154814)"><g><path d="M 1.859375 -8.734375 C 1.566406 -8.734375 1.320312 -8.832031 1.125 -9.03125 C 0.9375 -9.226562 0.84375 -9.472656 0.84375 -9.765625 C 0.84375 -10.046875 0.9375 -10.285156 1.125 -10.484375 C 1.320312 -10.679688 1.566406 -10.78125 1.859375 -10.78125 C 2.140625 -10.78125 2.378906 -10.679688 2.578125 -10.484375 C 2.773438 -10.285156 2.875 -10.046875 2.875 -9.765625 C 2.875 -9.472656 2.773438 -9.226562 2.578125 -9.03125 C 2.378906 -8.832031 2.140625 -8.734375 1.859375 -8.734375 Z M 2.640625 -7.71875 L 2.640625 0 L 1.046875 0 L 1.046875 -7.71875 Z M 2.640625 -7.71875 "/></g></g></g><g fill="#ffffff" fill-opacity="1"><g transform="translate(111.888422, 110.154814)"><g><path d="M 4.390625 0.125 C 3.660156 0.125 3.003906 -0.0390625 2.421875 -0.375 C 1.835938 -0.707031 1.375 -1.171875 1.03125 -1.765625 C 0.695312 -2.367188 0.53125 -3.066406 0.53125 -3.859375 C 0.53125 -4.648438 0.703125 -5.347656 1.046875 -5.953125 C 1.390625 -6.554688 1.859375 -7.019531 2.453125 -7.34375 C 3.054688 -7.675781 3.726562 -7.84375 4.46875 -7.84375 C 5.207031 -7.84375 5.875 -7.675781 6.46875 -7.34375 C 7.0625 -7.019531 7.53125 -6.554688 7.875 -5.953125 C 8.226562 -5.347656 8.40625 -4.648438 8.40625 -3.859375 C 8.40625 -3.078125 8.226562 -2.382812 7.875 -1.78125 C 7.519531 -1.175781 7.035156 -0.707031 6.421875 -0.375 C 5.804688 -0.0390625 5.128906 0.125 4.390625 0.125 Z M 4.390625 -1.265625 C 4.804688 -1.265625 5.191406 -1.359375 5.546875 -1.546875 C 5.910156 -1.742188 6.203125 -2.039062 6.421875 -2.4375 C 6.648438 -2.832031 6.765625 -3.304688 6.765625 -3.859375 C 6.765625 -4.421875 6.65625 -4.894531 6.4375 -5.28125 C 6.226562 -5.664062 5.941406 -5.957031 5.578125 -6.15625 C 5.222656 -6.351562 4.84375 -6.453125 4.4375 -6.453125 C 4.03125 -6.453125 3.648438 -6.351562 3.296875 -6.15625 C 2.941406 -5.957031 2.660156 -5.664062 2.453125 -5.28125 C 2.253906 -4.894531 2.15625 -4.421875 2.15625 -3.859375 C 2.15625 -3.035156 2.367188 -2.394531 2.796875 -1.9375 C 3.222656 -1.488281 3.753906 -1.265625 4.390625 -1.265625 Z M 4.390625 -1.265625 "/></g></g></g><g fill="#ffffff" fill-opacity="1"><g transform="translate(120.815443, 110.154814)"><g><path d="M 4.9375 -7.84375 C 5.550781 -7.84375 6.097656 -7.710938 6.578125 -7.453125 C 7.054688 -7.203125 7.429688 -6.828125 7.703125 -6.328125 C 7.972656 -5.835938 8.109375 -5.242188 8.109375 -4.546875 L 8.109375 0 L 6.53125 0 L 6.53125 -4.3125 C 6.53125 -5 6.351562 -5.523438 6 -5.890625 C 5.65625 -6.265625 5.1875 -6.453125 4.59375 -6.453125 C 4 -6.453125 3.523438 -6.265625 3.171875 -5.890625 C 2.816406 -5.523438 2.640625 -5 2.640625 -4.3125 L 2.640625 0 L 1.046875 0 L 1.046875 -7.71875 L 2.640625 -7.71875 L 2.640625 -6.828125 C 2.898438 -7.148438 3.234375 -7.398438 3.640625 -7.578125 C 4.046875 -7.753906 4.476562 -7.84375 4.9375 -7.84375 Z M 4.9375 -7.84375 "/></g></g></g><g fill="#ffffff" fill-opacity="1"><g transform="translate(129.896375, 110.154814)"><g><path d="M 3.84375 0.125 C 3.238281 0.125 2.695312 0.015625 2.21875 -0.203125 C 1.738281 -0.421875 1.359375 -0.71875 1.078125 -1.09375 C 0.796875 -1.476562 0.644531 -1.898438 0.625 -2.359375 L 2.28125 -2.359375 C 2.3125 -2.035156 2.46875 -1.765625 2.75 -1.546875 C 3.03125 -1.328125 3.390625 -1.21875 3.828125 -1.21875 C 4.273438 -1.21875 4.617188 -1.300781 4.859375 -1.46875 C 5.109375 -1.644531 5.234375 -1.867188 5.234375 -2.140625 C 5.234375 -2.429688 5.09375 -2.644531 4.8125 -2.78125 C 4.539062 -2.925781 4.109375 -3.082031 3.515625 -3.25 C 2.929688 -3.40625 2.457031 -3.554688 2.09375 -3.703125 C 1.726562 -3.859375 1.410156 -4.085938 1.140625 -4.390625 C 0.878906 -4.703125 0.75 -5.109375 0.75 -5.609375 C 0.75 -6.023438 0.867188 -6.398438 1.109375 -6.734375 C 1.359375 -7.078125 1.707031 -7.347656 2.15625 -7.546875 C 2.613281 -7.742188 3.132812 -7.84375 3.71875 -7.84375 C 4.601562 -7.84375 5.3125 -7.617188 5.84375 -7.171875 C 6.382812 -6.734375 6.671875 -6.128906 6.703125 -5.359375 L 5.109375 -5.359375 C 5.078125 -5.703125 4.9375 -5.976562 4.6875 -6.1875 C 4.4375 -6.394531 4.097656 -6.5 3.671875 -6.5 C 3.242188 -6.5 2.914062 -6.414062 2.6875 -6.25 C 2.46875 -6.09375 2.359375 -5.882812 2.359375 -5.625 C 2.359375 -5.414062 2.429688 -5.242188 2.578125 -5.109375 C 2.734375 -4.972656 2.914062 -4.863281 3.125 -4.78125 C 3.34375 -4.695312 3.664062 -4.597656 4.09375 -4.484375 C 4.644531 -4.328125 5.097656 -4.171875 5.453125 -4.015625 C 5.816406 -3.867188 6.128906 -3.644531 6.390625 -3.34375 C 6.660156 -3.039062 6.796875 -2.644531 6.796875 -2.15625 C 6.796875 -1.71875 6.675781 -1.328125 6.4375 -0.984375 C 6.195312 -0.640625 5.851562 -0.367188 5.40625 -0.171875 C 4.96875 0.0234375 4.445312 0.125 3.84375 0.125 Z M 3.84375 0.125 "/></g></g></g><g fill="#ffffff" fill-opacity="1"><g transform="translate(48.853613, 154.314282)"><g><path d="M 4.25 0.09375 C 3.601562 0.09375 3.015625 -0.0195312 2.484375 -0.25 C 1.960938 -0.476562 1.550781 -0.800781 1.25 -1.21875 C 0.957031 -1.632812 0.8125 -2.125 0.8125 -2.6875 L 2.515625 -2.6875 C 2.554688 -2.269531 2.722656 -1.925781 3.015625 -1.65625 C 3.304688 -1.382812 3.71875 -1.25 4.25 -1.25 C 4.800781 -1.25 5.226562 -1.378906 5.53125 -1.640625 C 5.84375 -1.910156 6 -2.253906 6 -2.671875 C 6 -2.992188 5.90625 -3.257812 5.71875 -3.46875 C 5.53125 -3.675781 5.289062 -3.832031 5 -3.9375 C 4.71875 -4.050781 4.328125 -4.175781 3.828125 -4.3125 C 3.191406 -4.476562 2.675781 -4.644531 2.28125 -4.8125 C 1.882812 -4.988281 1.546875 -5.257812 1.265625 -5.625 C 0.984375 -5.988281 0.84375 -6.472656 0.84375 -7.078125 C 0.84375 -7.640625 0.984375 -8.128906 1.265625 -8.546875 C 1.546875 -8.972656 1.9375 -9.296875 2.4375 -9.515625 C 2.9375 -9.742188 3.519531 -9.859375 4.1875 -9.859375 C 5.125 -9.859375 5.894531 -9.617188 6.5 -9.140625 C 7.101562 -8.671875 7.4375 -8.023438 7.5 -7.203125 L 5.734375 -7.203125 C 5.710938 -7.554688 5.546875 -7.859375 5.234375 -8.109375 C 4.929688 -8.367188 4.523438 -8.5 4.015625 -8.5 C 3.554688 -8.5 3.179688 -8.378906 2.890625 -8.140625 C 2.609375 -7.910156 2.46875 -7.578125 2.46875 -7.140625 C 2.46875 -6.835938 2.554688 -6.59375 2.734375 -6.40625 C 2.921875 -6.21875 3.148438 -6.066406 3.421875 -5.953125 C 3.703125 -5.835938 4.085938 -5.71875 4.578125 -5.59375 C 5.222656 -5.40625 5.75 -5.222656 6.15625 -5.046875 C 6.5625 -4.867188 6.90625 -4.597656 7.1875 -4.234375 C 7.46875 -3.867188 7.609375 -3.378906 7.609375 -2.765625 C 7.609375 -2.265625 7.472656 -1.796875 7.203125 -1.359375 C 6.941406 -0.921875 6.554688 -0.566406 6.046875 -0.296875 C 5.546875 -0.0351562 4.945312 0.09375 4.25 0.09375 Z M 4.25 0.09375 "/></g></g></g><g fill="#ffffff" fill-opacity="1"><g transform="translate(57.304891, 154.314282)"><g><path d="M 8.125 -4.046875 C 8.125 -3.753906 8.101562 -3.492188 8.0625 -3.265625 L 2.171875 -3.265625 C 2.210938 -2.648438 2.4375 -2.15625 2.84375 -1.78125 C 3.257812 -1.40625 3.769531 -1.21875 4.375 -1.21875 C 5.226562 -1.21875 5.832031 -1.578125 6.1875 -2.296875 L 7.90625 -2.296875 C 7.675781 -1.585938 7.253906 -1.003906 6.640625 -0.546875 C 6.023438 -0.0976562 5.269531 0.125 4.375 0.125 C 3.632812 0.125 2.972656 -0.0390625 2.390625 -0.375 C 1.804688 -0.707031 1.347656 -1.171875 1.015625 -1.765625 C 0.679688 -2.367188 0.515625 -3.066406 0.515625 -3.859375 C 0.515625 -4.648438 0.675781 -5.347656 1 -5.953125 C 1.320312 -6.554688 1.773438 -7.019531 2.359375 -7.34375 C 2.941406 -7.675781 3.613281 -7.84375 4.375 -7.84375 C 5.09375 -7.84375 5.738281 -7.679688 6.3125 -7.359375 C 6.882812 -7.046875 7.328125 -6.601562 7.640625 -6.03125 C 7.960938 -5.457031 8.125 -4.796875 8.125 -4.046875 Z M 6.453125 -4.546875 C 6.441406 -5.140625 6.226562 -5.613281 5.8125 -5.96875 C 5.40625 -6.320312 4.898438 -6.5 4.296875 -6.5 C 3.742188 -6.5 3.269531 -6.320312 2.875 -5.96875 C 2.488281 -5.625 2.257812 -5.148438 2.1875 -4.546875 Z M 6.453125 -4.546875 "/></g></g></g><g fill="#ffffff" fill-opacity="1"><g transform="translate(65.938073, 154.314282)"><g><path d="M 2.90625 -6.40625 L 2.90625 -2.140625 C 2.90625 -1.847656 2.972656 -1.640625 3.109375 -1.515625 C 3.242188 -1.390625 3.476562 -1.328125 3.8125 -1.328125 L 4.78125 -1.328125 L 4.78125 0 L 3.53125 0 C 2.8125 0 2.257812 -0.164062 1.875 -0.5 C 1.488281 -0.84375 1.296875 -1.390625 1.296875 -2.140625 L 1.296875 -6.40625 L 0.390625 -6.40625 L 0.390625 -7.71875 L 1.296875 -7.71875 L 1.296875 -9.625 L 2.90625 -9.625 L 2.90625 -7.71875 L 4.78125 -7.71875 L 4.78125 -6.40625 Z M 2.90625 -6.40625 "/></g></g></g><g fill="#ffffff" fill-opacity="1"><g transform="translate(71.143166, 154.314282)"><g><path d="M 2.90625 -6.40625 L 2.90625 -2.140625 C 2.90625 -1.847656 2.972656 -1.640625 3.109375 -1.515625 C 3.242188 -1.390625 3.476562 -1.328125 3.8125 -1.328125 L 4.78125 -1.328125 L 4.78125 0 L 3.53125 0 C 2.8125 0 2.257812 -0.164062 1.875 -0.5 C 1.488281 -0.84375 1.296875 -1.390625 1.296875 -2.140625 L 1.296875 -6.40625 L 0.390625 -6.40625 L 0.390625 -7.71875 L 1.296875 -7.71875 L 1.296875 -9.625 L 2.90625 -9.625 L 2.90625 -7.71875 L 4.78125 -7.71875 L 4.78125 -6.40625 Z M 2.90625 -6.40625 "/></g></g></g><g fill="#ffffff" fill-opacity="1"><g transform="translate(76.348259, 154.314282)"><g><path d="M 1.859375 -8.734375 C 1.566406 -8.734375 1.320312 -8.832031 1.125 -9.03125 C 0.9375 -9.226562 0.84375 -9.472656 0.84375 -9.765625 C 0.84375 -10.046875 0.9375 -10.285156 1.125 -10.484375 C 1.320312 -10.679688 1.566406 -10.78125 1.859375 -10.78125 C 2.140625 -10.78125 2.378906 -10.679688 2.578125 -10.484375 C 2.773438 -10.285156 2.875 -10.046875 2.875 -9.765625 C 2.875 -9.472656 2.773438 -9.226562 2.578125 -9.03125 C 2.378906 -8.832031 2.140625 -8.734375 1.859375 -8.734375 Z M 2.640625 -7.71875 L 2.640625 0 L 1.046875 0 L 1.046875 -7.71875 Z M 2.640625 -7.71875 "/></g></g></g><g fill="#ffffff" fill-opacity="1"><g transform="translate(80.042194, 154.314282)"><g><path d="M 4.9375 -7.84375 C 5.550781 -7.84375 6.097656 -7.710938 6.578125 -7.453125 C 7.054688 -7.203125 7.429688 -6.828125 7.703125 -6.328125 C 7.972656 -5.835938 8.109375 -5.242188 8.109375 -4.546875 L 8.109375 0 L 6.53125 0 L 6.53125 -4.3125 C 6.53125 -5 6.351562 -5.523438 6 -5.890625 C 5.65625 -6.265625 5.1875 -6.453125 4.59375 -6.453125 C 4 -6.453125 3.523438 -6.265625 3.171875 -5.890625 C 2.816406 -5.523438 2.640625 -5 2.640625 -4.3125 L 2.640625 0 L 1.046875 0 L 1.046875 -7.71875 L 2.640625 -7.71875 L 2.640625 -6.828125 C 2.898438 -7.148438 3.234375 -7.398438 3.640625 -7.578125 C 4.046875 -7.753906 4.476562 -7.84375 4.9375 -7.84375 Z M 4.9375 -7.84375 "/></g></g></g><g fill="#ffffff" fill-opacity="1"><g transform="translate(89.123127, 154.314282)"><g><path d="M 4.15625 -7.84375 C 4.75 -7.84375 5.273438 -7.722656 5.734375 -7.484375 C 6.203125 -7.242188 6.566406 -6.945312 6.828125 -6.59375 L 6.828125 -7.71875 L 8.4375 -7.71875 L 8.4375 0.125 C 8.4375 0.832031 8.285156 1.460938 7.984375 2.015625 C 7.691406 2.578125 7.265625 3.015625 6.703125 3.328125 C 6.140625 3.648438 5.460938 3.8125 4.671875 3.8125 C 3.628906 3.8125 2.757812 3.566406 2.0625 3.078125 C 1.375 2.585938 0.984375 1.921875 0.890625 1.078125 L 2.484375 1.078125 C 2.597656 1.484375 2.851562 1.804688 3.25 2.046875 C 3.644531 2.296875 4.117188 2.421875 4.671875 2.421875 C 5.316406 2.421875 5.835938 2.222656 6.234375 1.828125 C 6.628906 1.441406 6.828125 0.875 6.828125 0.125 L 6.828125 -1.15625 C 6.554688 -0.789062 6.191406 -0.484375 5.734375 -0.234375 C 5.273438 0.00390625 4.75 0.125 4.15625 0.125 C 3.488281 0.125 2.875 -0.0390625 2.3125 -0.375 C 1.757812 -0.71875 1.320312 -1.195312 1 -1.8125 C 0.675781 -2.425781 0.515625 -3.117188 0.515625 -3.890625 C 0.515625 -4.660156 0.675781 -5.34375 1 -5.9375 C 1.320312 -6.539062 1.757812 -7.007812 2.3125 -7.34375 C 2.875 -7.675781 3.488281 -7.84375 4.15625 -7.84375 Z M 6.828125 -3.859375 C 6.828125 -4.390625 6.71875 -4.851562 6.5 -5.25 C 6.28125 -5.644531 5.992188 -5.941406 5.640625 -6.140625 C 5.285156 -6.347656 4.90625 -6.453125 4.5 -6.453125 C 4.082031 -6.453125 3.695312 -6.351562 3.34375 -6.15625 C 2.988281 -5.957031 2.703125 -5.660156 2.484375 -5.265625 C 2.265625 -4.878906 2.15625 -4.421875 2.15625 -3.890625 C 2.15625 -3.359375 2.265625 -2.890625 2.484375 -2.484375 C 2.703125 -2.085938 2.988281 -1.785156 3.34375 -1.578125 C 3.707031 -1.367188 4.09375 -1.265625 4.5 -1.265625 C 4.90625 -1.265625 5.285156 -1.363281 5.640625 -1.5625 C 5.992188 -1.769531 6.28125 -2.070312 6.5 -2.46875 C 6.71875 -2.863281 6.828125 -3.328125 6.828125 -3.859375 Z M 6.828125 -3.859375 "/></g></g></g><g fill="#ffffff" fill-opacity="1"><g transform="translate(98.609832, 154.314282)"><g><path d="M 3.84375 0.125 C 3.238281 0.125 2.695312 0.015625 2.21875 -0.203125 C 1.738281 -0.421875 1.359375 -0.71875 1.078125 -1.09375 C 0.796875 -1.476562 0.644531 -1.898438 0.625 -2.359375 L 2.28125 -2.359375 C 2.3125 -2.035156 2.46875 -1.765625 2.75 -1.546875 C 3.03125 -1.328125 3.390625 -1.21875 3.828125 -1.21875 C 4.273438 -1.21875 4.617188 -1.300781 4.859375 -1.46875 C 5.109375 -1.644531 5.234375 -1.867188 5.234375 -2.140625 C 5.234375 -2.429688 5.09375 -2.644531 4.8125 -2.78125 C 4.539062 -2.925781 4.109375 -3.082031 3.515625 -3.25 C 2.929688 -3.40625 2.457031 -3.554688 2.09375 -3.703125 C 1.726562 -3.859375 1.410156 -4.085938 1.140625 -4.390625 C 0.878906 -4.703125 0.75 -5.109375 0.75 -5.609375 C 0.75 -6.023438 0.867188 -6.398438 1.109375 -6.734375 C 1.359375 -7.078125 1.707031 -7.347656 2.15625 -7.546875 C 2.613281 -7.742188 3.132812 -7.84375 3.71875 -7.84375 C 4.601562 -7.84375 5.3125 -7.617188 5.84375 -7.171875 C 6.382812 -6.734375 6.671875 -6.128906 6.703125 -5.359375 L 5.109375 -5.359375 C 5.078125 -5.703125 4.9375 -5.976562 4.6875 -6.1875 C 4.4375 -6.394531 4.097656 -6.5 3.671875 -6.5 C 3.242188 -6.5 2.914062 -6.414062 2.6875 -6.25 C 2.46875 -6.09375 2.359375 -5.882812 2.359375 -5.625 C 2.359375 -5.414062 2.429688 -5.242188 2.578125 -5.109375 C 2.734375 -4.972656 2.914062 -4.863281 3.125 -4.78125 C 3.34375 -4.695312 3.664062 -4.597656 4.09375 -4.484375 C 4.644531 -4.328125 5.097656 -4.171875 5.453125 -4.015625 C 5.816406 -3.867188 6.128906 -3.644531 6.390625 -3.34375 C 6.660156 -3.039062 6.796875 -2.644531 6.796875 -2.15625 C 6.796875 -1.71875 6.675781 -1.328125 6.4375 -0.984375 C 6.195312 -0.640625 5.851562 -0.367188 5.40625 -0.171875 C 4.96875 0.0234375 4.445312 0.125 3.84375 0.125 Z M 3.84375 0.125 "/></g></g></g><g fill="#ffffff" fill-opacity="1"><g transform="translate(48.853613, 199.048181)"><g><path d="M 2.640625 -1.28125 L 5.9375 -1.28125 L 5.9375 0 L 1.046875 0 L 1.046875 -9.734375 L 2.640625 -9.734375 Z M 2.640625 -1.28125 "/></g></g></g><g fill="#ffffff" fill-opacity="1"><g transform="translate(55.066141, 199.048181)"><g><path d="M 4.390625 0.125 C 3.660156 0.125 3.003906 -0.0390625 2.421875 -0.375 C 1.835938 -0.707031 1.375 -1.171875 1.03125 -1.765625 C 0.695312 -2.367188 0.53125 -3.066406 0.53125 -3.859375 C 0.53125 -4.648438 0.703125 -5.347656 1.046875 -5.953125 C 1.390625 -6.554688 1.859375 -7.019531 2.453125 -7.34375 C 3.054688 -7.675781 3.726562 -7.84375 4.46875 -7.84375 C 5.207031 -7.84375 5.875 -7.675781 6.46875 -7.34375 C 7.0625 -7.019531 7.53125 -6.554688 7.875 -5.953125 C 8.226562 -5.347656 8.40625 -4.648438 8.40625 -3.859375 C 8.40625 -3.078125 8.226562 -2.382812 7.875 -1.78125 C 7.519531 -1.175781 7.035156 -0.707031 6.421875 -0.375 C 5.804688 -0.0390625 5.128906 0.125 4.390625 0.125 Z M 4.390625 -1.265625 C 4.804688 -1.265625 5.191406 -1.359375 5.546875 -1.546875 C 5.910156 -1.742188 6.203125 -2.039062 6.421875 -2.4375 C 6.648438 -2.832031 6.765625 -3.304688 6.765625 -3.859375 C 6.765625 -4.421875 6.65625 -4.894531 6.4375 -5.28125 C 6.226562 -5.664062 5.941406 -5.957031 5.578125 -6.15625 C 5.222656 -6.351562 4.84375 -6.453125 4.4375 -6.453125 C 4.03125 -6.453125 3.648438 -6.351562 3.296875 -6.15625 C 2.941406 -5.957031 2.660156 -5.664062 2.453125 -5.28125 C 2.253906 -4.894531 2.15625 -4.421875 2.15625 -3.859375 C 2.15625 -3.035156 2.367188 -2.394531 2.796875 -1.9375 C 3.222656 -1.488281 3.753906 -1.265625 4.390625 -1.265625 Z M 4.390625 -1.265625 "/></g></g></g><g fill="#ffffff" fill-opacity="1"><g transform="translate(63.993161, 199.048181)"><g><path d="M 4.15625 -7.84375 C 4.75 -7.84375 5.273438 -7.722656 5.734375 -7.484375 C 6.203125 -7.242188 6.566406 -6.945312 6.828125 -6.59375 L 6.828125 -7.71875 L 8.4375 -7.71875 L 8.4375 0.125 C 8.4375 0.832031 8.285156 1.460938 7.984375 2.015625 C 7.691406 2.578125 7.265625 3.015625 6.703125 3.328125 C 6.140625 3.648438 5.460938 3.8125 4.671875 3.8125 C 3.628906 3.8125 2.757812 3.566406 2.0625 3.078125 C 1.375 2.585938 0.984375 1.921875 0.890625 1.078125 L 2.484375 1.078125 C 2.597656 1.484375 2.851562 1.804688 3.25 2.046875 C 3.644531 2.296875 4.117188 2.421875 4.671875 2.421875 C 5.316406 2.421875 5.835938 2.222656 6.234375 1.828125 C 6.628906 1.441406 6.828125 0.875 6.828125 0.125 L 6.828125 -1.15625 C 6.554688 -0.789062 6.191406 -0.484375 5.734375 -0.234375 C 5.273438 0.00390625 4.75 0.125 4.15625 0.125 C 3.488281 0.125 2.875 -0.0390625 2.3125 -0.375 C 1.757812 -0.71875 1.320312 -1.195312 1 -1.8125 C 0.675781 -2.425781 0.515625 -3.117188 0.515625 -3.890625 C 0.515625 -4.660156 0.675781 -5.34375 1 -5.9375 C 1.320312 -6.539062 1.757812 -7.007812 2.3125 -7.34375 C 2.875 -7.675781 3.488281 -7.84375 4.15625 -7.84375 Z M 6.828125 -3.859375 C 6.828125 -4.390625 6.71875 -4.851562 6.5 -5.25 C 6.28125 -5.644531 5.992188 -5.941406 5.640625 -6.140625 C 5.285156 -6.347656 4.90625 -6.453125 4.5 -6.453125 C 4.082031 -6.453125 3.695312 -6.351562 3.34375 -6.15625 C 2.988281 -5.957031 2.703125 -5.660156 2.484375 -5.265625 C 2.265625 -4.878906 2.15625 -4.421875 2.15625 -3.890625 C 2.15625 -3.359375 2.265625 -2.890625 2.484375 -2.484375 C 2.703125 -2.085938 2.988281 -1.785156 3.34375 -1.578125 C 3.707031 -1.367188 4.09375 -1.265625 4.5 -1.265625 C 4.90625 -1.265625 5.285156 -1.363281 5.640625 -1.5625 C 5.992188 -1.769531 6.28125 -2.070312 6.5 -2.46875 C 6.71875 -2.863281 6.828125 -3.328125 6.828125 -3.859375 Z M 6.828125 -3.859375 "/></g></g></g><g fill="#ffffff" fill-opacity="1"><g transform="translate(73.479866, 199.048181)"><g><path d="M 4.390625 0.125 C 3.660156 0.125 3.003906 -0.0390625 2.421875 -0.375 C 1.835938 -0.707031 1.375 -1.171875 1.03125 -1.765625 C 0.695312 -2.367188 0.53125 -3.066406 0.53125 -3.859375 C 0.53125 -4.648438 0.703125 -5.347656 1.046875 -5.953125 C 1.390625 -6.554688 1.859375 -7.019531 2.453125 -7.34375 C 3.054688 -7.675781 3.726562 -7.84375 4.46875 -7.84375 C 5.207031 -7.84375 5.875 -7.675781 6.46875 -7.34375 C 7.0625 -7.019531 7.53125 -6.554688 7.875 -5.953125 C 8.226562 -5.347656 8.40625 -4.648438 8.40625 -3.859375 C 8.40625 -3.078125 8.226562 -2.382812 7.875 -1.78125 C 7.519531 -1.175781 7.035156 -0.707031 6.421875 -0.375 C 5.804688 -0.0390625 5.128906 0.125 4.390625 0.125 Z M 4.390625 -1.265625 C 4.804688 -1.265625 5.191406 -1.359375 5.546875 -1.546875 C 5.910156 -1.742188 6.203125 -2.039062 6.421875 -2.4375 C 6.648438 -2.832031 6.765625 -3.304688 6.765625 -3.859375 C 6.765625 -4.421875 6.65625 -4.894531 6.4375 -5.28125 C 6.226562 -5.664062 5.941406 -5.957031 5.578125 -6.15625 C 5.222656 -6.351562 4.84375 -6.453125 4.4375 -6.453125 C 4.03125 -6.453125 3.648438 -6.351562 3.296875 -6.15625 C 2.941406 -5.957031 2.660156 -5.664062 2.453125 -5.28125 C 2.253906 -4.894531 2.15625 -4.421875 2.15625 -3.859375 C 2.15625 -3.035156 2.367188 -2.394531 2.796875 -1.9375 C 3.222656 -1.488281 3.753906 -1.265625 4.390625 -1.265625 Z M 4.390625 -1.265625 "/></g></g></g><g fill="#ffffff" fill-opacity="1"><g transform="translate(82.406887, 199.048181)"><g><path d="M 8.03125 -7.71875 L 8.03125 0 L 6.4375 0 L 6.4375 -0.90625 C 6.1875 -0.59375 5.859375 -0.34375 5.453125 -0.15625 C 5.046875 0.0195312 4.613281 0.109375 4.15625 0.109375 C 3.550781 0.109375 3.007812 -0.015625 2.53125 -0.265625 C 2.050781 -0.515625 1.671875 -0.882812 1.390625 -1.375 C 1.117188 -1.875 0.984375 -2.472656 0.984375 -3.171875 L 0.984375 -7.71875 L 2.5625 -7.71875 L 2.5625 -3.421875 C 2.5625 -2.722656 2.734375 -2.191406 3.078125 -1.828125 C 3.421875 -1.460938 3.894531 -1.28125 4.5 -1.28125 C 5.09375 -1.28125 5.5625 -1.460938 5.90625 -1.828125 C 6.257812 -2.191406 6.4375 -2.722656 6.4375 -3.421875 L 6.4375 -7.71875 Z M 8.03125 -7.71875 "/></g></g></g><g fill="#ffffff" fill-opacity="1"><g transform="translate(91.487819, 199.048181)"><g><path d="M 2.90625 -6.40625 L 2.90625 -2.140625 C 2.90625 -1.847656 2.972656 -1.640625 3.109375 -1.515625 C 3.242188 -1.390625 3.476562 -1.328125 3.8125 -1.328125 L 4.78125 -1.328125 L 4.78125 0 L 3.53125 0 C 2.8125 0 2.257812 -0.164062 1.875 -0.5 C 1.488281 -0.84375 1.296875 -1.390625 1.296875 -2.140625 L 1.296875 -6.40625 L 0.390625 -6.40625 L 0.390625 -7.71875 L 1.296875 -7.71875 L 1.296875 -9.625 L 2.90625 -9.625 L 2.90625 -7.71875 L 4.78125 -7.71875 L 4.78125 -6.40625 Z M 2.90625 -6.40625 "/></g></g></g><g fill="#ffffff" fill-opacity="1"><g transform="translate(19.916034, 13.652)"><g><path d="M 11.296875 -9.734375 L 11.296875 0 L 9.703125 0 L 9.703125 -6.65625 L 6.734375 0 L 5.625 0 L 2.640625 -6.65625 L 2.640625 0 L 1.046875 0 L 1.046875 -9.734375 L 2.765625 -9.734375 L 6.1875 -2.09375 L 9.59375 -9.734375 Z M 11.296875 -9.734375 "/></g></g></g><g fill="#ffffff" fill-opacity="1"><g transform="translate(32.257147, 13.652)"><g><path d="M 8.125 -4.046875 C 8.125 -3.753906 8.101562 -3.492188 8.0625 -3.265625 L 2.171875 -3.265625 C 2.210938 -2.648438 2.4375 -2.15625 2.84375 -1.78125 C 3.257812 -1.40625 3.769531 -1.21875 4.375 -1.21875 C 5.226562 -1.21875 5.832031 -1.578125 6.1875 -2.296875 L 7.90625 -2.296875 C 7.675781 -1.585938 7.253906 -1.003906 6.640625 -0.546875 C 6.023438 -0.0976562 5.269531 0.125 4.375 0.125 C 3.632812 0.125 2.972656 -0.0390625 2.390625 -0.375 C 1.804688 -0.707031 1.347656 -1.171875 1.015625 -1.765625 C 0.679688 -2.367188 0.515625 -3.066406 0.515625 -3.859375 C 0.515625 -4.648438 0.675781 -5.347656 1 -5.953125 C 1.320312 -6.554688 1.773438 -7.019531 2.359375 -7.34375 C 2.941406 -7.675781 3.613281 -7.84375 4.375 -7.84375 C 5.09375 -7.84375 5.738281 -7.679688 6.3125 -7.359375 C 6.882812 -7.046875 7.328125 -6.601562 7.640625 -6.03125 C 7.960938 -5.457031 8.125 -4.796875 8.125 -4.046875 Z M 6.453125 -4.546875 C 6.441406 -5.140625 6.226562 -5.613281 5.8125 -5.96875 C 5.40625 -6.320312 4.898438 -6.5 4.296875 -6.5 C 3.742188 -6.5 3.269531 -6.320312 2.875 -5.96875 C 2.488281 -5.625 2.257812 -5.148438 2.1875 -4.546875 Z M 6.453125 -4.546875 "/></g></g></g><g fill="#ffffff" fill-opacity="1"><g transform="translate(40.890329, 13.652)"><g><path d="M 4.9375 -7.84375 C 5.550781 -7.84375 6.097656 -7.710938 6.578125 -7.453125 C 7.054688 -7.203125 7.429688 -6.828125 7.703125 -6.328125 C 7.972656 -5.835938 8.109375 -5.242188 8.109375 -4.546875 L 8.109375 0 L 6.53125 0 L 6.53125 -4.3125 C 6.53125 -5 6.351562 -5.523438 6 -5.890625 C 5.65625 -6.265625 5.1875 -6.453125 4.59375 -6.453125 C 4 -6.453125 3.523438 -6.265625 3.171875 -5.890625 C 2.816406 -5.523438 2.640625 -5 2.640625 -4.3125 L 2.640625 0 L 1.046875 0 L 1.046875 -7.71875 L 2.640625 -7.71875 L 2.640625 -6.828125 C 2.898438 -7.148438 3.234375 -7.398438 3.640625 -7.578125 C 4.046875 -7.753906 4.476562 -7.84375 4.9375 -7.84375 Z M 4.9375 -7.84375 "/></g></g></g><g fill="#ffffff" fill-opacity="1"><g transform="translate(49.971262, 13.652)"><g><path d="M 8.03125 -7.71875 L 8.03125 0 L 6.4375 0 L 6.4375 -0.90625 C 6.1875 -0.59375 5.859375 -0.34375 5.453125 -0.15625 C 5.046875 0.0195312 4.613281 0.109375 4.15625 0.109375 C 3.550781 0.109375 3.007812 -0.015625 2.53125 -0.265625 C 2.050781 -0.515625 1.671875 -0.882812 1.390625 -1.375 C 1.117188 -1.875 0.984375 -2.472656 0.984375 -3.171875 L 0.984375 -7.71875 L 2.5625 -7.71875 L 2.5625 -3.421875 C 2.5625 -2.722656 2.734375 -2.191406 3.078125 -1.828125 C 3.421875 -1.460938 3.894531 -1.28125 4.5 -1.28125 C 5.09375 -1.28125 5.5625 -1.460938 5.90625 -1.828125 C 6.257812 -2.191406 6.4375 -2.722656 6.4375 -3.421875 L 6.4375 -7.71875 Z M 8.03125 -7.71875 "/></g></g></g><g fill="#f155e3" fill-opacity="1"><g transform="translate(48.853613, 66.1607)"><g><path d="M 9.078125 -9.765625 L 9.078125 0 L 7.109375 0 L 7.109375 -4.15625 L 2.921875 -4.15625 L 2.921875 0 L 0.96875 0 L 0.96875 -9.765625 L 2.921875 -9.765625 L 2.921875 -5.75 L 7.109375 -5.75 L 7.109375 -9.765625 Z M 9.078125 -9.765625 "/></g></g></g><g fill="#f155e3" fill-opacity="1"><g transform="translate(58.886018, 66.1607)"><g><path d="M 4.40625 0.125 C 3.664062 0.125 2.992188 -0.0390625 2.390625 -0.375 C 1.796875 -0.707031 1.328125 -1.175781 0.984375 -1.78125 C 0.640625 -2.382812 0.46875 -3.082031 0.46875 -3.875 C 0.46875 -4.664062 0.644531 -5.363281 1 -5.96875 C 1.351562 -6.582031 1.832031 -7.050781 2.4375 -7.375 C 3.039062 -7.707031 3.71875 -7.875 4.46875 -7.875 C 5.21875 -7.875 5.894531 -7.707031 6.5 -7.375 C 7.101562 -7.050781 7.578125 -6.582031 7.921875 -5.96875 C 8.273438 -5.363281 8.453125 -4.664062 8.453125 -3.875 C 8.453125 -3.082031 8.269531 -2.382812 7.90625 -1.78125 C 7.550781 -1.175781 7.066406 -0.707031 6.453125 -0.375 C 5.847656 -0.0390625 5.164062 0.125 4.40625 0.125 Z M 4.40625 -1.578125 C 4.757812 -1.578125 5.09375 -1.660156 5.40625 -1.828125 C 5.71875 -2.003906 5.96875 -2.265625 6.15625 -2.609375 C 6.34375 -2.960938 6.4375 -3.382812 6.4375 -3.875 C 6.4375 -4.613281 6.242188 -5.179688 5.859375 -5.578125 C 5.472656 -5.972656 5 -6.171875 4.4375 -6.171875 C 3.875 -6.171875 3.40625 -5.972656 3.03125 -5.578125 C 2.65625 -5.179688 2.46875 -4.613281 2.46875 -3.875 C 2.46875 -3.132812 2.648438 -2.566406 3.015625 -2.171875 C 3.378906 -1.773438 3.84375 -1.578125 4.40625 -1.578125 Z M 4.40625 -1.578125 "/></g></g></g><g fill="#f155e3" fill-opacity="1"><g transform="translate(67.813039, 66.1607)"><g><path d="M 10.59375 -7.875 C 11.550781 -7.875 12.320312 -7.582031 12.90625 -7 C 13.488281 -6.414062 13.78125 -5.597656 13.78125 -4.546875 L 13.78125 0 L 11.8125 0 L 11.8125 -4.28125 C 11.8125 -4.882812 11.65625 -5.347656 11.34375 -5.671875 C 11.039062 -5.992188 10.625 -6.15625 10.09375 -6.15625 C 9.5625 -6.15625 9.140625 -5.992188 8.828125 -5.671875 C 8.515625 -5.347656 8.359375 -4.882812 8.359375 -4.28125 L 8.359375 0 L 6.390625 0 L 6.390625 -4.28125 C 6.390625 -4.882812 6.234375 -5.347656 5.921875 -5.671875 C 5.617188 -5.992188 5.203125 -6.15625 4.671875 -6.15625 C 4.128906 -6.15625 3.703125 -5.992188 3.390625 -5.671875 C 3.078125 -5.347656 2.921875 -4.882812 2.921875 -4.28125 L 2.921875 0 L 0.96875 0 L 0.96875 -7.75 L 2.921875 -7.75 L 2.921875 -6.8125 C 3.171875 -7.144531 3.492188 -7.40625 3.890625 -7.59375 C 4.296875 -7.78125 4.734375 -7.875 5.203125 -7.875 C 5.816406 -7.875 6.359375 -7.742188 6.828125 -7.484375 C 7.304688 -7.222656 7.675781 -6.859375 7.9375 -6.390625 C 8.1875 -6.835938 8.550781 -7.195312 9.03125 -7.46875 C 9.519531 -7.738281 10.039062 -7.875 10.59375 -7.875 Z M 10.59375 -7.875 "/></g></g></g><g fill="#f155e3" fill-opacity="1"><g transform="translate(82.476856, 66.1607)"><g><path d="M 8.171875 -4.046875 C 8.171875 -3.765625 8.15625 -3.515625 8.125 -3.296875 L 2.453125 -3.296875 C 2.492188 -2.734375 2.6875 -2.289062 3.03125 -1.96875 C 3.382812 -1.65625 3.8125 -1.5 4.3125 -1.5 C 5.039062 -1.5 5.554688 -1.8125 5.859375 -2.4375 L 7.984375 -2.4375 C 7.753906 -1.6875 7.320312 -1.070312 6.6875 -0.59375 C 6.050781 -0.113281 5.273438 0.125 4.359375 0.125 C 3.609375 0.125 2.9375 -0.0390625 2.34375 -0.375 C 1.75 -0.707031 1.285156 -1.175781 0.953125 -1.78125 C 0.628906 -2.382812 0.46875 -3.082031 0.46875 -3.875 C 0.46875 -4.675781 0.628906 -5.378906 0.953125 -5.984375 C 1.273438 -6.597656 1.726562 -7.066406 2.3125 -7.390625 C 2.90625 -7.710938 3.585938 -7.875 4.359375 -7.875 C 5.085938 -7.875 5.742188 -7.71875 6.328125 -7.40625 C 6.910156 -7.09375 7.363281 -6.644531 7.6875 -6.0625 C 8.007812 -5.476562 8.171875 -4.804688 8.171875 -4.046875 Z M 6.140625 -4.609375 C 6.128906 -5.109375 5.945312 -5.507812 5.59375 -5.8125 C 5.238281 -6.113281 4.804688 -6.265625 4.296875 -6.265625 C 3.804688 -6.265625 3.394531 -6.117188 3.0625 -5.828125 C 2.738281 -5.535156 2.539062 -5.128906 2.46875 -4.609375 Z M 6.140625 -4.609375 "/></g></g></g></svg>